<svg id="Layer_1" data-name="Layer 1" xmlns="http://www.w3.org/2000/svg" viewBox="0 0 128 128"><defs><style>.cls-1{fill:#f2faff;}.cls-2{opacity:0.83;}.cls-3{fill:#5fafdc;}</style></defs><rect class="cls-1" x="24.58" y="22.15" width="50" height="50"/><g class="cls-2"><path class="cls-3" d="M104.3,97h-1.78V59.73h.89s.7.16.76-.26V55.28c-.06-.41-.34-.69-.76-.51h-16c-.41-.18-.69.1-.58.51v4.19c-.11.42.58.26.58.26h1.08V97H86V49.8h1.41A2.22,2.22,0,0,0,88.44,49V44.82A5.32,5.32,0,0,0,87.36,44H56.67s-.7.4-.53.82V49c-.17.41.11.69.53.79h2V97H56.14V59.73h.53s.7.16.3-.26V55.28c.4-.41.12-.69-.3-.51h-16c-.42-.18-1.05.51-1.05.51v4.19s.63.7,1.05.26h.61V97h-1a.7.7,0,0,0-.7.7v2.74a.7.7,0,0,0,.7.7h64a.7.7,0,0,0,.7-.7V97.7A.7.7,0,0,0,104.3,97Zm-53-9.11H46.07a.69.69,0,0,1-.69-.7V82a.7.7,0,0,1,.69-.7H51.3a.7.7,0,0,1,.7.7v5.23A.7.7,0,0,1,51.3,87.89Zm0-9.11H46.07a.69.69,0,0,1-.69-.7V72.85a.69.69,0,0,1,.69-.69H51.3a.69.69,0,0,1,.7.69v5.23A.7.7,0,0,1,51.3,78.78Zm0-9.11H46.07a.69.69,0,0,1-.69-.7V63.74a.69.69,0,0,1,.69-.69H51.3a.69.69,0,0,1,.7.69V69A.7.7,0,0,1,51.3,69.67ZM69.52,87.89H64.29a.7.7,0,0,1-.7-.7V82a.71.71,0,0,1,.7-.7h5.23a.7.7,0,0,1,.7.7v5.23A.7.7,0,0,1,69.52,87.89Zm0-9.11H64.29a.7.7,0,0,1-.7-.7V72.85a.7.7,0,0,1,.7-.69h5.23a.69.69,0,0,1,.7.69v5.23A.7.7,0,0,1,69.52,78.78Zm0-9.11H64.29a.7.7,0,0,1-.7-.7V63.74a.7.7,0,0,1,.7-.69h5.23a.69.69,0,0,1,.7.69V69A.7.7,0,0,1,69.52,69.67Zm0-9.11H64.29a.7.7,0,0,1-.7-.7V54.63a.7.7,0,0,1,.7-.69h5.23a.69.69,0,0,1,.7.69v5.23A.7.7,0,0,1,69.52,60.56Zm9.94,27.33H74.23a.7.7,0,0,1-.7-.7V82a.7.7,0,0,1,.7-.7h5.23a.71.71,0,0,1,.7.7v5.23A.7.7,0,0,1,79.46,87.89Zm0-9.11H74.23a.7.7,0,0,1-.7-.7V72.85a.69.69,0,0,1,.7-.69h5.23a.7.7,0,0,1,.7.69v5.23A.7.7,0,0,1,79.46,78.78Zm0-9.11H74.23a.7.7,0,0,1-.7-.7V63.74a.69.69,0,0,1,.7-.69h5.23a.7.7,0,0,1,.7.69V69A.7.7,0,0,1,79.46,69.67Zm0-9.11H74.23a.7.7,0,0,1-.7-.7V54.63a.69.69,0,0,1,.7-.69h5.23a.7.7,0,0,1,.7.69v5.23A.7.7,0,0,1,79.46,60.56ZM97.68,87.89H92.45a.7.7,0,0,1-.7-.7V82a.7.7,0,0,1,.7-.7h5.23a.71.71,0,0,1,.7.7v5.23A.7.7,0,0,1,97.68,87.89Zm0-9.11H92.45a.7.7,0,0,1-.7-.7V72.85a.69.69,0,0,1,.7-.69h5.23a.7.7,0,0,1,.7.69v5.23A.7.7,0,0,1,97.68,78.78Zm0-9.11H92.45a.7.7,0,0,1-.7-.7V63.74a.69.69,0,0,1,.7-.69h5.23a.7.7,0,0,1,.7.69V69A.7.7,0,0,1,97.68,69.67Z"/><rect class="cls-3" x="75.19" y="73.81" width="3.31" height="3.31"/><rect class="cls-3" x="65.25" y="73.81" width="3.31" height="3.31"/><rect class="cls-3" x="75.19" y="82.92" width="3.31" height="3.31"/><rect class="cls-3" x="75.19" y="64.7" width="3.31" height="3.31"/><rect class="cls-3" x="65.25" y="64.7" width="3.31" height="3.31"/><rect class="cls-3" x="65.25" y="82.92" width="3.31" height="3.31"/><rect class="cls-3" x="65.25" y="55.59" width="3.31" height="3.31"/><rect class="cls-3" x="75.19" y="55.59" width="3.31" height="3.31"/><rect class="cls-3" x="47.03" y="82.92" width="3.31" height="3.31"/><rect class="cls-3" x="47.03" y="73.81" width="3.31" height="3.31"/><rect class="cls-3" x="47.03" y="64.7" width="3.31" height="3.31"/><rect class="cls-3" x="93.41" y="82.92" width="3.31" height="3.31"/><rect class="cls-3" x="93.41" y="64.7" width="3.31" height="3.31"/><rect class="cls-3" x="93.41" y="73.81" width="3.31" height="3.31"/></g></svg>