<svg id="Layer_1" data-name="Layer 1" xmlns="http://www.w3.org/2000/svg" viewBox="0 0 128 128"><defs><style>.cls-1{fill:#f2faff;}.cls-2{fill:#5fafdc;}</style></defs><rect class="cls-1" x="24.58" y="22.15" width="50" height="50"/><path class="cls-2" d="M102,90.21,91.71,64.26a1.43,1.43,0,0,0-.21-.49,4,4,0,0,0-5.61-.8,4,4,0,0,0-1.29,1.65.51.51,0,0,0,0,.13.69.69,0,0,0,0,.24,1,1,0,0,0,0,.25v.13l.54,2.31H82.53V60.63a1.23,1.23,0,0,0-1.23-1.24H77.42V51.67a1.24,1.24,0,0,0-1.23-1.24,1.2,1.2,0,0,0-.33,0L66.92,53a1.24,1.24,0,0,0-.91,1.2V67.68H64.17V58.31a1.24,1.24,0,0,0-1.24-1.23H56.4a1.23,1.23,0,0,0-1.23,1.23v9.37H52.63l.53-2.3a.66.66,0,0,0,0-.14,1,1,0,0,0,0-.24,1,1,0,0,0,0-.25.28.28,0,0,0,0-.13,4,4,0,0,0-6.89-.84,1.38,1.38,0,0,0-.21.48L35.7,90.21a.13.13,0,0,0,0,.06A6.53,6.53,0,0,0,35,93.15a6.64,6.64,0,0,0,6.63,6.63H96.07a6.64,6.64,0,0,0,6.63-6.63,6.53,6.53,0,0,0-.69-2.88A.13.13,0,0,0,102,90.21ZM88.29,64.65a1.49,1.49,0,0,1,1.1.48L98,86.84a6.43,6.43,0,0,0-5.76.89L87.06,65.29A1.5,1.5,0,0,1,88.29,64.65Zm-8.23-2.79v24.3a1,1,0,0,0,.07.34H77.36a1,1,0,0,0,.06-.34V61.86ZM75,53.3V86.16a1.37,1.37,0,0,0,.07.34h-6.6a1.37,1.37,0,0,0,.07-.34V68.93h0V55.09ZM66,70.15v12.3H64.17V70.15Zm-4.32-10.6v9.33s0,0,0,0,0,0,0,0V82.45h-4V59.55Zm-11,5.74L45.46,87.73a6.45,6.45,0,0,0-5.77-.89L48.3,65.13A1.5,1.5,0,0,1,50.42,65a1.64,1.64,0,0,1,.21.25Zm45.43,32H41.63a4.16,4.16,0,1,1,3.49-6.41,1.23,1.23,0,0,0,1.71.36,1.2,1.2,0,0,0,.53-.75l4.7-20.35h3.11v12.3H52a1.24,1.24,0,0,0,0,2.47H66v1.24a1.37,1.37,0,0,0,.07.34H60.47a1.24,1.24,0,1,0,0,2.47H83.83a1.24,1.24,0,1,0,0-2.47H82.47a1.37,1.37,0,0,0,.07-.34v-16h3.1l4.7,20.35a1.24,1.24,0,0,0,1,.94,1.22,1.22,0,0,0,1.25-.55,4.16,4.16,0,1,1,3.49,6.41ZM69.28,83.76a1.23,1.23,0,0,1,1.23-1.23h2.41a1.24,1.24,0,1,1,0,2.47H70.51A1.23,1.23,0,0,1,69.28,83.76Zm0-4.33a1.23,1.23,0,0,1,1.23-1.23h2.41a1.24,1.24,0,1,1,0,2.47H70.51a1.23,1.23,0,0,1-1.23-1.24Zm0-4.33a1.24,1.24,0,0,1,1.23-1.24h2.41a1.24,1.24,0,0,1,0,2.48H70.51a1.23,1.23,0,0,1-1.23-1.23Zm0-4.33a1.24,1.24,0,0,1,1.23-1.24h2.41a1.24,1.24,0,0,1,0,2.48H70.51a1.24,1.24,0,0,1-1.23-1.23Zm0-4.33a1.24,1.24,0,0,1,1.23-1.24h2.41a1.24,1.24,0,0,1,0,2.48H70.51a1.24,1.24,0,0,1-1.23-1.22Zm0-4.33a1.24,1.24,0,0,1,1.23-1.24h2.41a1.24,1.24,0,0,1,0,2.48H70.51a1.24,1.24,0,0,1-1.23-1.22Zm0-4.33a1.24,1.24,0,0,1,1.23-1.24h2.41a1.24,1.24,0,0,1,0,2.48H70.51a1.23,1.23,0,0,1-1.23-1.22Zm-10.75,6a1.1,1.1,0,0,1-.1-.47,1.27,1.27,0,0,1,.36-.88,1.29,1.29,0,0,1,1.35-.26,1.31,1.31,0,0,1,.4.26,1.27,1.27,0,0,1,.36.88,1.17,1.17,0,0,1-.36.88,1.56,1.56,0,0,1-.4.27,1.38,1.38,0,0,1-.94,0,1.62,1.62,0,0,1-.41-.27A1.06,1.06,0,0,1,58.53,63.77Zm0,4.36a1.18,1.18,0,0,1,0-.94.93.93,0,0,1,.26-.41,1.26,1.26,0,0,1,1.12-.34l.23.07a1.19,1.19,0,0,1,.22.12.65.65,0,0,1,.18.15,1.37,1.37,0,0,1,.36.88,1.09,1.09,0,0,1-.08.47,1.33,1.33,0,0,1-.28.39,1.21,1.21,0,0,1-1.73,0A1.25,1.25,0,0,1,58.53,68.13Zm.26,4.75a1.24,1.24,0,0,1,.88-2.11,1.27,1.27,0,0,1,.47.09,1.09,1.09,0,0,1,.4.27,1.23,1.23,0,0,1,.36.87,1.18,1.18,0,0,1-.36.88,1.56,1.56,0,0,1-.4.27,1.27,1.27,0,0,1-.94,0A1.17,1.17,0,0,1,58.79,72.88Zm0,4.34a1.15,1.15,0,0,1-.36-.87,1.1,1.1,0,0,1,.1-.47,1.31,1.31,0,0,1,.26-.4,1.19,1.19,0,0,1,.18-.15,1,1,0,0,1,.23-.12.88.88,0,0,1,.23-.07,1.24,1.24,0,0,1,1.11.34,1.31,1.31,0,0,1,.26.4,1,1,0,0,1,.1.47,1.15,1.15,0,0,1-.36.87,1.09,1.09,0,0,1-.4.27,1.1,1.1,0,0,1-.94,0A1,1,0,0,1,58.79,77.22Zm-.26,4a1.1,1.1,0,0,1-.1-.47,1.27,1.27,0,0,1,.36-.88,1.39,1.39,0,0,1,.41-.27,1.23,1.23,0,0,1,1.34.27,1.27,1.27,0,0,1,.36.88,1.09,1.09,0,0,1-.08.47,1.33,1.33,0,0,1-.28.39,1.22,1.22,0,0,1-1.73,0l0,0a1.16,1.16,0,0,1-.26-.39ZM74.16,92.93a1.23,1.23,0,0,1-1.24,1.23h-1.2a1.24,1.24,0,1,1,0-2.47h1.2a1.23,1.23,0,0,1,1.24,1.24Zm-4.84,0a1.23,1.23,0,0,1-1.24,1.23H58.22a1.24,1.24,0,1,1,0-2.47h9.86a1.23,1.23,0,0,1,1.24,1.24Zm35.53-39.07a1.24,1.24,0,0,1-1.24,1.24H99.35a1.23,1.23,0,0,1-1.24-1.24A1.14,1.14,0,0,0,97,52.72a1.25,1.25,0,0,1-1.25-1.23,3.34,3.34,0,0,0-6.61-.75,1.23,1.23,0,0,1-1.46.95,1.15,1.15,0,0,1-.59-.3A1.42,1.42,0,0,0,85,53.27a1.24,1.24,0,0,1-2,1.46,3.9,3.9,0,0,1,4.29-6,5.93,5.93,0,0,1,1.22-1.56,1.26,1.26,0,0,0,0-.27,1.79,1.79,0,0,0-1.81-1.8,1.72,1.72,0,0,0-.89.24,1.24,1.24,0,0,1-1.69-.45,1.2,1.2,0,0,1-.13-.31,2.85,2.85,0,0,0-5.61.74,2.93,2.93,0,0,0,.16.93,1.24,1.24,0,0,1-.78,1.56,1.32,1.32,0,0,1-.39.06H70.51a1.24,1.24,0,0,1,0-2.47H75.9V45.3a5.33,5.33,0,0,1,10-2.62,4.29,4.29,0,0,1,5,3.14,5.82,5.82,0,0,1,7.28,4.61,3.67,3.67,0,0,1,2.25,2.19h3.24a1.25,1.25,0,0,1,1.25,1.24Z"/></svg>