<svg xmlns="http://www.w3.org/2000/svg" xmlns:xlink="http://www.w3.org/1999/xlink" viewBox="0 0 128 128"><defs><style>.a{fill:none;}.b{fill:#f2faff;}.c{clip-path:url(#a);}.d{fill:#5fafdc;}</style><clipPath id="a"><rect class="a" x="33" y="35" width="70.57" height="68.92"/></clipPath></defs><rect class="b" x="24.45" y="26" width="50" height="50"/><g class="c"><g class="c"><path class="d" d="M68.3,37.69H99.21a3.17,3.17,0,0,1,.44,0,1.06,1.06,0,0,1,.94,1,2.09,2.09,0,0,1,0,.25V88.13a1.63,1.63,0,0,1,0,.49,1.09,1.09,0,0,1-1,.77h-18c-.35,0-.35,0-.35.36v4.69a1.21,1.21,0,0,1,0,.19c0,.1,0,.16.14.14h.2c2,0,4,0,6,0a1.17,1.17,0,0,1,.82.28,1.1,1.1,0,0,1,.26.35q1,2.11,2.11,4.21a1.1,1.1,0,0,1-.37,1.46.89.89,0,0,1-.42.15H46.66a1.06,1.06,0,0,1-.9-1.49c0-.1.09-.2.14-.3.66-1.32,1.33-2.64,2-4a1.15,1.15,0,0,1,1.13-.7c2,0,4,0,6.05,0,.35,0,.3,0,.3-.31v-5c0-.07,0-.1-.1-.1h-18a1.63,1.63,0,0,1-.49,0A1.07,1.07,0,0,1,36,88.4c0-.1,0-.2,0-.3Q36,63.55,36,39a1.34,1.34,0,0,1,0-.2A1.06,1.06,0,0,1,37,37.69H68.3m0,49.54H98.1c.34,0,.34,0,.34-.34V40.19c0-.41,0-.35-.35-.35H38.49c-.42,0-.37-.06-.37.37V86.88c0,.4,0,.35.36.35h29.8m0,7.54H78.93c.1,0,.13,0,.13-.13a1.21,1.21,0,0,1,0-.19V89.73c0-.39,0-.34-.34-.34H57.83a.86.86,0,0,1-.16,0c-.13,0-.16,0-.15.16v4.91c0,.37,0,.31.3.31H68.28m19.8,4.3-1-2a.19.19,0,0,0-.22-.13H49.78c-.16,0-.24,0-.32.19-.28.58-.57,1.16-.86,1.73,0,.07-.09.12-.06.22Z"/><path class="d" d="M68.28,85.08h-27a1.07,1.07,0,0,1-1-1,2.61,2.61,0,0,1,0-.28V43.3a1.86,1.86,0,0,1,0-.47,1.08,1.08,0,0,1,1-.83H95a1.83,1.83,0,0,1,.52,0,1.06,1.06,0,0,1,.79,1V84a1,1,0,0,1-1,1h-27m0-40.92H42.77c-.39,0-.33-.06-.33.33q0,19,0,38.1c0,.38-.06.34.33.34h51c.4,0,.35,0,.35-.36V44.5c0-.34,0-.34-.35-.34Z"/><path class="d" d="M56.43,63.74v-3c0-.23,0-.24-.23-.28l-1-.2A1.08,1.08,0,0,1,54.31,59a1.28,1.28,0,0,1,.33-.56c.9-1.06,1.81-2.11,2.71-3.16l3.54-4.14a1.54,1.54,0,0,1,.88-.52l9.38-2.09a1.19,1.19,0,0,1,1.35.56q2.59,4.18,5.21,8.35a1.38,1.38,0,0,1,.26.64,1.05,1.05,0,0,1-.68,1.09.76.76,0,0,1-.16.06c-.23.07-.23.07-.23.31,0,2,0,4,0,6A1.22,1.22,0,0,1,76,66.77c-3.15,1-6.29,2.09-9.43,3.14a1.52,1.52,0,0,1-.87,0L57.4,67.85a1.11,1.11,0,0,1-1-1.22V63.74m6.92-11.28a2.26,2.26,0,0,0,.11.26l2.37,5.34c.27.61.55,1.23.81,1.84.06.14.13.19.27.13L67,60l7-2.08,1.25-.38a.91.91,0,0,0-.07-.14L71.1,50.9c-.08-.12-.15-.13-.29-.1l-3.62.8-3.84.86M67.2,67.39a.22.22,0,0,0,.17,0L74.54,65a.25.25,0,0,0,.2-.3V60.14c0-.06,0-.12,0-.18a.52.52,0,0,0-.21,0l-7,2.12c-.25.07-.25.07-.25.34v4.93ZM58.6,61a.88.88,0,0,0,0,.14c0,1.54,0,3.07,0,4.6,0,.16.05.22.21.26l6,1.49c.08,0,.16.09.26,0a.22.22,0,0,0,0-.08c0-1.65,0-3.31,0-5,0-.15,0-.22-.2-.23l-.16,0-3.48-.7L58.6,61m5.7-1.06c-.93-2.09-1.84-4.15-2.77-6.23l-4.16,4.85,6.93,1.38"/><path class="d" d="M75.84,75.7l0,0a3.17,3.17,0,0,1-.74.89l-2.57,2.56a.64.64,0,0,1-.19.18l-1.51-1.52,1.31-1.32s0,0,0,0H59l1.39,1.4c-.49.48-1,1-1.43,1.43-.08.08-.13.06-.2,0l-.92-.93c-.67-.66-1.33-1.33-2-2a2.26,2.26,0,0,1-.52-.62v2.68c0,.21,0,.21-.21.21H53.4c-.19,0-.2,0-.2-.2V72.35c0-.19,0-.19.21-.2h1.72c.23,0,.23,0,.23.23V75a3.26,3.26,0,0,1,.62-.71l2.87-2.87q.76.75,1.5,1.5L59,74.24c.24.08,12.71.09,13.05,0-.1-.11-.19-.21-.29-.3-.3-.31-.61-.62-.92-.92-.09-.09-.12-.14,0-.25l1.39-1.38c.09,0,.13.08.18.13l3,3a1.32,1.32,0,0,1,.32.45s.05.07.1,0v.69"/><path class="d" d="M88.06,66.77c.13.11.22.16.29.23l3.18,3.18.19.2a1.06,1.06,0,0,1,0,1.4l-.12.12L88.46,75a1.08,1.08,0,0,1-1.41.15l-.23-.2-3.23-3.24a2,2,0,0,1-.2-.26l-1,1-.37.38a1.09,1.09,0,0,1-1.87-.62L80,70.81l-.42-3.38c-.12-1-.24-1.89-.35-2.83,0-.26-.07-.52-.1-.77a1.19,1.19,0,0,1,.11-.81,1,1,0,0,1,1-.55c.38,0,.76.09,1.13.14l2.92.36,3.35.42,1.16.14a1.08,1.08,0,0,1,1,.88,1,1,0,0,1-.33,1l-1.14,1.13a1.89,1.89,0,0,1-.27.22M82,69.84l.58-.58a1.09,1.09,0,0,1,1.59,0l3.27,3.28.14.13c.06.08.11.08.18,0l.27-.28,1.18-1.17c.15-.16.2-.14,0-.32l-.13-.14-3.18-3.18a1.09,1.09,0,0,1,0-1.68l.52-.52-5.06-.63c.21,1.69.42,3.35.63,5.06"/><path class="d" d="M49.25,50.69a.77.77,0,0,1,.4.23l3.18,3.18,0,0c0,.08-.08.12-.13.17L51.5,55.56c-.1.1-.16.11-.26,0l-1-1a.82.82,0,0,0-.22-.19V65.23l1.33-1.34,1.54,1.55a2.25,2.25,0,0,0-.21.17L49.8,68.47a2.23,2.23,0,0,1-.56.44h2.67c.22,0,.22,0,.22.21v1.75c0,.19,0,.2-.19.2H45.86c-.19,0-.2,0-.2-.2V69.13c0-.21,0-.21.22-.21h2.73a5.13,5.13,0,0,1-1.25-1.09c-.76-.74-1.5-1.49-2.24-2.24l-.2-.15,1.54-1.55c.42.41.86.86,1.34,1.34V54.35c-.1,0-.14.11-.2.16l-1,1c-.15.15-.14.17-.3,0L45.05,54.3c-.15-.14-.16-.12,0-.29l3-3a1.68,1.68,0,0,1,.54-.37h0a2.75,2.75,0,0,1,.64,0"/><path class="d" d="M49.25,50.69a2.75,2.75,0,0,0-.64,0c-.08-.09-.17,0-.26,0H45.91c-.29,0-.25,0-.25-.26V48.72c0-.25,0-.26.25-.26h6c.23,0,.23,0,.23.22V50.4c0,.21,0,.21-.21.21H49.37s-.15,0-.12.08"/><path class="d" d="M75.84,75.7V75c0-.45,0-.91,0-1.36s0-.85,0-1.28c0-.21,0-.21.2-.21h1.72c.22,0,.22,0,.22.24v6.1c0,.09,0,.13-.13.13H76c-.12,0-.14-.06-.13-.15s0-.41,0-.61c0-.72,0-1.44,0-2.16"/><path class="d" d="M85.53,61.38h-.94c-.1,0-.15,0-.15-.13a9.89,9.89,0,0,0-.16-1.63c0-.13,0-.17.14-.2.6-.11,1.2-.23,1.79-.36.13,0,.16,0,.18.13a13.43,13.43,0,0,1,.21,2c0,.15,0,.2-.18.2h-.89"/><path class="d" d="M76.43,51.69c.1-.61.21-1.23.31-1.86,0-.09.06-.12.16-.1a13.63,13.63,0,0,1,2,.55c.13,0,.15.1.1.22-.23.57-.45,1.13-.66,1.7,0,.11-.09.14-.21.1a8.48,8.48,0,0,0-1.57-.43c-.08,0-.17,0-.12-.18"/><path class="d" d="M84.53,54.7a11.47,11.47,0,0,1,1.07,1.93c.05.11,0,.16-.08.21q-.85.34-1.71.72c-.09,0-.14,0-.19-.07A8.16,8.16,0,0,0,82.83,56c-.06-.09-.06-.14,0-.2l1.67-1.14"/><path class="d" d="M81.14,51.43A9,9,0,0,1,83,52.9l-1.46,1.5c-.09,0-.12-.06-.16-.1a9.36,9.36,0,0,0-1.22-1c-.16-.11-.16-.11-.06-.27l1-1.64"/></g></g></svg>