<svg id="Layer_1" data-name="Layer 1" xmlns="http://www.w3.org/2000/svg" viewBox="0 0 128 128"><defs><style>.cls-1{fill:#f2faff;}.cls-2{fill:#5fafdc;}</style></defs><rect class="cls-1" x="25" y="23" width="50" height="50"/><path class="cls-2" d="M103.48,46.39H46.05a5.52,5.52,0,0,0-5.52,5.52V87.25a5.52,5.52,0,0,0,5.52,5.52H62.61V95h-1.1a3.31,3.31,0,0,0-3.31,3.31v3.32H91.33V98.29A3.32,3.32,0,0,0,88,95H86.91V92.77h6.75s0,0,0,0h0a3.37,3.37,0,0,1,.71,0c.36,0,.71,0,1.07,0h8A5.53,5.53,0,0,0,109,87.25V51.91A5.52,5.52,0,0,0,103.48,46.39ZM88,97.19a1.1,1.1,0,0,1,1.1,1.1V99.4H60.41V98.29a1.1,1.1,0,0,1,1.1-1.1ZM64.82,95V92.77H84.7V95Zm42-7.73a3.31,3.31,0,0,1-3.31,3.31H46.05a3.32,3.32,0,0,1-3.32-3.31v-1.1H65.28l2.21-2.21H82l2.21,2.21h22.54Zm0-3.31H85.16L83,81.73H66.57l-2.2,2.21H42.73v-32a3.32,3.32,0,0,1,3.32-3.31h57.43a3.31,3.31,0,0,1,3.31,3.31Z"/><rect class="cls-2" x="79.18" y="86.15" width="2.21" height="2.21"/><rect class="cls-2" x="72.55" y="86.15" width="4.42" height="2.21"/><rect class="cls-2" x="68.14" y="86.15" width="2.21" height="2.21"/><path class="cls-2" d="M80.29,65.38,85.44,53h19.14V50.8H84L78.44,64.06H71.16a11.83,11.83,0,0,0-7.44-8.53V50.8H61.51v4.73a11.84,11.84,0,0,0-7.45,8.53H44.94V79.52H80.29ZM73.66,77.31H71.45V70.68h2.21Zm-8.84,0H60.41V69.58a1.11,1.11,0,0,1,1.1-1.11h2.21a1.11,1.11,0,0,1,1.1,1.11Zm-1.1-11H61.51a3.31,3.31,0,0,0-3.31,3.31v7.73H56V66.57a9.17,9.17,0,0,1,.35-2.51H68.89a9.17,9.17,0,0,1,.35,2.51V77.31H67V69.58A3.31,3.31,0,0,0,63.72,66.27Zm-9.94,11H51.57V70.68h2.21Zm8.83-19.83A9.56,9.56,0,0,1,68,61.85H57.26A9.54,9.54,0,0,1,62.61,57.48ZM47.15,66.27h6.64c0,.1,0,.2,0,.3v1.9H49.36v8.84H47.15Zm30.93,11H75.87V68.47H71.45v-1.9c0-.1,0-.2,0-.3h6.64Z"/><rect class="cls-2" x="91.33" y="55.22" width="13.25" height="2.21"/><rect class="cls-2" x="86.91" y="55.22" width="2.21" height="2.21"/><rect class="cls-2" x="86.91" y="59.64" width="17.67" height="2.21"/><rect class="cls-2" x="102.37" y="64.06" width="2.21" height="2.21"/><rect class="cls-2" x="86.91" y="64.06" width="13.25" height="2.21"/><path class="cls-2" d="M84.7,81.73h19.88V68.47H84.7Zm2.21-11h15.46v8.84H86.91Z"/></svg>