<svg id="Layer_1" data-name="Layer 1" xmlns="http://www.w3.org/2000/svg" viewBox="0 0 128 128"><defs><style>.cls-1{fill:#f2faff;}.cls-2{fill:#5fafdc;}</style></defs><rect class="cls-1" x="24.58" y="22.15" width="50" height="50"/><path class="cls-2" d="M72.74,62.18a9.07,9.07,0,1,0,9.06,9.07A9.09,9.09,0,0,0,72.74,62.18Zm0,15.87a6.8,6.8,0,1,1,6.8-6.8A6.82,6.82,0,0,1,72.74,78.05Z"/><path class="cls-2" d="M97.89,72.38h3.29A4,4,0,0,0,109,71.25a4,4,0,0,0-4-4,4.17,4.17,0,0,0-3.85,2.83H97.89V51.64h3.29A4,4,0,0,0,109,50.51a4,4,0,0,0-4-4,4.16,4.16,0,0,0-3.85,2.84H96.76a1.07,1.07,0,0,0-1.13,1.13v19.6H91.21V68.87a1.07,1.07,0,0,0-1.13-1.14h-2.5a17.38,17.38,0,0,0-1.81-4.53l1.7-1.7a1.09,1.09,0,0,0,0-1.58l-3.4-3.4a1.09,1.09,0,0,0-1.59,0l-1.7,1.7a15.84,15.84,0,0,0-4.53-1.93V53.8a1.07,1.07,0,0,0-1.13-1.14H70.24a1.07,1.07,0,0,0-1.13,1.14v2.49a17.24,17.24,0,0,0-4.53,1.81l-1.7-1.7a1.11,1.11,0,0,0-1.59,0l-3.4,3.4a1.11,1.11,0,0,0,0,1.59l1.7,1.7a13.22,13.22,0,0,0-1.81,4.53H55.29a1.07,1.07,0,0,0-1.14,1.13v1.36h-4.3V50.51a1.07,1.07,0,0,0-1.14-1.13H44.29a4,4,0,0,0-7.81,1.13,4,4,0,0,0,4,4,4.15,4.15,0,0,0,3.85-2.84h3.29V70.11H44.29a4,4,0,1,0-3.85,5.1,4.14,4.14,0,0,0,3.85-2.83h3.29V90.85H44.29A4,4,0,1,0,40.44,96a4.16,4.16,0,0,0,3.85-2.83h4.42A1.08,1.08,0,0,0,49.85,92V72.38h4.3v1.25a1.07,1.07,0,0,0,1.14,1.13h2.49a17.24,17.24,0,0,0,1.81,4.53L57.89,81a1.07,1.07,0,0,0-.34.8,1,1,0,0,0,.34.79l3.4,3.4a1.11,1.11,0,0,0,1.59,0l1.7-1.7a13,13,0,0,0,4.53,1.81v2.5a1.07,1.07,0,0,0,1.13,1.13h4.88a1.07,1.07,0,0,0,1.13-1.13v-2.5a17.24,17.24,0,0,0,4.53-1.81l1.7,1.7a1.11,1.11,0,0,0,1.59,0l3.4-3.4a1.11,1.11,0,0,0,0-1.59l-1.7-1.7a13,13,0,0,0,1.81-4.53h2.5a1.07,1.07,0,0,0,1.13-1.13V72.38h4.42V92a1.07,1.07,0,0,0,1.13,1.14h4.42A4,4,0,1,0,105,88a4.17,4.17,0,0,0-3.85,2.83H97.89ZM105,69.55a1.7,1.7,0,1,1-1.7,1.7A1.55,1.55,0,0,1,105,69.55Zm0-20.85a1.7,1.7,0,1,1-1.7,1.7A1.6,1.6,0,0,1,105,48.7ZM40.44,52.21a1.7,1.7,0,1,1,0-3.4,1.74,1.74,0,0,1,1.7,1.7A1.6,1.6,0,0,1,40.44,52.21Zm0,41.59a1.7,1.7,0,1,1,0-3.4,1.74,1.74,0,0,1,1.7,1.7A1.61,1.61,0,0,1,40.44,93.8Zm0-20.85a1.7,1.7,0,1,1,0-3.4,1.74,1.74,0,0,1,1.7,1.7A1.55,1.55,0,0,1,40.44,73Zm48.62-.46H86.79a1.22,1.22,0,0,0-1.13.91,14.69,14.69,0,0,1-2.16,5.33,1.2,1.2,0,0,0,.12,1.47l1.58,1.59-1.92,1.92-1.59-1.58A1.18,1.18,0,0,0,80.22,82a11.54,11.54,0,0,1-5.33,2.16A1.1,1.1,0,0,0,74,85.3v2.27h-2.6V85.3a1.22,1.22,0,0,0-.91-1.13A12.75,12.75,0,0,1,65.15,82a1.21,1.21,0,0,0-1.48.12l-1.58,1.58-1.82-1.92,1.59-1.59A1.18,1.18,0,0,0,62,78.73a11.63,11.63,0,0,1-2.15-5.33,1.1,1.1,0,0,0-1.13-.91H56.42v-2.6h2.27A1.23,1.23,0,0,0,59.82,69,13,13,0,0,1,62,63.65a1.19,1.19,0,0,0-.11-1.47L60.27,60.6l1.82-1.82,1.58,1.59a1.2,1.2,0,0,0,1.48.11,11.55,11.55,0,0,1,5.32-2.15,1.1,1.1,0,0,0,.91-1.13V54.93H74V57.2a1.23,1.23,0,0,0,.91,1.13,13,13,0,0,1,5.33,2.15,1.19,1.19,0,0,0,1.47-.11l1.59-1.59,1.81,1.82L83.5,62.18a1.18,1.18,0,0,0-.11,1.47A11.52,11.52,0,0,1,85.54,69a1.11,1.11,0,0,0,1.14.91h2.26v2.6Zm16,17.8a1.7,1.7,0,1,1-1.7,1.69A1.6,1.6,0,0,1,105,90.29Z"/></svg>