<svg id="Layer_1" data-name="Layer 1" xmlns="http://www.w3.org/2000/svg" viewBox="0 0 128 128"><defs><style>.cls-1{fill:#f2faff;}.cls-2{fill:#5fafdc;}</style></defs><rect class="cls-1" x="24.58" y="22.15" width="50" height="50"/><path class="cls-2" d="M38.07,81l0,0s0,0,0,0l9.42,9.4h0s0,0,0,0h0L63.84,96H82.72L99,90.58a0,0,0,0,1,0,0h0s0,0,0,0h0l9.38-9.4h0a.08.08,0,0,0,0,0s0,0,0,0h0V70.19h0s0,0,0-.05,0,0,0,0l-9.38-9.4h0a0,0,0,0,1,0,0l-.8-.54-.84-.61h0l-.94-.66h0l-1-.7-1.15-.82h0L93,56.44h0l-1.45-1h0l-1.74-1.22h0l-2.08-1.46-2.65-1.85h0l-3.56-2.53h0l-5.6-4h0l0,0-1.64-.54H72.33a0,0,0,0,1,0,0s0,0,0,0h0l-1.62.54,0,0h0l-5.62,4h0l-3.56,2.53h0l-2.62,1.86h0l-2.09,1.45h0L55,55.39h0l-1.48,1h0l-1.24.89h0l-1.14.82-1,.7h0l-.93.66h0l-.84.61h0l-.75.54a0,0,0,0,1,0,0h0l-9.42,9.4h0s0,0,0,0a.08.08,0,0,1,0,.05V81h0ZM54.94,56l.24-.28.06,0Zm15-9h0l.11.08.4.41-6.31,5.47,5.62-6.15ZM50.8,67.55l5.31,5.31-7.39-3Zm49.12,4.51-6.27,6.26,4.5-8.15ZM48.44,70.13l5.77,5.75L46.71,72Zm8.46,3.41,9.26,3.07-10.8-.25Zm37.08,8-11.46,3.8,10.35-5.87ZM46.44,72.31l6.13,6.15L44.94,74Zm8.73,4.41,10.09,3.36-11.38-1Zm-1.48,2.75L64.42,83,52.63,81.52Zm1.3.08,11.45,1L66,83.19Zm-1.6-.22-1.07,2-6.58-6.57Zm12.52,4.23-.41,2.28L54.05,82Zm14.85,2.33H67.52L80.36,83.6Zm-14.92,0,.4-2.27H78.6Zm.94-5.32H78.4L66.31,83.2ZM67.41,77h10.7L66.85,80.13Zm-.9,3.18L56.19,76.71,67.08,77ZM53.57,79,47.31,72.7l7.55,3.89Zm-8.72-5.43V66.47L46.25,72Zm-.34-8.08v6.85l-1.19-5.91Zm.18,8.75,6.44,6.42-7.74-5Zm7.76,7.63,11.19,3.71L51.48,83.64Zm13.32,4.37h13l-13.34,2Zm26.58-3.78L81.48,88.17l-.33-2Zm2.77-1.93,5.06-8.18L101.64,74Zm5.67-5.22-5.4,8.14-1-1.76Zm-6.56,6-1.09-2,6.12-6.1ZM81.08,85.8l-.4-2.28L91.37,80ZM67.63,83.25,79.8,80.56l.49,2.69Zm.22-3L79.18,77l.55,3.19Zm.33-3.56,10.24-3.92.7,3.92Zm-.69-.1.69-3.88h9.46ZM44.87,65.2l1.4-1.09v6.62Zm-.37,8.74-1.2,1.31V68Zm7.65,7.77-1,1.78-6.81-6.82ZM65.44,86.2l-.38,2-11.87-4Zm15.38,0,.34,2H67.42Zm13.34-4.37,1,1.79-11.89,4Zm7.73-7.62,1.31,1.41-6.76,6.78Zm.14-.34V67.39l1.16,7.78Zm.06-8.4,1.18.91v7ZM101.7,72l-1.31-7.81,1.31,1Zm-.1,1.47L100.32,72V65.78ZM81.76,82.81l9.66-6,1.28,2.41Zm-1.15.33-.49-2.66,10.09-3.36Zm-1.1-6.22,9.24-3.08-8.7,6.23Zm-.77-4.32,8.2-2.72-7.51,6.6Zm-10.07-.28,8.79-5,.89,5Zm-1.53,4.26-9.48-3.14,10.18-.77Zm-12.09-.33-5.91-5.89,7.45,3.06Zm-8.44-4.61V64.82l1.63,5Zm-3.64-5v7l-1.06-6.19Zm.17,9.23,6.66,6.66L42,77.17Zm8.16,8,11.58,3.86L50.45,85.54Zm14,4.62H78.74L65,90.34Zm27.83-3.92-11.3,5.62-.31-1.75Zm9-7.47-5.77,8.14-.8-1.54Zm1.45-8.27,1,7.77-1-1.09ZM100,70.44l-1.62-7.83L100,63.85Zm-.12,1.08-1.59-1.7v-6Zm-6.93,7.39-1.25-2.36,5.71-5.71Zm-12,1,8.77-6.28,1.55,2.85Zm-.87-3.48,7.57-6.65,1.89,3.51Zm-1-4.23L85,64.87l2.43,4.5Zm-.39-.05-.88-4.93,6.75-2.26Zm-10.38.07.85-5H77Zm-.36.1-8.4-2.78,9.27-2.22Zm-.71.12-10.09.76L59,69.67ZM46.63,63.83l1.63-1.28v6.29ZM43,75.62l-1.07,1.15V69.42Zm8,8.19-.85,1.57-7-7Zm14,4.75-.3,1.76L52.51,86.26Zm16.22,0,.31,1.76H67.46ZM95.3,84l.82,1.58L84,89.62Zm8.15-8,1.16,1.26-7,7Zm.2-9.21,1,.8v7.09ZM98,62.28v6.23l-1.9-7.73ZM92,75.74l3.79-8.13,2.06,2.27Zm-.56.41L90,73.36l5.27-5.26Zm-3.6-6.65,4.67-4.67-2.83,8.09Zm-2.65-4.9,3.85-3.85L87.58,69Zm-7.34,2.18,3.59-8.48,3.3,6.17Zm-8.5.11L76.16,60l1.23,6.9ZM62,64.14l3.22-6,4.72,1.57ZM70.07,60l-1.22,6.87-6.91-2.3ZM68.38,67l-9.15,2.19,2.38-4.45Zm-11.6,6-5.43-5.43,7.31,1.94Zm-8.18-3.6V63l2,4.32ZM51,59.84h0l-.36.39-.2.15Zm-9.47,8v7.09l-.92-6.36Zm.17,9.64,6.85,6.85-7.87-5.71Zm8.54,8.42,11.93,4L49.5,87.28ZM65,90.7H78.73l-14,1.57Zm28.85-4L82.19,92.21l-.27-1.56Zm9.56-7.79-6.06,8.2-.76-1.4ZM105,70.46l.85,7.64-.85-1ZM97.8,69.29l-1.86-2V61.73ZM90.14,72.7,93,64.51l2.54,2.8ZM87.92,69l1.51-8.35,3.27,3.57Zm-2.76-4.78-.51-8.82,4.45,4.88Zm-.36-.37-3.14-5.88,2.65-2.65Zm-7.15,2.65-1.19-6.71,4.69-1.57Zm-8.41.08,1.2-6.74h5.43Zm-3.88-8.72,6.69-9.13L70.17,59.43Zm-3.87,6.46-4-4,7.23-2.15Zm-2.62,4.9-4.79-4.81,7.18.34Zm-5.21-4.75,4.69,4.71-7.24-1.93Zm-5-2.19,2-1.56v5.86Zm-7.09,14.9-.92,1v-7.4ZM50,85.71l-.76,1.41L42.07,80Zm14.67,5-.29,1.57L51.89,88.1Zm17,0,.26,1.57H67.49Zm14.69-4.84.76,1.42L84.58,91.45Zm8.56-8.41,1,1.13-7.08,7.09Zm.2-9.63.87.7V75.6ZM95.6,66.21l-2.35-7.63,2.35,1.85Zm-.21.44L93.1,64.13v-4.9Zm-5.9-6.46v-4l2.94,7.25Zm-4.87-5.34V52.11l3.87,7ZM77,45.92l3.86,4.76L77,46.46Zm7.27,9-2.71,2.71L77.3,47.33Zm-7.79,4.51L76,48.17l5.17,9.65Zm-5.9.06,3.63-10.79,1.91,10.79Zm.31-2,1.64-9.32H74Zm-4.46-1.63,4.42-8.22,1.27.45Zm-1.33,1.76-2.69-2.72,7.78-6.74Zm-.27.19-7,2.09,4.37-4.76Zm-3.67,6.55L54,64l3.21-3.54ZM51,66.88v-6l2.48,3.33ZM40.3,68.8v7.11l-.81-6.49Zm.17,10,6.93,6.93-7.84-6Zm8.86,8.75,12.11,4L48.66,88.83Zm15.3,5h14L64.4,94Zm29.8-4.1L82.51,94l-.26-1.41Zm10-8-6.23,8.1-.66-1.21Zm1.86-8.83.79,7.67-.79-.84ZM92.77,63.34l-3-7.53,3,2.4Zm-3.61-3.73L85,52.11l4.16,3.26Zm-4.88-5.17-6.43-7.95,6.43,5.06ZM76.53,47h0L76.6,47l0,0h0l.1-.11L80.07,55l-4-7.5Zm-.84.65.33,9.6L74.4,48.14l.43-.15h0Zm-3.33.17-1.55-.54-.38-.38,3.73.92ZM62.28,54.48V51.56l6.51-4.2Zm-4.89,5.35V55.44l4.32-.33Zm-3.57,3.93V58.42L57,60.3Zm-.33-.07L51,60.38l2.46-1.91ZM40.29,78.55l-.81.87V72.05ZM49,87.44l-.67,1.23-7.21-7.21Zm15.25,5.15L64.07,94,51.41,89.77Zm17.64,0,.26,1.41H67.6Zm15.29-5,.68,1.24L85.31,93.06Zm8.88-8.75.92,1L99.82,87Zm.19-10,.8.6V76.6ZM76.19,46.9l-.43.42-1,.34-3.09-.76Zm-6.58-.47-4.58,3,4.58-3.6ZM62,54.76l-4.19.32L62,51.81ZM57.05,60,54,58.11l3.1-2.48ZM52.8,58.58l.32-.34h0l.12-.12.46-.46.1-.1h0l.52-.5-.78.94ZM39.15,76.85l-.74-6.58.74-.58Zm.17,3.24,7.06,7.07L38.48,81Zm9.17,9.06,12.39,4.13-13-3Zm15.85,5.23H78.57L64.1,95.65ZM94.9,90.2,82.8,95.59l-.22-1.26Zm10.5-8.27L99,90.12,98.34,89Zm2-8.88.68,7.49-.68-.75ZM76.62,46.46l-.16.17-.08,0-1.51-2,1.75,1.09Zm-6,.11,1.74-2.37,3.38,2.37Zm-.52.06L70,46.46v-1l.5-.5-.3,1.6Zm-4.91,2,1.67-1.08-2.73,2.15Zm-5.9,4.86,2.24-2.24.31.25ZM55.81,56.2l1.89-1.91-.6.88ZM39.14,79.79l-.74.8v-7.4ZM48.2,89l-.59,1.15-7.33-7.32ZM64,94.34l-.24,1.27L51,91.36Zm18.24.06.22,1.27H67.72Zm15.82-5.24.62,1.16L85.85,94.6Zm9.19-9,.82.91-7.26,7.27Zm.2-10.39.68.55v7ZM89.64,54.43l.2.21-.29-.27ZM87.55,53l.81.8L87.15,52.7Zm-2.64-1.85.88.87-1.6-1.38Zm-3.57-2.54.75.75L79.94,47.6Zm-5.58-3.94.2.21-.47-.29Zm-1.63-.51L75.52,46l-2.66-1.86ZM70.6,46.05l.26-1.41,1-.35Zm-8.5,5.2L61.81,51l1.8-1.28Zm-3.71,2.64L59,53l1-.7Zm-2.28,1.54.82-1,.55-.38Z"/></svg>