<svg id="Layer_1" data-name="Layer 1" xmlns="http://www.w3.org/2000/svg" viewBox="0 0 128 128"><defs><style>.cls-1{fill:#f2faff;}.cls-2{fill:#5fafdc;}</style></defs><rect class="cls-1" x="24.58" y="22.15" width="50" height="50"/><path class="cls-2" d="M103.5,96.69H76.64a1.5,1.5,0,0,1-1.5-1.49V72.34a1.5,1.5,0,0,1,1.5-1.49H103.5a1.5,1.5,0,0,1,1.5,1.49V95.19a1.49,1.49,0,0,1-1.49,1.5Zm-25.33-3H102V73.85H78.17Z"/><path class="cls-2" d="M87.5,82.61h-5a1.5,1.5,0,0,1,0-3h5a1.5,1.5,0,0,1,0,3Z"/><path class="cls-2" d="M93.49,89.3h-11a1.5,1.5,0,0,1,0-3h11a1.5,1.5,0,0,1,0,3Z"/><path class="cls-2" d="M95.11,84.05a3.78,3.78,0,1,1,3.78-3.78v0A3.77,3.77,0,0,1,95.11,84.05Zm0-5a1.29,1.29,0,1,0,.23,0A.89.89,0,0,0,95.11,79Z"/><path class="cls-2" d="M66.53,69.84a3.78,3.78,0,1,1,3.78-3.78h0A3.78,3.78,0,0,1,66.53,69.84Zm0-5.07a1.29,1.29,0,1,0,1.29,1.29h0a1.28,1.28,0,0,0-1.27-1.29Z"/><path class="cls-2" d="M82.49,67.55H73.94a1.5,1.5,0,0,1,0-3h8.55a1.5,1.5,0,1,1,0,3Z"/><path class="cls-2" d="M71.39,75.87H64a1.5,1.5,0,1,1,0-3h7.37a1.5,1.5,0,1,1,0,3Z"/><path class="cls-2" d="M71.39,82.65H64a1.5,1.5,0,1,1,0-3h7.37a1.5,1.5,0,1,1,0,3Z"/><path class="cls-2" d="M71.39,89.42H64a1.5,1.5,0,1,1,0-3h7.37a1.5,1.5,0,1,1,0,3Z"/><path class="cls-2" d="M51.07,56a3.78,3.78,0,1,1,3.77-3.79h0A3.78,3.78,0,0,1,51.07,56Zm0-5.06a1.29,1.29,0,1,0,1.28,1.3v0a1.29,1.29,0,0,0-1.28-1.28Z"/><path class="cls-2" d="M67.18,53.47h-9a1.25,1.25,0,0,1,0-2.5h9a1.25,1.25,0,0,1,0,2.5Z"/><path class="cls-2" d="M53.59,64H48.54a1.5,1.5,0,1,1,0-3h5.05a1.5,1.5,0,1,1,0,3Z"/><path class="cls-2" d="M53.59,72.08H48.54a1.5,1.5,0,1,1,0-3h5.05a1.5,1.5,0,1,1,0,3Z"/><path class="cls-2" d="M53.59,80.19H48.54a1.5,1.5,0,1,1,0-3h5.05a1.5,1.5,0,1,1,0,3Z"/><path class="cls-2" d="M53.59,88.3H48.54a1.5,1.5,0,1,1,0-3h5.05a1.5,1.5,0,1,1,0,3Z"/><path class="cls-2" d="M72.65,95.2V93.7h-12V60.42H85.83v8h3V58.92a1.5,1.5,0,0,0-1.5-1.49H59.18a1.5,1.5,0,0,0-1.5,1.49V95.2a1.5,1.5,0,0,0,1.5,1.49H73A3.86,3.86,0,0,1,72.65,95.2Z"/><path class="cls-2" d="M55.19,95.2V93.7H45.28V47H70.43v8h3V45.5a1.5,1.5,0,0,0-1.5-1.5H43.79a1.5,1.5,0,0,0-1.5,1.5V95.2a1.5,1.5,0,0,0,1.5,1.49h11.7A3.81,3.81,0,0,1,55.19,95.2Z"/></svg>