<svg id="Layer_1" data-name="Layer 1" xmlns="http://www.w3.org/2000/svg" viewBox="0 0 128 128"><defs><style>.cls-1{fill:#f2faff;}.cls-2{fill:#5fafdc;}</style></defs><rect class="cls-1" x="24.58" y="22.15" width="50" height="50"/><path class="cls-2" d="M114.76,91.15H111a.5.5,0,0,1-.53-.53V57a1.33,1.33,0,0,0-1-1.27L95.92,51a1.38,1.38,0,0,0-1.27.21,1.29,1.29,0,0,0-.53,1.06V90.62a.5.5,0,0,1-.53.53h-.21a.5.5,0,0,1-.53-.53V49.12a1.4,1.4,0,0,0-1.38-1.37H68.72a1.4,1.4,0,0,0-1.38,1.37v41.5a.53.53,0,0,1-1.06,0V58.76a1.29,1.29,0,0,0-.53-1.06,1.72,1.72,0,0,0-1.27-.22L50.93,62.14a1.48,1.48,0,0,0-1,1.27V90.62a.5.5,0,0,1-.53.53h-2a.5.5,0,0,1-.53-.53V79a1.39,1.39,0,0,0-1.38-1.37H32A1.4,1.4,0,0,0,30.61,79V90.62a.5.5,0,0,1-.53.53h-3.7A1.4,1.4,0,0,0,25,92.52h0a1.41,1.41,0,0,0,1.38,1.38h88.38a1.41,1.41,0,0,0,1.38-1.38h0A1.4,1.4,0,0,0,114.76,91.15ZM95.28,51.87a.84.84,0,0,1,.53-.1l13.55,4.66a.57.57,0,0,1,.32.53V72.83H95V52.3C95,52.09,95.07,52,95.28,51.87ZM68.72,48.59H91.58a.5.5,0,0,1,.53.53V67.54H68.19V49.12A.5.5,0,0,1,68.72,48.59ZM51.14,62.88l13.55-4.65c.22-.11.32,0,.53.1a.54.54,0,0,1,.21.43V77.91H50.83V63.41A.59.59,0,0,1,51.14,62.88Zm64.15,29.64a.5.5,0,0,1-.53.53H26.38a.5.5,0,0,1-.53-.53h0a.5.5,0,0,1,.53-.53h3.81a1.39,1.39,0,0,0,1.37-1.37V79a.5.5,0,0,1,.53-.53H45.64a.5.5,0,0,1,.53.53V90.62A1.4,1.4,0,0,0,47.55,92h2a1.39,1.39,0,0,0,1.37-1.37V78.76H65.54v12a1.38,1.38,0,1,0,2.75,0V68.28h24V90.62A1.4,1.4,0,0,0,93.7,92h.21a1.39,1.39,0,0,0,1.37-1.37V73.68h14.61v17a1.41,1.41,0,0,0,1.38,1.38h3.49c.32-.11.53.1.53.42Z"/><path class="cls-2" d="M36.75,80.56H35.06a1,1,0,0,0-1,1v1.7a1,1,0,0,0,1,1h1.69a.94.94,0,0,0,1-1v-1.7A.94.94,0,0,0,36.75,80.56Zm.11,2.65a.24.24,0,0,1-.22.21H35a.23.23,0,0,1-.21-.21v-1.7A.23.23,0,0,1,35,81.3h1.69a.24.24,0,0,1,.22.21Z"/><path class="cls-2" d="M42.47,80.56h-1.7a.94.94,0,0,0-1,1v1.7a.94.94,0,0,0,1,1h1.7a1,1,0,0,0,1-1v-1.7A1,1,0,0,0,42.47,80.56Zm.1,2.65a.23.23,0,0,1-.21.21H40.67a.24.24,0,0,1-.22-.21v-1.7a.24.24,0,0,1,.22-.21h1.69a.23.23,0,0,1,.21.21Z"/><path class="cls-2" d="M36.75,85.54H35.06a1,1,0,0,0-1,.95v1.69a1,1,0,0,0,1,.95h1.69a.94.94,0,0,0,1-.95V86.49A.94.94,0,0,0,36.75,85.54Zm.11,2.64a.23.23,0,0,1-.22.21H35a.22.22,0,0,1-.21-.21V86.49a.22.22,0,0,1,.21-.21h1.69a.23.23,0,0,1,.22.21Z"/><path class="cls-2" d="M42.47,85.54h-1.7a.94.94,0,0,0-1,.95v1.69a.94.94,0,0,0,1,.95h1.7a1,1,0,0,0,1-.95V86.49A1,1,0,0,0,42.47,85.54Zm.1,2.64a.22.22,0,0,1-.21.21H40.67a.23.23,0,0,1-.22-.21V86.49a.23.23,0,0,1,.22-.21h1.69a.22.22,0,0,1,.21.21Z"/><path class="cls-2" d="M72.63,70.61H70.94a.94.94,0,0,0-1,1v1.7a.94.94,0,0,0,1,.95h1.69a1,1,0,0,0,1-.95v-1.7A1,1,0,0,0,72.63,70.61Zm.11,2.65a.23.23,0,0,1-.21.21h-1.7a.23.23,0,0,1-.21-.21v-1.7a.23.23,0,0,1,.21-.21h1.7a.23.23,0,0,1,.21.21Z"/><path class="cls-2" d="M78.14,70.61h-1.7a.94.94,0,0,0-1,1v1.7a.94.94,0,0,0,1,.95h1.7a.94.94,0,0,0,1-.95v-1.7A.94.94,0,0,0,78.14,70.61Zm.21,2.65a.23.23,0,0,1-.21.21h-1.7a.23.23,0,0,1-.21-.21v-1.7a.23.23,0,0,1,.21-.21h1.7a.23.23,0,0,1,.21.21Z"/><path class="cls-2" d="M83.64,70.61H82a1,1,0,0,0-1,1v1.7a1,1,0,0,0,1,.95h1.69a.94.94,0,0,0,1-.95v-1.7C84.7,71,84.17,70.61,83.64,70.61Zm.21,2.65a.23.23,0,0,1-.21.21H82a.23.23,0,0,1-.21-.21v-1.7a.23.23,0,0,1,.21-.21h1.69a.23.23,0,0,1,.21.21Z"/><path class="cls-2" d="M89.25,70.61H87.56a1,1,0,0,0-1,1v1.7a1,1,0,0,0,1,.95h1.69a.94.94,0,0,0,1-.95v-1.7A.94.94,0,0,0,89.25,70.61Zm.11,2.65a.23.23,0,0,1-.21.21h-1.7a.23.23,0,0,1-.21-.21v-1.7a.23.23,0,0,1,.21-.21h1.7a.23.23,0,0,1,.21.21Z"/><path class="cls-2" d="M72.63,75.69H70.94a.94.94,0,0,0-1,1v1.7a.94.94,0,0,0,1,1h1.69a1,1,0,0,0,1-1v-1.7A1,1,0,0,0,72.63,75.69Zm.11,2.65a.23.23,0,0,1-.21.21h-1.7a.23.23,0,0,1-.21-.21v-1.7a.23.23,0,0,1,.21-.21h1.7a.23.23,0,0,1,.21.21Z"/><path class="cls-2" d="M78.14,75.69h-1.7a.94.94,0,0,0-1,1v1.7a.94.94,0,0,0,1,1h1.7a.94.94,0,0,0,1-1v-1.7A.94.94,0,0,0,78.14,75.69Zm.21,2.65a.23.23,0,0,1-.21.21h-1.7a.23.23,0,0,1-.21-.21v-1.7a.23.23,0,0,1,.21-.21h1.7a.23.23,0,0,1,.21.21Z"/><path class="cls-2" d="M83.64,75.69H82a1,1,0,0,0-1,1v1.7a1,1,0,0,0,1,1h1.69a.94.94,0,0,0,1-1v-1.7C84.7,76.11,84.17,75.69,83.64,75.69Zm.21,2.65a.23.23,0,0,1-.21.21H82a.23.23,0,0,1-.21-.21v-1.7a.23.23,0,0,1,.21-.21h1.69a.23.23,0,0,1,.21.21Z"/><path class="cls-2" d="M89.25,75.69H87.56a1,1,0,0,0-1,1v1.7a1,1,0,0,0,1,1h1.69a.94.94,0,0,0,1-1v-1.7A.94.94,0,0,0,89.25,75.69Zm.11,2.65a.23.23,0,0,1-.21.21h-1.7a.23.23,0,0,1-.21-.21v-1.7a.23.23,0,0,1,.21-.21h1.7a.23.23,0,0,1,.21.21Z"/><path class="cls-2" d="M72.63,80.67H70.94a.94.94,0,0,0-1,1v1.8a.94.94,0,0,0,1,1h1.69a1,1,0,0,0,1-1v-1.7A1,1,0,0,0,72.63,80.67Zm.11,2.75a.23.23,0,0,1-.21.21h-1.7a.23.23,0,0,1-.21-.21v-1.7a.23.23,0,0,1,.21-.21h1.7a.23.23,0,0,1,.21.21Z"/><path class="cls-2" d="M78.14,80.67h-1.7a.94.94,0,0,0-1,1v1.8a.94.94,0,0,0,1,1h1.7a.94.94,0,0,0,1-1v-1.7A1,1,0,0,0,78.14,80.67Zm.21,2.75a.23.23,0,0,1-.21.21h-1.7a.23.23,0,0,1-.21-.21v-1.7a.23.23,0,0,1,.21-.21h1.7a.23.23,0,0,1,.21.21Z"/><path class="cls-2" d="M100.37,75.37h-1.7a1,1,0,0,0-1,1v1.8a1,1,0,0,0,1,1h1.7a1,1,0,0,0,.95-1v-1.7A1,1,0,0,0,100.37,75.37Zm.1,2.76a.23.23,0,0,1-.21.21H98.57a.24.24,0,0,1-.22-.21v-1.7a.24.24,0,0,1,.22-.21h1.69a.23.23,0,0,1,.21.21Z"/><path class="cls-2" d="M105.87,75.37h-1.69a1,1,0,0,0-1,1v1.8a1,1,0,0,0,1,1h1.69a1,1,0,0,0,.95-1v-1.7A1,1,0,0,0,105.87,75.37Zm.21,2.76a.23.23,0,0,1-.21.21h-1.69a.24.24,0,0,1-.22-.21v-1.7a.24.24,0,0,1,.22-.21h1.69a.23.23,0,0,1,.21.21Z"/><path class="cls-2" d="M100.37,80.45h-1.7a1,1,0,0,0-1,1V83.1a.94.94,0,0,0,1,1h1.7a1,1,0,0,0,.95-1V81.41A1,1,0,0,0,100.37,80.45Zm.1,2.65a.22.22,0,0,1-.21.21H98.57a.23.23,0,0,1-.22-.21V81.41a.23.23,0,0,1,.22-.21h1.69a.22.22,0,0,1,.21.21Z"/><path class="cls-2" d="M105.87,80.45h-1.69a1,1,0,0,0-1,1V83.1a1,1,0,0,0,1,1h1.69a.94.94,0,0,0,.95-1V81.41A1,1,0,0,0,105.87,80.45Zm.21,2.65a.22.22,0,0,1-.21.21h-1.69a.23.23,0,0,1-.22-.21V81.41a.23.23,0,0,1,.22-.21h1.69a.22.22,0,0,1,.21.21Z"/><path class="cls-2" d="M100.37,85.54h-1.7a.94.94,0,0,0-1,.95v1.69a.94.94,0,0,0,1,.95h1.7a1,1,0,0,0,.95-.95V86.49A1,1,0,0,0,100.37,85.54Zm.1,2.64a.22.22,0,0,1-.21.21H98.57a.23.23,0,0,1-.22-.21V86.49a.23.23,0,0,1,.22-.21h1.69a.22.22,0,0,1,.21.21Z"/><path class="cls-2" d="M105.87,85.54h-1.69a1,1,0,0,0-1,.95v1.69a1,1,0,0,0,1,.95h1.69a.94.94,0,0,0,.95-.95V86.49A.94.94,0,0,0,105.87,85.54Zm.21,2.64a.22.22,0,0,1-.21.21h-1.69a.23.23,0,0,1-.22-.21V86.49a.23.23,0,0,1,.22-.21h1.69a.22.22,0,0,1,.21.21Z"/><path class="cls-2" d="M83.64,80.67H82a1,1,0,0,0-1,1v1.8a1,1,0,0,0,1,1h1.69a.94.94,0,0,0,1-1v-1.7A1,1,0,0,0,83.64,80.67Zm.21,2.75a.23.23,0,0,1-.21.21H82a.23.23,0,0,1-.21-.21v-1.7a.23.23,0,0,1,.21-.21h1.69a.23.23,0,0,1,.21.21Z"/><path class="cls-2" d="M89.25,80.67H87.56a1,1,0,0,0-1,1v1.8a1,1,0,0,0,1,1h1.69a.94.94,0,0,0,1-1v-1.7A1,1,0,0,0,89.25,80.67Zm.11,2.75a.23.23,0,0,1-.21.21h-1.7a.23.23,0,0,1-.21-.21v-1.7a.23.23,0,0,1,.21-.21h1.7a.23.23,0,0,1,.21.21Z"/><path class="cls-2" d="M72.63,85.64H70.94a.94.94,0,0,0-1,1v1.7a.94.94,0,0,0,1,.95h1.69a1,1,0,0,0,1-.95v-1.7A1,1,0,0,0,72.63,85.64Zm.11,2.75a.23.23,0,0,1-.21.21h-1.7a.23.23,0,0,1-.21-.21V86.7a.23.23,0,0,1,.21-.21h1.7a.23.23,0,0,1,.21.21Z"/><path class="cls-2" d="M78.14,85.64h-1.7a.94.94,0,0,0-1,1v1.7a.94.94,0,0,0,1,.95h1.7a.94.94,0,0,0,1-.95v-1.7A1,1,0,0,0,78.14,85.64Zm.21,2.75a.23.23,0,0,1-.21.21h-1.7a.23.23,0,0,1-.21-.21V86.7a.23.23,0,0,1,.21-.21h1.7a.23.23,0,0,1,.21.21Z"/><path class="cls-2" d="M56.12,80.56H54.43a1,1,0,0,0-1,1v1.7a1,1,0,0,0,1,1h1.69a.94.94,0,0,0,1-1v-1.7C57.18,81.09,56.75,80.56,56.12,80.56Zm.21,2.75a.22.22,0,0,1-.21.21H54.43a.23.23,0,0,1-.22-.21V81.62a.23.23,0,0,1,.22-.21h1.69a.22.22,0,0,1,.21.21Z"/><path class="cls-2" d="M61.73,80.56H60a1,1,0,0,0-1,1v1.7a1,1,0,0,0,1,1h1.69a.94.94,0,0,0,1-1v-1.7A1,1,0,0,0,61.73,80.56Zm.21,2.75a.22.22,0,0,1-.21.21H60a.23.23,0,0,1-.22-.21V81.62a.23.23,0,0,1,.22-.21h1.69a.22.22,0,0,1,.21.21Z"/><path class="cls-2" d="M56.12,85.64H54.43a1,1,0,0,0-1,1v1.7a1,1,0,0,0,1,.95h1.69a.94.94,0,0,0,1-.95v-1.7C57.18,86.06,56.75,85.64,56.12,85.64Zm.21,2.75a.22.22,0,0,1-.21.21H54.43a.23.23,0,0,1-.22-.21V86.7a.23.23,0,0,1,.22-.21h1.69a.22.22,0,0,1,.21.21Z"/><path class="cls-2" d="M61.73,85.64H60a1,1,0,0,0-1,1v1.7a1,1,0,0,0,1,.95h1.69a.94.94,0,0,0,1-.95v-1.7A.94.94,0,0,0,61.73,85.64Zm.21,2.75a.22.22,0,0,1-.21.21H60a.23.23,0,0,1-.22-.21V86.7a.23.23,0,0,1,.22-.21h1.69a.22.22,0,0,1,.21.21Z"/><path class="cls-2" d="M83.64,85.64H82a1,1,0,0,0-1,1v1.7a1,1,0,0,0,1,.95h1.69a.94.94,0,0,0,1-.95v-1.7C84.7,86.17,84.17,85.64,83.64,85.64Zm.21,2.75a.22.22,0,0,1-.21.21H82a.22.22,0,0,1-.21-.21V86.7a.22.22,0,0,1,.21-.21h1.69a.22.22,0,0,1,.21.21Z"/><path class="cls-2" d="M89.25,85.64H87.56a1,1,0,0,0-1,1v1.7a1,1,0,0,0,1,.95h1.69a.94.94,0,0,0,1-.95v-1.7A1,1,0,0,0,89.25,85.64Zm.11,2.75a.23.23,0,0,1-.21.21h-1.7a.23.23,0,0,1-.21-.21V86.7a.23.23,0,0,1,.21-.21h1.7a.23.23,0,0,1,.21.21Z"/></svg>