<svg id="Layer_1" data-name="Layer 1" xmlns="http://www.w3.org/2000/svg" viewBox="0 0 128 128"><defs><style>.cls-1{fill:#f2faff;}.cls-2{fill:#5fafdc;}</style></defs><rect class="cls-1" x="24.58" y="22.15" width="50" height="50"/><path class="cls-2" d="M94.69,73.71H65a2.36,2.36,0,0,0-2.38,2.39V91.17a.85.85,0,0,0,.84.84.81.81,0,0,0,.84-.84V76.1a.75.75,0,0,1,.7-.7H94.69a.75.75,0,0,1,.7.7V95.16H67.56a.84.84,0,0,0,0,1.68H95.39v1.62a.75.75,0,0,1-.7.7H77.44a.85.85,0,0,0-.84.84.81.81,0,0,0,.84.84h1.62v2.59H78a.84.84,0,1,0,0,1.68h8.2a.84.84,0,0,0,0-1.68H80.6v-2.59h14A2.36,2.36,0,0,0,97,98.46V76.1A2.3,2.3,0,0,0,94.69,73.71Z"/><rect class="cls-2" x="68.54" y="86.12" width="22.5" height="1.61"/><rect class="cls-2" x="68.54" y="81.21" width="22.5" height="1.61"/><path class="cls-2" d="M52,73.15a5.61,5.61,0,1,0,5.61,5.61A5.63,5.63,0,0,0,52,73.15Zm0,9.61a3.92,3.92,0,0,1-3.92-3.93,4,4,0,0,1,3.92-4,4,4,0,0,1,0,7.92Z"/><path class="cls-2" d="M72.47,99.72l-.14-.07h-5a48.89,48.89,0,0,1-6.94-8l-.28-.35c-1.12-1.62-2.31-3.37-4.62-4.35a18.24,18.24,0,0,0-4.91-.63,8.31,8.31,0,0,0-8.34,8.34v11.08H62v-3.37l3.44,3.37h7.36a3.41,3.41,0,0,0,3.15-2.67C76,101.75,74.57,100.42,72.47,99.72Zm.28,4.41H66.09L60.34,98.6v5.53H43.8V94.67A6.71,6.71,0,0,1,50.46,88a21,21,0,0,1,4.28.42,9.33,9.33,0,0,1,3.92,3.79l.28.35a52,52,0,0,0,7.43,8.48l.21.21H72c1.4.49,2.17,1.26,2.1,1.61C74.22,103.43,73.24,104.13,72.75,104.13Z"/><path class="cls-2" d="M51.16,64.88a13.62,13.62,0,0,0,10,1,15,15,0,0,0,8.13,4.7,18.37,18.37,0,0,0,2.67.28c6.17,0,10.65-4.14,11.84-5.4h.14A9.53,9.53,0,0,0,93,59.13a8.72,8.72,0,0,0-.77-6.86,9.86,9.86,0,0,0-5.53-4.7,9.79,9.79,0,0,0-1.41-3.79c-2-3.71-6.79-7.21-12.33-6.37a12.18,12.18,0,0,0-7.71,4.76,10.51,10.51,0,0,0-2.59-.35A19.76,19.76,0,0,0,50.11,45.4l-.07.07a12.31,12.31,0,0,0-4.63,12.82A11.67,11.67,0,0,0,51.16,64.88Zm-.07-18.15a18.78,18.78,0,0,1,11.43-3.3,13.85,13.85,0,0,1,2.87.5l.56.14.35-.5A11,11,0,0,1,73.24,39c4.77-.7,8.9,2.38,10.65,5.47a11.09,11.09,0,0,1,1.26,3.71l.07.56.5.14a8.34,8.34,0,0,1,5,4.07,7.52,7.52,0,0,1,.63,5.6,7.78,7.78,0,0,1-7.92,5.12h-.35l-.28.28c-.21.28-5.68,6.31-13.18,4.91A14.17,14.17,0,0,1,62,64.32l-.35-.42-.56.14a11.91,11.91,0,0,1-9.18-.7A10,10,0,0,1,47,57.73C45.9,54,47.52,49.6,51.09,46.73Z"/><path class="cls-2" d="M67.56,59.2v1.9a1.63,1.63,0,0,0,1.61,1.61h.92A1.63,1.63,0,0,0,71.7,61.1V59.2A5.5,5.5,0,0,0,75.13,54a5.61,5.61,0,1,0-11.21,0A5.91,5.91,0,0,0,67.56,59.2Zm2.1-9.11A3.92,3.92,0,0,1,73.59,54a4.05,4.05,0,0,1-2.87,3.85l-.63.14V61.1h-.92V58l-.63-.14a4,4,0,0,1,1.12-7.78Z"/><path class="cls-2" d="M55,60.82c.14.07.21.14.28.14l.42.35.49-.28c.91-.49,5.46-3,5.67-6.87h0a4.22,4.22,0,0,0-1-3.37A3.85,3.85,0,0,0,58,49.6a3.89,3.89,0,0,0-2.24.84,3.52,3.52,0,0,0-2.32-.84,4.28,4.28,0,0,0-2.8,1.19,4.56,4.56,0,0,0-1,3.86C50.25,57.8,53.82,60.05,55,60.82Zm-3.09-8.9a2.5,2.5,0,0,1,1.61-.71h0a2.73,2.73,0,0,1,1.62.92l.56.49.56-.49a3,3,0,0,1,1.68-.92,2.46,2.46,0,0,1,1.61.64A2.92,2.92,0,0,1,60.06,54h0c-.14,2.66-3.22,4.62-4.34,5.32-1.12-.63-4.07-2.59-4.42-5A3,3,0,0,1,51.86,51.92Z"/><path class="cls-2" d="M84.94,61.31a1.7,1.7,0,0,0,1.76-1.54,1.26,1.26,0,0,0-.07-.5,1.65,1.65,0,0,0,.63-1.12V57.8a1.92,1.92,0,0,0,.7-1.12c0-.14,0-.35-.07-.42l.14-.14a1.69,1.69,0,0,0,.49-1.26h0a1.54,1.54,0,0,0-.63-1.12,1.51,1.51,0,0,0-1.19-.35H84v-.21a5.23,5.23,0,0,1,.14-.77,2.42,2.42,0,0,0,0-1.41,3.17,3.17,0,0,0-1.26-1.68l-.14-.21h-.21a2.46,2.46,0,0,0-.84.14c-.42.21-.63.77-1.12,2-.14.35-.28.71-.35.85a3.21,3.21,0,0,1-1.19,1.19H77.58v8l7.36.07Zm-5.81-6.38h.28l.14-.14a4.72,4.72,0,0,0,2-2,8.15,8.15,0,0,0,.42-1c.14-.22.21-.64.35-.85.14.14.14.28.21.35s0,.21-.07.71c-.07.21-.07.49-.14.84a9.59,9.59,0,0,0-.14,1.12v1l3.93.07v1.54h-.7v1.61H84.8v1.55H79v-4.7Z"/></svg>