<svg id="Layer_1" data-name="Layer 1" xmlns="http://www.w3.org/2000/svg" viewBox="0 0 128 128"><defs><style>.cls-1{fill:#f2faff;}.cls-2{fill:#5fafdc;}</style></defs><rect class="cls-1" x="24.58" y="22.15" width="50" height="50"/><rect class="cls-2" x="46.74" y="61.9" width="2.87" height="2.16"/><rect class="cls-2" x="51.4" y="50.07" width="2.16" height="2.87" transform="translate(-20.73 44.62) rotate(-39.09)"/><rect class="cls-2" x="49.46" y="70.56" width="2.87" height="2.16" transform="translate(-26.67 30.33) rotate(-26.57)"/><rect class="cls-2" x="62.77" y="46.9" width="2.16" height="2.86"/><path class="cls-2" d="M64.66,51.2a11.59,11.59,0,0,0-12,11.12v.4a11.6,11.6,0,0,0,5.93,10.09v1.85a4.2,4.2,0,0,0,4.2,4.19h2.88a4.2,4.2,0,0,0,4.2-4.19V72.81A11.56,11.56,0,0,0,64.66,51.2Zm3.63,20a1.08,1.08,0,0,0-.61,1v2.5a2,2,0,0,1-2,2h-.36v-10l.93-.31a2.89,2.89,0,1,0-.16-2.27l-1.8.61-1.85-.61a2.92,2.92,0,1,0-.22,2.21l.94.31v10h-.36a2,2,0,0,1-2-2V72.16a1.06,1.06,0,0,0-.62-1,9.38,9.38,0,0,1,4.1-17.84h.38a9.55,9.55,0,0,1,9,9.11,9.43,9.43,0,0,1-5.31,8.73ZM68,65a.75.75,0,0,1,.75-.74h0a.76.76,0,0,1,0,1.51.77.77,0,0,1-.77-.75Zm-7.63,0a.75.75,0,0,1-.73.76h0a.76.76,0,0,1-.18-1.5.54.54,0,0,1,.18,0,.74.74,0,0,1,.74.7Z"/><rect class="cls-2" x="78.27" y="61.9" width="2.87" height="2.16"/><rect class="cls-2" x="73.42" y="71.97" width="2.16" height="2.87" transform="translate(-29.61 63.43) rotate(-39.1)"/><rect class="cls-2" x="74.84" y="53.22" width="2.87" height="2.16" transform="translate(-16.23 39.83) rotate(-26.56)"/><path class="cls-2" d="M67.43,79.21h-6a1.09,1.09,0,0,0-1.08,1.08v.36a3.46,3.46,0,0,0,3.45,3.45h1.24a3.45,3.45,0,0,0,3.44-3.45v-.36A1.08,1.08,0,0,0,67.43,79.21Zm-2.36,2.73H63.83a1.29,1.29,0,0,1-1-.57h3.36A1.25,1.25,0,0,1,65.07,81.94Z"/><path class="cls-2" d="M84.18,55.27a3.81,3.81,0,0,0,1.63,2.15,2.34,2.34,0,0,0,.49.27,2,2,0,0,0,.48.18h.08a4.23,4.23,0,0,0,.62.11h.4a3.86,3.86,0,0,0,0-7.71h-.37a3.82,3.82,0,0,0-3.14,2.31A3.62,3.62,0,0,0,84,54.17a3.85,3.85,0,0,0,.14,1A.51.51,0,0,0,84.18,55.27Zm2.15-1.8a1.72,1.72,0,0,1,1.42-1h.14a1.7,1.7,0,0,1,0,3.4h-.15a1.44,1.44,0,0,1-.54-.14,1.19,1.19,0,0,1-.42-.28,1.71,1.71,0,0,1-.6-1.28,1.91,1.91,0,0,1,.14-.71Z"/><path class="cls-2" d="M100.86,74.14H98.71l1.55-1.53a1.85,1.85,0,0,0,0-2.59L97.9,67.68a1.91,1.91,0,0,0-1.3-.54h0a1.89,1.89,0,0,0-1.29.54l-1.53,1.54V67.07A1.82,1.82,0,0,0,92,65.21H88.55c0-.55.09-1.08.11-1.63h.43A1.65,1.65,0,0,0,90.72,62v-.91l.66.65a1.63,1.63,0,0,0,2.3,0h0L95.41,60a1.65,1.65,0,0,0,.47-1.15,1.63,1.63,0,0,0-.48-1.18L94.75,57h.92A1.62,1.62,0,0,0,97.3,55.4h0V53a1.62,1.62,0,0,0-1.63-1.62h-.92l.66-.65a1.65,1.65,0,0,0,0-2.31l-1.73-1.72a1.61,1.61,0,0,0-1.15-.49h0a1.62,1.62,0,0,0-1.16.49l-.65.64v-.91a1.63,1.63,0,0,0-1.63-1.65H86.66A1.65,1.65,0,0,0,85,46.37v.91l-.65-.64a1.62,1.62,0,0,0-1.16-.49h0a1.68,1.68,0,0,0-1.08.46,24.12,24.12,0,0,0-16-7.27,22.72,22.72,0,0,0-16.72,6.27,25.57,25.57,0,0,0-8.12,18.1,2.26,2.26,0,0,1-.09.57L38,75.71A1.09,1.09,0,0,0,38.81,77a1.53,1.53,0,0,0,.3,0H44.5v5a4.71,4.71,0,0,0,4.71,4.71h2.3v16.16A1.07,1.07,0,0,0,52.58,104H77.37a1.08,1.08,0,0,0,1.08-1.08V83.64a19.13,19.13,0,0,0,2.91-2.56h.56l-1.56,1.54a1.86,1.86,0,0,0,0,2.59l2.34,2.33a1.82,1.82,0,0,0,1.3.54h0a1.8,1.8,0,0,0,1.29-.54L86.82,86v2.16A1.83,1.83,0,0,0,88.64,90h3.28a1.84,1.84,0,0,0,1.82-1.83V86l1.53,1.56a1.83,1.83,0,0,0,1.29.53h0a1.81,1.81,0,0,0,1.29-.53l2.34-2.34a1.83,1.83,0,0,0,0-2.6l-1.54-1.53h2.16a1.81,1.81,0,0,0,1.88-1.76V76a1.82,1.82,0,0,0-1.82-1.84ZM83.4,50.68l-1.18-1.15,1-1,1.17,1.19a1.65,1.65,0,0,0,2.33,0,1.58,1.58,0,0,0,.46-1.13V46.89h1.38v1.64a1.65,1.65,0,0,0,2.81,1.17l1.16-1.18,1,1L92.3,50.69a1.64,1.64,0,0,0,1.18,2.78h1.67v1.39H93.5a1.65,1.65,0,0,0-1.51,1,1.63,1.63,0,0,0,.36,1.8l1.16,1.17-1,1-1.17-1.19a1.67,1.67,0,0,0-1.79-.32,1.62,1.62,0,0,0-1,1.52v1.65H87.19V59.82a1.62,1.62,0,0,0-1-1.5,1.67,1.67,0,0,0-1.8.34l-1.16,1.16-1-1,1.2-1.17a1.65,1.65,0,0,0-1.2-2.8H80.6V53.48h1.62a1.63,1.63,0,0,0,1.15-2.8Zm-4.75,30a17.11,17.11,0,0,1-1.82,1.46,1.1,1.1,0,0,0-.49.89v18.77H53.71V85.68a1.08,1.08,0,0,0-1.07-1.08H49.21a2.54,2.54,0,0,1-2.55-2.54V76a1.09,1.09,0,0,0-1.08-1.08H40.52l2.74-10.06a3.92,3.92,0,0,0,.16-1.08,23.32,23.32,0,0,1,7.44-16.57A20.44,20.44,0,0,1,66.05,41.5a22,22,0,0,1,14.58,6.62l-.23.24a1.63,1.63,0,0,0,0,2.3h0l.64.64h-1a1.65,1.65,0,0,0-1.64,1.63v2.44A1.64,1.64,0,0,0,80,57H81l-.66.64a1.66,1.66,0,0,0,0,2.32l1.73,1.72a1.63,1.63,0,0,0,2.31,0l.65-.65V62a1.63,1.63,0,0,0,1.52,1.62,21.84,21.84,0,0,1-.68,4.62l-.53-.53A1.89,1.89,0,0,0,84,67.14h0a1.91,1.91,0,0,0-1.3.54L80.4,70a1.82,1.82,0,0,0,0,2.59l1.54,1.53H79.78a1.82,1.82,0,0,0-1.87,1.79v3.28A1.79,1.79,0,0,0,78.65,80.72Zm21.89-1.8H97.92a1.84,1.84,0,0,0-1.83,1.86,1.8,1.8,0,0,0,.54,1.29l1.85,1.84L96.6,85.79l-1.86-1.88a1.8,1.8,0,0,0-3.09,1.3v2.63H89V85.23a1.84,1.84,0,0,0-1.08-1.68,1.86,1.86,0,0,0-2,.38L84,85.79l-1.88-1.88L84,82.05a1.85,1.85,0,0,0-1.32-3.13H80.06V76.29h2.62a1.8,1.8,0,0,0,1.68-1.07,1.86,1.86,0,0,0-.39-2l-1.85-1.83L84,69.46l1.86,1.89a1.89,1.89,0,0,0,2,.35A1.8,1.8,0,0,0,89,70V67.36h2.63V70a1.85,1.85,0,0,0,1.08,1.68,1.9,1.9,0,0,0,2-.38l1.84-1.86,1.87,1.88-1.87,1.86a1.84,1.84,0,0,0-.31,2,1.79,1.79,0,0,0,1.68,1.08h2.63Z"/><path class="cls-2" d="M90.3,72.75a1.85,1.85,0,0,0-.47,0,4.85,4.85,0,1,0-.07,9.7h.56a4.85,4.85,0,1,0,0-9.7Zm0,7.54H90a2.7,2.7,0,0,1,.09-5.39h.17a2.7,2.7,0,0,1,0,5.39Z"/></svg>