<svg id="Layer_1" data-name="Layer 1" xmlns="http://www.w3.org/2000/svg" viewBox="0 0 128 128"><defs><style>.cls-1{fill:#f2faff;}.cls-2{fill:#5fafdc;fill-rule:evenodd;}</style></defs><rect class="cls-1" x="24.58" y="22.15" width="50" height="50"/><path class="cls-2" d="M104,41.74v1.71h-2.49v39.7H104v1.72H90v9.9l5.79,6,.6.62-1.24,1.19-.59-.62L90,97.24v5H88.29v-5L83.71,102l-.6.62-1.23-1.19.59-.62,5.82-6v-9.9H52.82v9.9l5.8,6,.62.62L58,102.57l-.62-.62-4.56-4.71v5H51.11v-5L46.5,102l-.59.62-1.24-1.22.6-.61,5.84-6v-9.9h-14V83.15h2.5V43.45h-2.5V41.74H104Zm-4.23,1.71H41.32v39.7H99.77Z"/><path class="cls-2" d="M79,47.77V49.5H45V47.77H79Z"/><path class="cls-2" d="M79,53.87v1.72H45V53.87H79Z"/><path class="cls-2" d="M79,59.51v1.72H45V59.51H79Z"/><path class="cls-2" d="M85.9,45.75l-.45.73-1.36,2.24-.36-.55-.46-.72-1.45.93.46.72,1.1,1.71L84.13,52l.72-1.18,2.07-3.42.45-.73-1.47-.9Z"/><path class="cls-2" d="M85.9,51.81l-.45.74-1.36,2.24-.36-.55-.46-.73-1.45.93.46.73,1.1,1.7L84.13,58l.72-1.17,2.07-3.42.45-.73-1.47-.9Z"/><path class="cls-2" d="M85.9,57.39l-.45.74-1.36,2.24-.36-.55-.46-.73L81.82,60l.46.73,1.1,1.7.75,1.16.72-1.17L86.92,59l.45-.73Z"/><path class="cls-2" d="M49.64,64.64V80H45V64.64h4.68Z"/><path class="cls-2" d="M72.89,67.26V80H68.21V67.26h4.68Z"/><path class="cls-2" d="M61.25,70.22V80H56.57V70.22h4.68Z"/><path class="cls-2" d="M96.21,73.42V80H91.52V73.42h4.69Z"/><path class="cls-2" d="M84.57,67.65V80H79.88V67.65h4.69Z"/></svg>