<svg id="Layer_1" data-name="Layer 1" xmlns="http://www.w3.org/2000/svg" viewBox="0 0 128 128"><defs><style>.cls-1{fill:#f2faff;}.cls-2{fill:#5fafdc;}</style></defs><rect class="cls-1" x="24.58" y="22.15" width="50" height="50"/><path class="cls-2" d="M56.93,41.57l9.21,2.3A1.14,1.14,0,0,0,67.53,43a.86.86,0,0,0,0-.28v-4.6A1.15,1.15,0,0,0,66.42,37a1.27,1.27,0,0,0-.28,0l-9.21,2.31a1.15,1.15,0,0,0,0,2.23Zm8.34-2v1.66L62,40.45Z"/><path class="cls-2" d="M72,58.27a20.37,20.37,0,0,1,1.56,1.52l1.69-1.55a23,23,0,0,0-1.72-1.7Z"/><path class="cls-2" d="M58.36,96.84c.81,0,1.62,0,2.42-.12l-.24-2.3a19.77,19.77,0,0,1-2.18.12Z"/><path class="cls-2" d="M68.49,55.76a19.59,19.59,0,0,1,1.84,1.16l1.33-1.87c-.66-.47-1.34-.9-2-1.3Z"/><path class="cls-2" d="M81.27,76.07c.07-.74.11-1.5.11-2.24v-.19l-2.3,0v.15c0,.67,0,1.35-.1,2Z"/><path class="cls-2" d="M80.3,80.81a23.84,23.84,0,0,0,.61-2.35L78.66,78a21.79,21.79,0,0,1-.55,2.11Z"/><path class="cls-2" d="M76.36,84.09l2,1.14c.4-.7.76-1.42,1.09-2.16l-2.11-.92A19.57,19.57,0,0,1,76.36,84.09Z"/><path class="cls-2" d="M78.59,69.34c.16.71.27,1.43.36,2.15l2.28-.26c-.09-.8-.22-1.6-.39-2.39Z"/><path class="cls-2" d="M78,67.25l2.18-.74a21.45,21.45,0,0,0-.89-2.25l-2.09,1A20.86,20.86,0,0,1,78,67.25Z"/><path class="cls-2" d="M75.18,85.92a20.36,20.36,0,0,1-1.37,1.7l1.72,1.54c.54-.61,1-1.24,1.51-1.89Z"/><path class="cls-2" d="M35.39,73.83c0,.41,0,.82,0,1.23l2.3-.17c0-.53,0-1.07-.06-1.6s0-.79,0-1.18l-2.3-.18c0,.25,0,.49,0,.74h0c0,.21,0,.41,0,.61s0,.36,0,.55Z"/><path class="cls-2" d="M62.69,94.09l.48,2.25a23.76,23.76,0,0,0,2.34-.63l-.72-2.19A19.16,19.16,0,0,1,62.69,94.09Z"/><path class="cls-2" d="M68.77,91.74a20.92,20.92,0,0,1-1.94,1l.94,2.1a20.77,20.77,0,0,0,2.15-1.11Z"/><path class="cls-2" d="M73.83,90.87l-1.55-1.7a20.33,20.33,0,0,1-1.69,1.38L72,92.41A23,23,0,0,0,73.83,90.87Z"/><path class="cls-2" d="M75,61.47c.43.59.84,1.19,1.21,1.82l2-1.18c-.41-.69-.86-1.36-1.34-2Z"/><path class="cls-2" d="M37.14,64.9l2.12.89a19.51,19.51,0,0,1,1-2l-2-1.12C37.81,63.43,37.46,64.15,37.14,64.9Z"/><path class="cls-2" d="M55.87,53.26a20,20,0,0,1,2.18-.15l0-2.3A21.69,21.69,0,0,0,55.6,51Z"/><path class="cls-2" d="M53.21,51.38c-.78.19-1.56.41-2.33.67l.75,2.18a19.31,19.31,0,0,1,2.1-.6Z"/><path class="cls-2" d="M67.45,52.67a20.55,20.55,0,0,0-2.27-.83L64.5,54c.69.22,1.37.47,2,.76Z"/><path class="cls-2" d="M38.52,67.84l-2.2-.66a23.65,23.65,0,0,0-.57,2.35L38,70A19.24,19.24,0,0,1,38.52,67.84Z"/><path class="cls-2" d="M39.48,60.66,41.36,62c.42-.59.87-1.17,1.34-1.72L41,58.75A22.78,22.78,0,0,0,39.48,60.66Z"/><path class="cls-2" d="M62.83,51.24a23.9,23.9,0,0,0-2.4-.34l-.2,2.29a20.06,20.06,0,0,1,2.16.31Z"/><path class="cls-2" d="M47.69,56.07a19.65,19.65,0,0,1,1.92-1l-1-2.08A21.93,21.93,0,0,0,46.5,54.1Z"/><path class="cls-2" d="M42.65,57l1.57,1.68c.53-.49,1.09-1,1.67-1.4L44.5,55.45A23.1,23.1,0,0,0,42.65,57Z"/><path class="cls-2" d="M103.15,81.6,100.93,81c-.2.7-.43,1.41-.69,2.1l2.16.79C102.68,83.12,102.93,82.36,103.15,81.6Z"/><path class="cls-2" d="M101.5,86.07l-2.1-.95c-.3.67-.63,1.34-1,2l2,1.1C100.81,87.51,101.17,86.79,101.5,86.07Z"/><path class="cls-2" d="M70.29,41.6c.75,0,1.49,0,2.22.1l.18-2.28c-.78-.07-1.58-.1-2.37-.11Z"/><path class="cls-2" d="M102.85,62.79l-2.18.7c.22.7.42,1.42.59,2.14l2.24-.54C103.31,64.31,103.09,63.54,102.85,62.79Z"/><path class="cls-2" d="M79.07,42.89c.7.2,1.41.43,2.11.68L82,41.41c-.74-.27-1.5-.52-2.26-.74Z"/><path class="cls-2" d="M99.22,90.25,97.29,89c-.4.62-.83,1.23-1.27,1.82l1.84,1.38C98.34,91.58,98.8,90.92,99.22,90.25Z"/><path class="cls-2" d="M37.51,84.34l2.15-.83c-.27-.69-.51-1.4-.72-2.1l-2.2.67C37,82.83,37.23,83.59,37.51,84.34Z"/><path class="cls-2" d="M101.46,78.82l2.26.46c.16-.77.29-1.56.4-2.35l-2.29-.3C101.74,77.37,101.61,78.1,101.46,78.82Z"/><path class="cls-2" d="M104,67.43l-2.27.37c.11.72.21,1.46.27,2.2l2.3-.2C104.2,69,104.09,68.2,104,67.43Z"/><path class="cls-2" d="M38.45,86.53c.35.72.71,1.43,1.1,2.12l2-1.13c-.36-.64-.7-1.3-1-2Z"/><path class="cls-2" d="M74.72,42c.73.11,1.47.24,2.19.4l.48-2.25q-1.15-.26-2.34-.42Z"/><path class="cls-2" d="M62.37,102.9c-.71-.16-1.44-.35-2.14-.57l-.67,2.2c.76.23,1.53.44,2.3.61Z"/><path class="cls-2" d="M94.63,92.56c-.48.55-1,1.1-1.51,1.63l1.63,1.62c.56-.57,1.11-1.15,1.62-1.75Z"/><path class="cls-2" d="M93,97.44,91.5,95.71c-.55.48-1.13,1-1.72,1.4l1.39,1.83C91.8,98.46,92.43,98,93,97.44Z"/><path class="cls-2" d="M90.35,45.81c-.64-.46-1.31-.9-2-1.31l-1.2,2c.62.39,1.25.8,1.85,1.23Z"/><path class="cls-2" d="M92.24,47.26,90.78,49c.57.46,1.13,1,1.67,1.47L94,48.83C93.45,48.29,92.85,47.76,92.24,47.26Z"/><path class="cls-2" d="M82.89,103.59c.73-.28,1.47-.6,2.18-.94l-1-2.08c-.67.31-1.36.61-2,.88Z"/><path class="cls-2" d="M86.31,43.32c-.7-.37-1.42-.71-2.14-1l-.92,2.1c.67.3,1.34.62,2,1Z"/><path class="cls-2" d="M36.13,79.77l2.24-.5c-.16-.72-.29-1.46-.4-2.18l-2.28.34C35.81,78.2,36,79,36.13,79.77Z"/><path class="cls-2" d="M96.77,55.56c.41.61.81,1.24,1.18,1.87l2-1.16c-.4-.68-.83-1.36-1.28-2Z"/><path class="cls-2" d="M88,98.39c-.62.41-1.26.8-1.9,1.15l1.13,2c.69-.39,1.37-.81,2-1.24Z"/><path class="cls-2" d="M95.7,50.53,94,52.09c.5.54,1,1.11,1.45,1.68l1.8-1.43C96.76,51.73,96.24,51.12,95.7,50.53Z"/><path class="cls-2" d="M68.92,106h1c.48,0,1,0,1.43,0l-.09-2.3c-.74,0-1.49,0-2.23,0Z"/><path class="cls-2" d="M66.76,103.6c-.74-.07-1.48-.16-2.2-.27l-.37,2.27c.78.12,1.58.23,2.36.29Z"/><path class="cls-2" d="M58.12,101.62c-.69-.26-1.38-.55-2-.86l-1,2.09c.72.33,1.46.64,2.2.93Z"/><path class="cls-2" d="M75.63,103.25c-.72.13-1.46.23-2.2.31l.24,2.29c.79-.09,1.58-.2,2.36-.33Z"/><path class="cls-2" d="M50.34,97.39c-.59-.43-1.18-.9-1.74-1.38l-1.49,1.75c.6.52,1.23,1,1.87,1.48Z"/><path class="cls-2" d="M47,94.52c-.53-.51-1.05-1-1.54-1.6l-1.71,1.53c.52.59,1.08,1.17,1.64,1.72Z"/><path class="cls-2" d="M54.09,99.77c-.65-.35-1.29-.73-1.92-1.13l-1.23,2c.67.42,1.36.83,2.05,1.2Z"/><path class="cls-2" d="M77.81,102.8l.55,2.23c.76-.18,1.53-.4,2.29-.64L80,102.2C79.24,102.42,78.52,102.62,77.81,102.8Z"/><path class="cls-2" d="M42.18,92.62,44,91.21c-.45-.58-.89-1.19-1.3-1.8L40.8,90.68C41.23,91.34,41.7,92,42.18,92.62Z"/><path class="cls-2" d="M102,60.55c-.29-.74-.62-1.47-1-2.18l-2.07,1c.33.67.63,1.35.91,2Z"/><path class="cls-2" d="M102.09,72.21v.46c0,.59,0,1.17,0,1.75l2.3.14c0-.63,0-1.25,0-1.89v-.49Z"/><path class="cls-2" d="M42.57,74.63a23.41,23.41,0,0,0,33.09.8c.27-.26.53-.53.79-.8a1.15,1.15,0,0,0,0-1.6,23.4,23.4,0,0,0-33.08-.79c-.27.25-.54.52-.8.79A1.15,1.15,0,0,0,42.57,74.63Zm11.19-.8a5.76,5.76,0,1,1,5.75,5.75A5.75,5.75,0,0,1,53.76,73.83ZM66,78.52a8,8,0,0,0,0-9.39A21.15,21.15,0,0,1,74,73.83,21.26,21.26,0,0,1,66,78.52ZM53,69.13a8,8,0,0,0,0,9.39A21.26,21.26,0,0,1,45,73.83,21.15,21.15,0,0,1,53,69.13Z"/><path class="cls-2" d="M59.51,70.37A3.46,3.46,0,1,0,63,73.83,3.46,3.46,0,0,0,59.51,70.37Zm0,4.61a1.16,1.16,0,1,1,1.15-1.15A1.16,1.16,0,0,1,59.51,75Z"/><rect class="cls-2" x="58.36" y="58.86" width="2.3" height="4.6"/><rect class="cls-2" x="58.36" y="84.18" width="2.3" height="4.6"/><rect class="cls-2" x="66.42" y="83.03" width="2.3" height="4.6" transform="translate(-40.55 72.77) rotate(-45)"/><rect class="cls-2" x="48" y="84.18" width="4.6" height="2.3" transform="translate(-45.61 60.57) rotate(-45)"/><rect class="cls-2" x="65.27" y="61.17" width="4.6" height="2.3" transform="translate(-24.28 66.03) rotate(-45)"/><rect class="cls-2" x="50.31" y="60.02" width="2.3" height="4.6" transform="translate(-28.99 54.64) rotate(-45)"/></svg>