<?xml version="1.0" encoding="utf-8"?>
<!-- Generator: Adobe Illustrator 25.0.1, SVG Export Plug-In . SVG Version: 6.00 Build 0)  -->
<svg version="1.1" id="Layer_1" xmlns="http://www.w3.org/2000/svg" xmlns:xlink="http://www.w3.org/1999/xlink" x="0px" y="0px"
	 viewBox="0 0 128 128" style="enable-background:new 0 0 128 128;" xml:space="preserve">
<style type="text/css">
	.st0{fill:#F2FAFF;}
	.st1{clip-path:url(#SVGID_2_);}
	.st2{clip-path:url(#SVGID_4_);fill:#5FAFDC;}
	.st3{clip-path:url(#SVGID_6_);}
	.st4{clip-path:url(#SVGID_8_);fill:#5FAFDC;}
	.st5{clip-path:url(#SVGID_10_);}
	.st6{clip-path:url(#SVGID_12_);fill:#5FAFDC;}
	.st7{clip-path:url(#SVGID_14_);}
	.st8{clip-path:url(#SVGID_16_);fill:#5FAFDC;}
	.st9{clip-path:url(#SVGID_18_);}
	.st10{clip-path:url(#SVGID_20_);fill:#5FAFDC;}
	.st11{clip-path:url(#SVGID_22_);}
	.st12{clip-path:url(#SVGID_24_);fill:#5FAFDC;}
	.st13{clip-path:url(#SVGID_26_);}
	.st14{clip-path:url(#SVGID_28_);fill:#5FAFDC;}
	.st15{clip-path:url(#SVGID_30_);}
	.st16{clip-path:url(#SVGID_32_);fill:#5FAFDC;}
	.st17{clip-path:url(#SVGID_34_);}
	.st18{clip-path:url(#SVGID_36_);fill:#5FAFDC;}
	.st19{clip-path:url(#SVGID_38_);}
	.st20{clip-path:url(#SVGID_40_);fill:#5FAFDC;}
	.st21{clip-path:url(#SVGID_42_);}
	.st22{clip-path:url(#SVGID_44_);fill:#5FAFDC;}
	.st23{fill:#5FAFDC;}
	.st24{fill:#38618C;}
	.st25{fill:#5C80BC;}
	.st26{fill:#243556;}
	.st27{fill:#1B2C3A;}
	.st28{clip-path:url(#SVGID_46_);}
	.st29{clip-path:url(#SVGID_48_);fill:none;stroke:#38618C;stroke-width:0.9634;stroke-miterlimit:10;}
	.st30{clip-path:url(#SVGID_48_);fill:#5FAFDC;}
	.st31{clip-path:url(#SVGID_50_);}
	.st32{clip-path:url(#SVGID_52_);fill:#5FAFDC;}
	.st33{clip-path:url(#SVGID_52_);fill:none;stroke:#5FAFDC;stroke-width:1.1666;stroke-miterlimit:10;}
	.st34{clip-path:url(#SVGID_54_);}
	.st35{clip-path:url(#SVGID_56_);fill:#5FAFDC;}
	.st36{clip-path:url(#SVGID_58_);}
	.st37{clip-path:url(#SVGID_60_);fill:#5FAFDC;}
	.st38{fill-rule:evenodd;clip-rule:evenodd;fill:#5FAFDC;}
	.st39{fill:none;stroke:#5FAFDC;stroke-width:2.6;stroke-miterlimit:10;}
	.st40{clip-path:url(#SVGID_62_);}
	.st41{clip-path:url(#SVGID_64_);fill:#5FAFDC;}
	.st42{fill:#5FAFDC;stroke:#5FAFDC;stroke-miterlimit:10;}
	.st43{fill-rule:evenodd;clip-rule:evenodd;fill:#5FAFDC;stroke:#5FAFDC;stroke-miterlimit:10;}
	.st44{fill:none;stroke:#5FAFDC;stroke-miterlimit:10;}
	.st45{clip-path:url(#SVGID_66_);}
	.st46{clip-path:url(#SVGID_68_);fill:#5FAFDC;}
	.st47{clip-path:url(#SVGID_68_);fill:none;stroke:#5FAFDC;stroke-width:5;stroke-miterlimit:10;}
	.st48{opacity:0.83;}
	.st49{opacity:0.98;}
	.st50{fill-rule:evenodd;clip-rule:evenodd;fill:#5FAFDC;stroke:#5FAFDC;stroke-width:0.75;stroke-miterlimit:10;}
</style>
<rect x="24.4" y="26" class="st0" width="50" height="50"/>
<g>
	<g>
		<defs>
			<rect id="SVGID_9_" x="33" y="35" width="72.1" height="70.4"/>
		</defs>
		<clipPath id="SVGID_2_">
			<use xlink:href="#SVGID_9_"  style="overflow:visible;"/>
		</clipPath>
		<g class="st1">
			<defs>
				<rect id="SVGID_11_" x="33" y="35" width="72.1" height="70.4"/>
			</defs>
			<clipPath id="SVGID_4_">
				<use xlink:href="#SVGID_11_"  style="overflow:visible;"/>
			</clipPath>
			<path class="st2" d="M64.3,85.5c0.3,0,0.6,0.1,0.7,0.3c0.1,0.1,0.2,0.2,0.3,0.3c1.8,1.8,3.5,3.5,5.3,5.3c0.5,0.5,1.2,0.8,1.9,0.8
				c0.7,0,1.4-0.2,1.9-0.8c0.1-0.1,0.2-0.2,0.3-0.3c7.5-7.6,15.1-15.1,22.6-22.7c0.2-0.2,0.4-0.3,0.6-0.4c0.3,0,0.6,0,0.8,0.3
				c0.5,0.5,1,1,1.4,1.4c0.6,0.6,1.3,1.3,1.9,1.9c0.5,0.4,0.5,1.1,0,1.6c-9.2,9.1-18.3,18.3-27.4,27.5c-0.5,0.5-1,1-1.4,1.4
				c-0.5,0.5-1,0.5-1.5,0c-3.9-3.9-7.7-7.7-11.6-11.6c-0.3-0.3-0.4-0.6-0.3-1c0-0.2,0.1-0.3,0.2-0.4c1.2-1.2,2.3-2.3,3.5-3.5
				C63.9,85.6,64.1,85.5,64.3,85.5"/>
			<path class="st2" d="M62.8,60.9c0,5.2-3.5,9.7-8.5,11.1c-2.1,0.6-4.1,0.6-6.2,0c-0.3-0.1-0.2-0.1-0.4,0.2
				c-2.6,4.4-5.1,8.8-7.7,13.3c-0.4,0.7-0.9,1.1-1.7,1.3c-1.5,0.4-3.1-0.8-3.1-2.4c0-0.6,0.1-1.1,0.4-1.5c1.5-2.6,3-5.1,4.4-7.7
				c1.1-1.8,2.1-3.7,3.2-5.5c0.1-0.2,0.1-0.2-0.1-0.4c-1.6-1.6-2.7-3.5-3.2-5.7c-1.1-4.9,1.1-10,5.4-12.5c1.5-0.9,3.1-1.4,4.8-1.5
				c5.5-0.5,10.7,3,12.1,8.5C62.7,58.8,62.8,59.9,62.8,60.9 M43.8,61.2c0,4.2,3.4,7.6,7.5,7.6c4.5,0,7.6-3.6,7.6-7.5
				c0-4.2-3.4-7.6-7.5-7.6C47.2,53.7,43.8,57.1,43.8,61.2"/>
			<path class="st2" d="M92.8,70.6v-0.4V41.4c0-0.4,0-0.4-0.4-0.4c-14.3,0-28.5,0-42.8,0c-0.4,0-0.3-0.1-0.3,0.3c0,2,0,4.1,0,6.1
				c0,0.1,0,0.1,0,0.2c0,0.1,0,0.1-0.1,0.1c-0.7,0.1-1.3,0.3-2,0.5c-0.1-0.1,0-0.2,0-0.2c0-3.1,0-6.3,0-9.4c0,0,0-0.1,0-0.1
				c0-0.1,0-0.2,0.1-0.1c0.1,0,0.1,0,0.2,0c15.7,0,31.4,0,47.1,0c0.3,0,0.3,0,0.3,0.3c0,9.8,0,19.7,0,29.5c0,0.2,0,0.3-0.2,0.5
				c-0.6,0.6-1.1,1.1-1.7,1.7C93,70.5,92.9,70.5,92.8,70.6"/>
			<path class="st2" d="M86.7,76.8c-0.4,0.4-0.7,0.7-1,1c-0.6,0.6-1.3,1.3-1.9,1.9c-0.2,0.2-0.3,0.2-0.5,0.2c-6.7,0-13.5,0-20.2,0
				c-2.3,0-4.5,0-6.8,0c-0.3,0-0.6,0-0.9-0.2c-0.7-0.3-1-1.1-0.9-1.8c0.1-0.8,0.7-1.3,1.5-1.3c0.1,0,0.3,0,0.4,0
				c9.8,0,19.7,0,29.5,0C86.1,76.6,86.4,76.6,86.7,76.8"/>
			<path class="st2" d="M55.6,73.2c0.1-0.1,0.2-0.1,0.3-0.1c1.7-0.7,3.2-1.6,4.6-2.9c0.1-0.1,0.2-0.2,0.4-0.2c8.4,0,16.7,0,25.1,0
				c0.6,0,1.1,0.2,1.4,0.6c0.4,0.5,0.5,1.1,0.2,1.7c-0.2,0.6-0.7,0.9-1.3,1c-0.1,0-0.3,0-0.4,0c-9.9,0-19.7,0-29.6,0
				C56,73.3,55.8,73.3,55.6,73.2"/>
			<path class="st2" d="M65.2,98.2h-0.3H47.5c0,0-0.1,0-0.1,0c-0.2,0-0.2-0.1-0.2-0.2c0-0.1,0-0.1,0-0.2V73.6v-0.3
				c0.1-0.1,0.1,0,0.2,0c0.6,0.2,1.2,0.3,1.8,0.4c0.1,0,0.2,0.1,0.2,0.2c0,0.1,0,0.1,0,0.2c0,7,0,14,0,21c0,0.3,0,0.3,0.3,0.3
				c4.2,0,8.5,0,12.7,0c0.2,0,0.3,0,0.5,0.2c0.7,0.7,1.5,1.5,2.2,2.2C65.1,98,65.2,98.1,65.2,98.2"/>
			<path class="st2" d="M58.6,50c0.1,0,0.2,0,0.3,0c9,0,18,0,27,0c0.3,0,0.7,0,1,0.2c0.7,0.4,1,1.1,0.8,1.8
				c-0.1,0.7-0.8,1.2-1.5,1.3c-0.1,0-0.2,0-0.4,0c-7.9,0-15.7,0-23.6,0c-0.2,0-0.3-0.1-0.5-0.2C61,51.9,60,51,58.9,50.2
				C58.8,50.1,58.7,50.1,58.6,50"/>
			<path class="st2" d="M63,66.6c0-0.1,0-0.1,0-0.2c0.4-1,0.8-1.9,1-3c0-0.1,0.1-0.2,0.2-0.2c0,0,0.1,0,0.1,0c7.2,0,14.3,0,21.5,0
				c0.3,0,0.6,0,0.9,0.1c0.7,0.3,1.1,1.1,0.9,1.9c-0.1,0.7-0.8,1.3-1.6,1.3c-0.1,0-0.2,0-0.2,0c-7.5,0-15.1,0-22.6,0H63z"/>
			<path class="st2" d="M63.6,56.6h0.3c7.3,0,14.6,0,21.9,0c0.4,0,0.7,0,1,0.2c0.7,0.4,1,1.1,0.8,1.9c-0.2,0.7-0.8,1.2-1.5,1.3
				c-0.1,0-0.2,0-0.3,0c-7.1,0-14.2,0-21.3,0c0,0-0.1,0-0.1,0c-0.2,0-0.2,0-0.2-0.2c-0.1-1-0.3-1.9-0.6-2.8
				C63.7,56.8,63.7,56.7,63.6,56.6"/>
			<path class="st2" d="M80.1,83.3c0,0.1-0.1,0.2-0.1,0.2c-1,1-2,2-3,3c-0.1,0.1-0.2,0.2-0.4,0.2c-2.7,0-5.4,0-8,0
				c-0.2,0-0.3-0.1-0.4-0.2c-0.6-0.6-1.2-1.2-1.9-1.9c-1.1-1.1-2.9-1.1-4,0c-0.6,0.6-1.2,1.2-1.8,1.8c-0.1,0.1-0.2,0.2-0.4,0.2
				c-1.3,0-2.7,0-4,0c-0.6,0-1-0.2-1.4-0.6c-0.7-1-0.2-2.5,1.1-2.7c0.1,0,0.3,0,0.4,0c7.9,0,15.8,0,23.7,0
				C80,83.3,80.1,83.3,80.1,83.3"/>
			<path class="st2" d="M94.9,83.3c0,0.1,0,0.2,0,0.3c0,4.8,0,9.6,0,14.3c0,0.1,0,0.1,0,0.2c0,0.1,0,0.2-0.1,0.1c-0.1,0-0.1,0-0.2,0
				H80.3H80c0-0.1,0.1-0.2,0.1-0.2c0.8-0.8,1.5-1.5,2.3-2.3c0.1-0.1,0.3-0.2,0.4-0.2c3.2,0,6.4,0,9.6,0c0.4,0,0.3,0,0.3-0.3
				c0-3.2,0-6.4,0-9.6c0-0.2,0.1-0.3,0.2-0.5c0.6-0.6,1.1-1.1,1.7-1.7C94.8,83.4,94.8,83.3,94.9,83.3"/>
		</g>
	</g>
</g>
</svg>
