<svg id="Layer_1" data-name="Layer 1" xmlns="http://www.w3.org/2000/svg" viewBox="0 0 128 128"><defs><style>.cls-1{fill:#f2faff;}.cls-2{fill:#5fafdc;}</style></defs><rect class="cls-1" x="24.45" y="26" width="50" height="50"/><path class="cls-2" d="M55.18,74.36c0-6.79,0-13.58,0-20.37a5.24,5.24,0,0,1,2.7-4.7,2.58,2.58,0,0,0,1-1,5,5,0,0,1,2.26-2.14.78.78,0,0,0,.37-.37,5.35,5.35,0,0,1,4.68-3H87.74a5.86,5.86,0,0,1,2.51.49,5.43,5.43,0,0,1,3.18,5.13,5.33,5.33,0,0,1-3.5,4.92,4.06,4.06,0,0,1-.84.25c-.28.05-.28.05-.28.35V89.11c0,.48,0,.48-.49.48-.68,0-1.36,0-2,0-.24,0-.24,0-.24.24,0,.75,0,1.5,0,2.25,0,.28,0,.28-.27.28H83.31c-.26,0-.26,0-.26.26v2.45c0,.31,0,.28-.28.28H55.59c-.49,0-.41,0-.41-.42Q55.17,84.64,55.18,74.36Zm7.42-6.54V87.5c0,.48-.07.42.41.42H86.72c.42,0,.42,0,.42-.45V54c0-.37,0-.32-.33-.32h-20a2.52,2.52,0,0,1-1.24-.32,3.16,3.16,0,0,1-.42-5.24,2.53,2.53,0,0,1,1.71-.57l3.06.16c.27,0,.27,0,.22-.25a3.8,3.8,0,0,0-6-2.3,3.7,3.7,0,0,0-1.55,3.1Zm7.8-23.38a5.56,5.56,0,0,1,0,7.53.62.62,0,0,0,.3,0H87.8a5,5,0,0,0,1-.09,3.79,3.79,0,0,0,2.12-6,3.63,3.63,0,0,0-3-1.44c-5.78,0-11.56,0-17.34,0C70.55,44.42,70.46,44.39,70.4,44.44ZM58.17,51.11a2.63,2.63,0,0,0-.55.57,3.9,3.9,0,0,0-.78,2.45V93.29c0,.39,0,.39.41.39H81a1.92,1.92,0,0,1,.24,0c.14,0,.17-.06.17-.19s0-.47,0-.71c0-.47.07-.42-.41-.42H58.64c-.47,0-.47,0-.47-.46V51.11ZM61,48.41c-.09,0-.11,0-.14,0a3.47,3.47,0,0,0-.67,1,4.42,4.42,0,0,0-.31,1.73q0,19.53,0,39.06c0,.43,0,.43.43.43H83.7c.21,0,.49.09.63,0s0-.42,0-.65c0-.48.07-.41-.41-.41H61.39c-.44,0-.44,0-.44-.45V48.41Zm9.19.3-1.08.06L67,48.88a1.35,1.35,0,0,0-.79.27,1.66,1.66,0,0,0,.21,2.72.84.84,0,0,0,.49.1A3.78,3.78,0,0,0,70.14,48.71Z"/><path class="cls-2" d="M45.06,103.71a.85.85,0,0,0,.32,0h23c.25,0,.25,0,.25-.26s0-.73,0-1.09,0-.25.26-.26h1.06c.26,0,.26,0,.26-.25V96.59c0-.24,0-.24.24-.25h1.2c.17,0,.23,0,.23.23,0,.52,0,1,0,1.57v3.71c0,.29,0,.27.27.27h1.16c.15,0,.19,0,.19.2,0,.35,0,.7,0,1.05s0,.36.37.36H97.1a1.41,1.41,0,0,0,.41,0,.93.93,0,0,0,0-.37V99.86c0-.25,0-.26.26-.26H99c.23,0,.24,0,.24.25v3.37c0,.51,0,.51.5.51h3.74c.28,0,.29,0,.29.27s0,.8,0,1.19c0,.15,0,.22-.19.2a2.43,2.43,0,0,0-.27,0H73.9c-.43,0-.43,0-.43.43s0,.63,0,1-.06.23-.24.23c-.77,0-1.54,0-2.31,0H68.84c-.24,0-.24,0-.24-.25s0-.75,0-1.12,0-.23-.24-.24H39.26c-.5,0-.42.07-.42-.43q0-.49,0-1c0-.23,0-.24.25-.24h4c.28,0,.28,0,.28-.28,0-1.16,0-2.32,0-3.47v-.24c0-.1,0-.14.14-.14h1.36c.12,0,.16.05.16.16v3.78C45,103.6,45,103.66,45.06,103.71Z"/><path class="cls-2" d="M98.44,98.59H93.13a.11.11,0,0,1-.12-.12v-.24c0-2.55,0-5.11,0-7.66a.69.69,0,0,1,.21-.54c1.67-1.69,3.32-3.39,5-5.09.27-.27.21-.26.46,0l5,5.11a.66.66,0,0,1,.21.51c0,2.56,0,5.13,0,7.69v.21c0,.09,0,.15-.13.14H98.44Zm0-11.91c-.07,0-.1.06-.14.1-1.25,1.28-2.5,2.57-3.76,3.84a.59.59,0,0,0-.18.46c0,2,0,3.9,0,5.85v.14c0,.13,0,.18.18.17h7.8c.09,0,.15,0,.14-.14s0-.13,0-.2c0-1.93,0-3.86,0-5.79a.73.73,0,0,0-.22-.54c-1.21-1.22-2.41-2.46-3.62-3.69C98.58,86.81,98.53,86.71,98.43,86.68Z"/><path class="cls-2" d="M44.17,98.59H38.89c-.1,0-.14,0-.13-.14v-.21c0-2.55,0-5.11,0-7.66A.77.77,0,0,1,39,90q2.49-2.52,5-5.06a1.85,1.85,0,0,0,.14-.14c.07-.08.13-.09.2,0l.14.15c1.66,1.69,3.31,3.39,5,5.08a.65.65,0,0,1,.2.51v7.73c0,.37,0,.32-.32.32Zm0-12c-1.36,1.38-2.66,2.72-4,4a.55.55,0,0,0-.12.44v5.79c0,.38-.06.35.37.35h7.59c.12,0,.16,0,.15-.16v-.17c0-1.94,0-3.88,0-5.82a.66.66,0,0,0-.21-.51l-3.59-3.67C44.36,86.83,44.3,86.73,44.21,86.62Z"/><path class="cls-2" d="M44.19,81.85l8.11,8.27c-.09.09-.19,0-.27.06-.39,0-.78,0-1.16,0a.82.82,0,0,1-.71-.3C48.28,88,46.38,86,44.49,84.09a1.43,1.43,0,0,0-.36-.3,2.38,2.38,0,0,1-.22.27C42,86,40.06,88,38.14,90a.69.69,0,0,1-.56.23c-.5,0-1,0-1.58,0Z"/><path class="cls-2" d="M98.44,81.86l8.09,8.24c-.06.12-.15.07-.22.07H105a.65.65,0,0,1-.54-.22q-2.55-2.62-5.12-5.23c-.3-.3-.62-.59-1-.9-.09,0-.16.14-.24.23-1.93,2-3.86,3.91-5.78,5.88a.69.69,0,0,1-.59.24c-.48,0-1,0-1.47,0C90.47,89.92,97.46,82.76,98.44,81.86Z"/><path class="cls-2" d="M74.69,62.75l.2.2,5,5.13a.6.6,0,0,1,.2.47q0,3.9,0,7.8v.13c0,.11,0,.17-.15.16H69.55c-.33,0-.28,0-.28-.3V73.92c0-1.78,0-3.56,0-5.34a.61.61,0,0,1,.16-.46l5.12-5.23Zm0,1.93-.26.29q-1.79,1.83-3.58,3.65a.69.69,0,0,0-.22.53c0,1.93,0,3.86,0,5.79v.17c0,.13,0,.18.18.17a1,1,0,0,1,.17,0h7.62c.1,0,.14,0,.14-.14a1,1,0,0,1,0-.17c0-1.94,0-3.88,0-5.82a.65.65,0,0,0-.2-.51c-1.17-1.18-2.32-2.37-3.48-3.55Z"/><path class="cls-2" d="M66.56,68.17c2.7-2.76,5.41-5.51,8.14-8.28l8.13,8.27c-.08.11-.16.07-.24.07-.45,0-.91,0-1.36,0a.53.53,0,0,1-.44-.2L78,65.18l-3-3.09a1.16,1.16,0,0,0-.26-.23l-2.94,3c-1,1.05-2.07,2.1-3.1,3.16a.67.67,0,0,1-.53.23c-.51,0-1,0-1.52,0Z"/></svg>