<?xml version="1.0" encoding="utf-8"?>
<!-- Generator: Adobe Illustrator 25.0.1, SVG Export Plug-In . SVG Version: 6.00 Build 0)  -->
<svg version="1.1" id="Layer_1" xmlns="http://www.w3.org/2000/svg" xmlns:xlink="http://www.w3.org/1999/xlink" x="0px" y="0px"
	 viewBox="0 0 128 128" style="enable-background:new 0 0 128 128;" xml:space="preserve">
<style type="text/css">
	.st0{fill:#F2FAFF;}
	.st1{clip-path:url(#SVGID_2_);}
	.st2{clip-path:url(#SVGID_4_);fill:#5FAFDC;}
	.st3{clip-path:url(#SVGID_6_);}
	.st4{clip-path:url(#SVGID_8_);fill:#5FAFDC;}
	.st5{clip-path:url(#SVGID_10_);}
	.st6{clip-path:url(#SVGID_12_);fill:#5FAFDC;}
	.st7{clip-path:url(#SVGID_14_);}
	.st8{clip-path:url(#SVGID_16_);fill:#5FAFDC;}
	.st9{clip-path:url(#SVGID_18_);}
	.st10{clip-path:url(#SVGID_20_);fill:#5FAFDC;}
	.st11{clip-path:url(#SVGID_22_);}
	.st12{clip-path:url(#SVGID_24_);fill:#5FAFDC;}
	.st13{clip-path:url(#SVGID_26_);}
	.st14{clip-path:url(#SVGID_28_);fill:#5FAFDC;}
	.st15{clip-path:url(#SVGID_30_);}
	.st16{clip-path:url(#SVGID_32_);fill:#5FAFDC;}
	.st17{clip-path:url(#SVGID_34_);}
	.st18{clip-path:url(#SVGID_36_);fill:#5FAFDC;}
	.st19{clip-path:url(#SVGID_38_);}
	.st20{clip-path:url(#SVGID_40_);fill:#5FAFDC;}
	.st21{clip-path:url(#SVGID_42_);}
	.st22{clip-path:url(#SVGID_44_);fill:#5FAFDC;}
	.st23{fill:#5FAFDC;}
	.st24{fill:#38618C;}
	.st25{fill:#5C80BC;}
	.st26{fill:#243556;}
	.st27{fill:#1B2C3A;}
	.st28{clip-path:url(#SVGID_46_);}
	.st29{clip-path:url(#SVGID_48_);fill:none;stroke:#38618C;stroke-width:0.9634;stroke-miterlimit:10;}
	.st30{clip-path:url(#SVGID_48_);fill:#5FAFDC;}
	.st31{clip-path:url(#SVGID_50_);}
	.st32{clip-path:url(#SVGID_52_);fill:#5FAFDC;}
	.st33{clip-path:url(#SVGID_52_);fill:none;stroke:#5FAFDC;stroke-width:1.1666;stroke-miterlimit:10;}
	.st34{clip-path:url(#SVGID_54_);}
	.st35{clip-path:url(#SVGID_56_);fill:#5FAFDC;}
	.st36{clip-path:url(#SVGID_58_);}
	.st37{clip-path:url(#SVGID_60_);fill:#5FAFDC;}
	.st38{fill-rule:evenodd;clip-rule:evenodd;fill:#5FAFDC;}
	.st39{fill:none;stroke:#5FAFDC;stroke-width:2.6;stroke-miterlimit:10;}
	.st40{clip-path:url(#SVGID_62_);}
	.st41{clip-path:url(#SVGID_64_);fill:#5FAFDC;}
	.st42{fill:#5FAFDC;stroke:#5FAFDC;stroke-miterlimit:10;}
	.st43{fill-rule:evenodd;clip-rule:evenodd;fill:#5FAFDC;stroke:#5FAFDC;stroke-miterlimit:10;}
	.st44{fill:none;stroke:#5FAFDC;stroke-miterlimit:10;}
	.st45{clip-path:url(#SVGID_66_);}
	.st46{clip-path:url(#SVGID_68_);fill:#5FAFDC;}
	.st47{clip-path:url(#SVGID_68_);fill:none;stroke:#5FAFDC;stroke-width:5;stroke-miterlimit:10;}
	.st48{opacity:0.83;}
	.st49{opacity:0.98;}
	.st50{fill-rule:evenodd;clip-rule:evenodd;fill:#5FAFDC;stroke:#5FAFDC;stroke-width:0.75;stroke-miterlimit:10;}
</style>
<rect x="24.4" y="26" class="st0" width="50" height="50"/>
<g>
	<polygon class="st23" points="80.2,63.3 78.3,63.3 72,56.8 65.8,63.3 63.8,63.3 72,54.9 	"/>
	<path class="st23" d="M72,57.7l-5.5,5.6v8.4h10.9v-8.4L72,57.7z M76.6,70.8h-8.4v-6.4l4.2-4.2l4.2,4.2L76.6,70.8z"/>
	<path class="st23" d="M84.5,38H63.6c-2.2,0-4.2,1.4-5,3.2c-1.4,0.6-2.4,1.6-2.9,3c-2,0.9-3.4,2.8-3.4,5.1v41.7H80v-3.4h3.4v-2.5
		h2.5V48.9c2.4-0.4,4.2-2.7,4.2-5.5C90.1,40.4,87.4,38,84.5,38z M79.2,89.4H53.9V49.2c0.3-1.1,1.7-2.9,1.7-2.9v41.4h23.6V89.4z
		 M81.7,86H57.3V46.2c-0.1-1,0.8-2.7,0.8-2.7v41.6h23.6V86z M85.1,83.5H59.8v-40c0.1-2.1,1.8-3.8,3.9-3.8c1.9,0,3.6,1.4,3.8,3.3
		c-0.3,0-0.8-0.1-1.4-0.1c-0.5,0-1.1-0.1-1.7,0.2h-0.3h-0.3c-0.2-0.3-0.4-0.2-0.7-0.1c-0.4,0.2-0.8,0.4-1.1,0.7s-0.5,0.7-0.7,1.1
		c0,0.1-0.1,0.2-0.1,0.3c0,0.1,0.1,0.3,0.1,0.3s0,0.2,0,0.2v0.1V46c0,0.4,0.1,0.9,0.3,1.2c0.2,0.3,0.3,0.7,0.6,0.9
		c0.3,0.3,0.5,0.4,0.8,0.6c0.3,0.2,0.5,0.2,0.7,0.3c0.1,0,0.1,0,0.2,0l0,0h21.1L85.1,83.5z M67.5,43.9c-0.3,1.8-1.6,3.1-3.4,3.3H64
		l0,0h-0.1c-0.2-0.1-0.3-0.2-0.6-0.4c-0.2-0.3-0.4-0.6-0.1-0.9v-0.1v-0.1v-0.2c-0.3-0.1-0.3-0.2-0.2-0.3c0.1-0.2,0.2-0.4,0.3-0.6
		s0.3-0.3,0.5-0.4c0.1-0.1,0.2-0.1,0.3-0.4h0.2h0.3c0.6,0.3,1.2,0.2,1.7,0.2C66.7,44,67.2,43.9,67.5,43.9z M85.3,47.3H67.7
		c0.9-1,1.5-2.3,1.5-3.8s-0.6-2.8-1.5-3.8l17.5,0c1.7,0,3.2,1,3.7,2.6C89.7,44.9,87.7,47.3,85.3,47.3z"/>
	<polygon class="st23" points="65.8,63.3 63.8,63.3 72,54.9 80.2,63.3 78.3,63.3 72,56.8 	"/>
	<path class="st23" d="M72,57.7l-5.5,5.6v8.4h10.9v-8.4L72,57.7z M76.6,70.8h-8.4v-6.4l4.2-4.2l4.2,4.2L76.6,70.8z"/>
	<polygon class="st23" points="80.2,63.3 78.3,63.3 72,56.8 65.8,63.3 63.8,63.3 72,54.9 	"/>
	<path class="st23" d="M72,57.7l-5.5,5.6v8.4h10.9v-8.4L72,57.7z M76.6,70.8h-8.4v-6.4l4.2-4.2l4.2,4.2L76.6,70.8z"/>
	<polygon class="st23" points="49.7,85.2 47.7,85.2 41.5,78.8 35.2,85.2 33.2,85.2 41.5,76.9 	"/>
	<path class="st23" d="M41.7,79.7l-5.5,5.5v8.4h10.9v-8.4L41.7,79.7z M45.5,92.7h-8.4v-6.4l4.2-4.2l4.2,4.2
		C45.5,86.3,45.5,92.7,45.5,92.7z"/>
	<polygon class="st23" points="104,85.2 102.1,85.2 95.8,78.8 89.5,85.2 87.6,85.2 95.8,76.9 	"/>
	<path class="st23" d="M95.6,79.7l-5.5,5.5v8.4h10.9v-8.4L95.6,79.7z M100.2,92.7h-8.4v-6.4l4.2-4.2l4.2,4.2
		C100.2,86.3,100.2,92.7,100.2,92.7z"/>
	<polygon class="st23" points="101.1,99.5 101.1,100.3 70.8,100.3 70.8,102 65.7,102 65.7,100.3 36.2,100.3 36.2,99.5 40.4,99.5 
		40.4,95.3 42.1,95.3 42.1,99.5 65.7,99.5 65.7,97.8 67.4,97.8 67.4,91.9 69.1,91.9 69.1,97.8 70.8,97.8 70.8,99.5 95.2,99.5 
		95.2,95.3 96.9,95.3 96.9,99.5 	"/>
</g>
</svg>
