<?xml version="1.0" encoding="utf-8"?>
<!-- Generator: Adobe Illustrator 25.0.1, SVG Export Plug-In . SVG Version: 6.00 Build 0)  -->
<svg version="1.1" id="Layer_1" xmlns="http://www.w3.org/2000/svg" xmlns:xlink="http://www.w3.org/1999/xlink" x="0px" y="0px"
	 viewBox="0 0 128 128" style="enable-background:new 0 0 128 128;" xml:space="preserve">
<style type="text/css">
	.st0{fill:#F2FAFF;}
	.st1{clip-path:url(#SVGID_2_);}
	.st2{clip-path:url(#SVGID_4_);fill:#5FAFDC;}
	.st3{clip-path:url(#SVGID_6_);}
	.st4{clip-path:url(#SVGID_8_);fill:#5FAFDC;}
	.st5{clip-path:url(#SVGID_10_);}
	.st6{clip-path:url(#SVGID_12_);fill:#5FAFDC;}
	.st7{clip-path:url(#SVGID_14_);}
	.st8{clip-path:url(#SVGID_16_);fill:#5FAFDC;}
	.st9{clip-path:url(#SVGID_18_);}
	.st10{clip-path:url(#SVGID_20_);fill:#5FAFDC;}
	.st11{clip-path:url(#SVGID_22_);}
	.st12{clip-path:url(#SVGID_24_);fill:#5FAFDC;}
	.st13{clip-path:url(#SVGID_26_);}
	.st14{clip-path:url(#SVGID_28_);fill:#5FAFDC;}
	.st15{clip-path:url(#SVGID_30_);}
	.st16{clip-path:url(#SVGID_32_);fill:#5FAFDC;}
	.st17{clip-path:url(#SVGID_34_);}
	.st18{clip-path:url(#SVGID_36_);fill:#5FAFDC;}
	.st19{clip-path:url(#SVGID_38_);}
	.st20{clip-path:url(#SVGID_40_);fill:#5FAFDC;}
	.st21{clip-path:url(#SVGID_42_);}
	.st22{clip-path:url(#SVGID_44_);fill:#5FAFDC;}
	.st23{fill:#5FAFDC;}
	.st24{fill:#38618C;}
	.st25{fill:#5C80BC;}
	.st26{fill:#243556;}
	.st27{fill:#1B2C3A;}
	.st28{clip-path:url(#SVGID_46_);}
	.st29{clip-path:url(#SVGID_48_);fill:none;stroke:#38618C;stroke-width:0.9634;stroke-miterlimit:10;}
	.st30{clip-path:url(#SVGID_48_);fill:#5FAFDC;}
	.st31{clip-path:url(#SVGID_50_);}
	.st32{clip-path:url(#SVGID_52_);fill:#5FAFDC;}
	.st33{clip-path:url(#SVGID_52_);fill:none;stroke:#5FAFDC;stroke-width:1.1666;stroke-miterlimit:10;}
	.st34{clip-path:url(#SVGID_54_);}
	.st35{clip-path:url(#SVGID_56_);fill:#5FAFDC;}
	.st36{clip-path:url(#SVGID_58_);}
	.st37{clip-path:url(#SVGID_60_);fill:#5FAFDC;}
	.st38{fill-rule:evenodd;clip-rule:evenodd;fill:#5FAFDC;}
	.st39{fill:none;stroke:#5FAFDC;stroke-width:2.6;stroke-miterlimit:10;}
	.st40{clip-path:url(#SVGID_62_);}
	.st41{clip-path:url(#SVGID_64_);fill:#5FAFDC;}
	.st42{fill:#5FAFDC;stroke:#5FAFDC;stroke-miterlimit:10;}
	.st43{fill-rule:evenodd;clip-rule:evenodd;fill:#5FAFDC;stroke:#5FAFDC;stroke-miterlimit:10;}
	.st44{fill:none;stroke:#5FAFDC;stroke-miterlimit:10;}
	.st45{clip-path:url(#SVGID_66_);}
	.st46{clip-path:url(#SVGID_68_);fill:#5FAFDC;}
	.st47{clip-path:url(#SVGID_68_);fill:none;stroke:#5FAFDC;stroke-width:5;stroke-miterlimit:10;}
	.st48{opacity:0.83;}
	.st49{opacity:0.98;}
	.st50{fill-rule:evenodd;clip-rule:evenodd;fill:#5FAFDC;stroke:#5FAFDC;stroke-width:0.75;stroke-miterlimit:10;}
</style>
<rect x="24.4" y="26" class="st0" width="50" height="50"/>
<g>
	<g>
		<defs>
			<rect id="SVGID_33_" x="30" y="35" width="81.9" height="67"/>
		</defs>
		<clipPath id="SVGID_2_">
			<use xlink:href="#SVGID_33_"  style="overflow:visible;"/>
		</clipPath>
		<g class="st1">
			<defs>
				<rect id="SVGID_35_" x="30" y="35" width="81.9" height="67"/>
			</defs>
			<clipPath id="SVGID_4_">
				<use xlink:href="#SVGID_35_"  style="overflow:visible;"/>
			</clipPath>
			<path class="st2" d="M70.6,99c-12,0-24.1,0-36.1,0c-1.4,0-1.5-0.1-1.5-1.5c0-19.1,0-38.1,0-57.2c0-1.4,0.1-1.5,1.5-1.5
				c24.1,0,48.2,0,72.3,0c1.3,0,1.5,0.1,1.5,1.5c0,19.1,0,38.2,0,57.3c0,1.4-0.1,1.5-1.5,1.5C94.7,99,82.7,99,70.6,99 M70.6,40.3
				c-11.7,0-23.5,0-35.2,0c-0.7,0-0.9,0.2-0.9,0.9c0,18.5,0,36.9,0,55.4c0,0.7,0.2,0.9,0.9,0.9c23.5,0,47,0,70.5,0
				c0.7,0,0.9-0.2,0.9-0.9c0-18.5,0-37,0-55.5c0-0.7-0.2-0.9-0.9-0.9C94.1,40.3,82.4,40.3,70.6,40.3"/>
			<path class="st2" d="M82.6,94.4c-6.6,0-13.1,0-19.7,0c-1.2,0-1.3-0.1-1.3-1.3c0-8.1,0-16.3,0-24.4c0-1.2,0.1-1.3,1.3-1.3
				c13.2,0,26.3,0,39.5,0c1.2,0,1.3,0.1,1.3,1.3c0,8.1,0,16.3,0,24.4c0,1.2-0.1,1.3-1.3,1.3C95.8,94.4,89.2,94.4,82.6,94.4
				 M63.1,87.8c0.1,0,0.1,0.1,0.2,0.1c0.1-0.2,0.3-0.4,0.4-0.6c2.2-2.3,4.3-4.6,6.5-6.9c0.9-0.9,1-1,2.1-0.2
				c3.2,2.2,6.4,4.4,9.6,6.7c0.5,0.3,0.7,0.4,1.1-0.1c2.8-3.5,5.7-7,8.5-10.5c0.8-0.9,1-0.9,1.8-0.1c1.7,1.7,3.5,3.3,5.2,5
				c1.2,1.1,2.4,2.3,3.6,3.4c0.1-0.1,0.1-0.2,0.1-0.2c0-5,0-10.1,0-15.1c0-0.5-0.2-0.5-0.6-0.5c-12.6,0-25.2,0-37.9,0
				c-0.6,0-0.7,0.3-0.7,0.8c0,5.1,0,10.1,0,15.2V87.8z M82.6,92.9c6.2,0,12.5,0,18.7,0c0.8,0,0.9-0.2,0.9-0.9c-0.1-1.5,0-2.9,0-4.4
				c0-0.5-0.2-0.8-0.5-1.2c-2.9-2.8-5.8-5.6-8.7-8.4c-0.4-0.4-0.7-0.5-1.1,0.1c-2.8,3.5-5.6,6.9-8.4,10.4c-0.7,0.9-0.9,0.9-1.8,0.2
				c-3.3-2.3-6.6-4.5-9.8-6.8c-0.5-0.3-0.7-0.3-1.1,0.1c-2.1,2.3-4.2,4.6-6.5,6.8c-1,1-1.5,2-1.3,3.4c0.1,0.6,0.2,0.8,0.8,0.8
				C70.1,92.9,76.4,92.9,82.6,92.9"/>
			<path class="st2" d="M37.5,58.3c0-4.6,0-9.3,0-13.9c0-1,0.1-1.2,1.1-1.2c6.3,0,12.5,0,18.8,0c1,0,1.1,0.2,1.1,1.1
				c0,9.3,0,18.5,0,27.8c0,1-0.2,1.2-1.2,1.2c-6.3,0-12.5,0-18.8,0c-1,0-1.1-0.2-1.1-1.1C37.5,67.6,37.5,63,37.5,58.3 M52.4,54.6
				c-0.2,0.3-0.3,0.5-0.5,0.7c-1.2,1.9-2.3,3.8-3.5,5.7C48,62,47.6,62,46.8,61.3c-1.1-1.1-2.3-2.2-3.4-3.3c-0.3-0.3-0.5-0.4-0.9,0
				c-1.1,1.3-2.2,2.6-3.3,3.9c-0.2,0.3-0.3,0.5-0.3,0.9c0,2.8,0,5.7,0,8.5c0,0.5,0.2,0.6,0.7,0.6c5.6,0,11.2,0,16.8,0
				c0.5,0,0.7-0.1,0.7-0.7c0-3.3,0-6.6,0-9.9c0-0.2,0-0.5-0.2-0.7C55.4,58.6,54,56.7,52.4,54.6 M56.9,58.1c0,0,0.1-0.1,0.1-0.1
				c0-4.2,0-8.4,0-12.6c0-0.6-0.2-0.7-0.7-0.7c-5.5,0-11.1,0-16.6,0c-0.7,0-0.8,0.2-0.8,0.8c0,4.5,0,9,0,13.6c0,0.2-0.1,0.4,0.1,0.7
				c1-1.2,2.1-2.4,3.1-3.6c0.6-0.7,0.9-0.7,1.6-0.1c1.1,1.1,2.2,2.1,3.2,3.2c0.4,0.4,0.6,0.4,0.9-0.1c1.1-1.9,2.3-3.8,3.5-5.8
				c0.7-1.2,1.1-1.2,2-0.1C54.5,54.9,55.7,56.5,56.9,58.1"/>
			<path class="st2" d="M72.1,63.7c-3.1,0-6.3,0-9.4,0c-1,0-1.1-0.1-1.1-1.1c0-6.1,0-12.2,0-18.3c0-0.9,0.2-1.1,1.1-1.1
				c6.3,0,12.6,0,18.9,0c0.9,0,1.1,0.2,1.1,1.1c0,6.1,0,12.1,0,18.2c0,0.9-0.2,1.1-1.1,1.1C78.4,63.8,75.3,63.7,72.1,63.7 M81,55.7
				c0.1-0.1,0.1-0.3,0.1-0.4c0-3.3,0-6.6,0-9.9c0-0.6-0.3-0.6-0.7-0.6c-5.5,0-11.1,0-16.6,0c-0.6,0-0.8,0.1-0.8,0.7
				c0,3.8,0,7.6,0,11.4c0,0.2-0.1,0.4,0.2,0.5c1.1-1.2,2.1-2.4,3.2-3.6c0.6-0.7,0.9-0.7,1.5,0c1,1,2,2,3,3c0.6,0.6,0.8,0.4,1.1-0.2
				c1.1-1.9,2.2-3.7,3.3-5.6c0.6-0.9,1-1,1.7-0.1c1.1,1.4,2.2,2.8,3.3,4.1C80.6,55.3,80.7,55.6,81,55.7 M76.3,52.5
				c-1.2,2.1-2.5,4.1-3.7,6.2c-0.5,0.9-0.9,0.9-1.6,0.2c-1.1-1.1-2.2-2.1-3.2-3.2c-0.3-0.4-0.5-0.4-0.9,0c-0.8,1-1.7,2-2.6,2.9
				c-1,0.9-1.2,1.9-1.1,3.1c0,0.4,0.1,0.6,0.6,0.6c5.6,0,11.3,0,16.9,0c0.5,0,0.6-0.2,0.6-0.6c0.1-3.1,0.1-3.1-1.8-5.6
				c-0.8-1-1.6-2.1-2.5-3.1C76.7,52.9,76.6,52.6,76.3,52.5"/>
			<path class="st2" d="M48.1,76.4c3.1,0,6.2,0,9.3,0c1,0,1.2,0.2,1.2,1.2c0,5.2,0,10.5,0,15.7c0,1-0.2,1.1-1.1,1.1
				c-6.3,0-12.6,0-18.9,0c-0.9,0-1.1-0.2-1.1-1.1c0-5.3,0-10.5,0-15.8c0-1,0.1-1.1,1.2-1.1C41.8,76.4,45,76.4,48.1,76.4 M39,88.5
				c1.1-1.2,2.2-2.2,3.1-3.3c0.5-0.6,1-0.6,1.6-0.1c1.1,0.9,2.2,1.8,3.2,2.8c0.5,0.4,0.7,0.4,1-0.1c1.2-1.6,2.4-3.3,3.6-4.9
				c0.5-0.6,0.9-0.7,1.4-0.1c0.5,0.5,0.9,1,1.4,1.5c0.8,0.9,1.7,1.8,2.6,2.8c0-3.1,0-6,0-8.9c0-0.5-0.3-0.4-0.6-0.4
				c-5.6,0-11.3,0-16.9,0c-0.4,0-0.6,0.1-0.6,0.5C39,81.7,39,85,39,88.5 M48,92.9c2.8,0,5.6,0,8.4,0c0.5,0,0.7-0.1,0.7-0.7
				c0-0.8,0-1.6,0-2.3c0-0.3-0.1-0.6-0.3-0.9c-1.3-1.4-2.7-2.9-4-4.3c-0.4-0.4-0.5-0.3-0.8,0.1c-1.2,1.6-2.4,3.3-3.6,4.9
				c-0.5,0.7-0.8,0.7-1.4,0.2c-1.2-1-2.3-1.9-3.4-2.9c-0.5-0.4-0.7-0.3-1.1,0.1c-0.8,0.9-1.6,1.7-2.5,2.5c-0.8,0.7-1.1,1.5-1,2.5
				c0,0.6,0.1,0.8,0.8,0.8C42.5,92.9,45.2,92.9,48,92.9"/>
			<path class="st2" d="M85.7,53.5c0-3,0-6.1,0-9.1c0-0.9,0.2-1.1,1.1-1.1c5.3,0,10.6,0,15.9,0c0.9,0,1.1,0.2,1.1,1.1
				c0,6.1,0,12.2,0,18.3c0,0.9-0.2,1.1-1.1,1.1c-5.3,0-10.6,0-15.9,0c-0.9,0-1.1-0.2-1.1-1.1C85.7,59.6,85.7,56.6,85.7,53.5
				 M87.2,57.4c0.9-1.1,1.6-2,2.3-2.9c0.7-0.9,1-0.9,1.8-0.1c0.7,0.7,1.5,1.5,2.2,2.2c0.7,0.7,0.7,0.7,1.2-0.1
				c0.9-1.6,1.9-3.2,2.8-4.7c0.5-0.8,1-0.8,1.5-0.1c0.2,0.3,0.4,0.5,0.6,0.8c0.8,1.1,1.6,2.2,2.6,3.4c0-3.8,0-7.3,0-10.8
				c0-0.4-0.2-0.4-0.5-0.4c-4.7,0-9.4,0-14,0c-0.4,0-0.5,0.1-0.5,0.6c0,1.5,0,3,0,4.6V57.4z M98.4,53.4c-1.1,1.9-2.2,3.7-3.3,5.5
				c-0.5,0.8-0.9,0.8-1.5,0.2c-0.9-0.9-1.9-1.9-2.7-2.8c-0.4-0.4-0.6-0.4-0.9,0.1c-0.6,0.8-1.1,1.6-1.8,2.2c-1,0.9-1.2,2-1,3.3
				c0,0.4,0.1,0.5,0.5,0.5c4.7,0,9.4,0,14,0c0.4,0,0.5-0.2,0.5-0.6c0-0.9,0-1.9,0-2.8c0-0.3-0.1-0.5-0.2-0.7
				C100.8,56.6,99.7,55,98.4,53.4"/>
			<path class="st2" d="M96,72.2c0.6,0,1.1,0.5,1.1,1.1c0,0.6-0.5,1.1-1.1,1.1c-0.6,0-1.2-0.5-1.2-1.2C94.9,72.7,95.4,72.2,96,72.2"
				/>
			<path class="st2" d="M53.9,49.8c-0.7,0-1.2-0.5-1.1-1.2c0-0.6,0.5-1.1,1.2-1.1c0.6,0,1.1,0.5,1.1,1.1
				C55.1,49.3,54.5,49.8,53.9,49.8"/>
			<path class="st2" d="M78.9,47.7c0,0.6-0.5,1.1-1.1,1.1c-0.6,0-1.1-0.5-1.2-1.1c0-0.6,0.5-1.2,1.1-1.2
				C78.4,46.6,78.9,47.1,78.9,47.7"/>
			<path class="st2" d="M53.1,80c0.1-0.6,0.6-1.1,1.2-1c0.6,0.1,1.1,0.6,1,1.2c-0.1,0.6-0.6,1.1-1.2,1C53.5,81.2,53,80.7,53.1,80"/>
			<path class="st2" d="M99.4,48.8c-0.6,0-1.1-0.5-1.2-1.1c0-0.6,0.5-1.2,1.1-1.2c0.6,0,1.1,0.5,1.1,1.1
				C100.5,48.3,100,48.8,99.4,48.8"/>
		</g>
	</g>
</g>
</svg>
