<?xml version="1.0" encoding="utf-8"?>
<!-- Generator: Adobe Illustrator 25.0.1, SVG Export Plug-In . SVG Version: 6.00 Build 0)  -->
<svg version="1.1" id="Layer_1" xmlns="http://www.w3.org/2000/svg" xmlns:xlink="http://www.w3.org/1999/xlink" x="0px" y="0px"
	 viewBox="0 0 128 128" style="enable-background:new 0 0 128 128;" xml:space="preserve">
<style type="text/css">
	.st0{fill:#F2FAFF;}
	.st1{clip-path:url(#SVGID_2_);}
	.st2{clip-path:url(#SVGID_4_);fill:#5FAFDC;}
	.st3{clip-path:url(#SVGID_6_);}
	.st4{clip-path:url(#SVGID_8_);fill:#5FAFDC;}
	.st5{clip-path:url(#SVGID_10_);}
	.st6{clip-path:url(#SVGID_12_);fill:#5FAFDC;}
	.st7{clip-path:url(#SVGID_14_);}
	.st8{clip-path:url(#SVGID_16_);fill:#5FAFDC;}
	.st9{clip-path:url(#SVGID_18_);}
	.st10{clip-path:url(#SVGID_20_);fill:#5FAFDC;}
	.st11{clip-path:url(#SVGID_22_);}
	.st12{clip-path:url(#SVGID_24_);fill:#5FAFDC;}
	.st13{clip-path:url(#SVGID_26_);}
	.st14{clip-path:url(#SVGID_28_);fill:#5FAFDC;}
	.st15{clip-path:url(#SVGID_30_);}
	.st16{clip-path:url(#SVGID_32_);fill:#5FAFDC;}
	.st17{clip-path:url(#SVGID_34_);}
	.st18{clip-path:url(#SVGID_36_);fill:#5FAFDC;}
	.st19{clip-path:url(#SVGID_38_);}
	.st20{clip-path:url(#SVGID_40_);fill:#5FAFDC;}
	.st21{clip-path:url(#SVGID_42_);}
	.st22{clip-path:url(#SVGID_44_);fill:#5FAFDC;}
	.st23{fill:#5FAFDC;}
	.st24{fill:#38618C;}
	.st25{fill:#5C80BC;}
	.st26{fill:#243556;}
	.st27{fill:#1B2C3A;}
	.st28{clip-path:url(#SVGID_46_);}
	.st29{clip-path:url(#SVGID_48_);fill:none;stroke:#38618C;stroke-width:0.9634;stroke-miterlimit:10;}
	.st30{clip-path:url(#SVGID_48_);fill:#5FAFDC;}
	.st31{clip-path:url(#SVGID_50_);}
	.st32{clip-path:url(#SVGID_52_);fill:#5FAFDC;}
	.st33{clip-path:url(#SVGID_52_);fill:none;stroke:#5FAFDC;stroke-width:1.1666;stroke-miterlimit:10;}
	.st34{clip-path:url(#SVGID_54_);}
	.st35{clip-path:url(#SVGID_56_);fill:#5FAFDC;}
	.st36{clip-path:url(#SVGID_58_);}
	.st37{clip-path:url(#SVGID_60_);fill:#5FAFDC;}
	.st38{fill-rule:evenodd;clip-rule:evenodd;fill:#5FAFDC;}
	.st39{fill:none;stroke:#5FAFDC;stroke-width:2.6;stroke-miterlimit:10;}
	.st40{clip-path:url(#SVGID_62_);}
	.st41{clip-path:url(#SVGID_64_);fill:#5FAFDC;}
	.st42{fill:#5FAFDC;stroke:#5FAFDC;stroke-miterlimit:10;}
	.st43{fill-rule:evenodd;clip-rule:evenodd;fill:#5FAFDC;stroke:#5FAFDC;stroke-miterlimit:10;}
	.st44{fill:none;stroke:#5FAFDC;stroke-miterlimit:10;}
	.st45{clip-path:url(#SVGID_66_);}
	.st46{clip-path:url(#SVGID_68_);fill:#5FAFDC;}
	.st47{clip-path:url(#SVGID_68_);fill:none;stroke:#5FAFDC;stroke-width:5;stroke-miterlimit:10;}
	.st48{opacity:0.83;}
	.st49{opacity:0.98;}
	.st50{fill-rule:evenodd;clip-rule:evenodd;fill:#5FAFDC;stroke:#5FAFDC;stroke-width:0.75;stroke-miterlimit:10;}
</style>
<rect x="24.4" y="26" class="st0" width="50" height="50"/>
<g>
	<g>
		<defs>
			<rect id="SVGID_29_" x="32" y="38" width="73.9" height="65.8"/>
		</defs>
		<clipPath id="SVGID_2_">
			<use xlink:href="#SVGID_29_"  style="overflow:visible;"/>
		</clipPath>
		<g class="st1">
			<defs>
				<rect id="SVGID_31_" x="32" y="38" width="73.9" height="65.8"/>
			</defs>
			<clipPath id="SVGID_4_">
				<use xlink:href="#SVGID_31_"  style="overflow:visible;"/>
			</clipPath>
			<path class="st2" d="M70,45c8.4,0,16.7,0,25.1,0c1.1,0,2.1,0.2,3.1,0.7c1.9,1,3.1,2.6,3.4,4.8c0,0.3,0.1,0.6,0.1,0.9
				c0,13.7,0,27.5,0,41.2c0,2.9-2.1,5.6-5.3,6.2c-0.4,0.1-0.8,0.1-1.2,0.1c-16.8,0-33.6,0-50.4,0c-2.7,0-4.6-1.2-5.8-3.6
				c-0.4-0.8-0.6-1.8-0.6-2.7c0-13.7,0-27.5,0-41.2c0-2.9,2-5.5,4.9-6.1c0.5-0.1,1.1-0.2,1.7-0.2C53.3,45,61.6,45,70,45 M70,51.3
				c-8.3,0-16.6,0-24.9,0c-0.4,0-0.4,0-0.4,0.4V92c0,0.4,0,0.4,0.4,0.4h49.8c0.4,0,0.4,0,0.4-0.4V51.7c0-0.4,0-0.4-0.4-0.4
				C86.6,51.3,78.3,51.3,70,51.3"/>
			<path class="st2" d="M76.3,71.9c0-3.6,0-7.2,0-10.7c0-0.4-0.1-0.4,0.4-0.4c4,0,8,0,12,0c0,0,0.1,0,0.1,0c0.2,0,0.2,0,0.2,0.2
				c0,0.1,0,0.1,0,0.2v21.4c0,0.4,0,0.4-0.4,0.4H76.7c0,0-0.1,0-0.1,0c-0.3,0-0.3,0-0.3-0.3C76.3,79.1,76.3,75.5,76.3,71.9"/>
			<path class="st2" d="M62.1,86.1c-2.5,0-5.1,0-7.6,0c-0.4,0-0.3,0-0.3-0.3c0-4,0-8,0-12c0-0.4,0-0.3,0.3-0.3c5,0,10.1,0,15.1,0
				c0.1,0,0.1,0,0.2,0c0.2,0,0.2,0.1,0.2,0.2c0,0.1,0,0.1,0,0.2c0,4,0,8,0,12c0,0.4,0.1,0.3-0.3,0.3C67.1,86.1,64.6,86.1,62.1,86.1"
				/>
			<path class="st2" d="M58.9,57.6c2.5,0,5,0,7.5,0c0.4,0,0.4,0,0.4,0.3c0,2.9,0,5.9,0,8.8c0,0.1,0,0.1,0,0.2c0,0.2-0.1,0.2-0.2,0.2
				c-0.1,0-0.1,0-0.2,0c-5,0-10,0-15,0c-0.4,0-0.4,0-0.4-0.4c0-2.9,0-5.8,0-8.7c0-0.1,0-0.1,0-0.2c0-0.2,0-0.2,0.2-0.2
				c1.2,0,2.3,0,3.5,0H58.9z"/>
		</g>
	</g>
</g>
</svg>
