<?xml version="1.0" encoding="utf-8"?>
<!-- Generator: Adobe Illustrator 25.0.1, SVG Export Plug-In . SVG Version: 6.00 Build 0)  -->
<svg version="1.1" id="Layer_1" xmlns="http://www.w3.org/2000/svg" xmlns:xlink="http://www.w3.org/1999/xlink" x="0px" y="0px"
	 viewBox="0 0 128 128" style="enable-background:new 0 0 128 128;" xml:space="preserve">
<style type="text/css">
	.st0{fill:#F2FAFF;}
	.st1{clip-path:url(#SVGID_2_);}
	.st2{clip-path:url(#SVGID_4_);fill:#5FAFDC;}
	.st3{clip-path:url(#SVGID_6_);}
	.st4{clip-path:url(#SVGID_8_);fill:#5FAFDC;}
	.st5{clip-path:url(#SVGID_10_);}
	.st6{clip-path:url(#SVGID_12_);fill:#5FAFDC;}
	.st7{clip-path:url(#SVGID_14_);}
	.st8{clip-path:url(#SVGID_16_);fill:#5FAFDC;}
	.st9{clip-path:url(#SVGID_18_);}
	.st10{clip-path:url(#SVGID_20_);fill:#5FAFDC;}
	.st11{clip-path:url(#SVGID_22_);}
	.st12{clip-path:url(#SVGID_24_);fill:#5FAFDC;}
	.st13{clip-path:url(#SVGID_26_);}
	.st14{clip-path:url(#SVGID_28_);fill:#5FAFDC;}
	.st15{clip-path:url(#SVGID_30_);}
	.st16{clip-path:url(#SVGID_32_);fill:#5FAFDC;}
	.st17{clip-path:url(#SVGID_34_);}
	.st18{clip-path:url(#SVGID_36_);fill:#5FAFDC;}
	.st19{clip-path:url(#SVGID_38_);}
	.st20{clip-path:url(#SVGID_40_);fill:#5FAFDC;}
	.st21{clip-path:url(#SVGID_42_);}
	.st22{clip-path:url(#SVGID_44_);fill:#5FAFDC;}
	.st23{fill:#5FAFDC;}
	.st24{fill:#38618C;}
	.st25{fill:#5C80BC;}
	.st26{fill:#243556;}
	.st27{fill:#1B2C3A;}
	.st28{clip-path:url(#SVGID_46_);}
	.st29{clip-path:url(#SVGID_48_);fill:none;stroke:#38618C;stroke-width:0.9634;stroke-miterlimit:10;}
	.st30{clip-path:url(#SVGID_48_);fill:#5FAFDC;}
	.st31{clip-path:url(#SVGID_50_);}
	.st32{clip-path:url(#SVGID_52_);fill:#5FAFDC;}
	.st33{clip-path:url(#SVGID_52_);fill:none;stroke:#5FAFDC;stroke-width:1.1666;stroke-miterlimit:10;}
	.st34{clip-path:url(#SVGID_54_);}
	.st35{clip-path:url(#SVGID_56_);fill:#5FAFDC;}
	.st36{clip-path:url(#SVGID_58_);}
	.st37{clip-path:url(#SVGID_60_);fill:#5FAFDC;}
	.st38{fill-rule:evenodd;clip-rule:evenodd;fill:#5FAFDC;}
	.st39{fill:none;stroke:#5FAFDC;stroke-width:2.6;stroke-miterlimit:10;}
	.st40{clip-path:url(#SVGID_62_);}
	.st41{clip-path:url(#SVGID_64_);fill:#5FAFDC;}
	.st42{fill:#5FAFDC;stroke:#5FAFDC;stroke-miterlimit:10;}
	.st43{fill-rule:evenodd;clip-rule:evenodd;fill:#5FAFDC;stroke:#5FAFDC;stroke-miterlimit:10;}
	.st44{fill:none;stroke:#5FAFDC;stroke-miterlimit:10;}
	.st45{clip-path:url(#SVGID_66_);}
	.st46{clip-path:url(#SVGID_68_);fill:#5FAFDC;}
	.st47{clip-path:url(#SVGID_68_);fill:none;stroke:#5FAFDC;stroke-width:5;stroke-miterlimit:10;}
	.st48{opacity:0.83;}
	.st49{opacity:0.98;}
	.st50{fill-rule:evenodd;clip-rule:evenodd;fill:#5FAFDC;stroke:#5FAFDC;stroke-width:0.75;stroke-miterlimit:10;}
</style>
<rect x="24.4" y="26" class="st0" width="50" height="50"/>
<g>
	<g>
		<defs>
			<rect id="SVGID_57_" x="30" y="34" width="73.1" height="73.5"/>
		</defs>
		<clipPath id="SVGID_2_">
			<use xlink:href="#SVGID_57_"  style="overflow:visible;"/>
		</clipPath>
		<g class="st1">
			<defs>
				<rect id="SVGID_59_" x="30" y="34" width="73.1" height="73.5"/>
			</defs>
			<clipPath id="SVGID_4_">
				<use xlink:href="#SVGID_59_"  style="overflow:visible;"/>
			</clipPath>
			<path class="st2" d="M88.1,85.8c0,5.3,0,10.6,0,15.9c0,1.2-0.5,1.6-1.6,1.6c-10.6,0-21.2,0-31.8,0c-1.1,0-1.6-0.5-1.6-1.6
				c0-5.8,0-11.5,0-17.3c0-0.6-0.1-0.7-0.7-0.7c-5.7,0-11.4,0-17.1,0c-1.4,0-1.8-0.4-1.8-1.8c0-10.5,0-21,0-31.5
				c0-1.3,0.4-1.7,1.7-1.7c10.5,0,21,0,31.5,0c1.4,0,1.8,0.4,1.8,1.8c0,5.8,0,11.5,0,17.3c0,0.5,0.1,0.7,0.6,0.6
				c5.7,0,11.5,0,17.2,0c1.5,0,1.8,0.3,1.8,1.8C88.1,75.3,88.1,80.5,88.1,85.8 M55.7,85.8c0,4.8,0,9.6,0,14.4c0,0.5,0.1,0.6,0.6,0.6
				c9.6,0,19.1,0,28.7,0c0.5,0,0.6-0.1,0.6-0.6c0-9.6,0-19.1,0-28.7c0-0.5-0.1-0.6-0.6-0.6c-9.6,0-19.1,0-28.7,0
				c-0.5,0-0.6,0.2-0.6,0.6C55.7,76.2,55.7,81,55.7,85.8 M51,55c4.8,0,9.5,0,14.3,0c0.5,0,0.7-0.1,0.6-0.7c0-0.8-0.1-1.6,0-2.4
				c0-0.6-0.1-0.8-0.8-0.8c-7.3,0-14.6,0-21.9,0c-2.2,0-4.4,0-6.7,0c-0.5,0-0.6,0.1-0.6,0.6c0,0.8,0,1.7,0,2.5
				c0,0.6,0.1,0.8,0.7,0.8C41.5,55,46.3,55,51,55 M51.1,55.9c-4.8,0-9.6,0-14.4,0c-0.4,0-0.6,0.1-0.6,0.6c0,0.8,0.1,1.6,0,2.4
				c0,0.6,0.1,0.7,0.7,0.7c8.8,0,17.5,0,26.3,0c0.8,0,1.6,0,2.3,0c0.4,0,0.6-0.1,0.6-0.5c0-0.8,0-1.6,0-2.5c0-0.5-0.1-0.7-0.7-0.7
				C60.5,55.9,55.8,55.9,51.1,55.9 M51,60.4c-4.8,0-9.5,0-14.3,0c-0.5,0-0.7,0.1-0.6,0.6c0,0.8,0,1.6,0,2.5c0,0.5,0.1,0.7,0.6,0.7
				c4.4,0,8.8,0,13.2,0c5.2,0,10.3,0,15.5,0c0.4,0,0.6-0.1,0.6-0.6c0-0.8-0.1-1.6,0-2.4c0-0.6-0.1-0.8-0.7-0.8
				C60.5,60.4,55.7,60.4,51,60.4 M51,65c-4.8,0-9.6,0-14.4,0c-0.4,0-0.6,0.1-0.6,0.6c0,0.9,0,1.7,0,2.6c0,0.4,0.1,0.6,0.5,0.6
				c5.5,0,11,0,16.5,0c0.2,0,0.4,0,0.5-0.1c0.3-0.3,0.7-0.3,1.2-0.3c3.5,0,7.1,0,10.6,0c0.4,0,0.6-0.1,0.6-0.6c0-0.7,0-1.4,0-2
				c0-0.5-0.1-0.7-0.7-0.7C60.5,65,55.7,65,51,65 M44.5,73.2c2.7,0,5.4,0,8.1,0c0.4,0,0.5-0.1,0.5-0.5c0-0.9,0-1.8,0-2.7
				c0-0.3,0-0.5-0.5-0.5c-5.4,0-10.8,0-16.1,0c-0.4,0-0.5,0.1-0.5,0.5c0,0.9,0,1.8,0,2.6c0,0.5,0.1,0.6,0.6,0.6
				C39.3,73.2,41.9,73.2,44.5,73.2 M44.6,74.1c-2.7,0-5.4,0-8.1,0c-0.4,0-0.5,0.1-0.5,0.5c0,0.9,0,1.8,0,2.7c0,0.3,0,0.5,0.5,0.5
				c5.4,0,10.8,0,16.1,0c0.4,0,0.5-0.1,0.5-0.5c0-0.9,0-1.8,0-2.6c0-0.5-0.1-0.6-0.6-0.6C49.9,74.1,47.3,74.1,44.6,74.1 M44.5,81.1
				c2.3,0,4.5,0,6.8,0c0.6,0,1.3,0.2,1.7-0.1c0.4-0.4,0.1-1.1,0.1-1.7c0.1-0.5-0.1-0.6-0.6-0.6c-4.9,0-9.7,0-14.6,0
				c-0.6,0-1.4-0.3-1.7,0.1c-0.3,0.4-0.1,1.1-0.1,1.7c0,0.5,0.1,0.6,0.6,0.6C39.3,81.1,41.9,81.1,44.5,81.1"/>
			<path class="st2" d="M75.2,49.6c0-3.1,0-6.3,0-9.4c0-1.6,0.9-2.5,2.5-2.5c6.3,0,12.7,0,19,0c1.5,0,2.4,0.9,2.4,2.5
				c0,6.3,0,12.7,0,19c0,1.5-0.9,2.5-2.5,2.5c-6.3,0-12.7,0-19,0c-1.6,0-2.5-0.9-2.5-2.5C75.2,56,75.2,52.8,75.2,49.6 M87.1,50.7
				c0.6,0,1.1-0.5,1.1-1.1c0-0.6-0.5-1-1-1c-0.6,0-1.1,0.5-1.1,1C86,50.2,86.5,50.7,87.1,50.7 M81.1,48.6c-0.6,0-1.1,0.5-1.1,1
				c0,0.6,0.4,1,1,1.1c0.6,0,1.1-0.4,1.1-1C82.2,49.1,81.7,48.6,81.1,48.6 M81.1,44.9c0.6,0,1-0.5,1-1.1c0-0.6-0.5-1-1.1-1
				c-0.6,0-1,0.5-1,1C80,44.4,80.5,44.9,81.1,44.9 M87.1,44.9c0.6,0,1-0.5,1-1.1c0-0.6-0.5-1-1-1c-0.6,0-1.1,0.5-1.1,1
				C86.1,44.4,86.6,44.9,87.1,44.9 M93.1,50.7c0.6,0,1.1-0.5,1-1.1c0-0.6-0.4-1-1-1c-0.6,0-1.1,0.5-1.1,1
				C92.1,50.2,92.6,50.7,93.1,50.7 M87.1,54.5c-0.6,0-1.1,0.5-1.1,1c0,0.5,0.5,1,1,1c0.6,0,1.1-0.4,1.1-1
				C88.2,55,87.7,54.5,87.1,54.5 M93.1,44.9c0.6,0,1-0.5,1-1.1c0-0.6-0.4-1-1-1c-0.6,0-1.1,0.4-1.1,1C92.1,44.3,92.6,44.8,93.1,44.9
				 M81.1,54.5c-0.6,0-1.1,0.5-1,1.1c0,0.6,0.5,1,1,1c0.6,0,1.1-0.5,1.1-1C82.1,55,81.7,54.5,81.1,54.5 M93.2,54.5
				c-0.6,0-1.1,0.5-1.1,1c0,0.6,0.5,1.1,1.1,1.1c0.6,0,1-0.4,1-1C94.2,55,93.7,54.5,93.2,54.5"/>
			<path class="st2" d="M83.4,92.3c0,0.2-0.1,0.3-0.2,0.4c-1.3,1.3-2.6,2.6-3.9,3.9c-0.3,0.3-0.6,0.3-0.9,0
				c-1.1-1.1-2.2-2.2-3.3-3.3c-0.3-0.4-0.5-0.3-0.8,0c-1.1,1.1-2.2,2.1-3.2,3.2c-0.4,0.4-0.7,0.4-1.1,0c-1.1-1.1-2.2-2.2-3.3-3.3
				c-0.3-0.3-0.4-0.3-0.7,0c-1.1,1.1-2.2,2.2-3.3,3.3c-0.4,0.4-0.6,0.4-1,0c-1.2-1.3-2.5-2.5-3.8-3.8c-0.2-0.2-0.3-0.3-0.3-0.6
				c0-0.2,0.1-0.3,0.3-0.3c0.3-0.1,0.4,0.1,0.6,0.2c1,1,2,2,3.1,3c0.7,0.7,0.7,0.7,1.3,0c1-1,2-2,3-3c0.4-0.4,0.7-0.4,1.1,0
				c1.1,1.1,2.2,2.2,3.3,3.3c0.3,0.3,0.4,0.3,0.7,0c1.1-1.1,2.2-2.2,3.3-3.3c0.4-0.4,0.7-0.4,1.1,0c1.1,1.1,2.2,2.2,3.3,3.3
				c0.3,0.3,0.4,0.3,0.7,0c1.1-1.1,2.3-2.3,3.4-3.4c0.2-0.2,0.3-0.3,0.6-0.2C83.4,92,83.5,92.1,83.4,92.3"/>
			<path class="st2" d="M78.9,79.5c-0.3,0-0.4-0.2-0.5-0.4c-1-1-2.1-2.1-3.1-3.1c-0.4-0.4-0.6-0.4-1,0c-1,1.1-2.1,2.1-3.1,3.2
				c-0.4,0.4-0.7,0.4-1.1,0c-1-1.1-2.1-2.1-3.2-3.2c-0.4-0.4-0.6-0.4-1,0c-1,1.1-2.1,2.1-3.2,3.2c-0.4,0.4-0.7,0.4-1,0
				c-1.3-1.3-2.5-2.5-3.8-3.8c-0.2-0.2-0.4-0.5-0.1-0.8c0.3-0.3,0.5-0.1,0.7,0.2c1.1,1.1,2.2,2.2,3.3,3.3c0.3,0.3,0.5,0.4,0.9,0
				c1-1.1,2.2-2.1,3.2-3.2c0.4-0.4,0.7-0.4,1.1,0c1.1,1.1,2.2,2.2,3.3,3.3c0.3,0.3,0.4,0.3,0.7,0c1.1-1.1,2.2-2.2,3.3-3.3
				c0.4-0.4,0.7-0.4,1.1,0c1.1,1.1,2.2,2.2,3.3,3.3c0.3,0.3,0.5,0.3,0.8,0c1.1-1.1,2.2-2.2,3.3-3.3c0.2-0.2,0.5-0.5,0.8-0.2
				c0.3,0.3,0.1,0.6-0.2,0.8c-1.3,1.2-2.5,2.5-3.7,3.7C79.2,79.3,79.1,79.4,78.9,79.5"/>
			<path class="st2" d="M83.4,83.5c0,0.2-0.1,0.3-0.3,0.5c-1.3,1.3-2.6,2.6-3.9,3.9c-0.4,0.4-0.6,0.3-0.9,0
				c-1.1-1.1-2.2-2.2-3.3-3.4c-0.3-0.3-0.4-0.3-0.7,0c-1.1,1.1-2.2,2.2-3.3,3.3c-0.4,0.4-0.7,0.4-1.1,0c-1.1-1.1-2.2-2.2-3.3-3.3
				c-0.3-0.3-0.4-0.3-0.7,0c-1.1,1.1-2.2,2.2-3.3,3.3c-0.4,0.4-0.7,0.4-1.1,0c-1.2-1.3-2.5-2.5-3.7-3.8c-0.2-0.2-0.5-0.5-0.2-0.8
				c0.3-0.3,0.5-0.1,0.8,0.2c1.1,1.1,2.2,2.2,3.3,3.3c0.3,0.4,0.5,0.3,0.9,0c1-1.1,2.1-2.1,3.2-3.2c0.4-0.4,0.7-0.4,1.1,0
				c1.1,1.1,2.2,2.2,3.3,3.3c0.3,0.3,0.4,0.3,0.7,0c1.1-1.1,2.2-2.2,3.3-3.3c0.4-0.4,0.6-0.4,1,0c1,1.1,2.1,2.1,3.2,3.2
				c0.4,0.4,0.6,0.4,1,0c1.1-1.1,2.1-2.2,3.2-3.2c0.2-0.2,0.3-0.3,0.6-0.2C83.4,83.2,83.4,83.4,83.4,83.5"/>
		</g>
	</g>
</g>
</svg>
