<?xml version="1.0" encoding="utf-8"?>
<!-- Generator: Adobe Illustrator 25.0.1, SVG Export Plug-In . SVG Version: 6.00 Build 0)  -->
<svg version="1.1" id="Layer_1" xmlns="http://www.w3.org/2000/svg" xmlns:xlink="http://www.w3.org/1999/xlink" x="0px" y="0px"
	 viewBox="0 0 128 128" style="enable-background:new 0 0 128 128;" xml:space="preserve">
<style type="text/css">
	.st0{fill:#F2FAFF;}
	.st1{clip-path:url(#SVGID_2_);}
	.st2{clip-path:url(#SVGID_4_);fill:#5FAFDC;}
	.st3{clip-path:url(#SVGID_6_);}
	.st4{clip-path:url(#SVGID_8_);fill:#5FAFDC;}
	.st5{clip-path:url(#SVGID_10_);}
	.st6{clip-path:url(#SVGID_12_);fill:#5FAFDC;}
	.st7{clip-path:url(#SVGID_14_);}
	.st8{clip-path:url(#SVGID_16_);fill:#5FAFDC;}
	.st9{clip-path:url(#SVGID_18_);}
	.st10{clip-path:url(#SVGID_20_);fill:#5FAFDC;}
	.st11{clip-path:url(#SVGID_22_);}
	.st12{clip-path:url(#SVGID_24_);fill:#5FAFDC;}
	.st13{clip-path:url(#SVGID_26_);}
	.st14{clip-path:url(#SVGID_28_);fill:#5FAFDC;}
	.st15{clip-path:url(#SVGID_30_);}
	.st16{clip-path:url(#SVGID_32_);fill:#5FAFDC;}
	.st17{clip-path:url(#SVGID_34_);}
	.st18{clip-path:url(#SVGID_36_);fill:#5FAFDC;}
	.st19{clip-path:url(#SVGID_38_);}
	.st20{clip-path:url(#SVGID_40_);fill:#5FAFDC;}
	.st21{clip-path:url(#SVGID_42_);}
	.st22{clip-path:url(#SVGID_44_);fill:#5FAFDC;}
	.st23{fill:#5FAFDC;}
	.st24{fill:#38618C;}
	.st25{fill:#5C80BC;}
	.st26{fill:#243556;}
	.st27{fill:#1B2C3A;}
	.st28{clip-path:url(#SVGID_46_);}
	.st29{clip-path:url(#SVGID_48_);fill:none;stroke:#38618C;stroke-width:0.9634;stroke-miterlimit:10;}
	.st30{clip-path:url(#SVGID_48_);fill:#5FAFDC;}
	.st31{clip-path:url(#SVGID_50_);}
	.st32{clip-path:url(#SVGID_52_);fill:#5FAFDC;}
	.st33{clip-path:url(#SVGID_52_);fill:none;stroke:#5FAFDC;stroke-width:1.1666;stroke-miterlimit:10;}
	.st34{clip-path:url(#SVGID_54_);}
	.st35{clip-path:url(#SVGID_56_);fill:#5FAFDC;}
	.st36{clip-path:url(#SVGID_58_);}
	.st37{clip-path:url(#SVGID_60_);fill:#5FAFDC;}
	.st38{fill-rule:evenodd;clip-rule:evenodd;fill:#5FAFDC;}
	.st39{fill:none;stroke:#5FAFDC;stroke-width:2.6;stroke-miterlimit:10;}
	.st40{clip-path:url(#SVGID_62_);}
	.st41{clip-path:url(#SVGID_64_);fill:#5FAFDC;}
	.st42{fill:#5FAFDC;stroke:#5FAFDC;stroke-miterlimit:10;}
	.st43{fill-rule:evenodd;clip-rule:evenodd;fill:#5FAFDC;stroke:#5FAFDC;stroke-miterlimit:10;}
	.st44{fill:none;stroke:#5FAFDC;stroke-miterlimit:10;}
	.st45{clip-path:url(#SVGID_66_);}
	.st46{clip-path:url(#SVGID_68_);fill:#5FAFDC;}
	.st47{clip-path:url(#SVGID_68_);fill:none;stroke:#5FAFDC;stroke-width:5;stroke-miterlimit:10;}
	.st48{opacity:0.83;}
	.st49{opacity:0.98;}
	.st50{fill-rule:evenodd;clip-rule:evenodd;fill:#5FAFDC;stroke:#5FAFDC;stroke-width:0.75;stroke-miterlimit:10;}
</style>
<rect x="24.4" y="26" class="st0" width="50" height="50"/>
<g>
	<g>
		<defs>
			<rect id="SVGID_37_" x="37" y="40.2" width="65.9" height="68.6"/>
		</defs>
		<clipPath id="SVGID_2_">
			<use xlink:href="#SVGID_37_"  style="overflow:visible;"/>
		</clipPath>
		<g class="st1">
			<defs>
				<rect id="SVGID_39_" x="37" y="40.2" width="65.9" height="68.6"/>
			</defs>
			<clipPath id="SVGID_4_">
				<use xlink:href="#SVGID_39_"  style="overflow:visible;"/>
			</clipPath>
			<path class="st2" d="M67.8,92c0.1,0,0.2,0,0.3,0c4,0,7.9,0,11.9,0c0.3,0,0.3,0,0.3-0.3c0-1.9,0-3.9,0-5.8c0-0.3,0.1-0.6,0.3-0.9
				c0.2-0.3,0.6-0.5,1-0.5c0.1,0,0.2,0,0.3,0c4.9,0,9.8,0,14.7,0c0.5,0,0.9,0.2,1.3,0.6c0.2,0.2,0.3,0.5,0.3,0.8c0,0.1,0,0.1,0,0.2
				c0,4.9,0,9.8,0,14.7c0,0.2,0,0.4-0.1,0.6c-0.2,0.5-0.6,0.9-1.2,0.9c-0.1,0-0.2,0-0.2,0c-4.9,0-9.8,0-14.8,0c-0.2,0-0.4,0-0.6-0.1
				c-0.5-0.2-0.9-0.7-0.9-1.2c0-0.2,0-0.3,0-0.5c0-1.8,0-3.6,0-5.4c0-0.1,0-0.1,0-0.2c0-0.1,0-0.1-0.1-0.1c0,0-0.1,0-0.1,0
				c-4,0-8,0-12,0h-0.2c0,0.1,0.1,0.1,0.1,0.2c0.4,0.4,0.8,0.8,1.3,1.3c0.4,0.4,0.5,0.9,0.4,1.4c-0.4,1.1-1.5,1.3-2.3,0.6
				c-1.2-1.2-2.3-2.3-3.5-3.5c-0.1-0.1-0.2-0.2-0.3-0.3c-0.6-0.6-0.6-1.4,0-2c0.8-0.8,1.7-1.6,2.5-2.4c0.4-0.4,0.9-0.9,1.3-1.3
				c0.4-0.4,0.9-0.5,1.4-0.4c0.5,0.2,0.9,0.6,0.9,1.2c0,0.4-0.1,0.7-0.4,1c-0.1,0.2-0.3,0.3-0.5,0.5c-0.3,0.3-0.6,0.6-0.9,0.9
				C67.8,91.9,67.8,91.9,67.8,92 M89.1,99.5c2,0,4,0,5.9,0c0.2,0,0.2,0,0.2-0.2c0,0,0,0,0-0.1c0-3.9,0-7.8,0-11.7
				c0-0.3,0-0.3-0.3-0.3c-3.9,0-7.8,0-11.7,0c0,0-0.1,0-0.1,0c-0.1,0-0.2,0-0.2,0.2c0,0,0,0.1,0,0.1c0,3.9,0,7.8,0,11.7
				c0,0.3,0,0.3,0.3,0.3C85.2,99.5,87.2,99.5,89.1,99.5"/>
			<path class="st2" d="M71.3,52.6c-0.5-0.5-0.9-0.9-1.4-1.4c-0.3-0.3-0.4-0.6-0.4-1c0-0.6,0.3-1.1,0.9-1.3c0.5-0.2,1.1-0.1,1.5,0.3
				c0.4,0.4,0.7,0.7,1.1,1.1c0.9,0.9,1.8,1.8,2.6,2.6c0.2,0.2,0.4,0.5,0.4,0.8c0.1,0.4,0,0.7-0.3,1c-0.1,0.1-0.1,0.1-0.2,0.2
				c-1.3,1.3-2.5,2.5-3.8,3.8c-0.4,0.4-0.8,0.4-1.3,0.3c-1-0.4-1.3-1.5-0.5-2.3c0.4-0.4,0.8-0.8,1.2-1.2c0.1-0.1,0.1-0.1,0.2-0.2H71
				h-12c0,0,0,0,0,0c-0.2,0-0.2,0-0.2,0.2c0,1.8,0,3.6,0,5.4c0,0.2,0,0.5,0,0.7c-0.1,0.7-0.6,1.1-1.3,1.2c-0.1,0-0.2,0-0.2,0
				c-4.9,0-9.8,0-14.7,0c-0.3,0-0.5,0-0.8-0.1c-0.5-0.2-0.7-0.7-0.8-1.2c0,0,0-0.1,0-0.1c0-4.9,0-9.9,0-14.8c0-0.2,0-0.4,0.1-0.6
				c0.2-0.5,0.5-0.8,1.1-0.9c0.1,0,0.3,0,0.4,0c4.9,0,9.8,0,14.7,0c0.3,0,0.5,0,0.8,0.1c0.5,0.3,0.8,0.7,0.8,1.3c0,1,0,1.9,0,2.9
				c0,1,0,2,0,3c0,0.3,0,0.2,0.2,0.2c3.4,0,6.8,0,10.3,0c0.6,0,1.2,0,1.8,0C71.2,52.6,71.2,52.7,71.3,52.6 M43.8,54c0,2,0,4,0,6
				c0,0.2,0,0.2,0.2,0.2c0,0,0,0,0.1,0c3.9,0,7.8,0,11.7,0c0.1,0,0.1,0,0.2,0c0.1,0,0.1,0,0.1-0.1c0,0,0-0.1,0-0.1
				c0-3.9,0-7.9,0-11.8c0-0.2,0-0.2-0.2-0.2c0,0,0,0-0.1,0c-3.9,0-7.8,0-11.7,0c-0.3,0-0.3,0-0.3,0.3C43.8,50.1,43.8,52,43.8,54"/>
			<path class="st2" d="M90.5,75.4c0.1,0,0.1-0.1,0.2-0.2c0.4-0.4,0.8-0.8,1.2-1.2c0.4-0.4,0.8-0.5,1.4-0.4c0.5,0.2,0.8,0.5,1,1.1
				c0.1,0.4,0,0.7-0.2,1.1c-0.1,0.1-0.2,0.2-0.3,0.3c-1.2,1.2-2.5,2.5-3.7,3.7c-0.4,0.4-1,0.5-1.4,0.2c-0.2-0.1-0.3-0.2-0.5-0.3
				c-1.2-1.2-2.5-2.5-3.7-3.7c-0.4-0.4-0.6-0.9-0.4-1.5c0.3-0.9,1.5-1.2,2.2-0.5c0.4,0.4,0.8,0.8,1.3,1.2c0.1,0.1,0.1,0.1,0.2,0.2
				c0.1-0.1,0-0.1,0-0.2c0-4,0-8,0-12c0,0,0,0,0,0c0-0.2,0-0.2-0.2-0.2c-1.9,0-3.9,0-5.8,0c-0.3,0-0.5,0-0.8-0.2
				c-0.4-0.2-0.7-0.6-0.7-1.1c0-0.1,0-0.1,0-0.2c0-4.9,0-9.9,0-14.8c0-0.4,0.1-0.7,0.3-1c0.3-0.3,0.6-0.5,1-0.5c0.1,0,0.2,0,0.2,0
				c4.9,0,9.8,0,14.6,0c0.3,0,0.6,0,0.9,0.2c0.4,0.2,0.6,0.6,0.7,1c0,0.1,0,0.2,0,0.3c0,4.9,0,9.8,0,14.7c0,0.2,0,0.3,0,0.5
				c-0.2,0.6-0.6,1-1.2,1c-0.1,0-0.2,0-0.3,0c-1.9,0-3.7,0-5.6,0c0,0-0.1,0-0.1,0c-0.3,0-0.2,0-0.2,0.2c0,4,0,8,0,12
				C90.5,75.2,90.5,75.3,90.5,75.4 M95.3,54c0-1.9,0-3.9,0-5.8c0-0.1,0-0.1,0-0.2c0-0.1,0-0.1-0.1-0.1c0,0-0.1,0-0.1,0
				c-3.9,0-7.8,0-11.8,0c-0.3,0-0.3,0-0.3,0.3c0,3.9,0,7.8,0,11.7c0,0.3,0,0.3,0.3,0.3c3.9,0,7.8,0,11.7,0c0.3,0,0.3,0,0.3-0.3
				C95.3,57.9,95.3,56,95.3,54"/>
			<path class="st2" d="M49.9,102.2c-2.5,0-4.9,0-7.4,0c-0.3,0-0.5,0-0.8-0.2c-0.5-0.2-0.7-0.6-0.7-1.2c0,0,0-0.1,0-0.1
				c0-5,0-9.9,0-14.9c0-0.2,0-0.4,0.1-0.6c0.2-0.5,0.6-0.8,1.1-0.8c0.1,0,0.3,0,0.4,0c4.9,0,9.7,0,14.6,0c0.3,0,0.5,0,0.7,0.1
				c0.5,0.2,0.8,0.7,0.9,1.3c0,0.1,0,0.1,0,0.2c0,4.9,0,9.8,0,14.8c0,0.4-0.1,0.8-0.4,1.1c-0.2,0.3-0.5,0.4-0.9,0.4
				c-0.1,0-0.2,0-0.4,0C54.8,102.2,52.4,102.2,49.9,102.2 M56.1,93.4c0-2,0-3.9,0-5.9c0-0.3,0-0.3-0.3-0.3c-3.9,0-7.8,0-11.7,0
				c-0.1,0-0.1,0-0.2,0c-0.1,0-0.1,0-0.1,0.1c0,0,0,0.1,0,0.1c0,3.9,0,7.8,0,11.8c0,0.3,0,0.3,0.3,0.3c3.9,0,7.8,0,11.7,0
				c0.3,0,0.3,0,0.3-0.3C56.1,97.3,56.1,95.3,56.1,93.4"/>
			<path class="st2" d="M49.1,93.3c0.4-0.4,0.7-0.8,1.1-1.2c0.5-0.6,1-1.1,1.6-1.7c0.5-0.5,1.3-0.6,1.9-0.1c0.6,0.5,0.7,1.4,0.2,1.9
				c-0.5,0.6-1.1,1.2-1.6,1.7c-0.6,0.7-1.3,1.4-1.9,2.1c-0.4,0.4-0.8,0.6-1.4,0.5c-0.3,0-0.6-0.2-0.8-0.4c-0.6-0.7-1.2-1.4-1.9-2.1
				c-0.7-0.8-0.3-1.9,0.4-2.2c0.5-0.2,1.1-0.1,1.6,0.3C48.5,92.6,48.8,92.9,49.1,93.3"/>
		</g>
	</g>
</g>
</svg>
