<?xml version="1.0" encoding="utf-8"?>
<!-- Generator: Adobe Illustrator 25.0.1, SVG Export Plug-In . SVG Version: 6.00 Build 0)  -->
<svg version="1.1" id="Layer_1" xmlns="http://www.w3.org/2000/svg" xmlns:xlink="http://www.w3.org/1999/xlink" x="0px" y="0px"
	 viewBox="0 0 128 128" style="enable-background:new 0 0 128 128;" xml:space="preserve">
<style type="text/css">
	.st0{fill:#F2FAFF;}
	.st1{clip-path:url(#SVGID_2_);}
	.st2{clip-path:url(#SVGID_4_);fill:#5FAFDC;}
	.st3{clip-path:url(#SVGID_6_);}
	.st4{clip-path:url(#SVGID_8_);fill:#5FAFDC;}
	.st5{clip-path:url(#SVGID_10_);}
	.st6{clip-path:url(#SVGID_12_);fill:#5FAFDC;}
	.st7{clip-path:url(#SVGID_14_);}
	.st8{clip-path:url(#SVGID_16_);fill:#5FAFDC;}
	.st9{clip-path:url(#SVGID_18_);}
	.st10{clip-path:url(#SVGID_20_);fill:#5FAFDC;}
	.st11{clip-path:url(#SVGID_22_);}
	.st12{clip-path:url(#SVGID_24_);fill:#5FAFDC;}
	.st13{clip-path:url(#SVGID_26_);}
	.st14{clip-path:url(#SVGID_28_);fill:#5FAFDC;}
	.st15{clip-path:url(#SVGID_30_);}
	.st16{clip-path:url(#SVGID_32_);fill:#5FAFDC;}
	.st17{clip-path:url(#SVGID_34_);}
	.st18{clip-path:url(#SVGID_36_);fill:#5FAFDC;}
	.st19{clip-path:url(#SVGID_38_);}
	.st20{clip-path:url(#SVGID_40_);fill:#5FAFDC;}
	.st21{clip-path:url(#SVGID_42_);}
	.st22{clip-path:url(#SVGID_44_);fill:#5FAFDC;}
	.st23{fill:#5FAFDC;}
	.st24{fill:#38618C;}
	.st25{fill:#5C80BC;}
	.st26{fill:#243556;}
	.st27{fill:#1B2C3A;}
	.st28{clip-path:url(#SVGID_46_);}
	.st29{clip-path:url(#SVGID_48_);fill:none;stroke:#38618C;stroke-width:0.9634;stroke-miterlimit:10;}
	.st30{clip-path:url(#SVGID_48_);fill:#5FAFDC;}
	.st31{clip-path:url(#SVGID_50_);}
	.st32{clip-path:url(#SVGID_52_);fill:#5FAFDC;}
	.st33{clip-path:url(#SVGID_52_);fill:none;stroke:#5FAFDC;stroke-width:1.1666;stroke-miterlimit:10;}
	.st34{clip-path:url(#SVGID_54_);}
	.st35{clip-path:url(#SVGID_56_);fill:#5FAFDC;}
	.st36{clip-path:url(#SVGID_58_);}
	.st37{clip-path:url(#SVGID_60_);fill:#5FAFDC;}
	.st38{fill-rule:evenodd;clip-rule:evenodd;fill:#5FAFDC;}
	.st39{fill:none;stroke:#5FAFDC;stroke-width:2.6;stroke-miterlimit:10;}
	.st40{clip-path:url(#SVGID_62_);}
	.st41{clip-path:url(#SVGID_64_);fill:#5FAFDC;}
	.st42{fill:#5FAFDC;stroke:#5FAFDC;stroke-miterlimit:10;}
	.st43{fill-rule:evenodd;clip-rule:evenodd;fill:#5FAFDC;stroke:#5FAFDC;stroke-miterlimit:10;}
	.st44{fill:none;stroke:#5FAFDC;stroke-miterlimit:10;}
	.st45{clip-path:url(#SVGID_66_);}
	.st46{clip-path:url(#SVGID_68_);fill:#5FAFDC;}
	.st47{clip-path:url(#SVGID_68_);fill:none;stroke:#5FAFDC;stroke-width:5;stroke-miterlimit:10;}
	.st48{opacity:0.83;}
	.st49{opacity:0.98;}
	.st50{fill-rule:evenodd;clip-rule:evenodd;fill:#5FAFDC;stroke:#5FAFDC;stroke-width:0.75;stroke-miterlimit:10;}
</style>
<rect x="24.4" y="26" class="st0" width="50" height="50"/>
<g>
	<g>
		<defs>
			<rect id="SVGID_49_" x="41" y="38" width="60.4" height="67"/>
		</defs>
		<clipPath id="SVGID_2_">
			<use xlink:href="#SVGID_49_"  style="overflow:visible;"/>
		</clipPath>
		<g class="st1">
			<defs>
				<rect id="SVGID_51_" x="41" y="38" width="60.4" height="67"/>
			</defs>
			<clipPath id="SVGID_4_">
				<use xlink:href="#SVGID_51_"  style="overflow:visible;"/>
			</clipPath>
			<path class="st2" d="M93.1,65.5c0.5,0.2,0.9,0.4,1.3,0.7c2.2,1.4,3.6,3.4,4,5.9c0.5,2.8-0.3,5.2-2.2,7.3
				c-1.5,1.7-3.4,2.6-5.7,2.8c-0.5,0-1,0-1.4,0c-0.2,0-0.2,0-0.2,0.2c0,0.8,0,1.6,0,2.4c0,2.8,0,5.7,0,8.5c0,1.3-0.7,2.3-1.9,2.8
				c-0.3,0.1-0.6,0.2-0.9,0.2c-0.2,0-0.3,0-0.5,0c-3.7,0-7.4,0-11.1,0h-0.3c-0.1,0.1,0,0.1,0,0.2c0.2,0.7,0.4,1.4,0.6,2.1
				c0.1,0.2,0.1,0.2,0.3,0.2c0.4,0,0.8,0.1,1,0.4c0.2,0.2,0.3,0.5,0.3,0.8c0,0.4,0,0.9,0,1.3c0,0.7-0.5,1.2-1.2,1.2
				c-0.1,0-0.2,0-0.3,0c-3.7,0-7.4,0-11.1,0c-0.2,0-0.3,0-0.5,0c-0.5-0.1-0.9-0.5-1-1.1c0-0.5,0-1,0-1.5c0-0.6,0.6-1.1,1.2-1.1
				c0.1,0,0.3,0.1,0.4,0c0.1-0.1,0.1-0.2,0.1-0.4c0.2-0.6,0.4-1.2,0.5-1.8c0-0.1,0.1-0.2,0.1-0.3c-0.1-0.1-0.2,0-0.3,0
				c-3.8,0-7.5,0-11.3,0c-0.5,0-1,0-1.4-0.3c-1.1-0.6-1.7-1.5-1.8-2.8c0-1,0-1.9,0-2.9c0-2.9,0-5.8,0-8.6c0-0.1,0-0.1,0-0.2
				c0-0.2,0-0.2-0.2-0.3c-0.5-0.2-1-0.5-1.4-0.8C46,79,44.5,76.8,44,73.9c-0.6-3.7,0.6-6.8,3.4-9.3c0.8-0.7,1.6-1.2,2.5-1.6
				c0.3-0.1,0.3-0.1,0.2-0.5c-0.3-1.4-0.5-2.8-0.4-4.2c0.2-4.6,1.7-8.6,4.8-12c2.7-3,6-4.9,10-5.7c1.8-0.4,3.7-0.5,5.6-0.3
				c5.7,0.5,10.7,3.7,13.8,8.5c0.1,0.2,0.2,0.2,0.5,0.2c1.5-0.2,2.9-0.1,4.3,0.5c3.6,1.3,5.8,3.9,6.5,7.7c0.6,2.9-0.2,5.5-2,7.9
				C93.2,65.2,93.2,65.3,93.1,65.5C93.1,65.4,93.1,65.4,93.1,65.5 M50,80.1v-0.4c0-2.3,0-4.5,0-6.8c0-0.2,0-0.4,0.1-0.7
				c0.2-1.1,0.7-1.8,1.7-2.3c0.4-0.2,0.9-0.3,1.4-0.3c9.6,0,19.2,0,28.7,0c1.3,0,2.6,0,3.9,0c0.3,0,0.5,0,0.8,0.1
				c1.4,0.3,2.3,1.6,2.3,3c0,2.6,0,5.2,0,7.9c0,0.1,0,0.2,0,0.2c0,0.1,0,0.1,0.1,0.1c0.8,0,1.5,0,2.3-0.1c4.1-0.8,6.7-4.7,6-8.8
				c-0.5-2.8-2.5-5.1-5.2-6c-0.1,0-0.1,0-0.2-0.1c-0.4-0.2-0.5-0.6-0.2-0.9c0.1-0.1,0.1-0.1,0.2-0.2c1.8-2,2.6-4.4,2.3-7.1
				c-0.3-2.5-1.4-4.6-3.5-6.1c-2-1.5-4.2-2.1-6.7-1.7c-0.4,0.1-0.6,0-0.8-0.4c-2.9-4.7-7.9-8-13.9-8.4c-1.5-0.1-3.1,0-4.6,0.3
				c-4.1,0.9-7.5,3-10.2,6.3c-2.2,2.7-3.4,5.9-3.7,9.3c-0.1,1.6-0.1,3.1,0.2,4.6c0.1,0.3,0.2,0.7,0.2,1c0.1,0.4,0,0.6-0.4,0.7
				c0,0-0.1,0-0.1,0.1c-2.1,0.8-3.6,2.1-4.7,4c-1,1.8-1.4,3.8-1.1,5.8c0.3,2.1,1.4,3.9,3,5.3C48.7,79.4,49.3,79.8,50,80.1
				 M69.5,70.9c-5.4,0-10.8,0-16.2,0c-0.1,0-0.3,0-0.4,0c-0.5,0-1,0.2-1.4,0.6c-0.4,0.4-0.5,0.9-0.5,1.4c0,6.8,0,13.6,0,20.3
				c0,0.1,0,0.2,0,0.2c0.1,0.6,0.4,1.2,0.9,1.5c0.4,0.2,0.8,0.3,1.2,0.3c10.8,0,21.7,0,32.5,0c0.1,0,0.1,0,0.2,0
				c0.6,0,1.1-0.2,1.5-0.7c0.3-0.4,0.4-0.8,0.4-1.3c0-3.8,0-7.5,0-11.3c0-3,0-6.1,0-9.1c0-0.8-0.4-1.4-1.1-1.8
				c-0.3-0.2-0.7-0.2-1-0.2C80.3,70.9,74.9,70.9,69.5,70.9 M65.3,98.9h8.5c-0.2-0.8-0.5-1.6-0.7-2.4c0-0.1-0.1-0.1-0.2-0.1
				c-2.2,0-4.4,0-6.6,0c-0.2,0-0.2,0.1-0.3,0.2c-0.2,0.7-0.4,1.4-0.6,2C65.3,98.7,65.3,98.8,65.3,98.9 M69.5,101.6H75
				c0.1,0,0.1,0,0.2,0c0.3,0,0.3,0,0.3-0.3c0-0.3,0-0.6,0-0.9c0-0.4,0.1-0.4-0.4-0.4c-3.7,0-7.3,0-11,0c-0.1,0-0.1,0-0.2,0
				c-0.2,0-0.2,0-0.2,0.3c0,0.3,0,0.7,0,1c0,0.3,0,0.3,0.3,0.3c0.1,0,0.1,0,0.2,0H69.5z"/>
			<path style="clip-path:url(#SVGID_4_);fill:none;stroke:#5FAFDC;stroke-width:1.1666;stroke-miterlimit:10;" d="M93.1,65.5
				c0.5,0.2,0.9,0.4,1.3,0.7c2.2,1.4,3.6,3.4,4,5.9c0.5,2.8-0.3,5.2-2.2,7.3c-1.5,1.7-3.4,2.6-5.7,2.8c-0.5,0-1,0-1.4,0
				c-0.2,0-0.2,0-0.2,0.2c0,0.8,0,1.6,0,2.4c0,2.8,0,5.7,0,8.5c0,1.3-0.7,2.3-1.9,2.8c-0.3,0.1-0.6,0.2-0.9,0.2c-0.2,0-0.3,0-0.5,0
				c-3.7,0-7.4,0-11.1,0h-0.3c-0.1,0.1,0,0.1,0,0.2c0.2,0.7,0.4,1.4,0.6,2.1c0.1,0.2,0.1,0.2,0.3,0.2c0.4,0,0.8,0.1,1,0.4
				c0.2,0.2,0.3,0.5,0.3,0.8c0,0.4,0,0.9,0,1.3c0,0.7-0.5,1.2-1.2,1.2c-0.1,0-0.2,0-0.3,0c-3.7,0-7.4,0-11.1,0c-0.2,0-0.3,0-0.5,0
				c-0.5-0.1-0.9-0.5-1-1.1c0-0.5,0-1,0-1.5c0-0.6,0.6-1.1,1.2-1.1c0.1,0,0.3,0.1,0.4,0c0.1-0.1,0.1-0.2,0.1-0.4
				c0.2-0.6,0.4-1.2,0.5-1.8c0-0.1,0.1-0.2,0.1-0.3c-0.1-0.1-0.2,0-0.3,0c-3.8,0-7.5,0-11.3,0c-0.5,0-1,0-1.4-0.3
				c-1.1-0.6-1.7-1.5-1.8-2.8c0-1,0-1.9,0-2.9c0-2.9,0-5.8,0-8.6c0-0.1,0-0.1,0-0.2c0-0.2,0-0.2-0.2-0.3c-0.5-0.2-1-0.5-1.4-0.8
				C46,79,44.5,76.8,44,73.9c-0.6-3.7,0.6-6.8,3.4-9.3c0.8-0.7,1.6-1.2,2.5-1.6c0.3-0.1,0.3-0.1,0.2-0.5c-0.3-1.4-0.5-2.8-0.4-4.2
				c0.2-4.6,1.7-8.6,4.8-12c2.7-3,6-4.9,10-5.7c1.8-0.4,3.7-0.5,5.6-0.3c5.7,0.5,10.7,3.7,13.8,8.5c0.1,0.2,0.2,0.2,0.5,0.2
				c1.5-0.2,2.9-0.1,4.3,0.5c3.6,1.3,5.8,3.9,6.5,7.7c0.6,2.9-0.2,5.5-2,7.9C93.2,65.2,93.2,65.3,93.1,65.5
				C93.1,65.4,93.1,65.4,93.1,65.5z M50,80.1v-0.4c0-2.3,0-4.5,0-6.8c0-0.2,0-0.4,0.1-0.7c0.2-1.1,0.7-1.8,1.7-2.3
				c0.4-0.2,0.9-0.3,1.4-0.3c9.6,0,19.2,0,28.7,0c1.3,0,2.6,0,3.9,0c0.3,0,0.5,0,0.8,0.1c1.4,0.3,2.3,1.6,2.3,3c0,2.6,0,5.2,0,7.9
				c0,0.1,0,0.2,0,0.2c0,0.1,0,0.1,0.1,0.1c0.8,0,1.5,0,2.3-0.1c4.1-0.8,6.7-4.7,6-8.8c-0.5-2.8-2.5-5.1-5.2-6c-0.1,0-0.1,0-0.2-0.1
				c-0.4-0.2-0.5-0.6-0.2-0.9c0.1-0.1,0.1-0.1,0.2-0.2c1.8-2,2.6-4.4,2.3-7.1c-0.3-2.5-1.4-4.6-3.5-6.1c-2-1.5-4.2-2.1-6.7-1.7
				c-0.4,0.1-0.6,0-0.8-0.4c-2.9-4.7-7.9-8-13.9-8.4c-1.5-0.1-3.1,0-4.6,0.3c-4.1,0.9-7.5,3-10.2,6.3c-2.2,2.7-3.4,5.9-3.7,9.3
				c-0.1,1.6-0.1,3.1,0.2,4.6c0.1,0.3,0.2,0.7,0.2,1c0.1,0.4,0,0.6-0.4,0.7c0,0-0.1,0-0.1,0.1c-2.1,0.8-3.6,2.1-4.7,4
				c-1,1.8-1.4,3.8-1.1,5.8c0.3,2.1,1.4,3.9,3,5.3C48.7,79.4,49.3,79.8,50,80.1z M69.5,70.9c-5.4,0-10.8,0-16.2,0
				c-0.1,0-0.3,0-0.4,0c-0.5,0-1,0.2-1.4,0.6c-0.4,0.4-0.5,0.9-0.5,1.4c0,6.8,0,13.6,0,20.3c0,0.1,0,0.2,0,0.2
				c0.1,0.6,0.4,1.2,0.9,1.5c0.4,0.2,0.8,0.3,1.2,0.3c10.8,0,21.7,0,32.5,0c0.1,0,0.1,0,0.2,0c0.6,0,1.1-0.2,1.5-0.7
				c0.3-0.4,0.4-0.8,0.4-1.3c0-3.8,0-7.5,0-11.3c0-3,0-6.1,0-9.1c0-0.8-0.4-1.4-1.1-1.8c-0.3-0.2-0.7-0.2-1-0.2
				C80.3,70.9,74.9,70.9,69.5,70.9z M65.3,98.9h8.5c-0.2-0.8-0.5-1.6-0.7-2.4c0-0.1-0.1-0.1-0.2-0.1c-2.2,0-4.4,0-6.6,0
				c-0.2,0-0.2,0.1-0.3,0.2c-0.2,0.7-0.4,1.4-0.6,2C65.3,98.7,65.3,98.8,65.3,98.9z M69.5,101.6H75c0.1,0,0.1,0,0.2,0
				c0.3,0,0.3,0,0.3-0.3c0-0.3,0-0.6,0-0.9c0-0.4,0.1-0.4-0.4-0.4c-3.7,0-7.3,0-11,0c-0.1,0-0.1,0-0.2,0c-0.2,0-0.2,0-0.2,0.3
				c0,0.3,0,0.7,0,1c0,0.3,0,0.3,0.3,0.3c0.1,0,0.1,0,0.2,0H69.5z"/>
			<path class="st2" d="M69.5,72.5c5.4,0,10.8,0,16.2,0c0.1,0,0.2,0,0.3,0c0.3,0,0.5,0.2,0.5,0.5c0,0.1,0,0.1,0,0.2
				c0,6.6,0,13.2,0,19.8c0,0.1,0,0.1,0,0.2c0,0.3-0.2,0.5-0.4,0.5c-0.1,0-0.2,0-0.3,0c-10.8,0-21.6,0-32.5,0c-0.1,0-0.2,0-0.3,0
				c-0.3,0-0.5-0.2-0.5-0.5c0-0.1,0-0.2,0-0.2c0-6.6,0-13.1,0-19.7c0-0.1,0-0.2,0-0.2c0-0.3,0.2-0.5,0.5-0.6c0.1,0,0.2,0,0.3,0H69.5
				z M69.5,92.6c5.2,0,10.4,0,15.5,0c0.4,0,0.4,0,0.4-0.4c0-6.1,0-12.2,0-18.3c0-0.4,0.1-0.4-0.4-0.4c-10.4,0-20.7,0-31.1,0
				c-0.4,0-0.4,0-0.4,0.4c0,6.1,0,12.2,0,18.3c0,0,0,0.1,0,0.1c0,0.2,0,0.2,0.2,0.2c0.1,0,0.1,0,0.2,0H69.5z"/>
		</g>
	</g>
</g>
</svg>
