<?xml version="1.0" encoding="utf-8"?>
<!-- Generator: Adobe Illustrator 25.0.1, SVG Export Plug-In . SVG Version: 6.00 Build 0)  -->
<svg version="1.1" id="Layer_1" xmlns="http://www.w3.org/2000/svg" xmlns:xlink="http://www.w3.org/1999/xlink" x="0px" y="0px"
	 viewBox="0 0 128 128" style="enable-background:new 0 0 128 128;" xml:space="preserve">
<style type="text/css">
	.st0{fill:#F2FAFF;}
	.st1{clip-path:url(#SVGID_2_);}
	.st2{clip-path:url(#SVGID_4_);fill:#5FAFDC;}
	.st3{clip-path:url(#SVGID_6_);}
	.st4{clip-path:url(#SVGID_8_);fill:#5FAFDC;}
	.st5{clip-path:url(#SVGID_10_);}
	.st6{clip-path:url(#SVGID_12_);fill:#5FAFDC;}
	.st7{clip-path:url(#SVGID_14_);}
	.st8{clip-path:url(#SVGID_16_);fill:#5FAFDC;}
	.st9{clip-path:url(#SVGID_18_);}
	.st10{clip-path:url(#SVGID_20_);fill:#5FAFDC;}
	.st11{clip-path:url(#SVGID_22_);}
	.st12{clip-path:url(#SVGID_24_);fill:#5FAFDC;}
	.st13{clip-path:url(#SVGID_26_);}
	.st14{clip-path:url(#SVGID_28_);fill:#5FAFDC;}
	.st15{clip-path:url(#SVGID_30_);}
	.st16{clip-path:url(#SVGID_32_);fill:#5FAFDC;}
	.st17{clip-path:url(#SVGID_34_);}
	.st18{clip-path:url(#SVGID_36_);fill:#5FAFDC;}
	.st19{clip-path:url(#SVGID_38_);}
	.st20{clip-path:url(#SVGID_40_);fill:#5FAFDC;}
	.st21{clip-path:url(#SVGID_42_);}
	.st22{clip-path:url(#SVGID_44_);fill:#5FAFDC;}
	.st23{fill:#5FAFDC;}
	.st24{fill:#38618C;}
	.st25{fill:#5C80BC;}
	.st26{fill:#243556;}
	.st27{fill:#1B2C3A;}
	.st28{clip-path:url(#SVGID_46_);}
	.st29{clip-path:url(#SVGID_48_);fill:none;stroke:#38618C;stroke-width:0.9634;stroke-miterlimit:10;}
	.st30{clip-path:url(#SVGID_48_);fill:#5FAFDC;}
	.st31{clip-path:url(#SVGID_50_);}
	.st32{clip-path:url(#SVGID_52_);fill:#5FAFDC;}
	.st33{clip-path:url(#SVGID_52_);fill:none;stroke:#5FAFDC;stroke-width:1.1666;stroke-miterlimit:10;}
	.st34{clip-path:url(#SVGID_54_);}
	.st35{clip-path:url(#SVGID_56_);fill:#5FAFDC;}
	.st36{clip-path:url(#SVGID_58_);}
	.st37{clip-path:url(#SVGID_60_);fill:#5FAFDC;}
	.st38{fill-rule:evenodd;clip-rule:evenodd;fill:#5FAFDC;}
	.st39{fill:none;stroke:#5FAFDC;stroke-width:2.6;stroke-miterlimit:10;}
	.st40{clip-path:url(#SVGID_62_);}
	.st41{clip-path:url(#SVGID_64_);fill:#5FAFDC;}
	.st42{fill:#5FAFDC;stroke:#5FAFDC;stroke-miterlimit:10;}
	.st43{fill-rule:evenodd;clip-rule:evenodd;fill:#5FAFDC;stroke:#5FAFDC;stroke-miterlimit:10;}
	.st44{fill:none;stroke:#5FAFDC;stroke-miterlimit:10;}
	.st45{clip-path:url(#SVGID_66_);}
	.st46{clip-path:url(#SVGID_68_);fill:#5FAFDC;}
	.st47{clip-path:url(#SVGID_68_);fill:none;stroke:#5FAFDC;stroke-width:5;stroke-miterlimit:10;}
	.st48{opacity:0.83;}
	.st49{opacity:0.98;}
	.st50{fill-rule:evenodd;clip-rule:evenodd;fill:#5FAFDC;stroke:#5FAFDC;stroke-width:0.75;stroke-miterlimit:10;}
</style>
<g>
	<rect x="24.1" y="26.5" class="st0" width="50" height="50"/>
	<g>
		<path class="st23" d="M100.2,102.7c-11.2,0-22.5,0-33.7,0c0-14.5,0-28.9,0-43.4c0.2-0.1,33-0.1,33.7,0
			C100.3,59.5,100.3,102.2,100.2,102.7z M68.1,60.9c0,13.4,0,26.8,0,40.2c10.2,0,20.3,0,30.5,0c0-13.4,0-26.8,0-40.2
			C88.4,60.9,78.3,60.9,68.1,60.9z"/>
		<path class="st23" d="M53.5,93c0,0.4,0,0.8,0,1.1c0,1.2-1,2.2-2.2,2.2c-0.5,0-1-0.1-1.4-0.5c-0.6-0.5-1.1-0.9-1.7-1.4
			c-0.3-0.2-0.5-0.5-0.7-0.9c-3.8-8.2-7.5-16.5-11.3-24.7c-0.2-0.5-0.4-1.1-0.4-1.7c0.1-1.5,1.1-2.8,2.6-3.1
			c1.4-0.3,2.9,0.5,3.5,1.8c0.5,1.2,1.1,2.3,1.6,3.5c3.2,7.1,6.5,14.1,9.7,21.2c0.2,0.5,0.4,1,0.3,1.6C53.6,92.4,53.6,92.7,53.5,93
			C53.6,93,53.6,93,53.5,93z M51.9,92.9C51.9,92.9,52,92.9,51.9,92.9c0.1-0.2,0-0.5,0.1-0.7c0-0.3-0.1-0.6-0.2-0.9
			c-2.7-5.8-5.3-11.6-8-17.4c-1.1-2.4-2.2-4.8-3.3-7.2c-0.4-0.8-1.2-1.2-2-0.9c-0.8,0.3-1.2,1.2-0.9,2.1c0,0.1,0.1,0.3,0.2,0.4
			c2.3,5,4.6,10.1,6.9,15.1c1.4,3.1,2.8,6.2,4.2,9.3c0.1,0.2,0.2,0.4,0.3,0.5c0.5,0.4,1.1,0.9,1.6,1.3c0.2,0.2,0.4,0.2,0.7,0.1
			c0.3-0.1,0.4-0.3,0.4-0.6C51.9,93.7,51.9,93.3,51.9,92.9z"/>
		<path class="st23" d="M48.8,60.9c1.1,0,2.1,0,3.2,0c0-1.1,0-2.1,0-3.2c0-1.1,0-2.1,0-3.2c0-1.1,0-2.1,0-3.2c1.1,0,2.1,0,3.2,0
			c0,3.2,0,6.4,0,9.6c0.5,0,1.1,0,1.6,0c0-2.1,0-4.3,0-6.4c0.2-0.1,2.8-0.1,3.2,0c0,2.1,0,4.2,0,6.4c0.3,0.1,0.5,0,0.8,0
			c0.3,0,0.5,0,0.8,0c0-0.4,0-0.8,0-1.2c0-0.4,0-0.7,0-1.1c0-0.4,0-0.8,0-1.2c0-0.4,0-0.8,0-1.2c0-0.4,0-0.8,0-1.2
			c0-0.4,0-0.7,0-1.1c0-0.4,0-0.8,0-1.1c0.2-0.1,2.8-0.1,3.2,0c0,2.7,0,5.3,0,8c0.3,0,0.5,0,0.8,0c0,0.5,0,1.1,0,1.6
			c-0.2,0.1-16.4,0.1-16.9,0c0-0.2,0-0.5,0-0.8C48.8,61.4,48.8,61.2,48.8,60.9z"/>
		<path class="st23" d="M64.1,38.4c3.4,0,6.8,0,10.2,0c0.6,0,1.1,0.1,1.7,0.3c1.1,0.6,1.7,1.6,1.8,2.8c0,1.1,0,2.2,0,3.2
			c0,1.8-1.3,3.2-3.1,3.2c-0.1,0-0.2,0-0.3,0c-6.8,0-13.7,0-20.5,0c-0.8,0-1.6-0.2-2.2-0.7c-0.8-0.6-1.2-1.5-1.2-2.5
			c0-1.1,0-2.2,0-3.3c0-1.7,1.3-3.1,3-3.2c0.2,0,0.3,0,0.5,0C57.3,38.4,60.7,38.4,64.1,38.4z M64.1,46.4c3.4,0,6.8,0,10.2,0
			c0.1,0,0.3,0,0.4,0c0.8-0.1,1.4-0.7,1.5-1.5c0-1.1,0-2.3,0-3.4c0-0.7-0.5-1.3-1.2-1.5C74.7,40,74.5,40,74.2,40
			c-6.8,0-13.6,0-20.4,0c-0.1,0-0.3,0-0.4,0c-0.8,0.1-1.4,0.7-1.4,1.6c0,1.1,0,2.2,0,3.3c0,0.6,0.3,1.1,0.9,1.4
			c0.3,0.2,0.6,0.2,0.9,0.2C57.2,46.4,60.6,46.4,64.1,46.4z"/>
		<path class="st23" d="M65.6,101.1c0,0.6,0,1.1,0,1.6c-8.3,0-16.6,0-24.9,0c0-7.3,0-14.6,0-21.9c0,0,0,0,0,0c0,0.1,0.1,0.2,0.1,0.3
			c0.4,0.9,0.9,1.9,1.3,2.8c0.1,0.2,0.1,0.4,0.1,0.6c0,5.4,0,10.8,0,16.3c0,0.1,0,0.3,0,0.4C50.1,101.1,57.9,101.1,65.6,101.1z"/>
		<path class="st23" d="M44,99.5c0-3.9,0-7.8,0-11.7c0.1,0.1,0.1,0.1,0.1,0.2c0.5,1,0.9,2,1.4,3c0.1,0.1,0.1,0.3,0.1,0.5
			c0,2,0,4.1,0,6.1c0,0.1,0,0.2,0,0.4c6.7,0,13.4,0,20.1,0c0,0.5,0,1.1,0,1.6C65.4,99.5,44.7,99.5,44,99.5z"/>
		<path class="st23" d="M40.7,41.6c2.9,0,5.9,0,8.8,0c0.1,0.3,0,0.5,0,0.8c0,0.3,0,0.5,0,0.8c-0.4,0-0.8,0-1.2,0c-0.4,0-0.8,0-1.2,0
			c-0.4,0-0.8,0-1.2,0s-0.8,0-1.2,0c-0.4,0-0.8,0-1.2,0c-0.4,0-0.8,0-1.2,0c0,7.3,0,14.5,0,21.7c0,0,0,0-0.1,0
			c-0.4-0.5-0.9-1-1.5-1.2C40.7,56.3,40.7,49,40.7,41.6z"/>
		<path class="st23" d="M45.5,71.7c0-0.1-0.1-0.2-0.1-0.2c-0.4-1-0.9-1.9-1.3-2.9c-0.1-0.1-0.1-0.3-0.1-0.5c0-7.7,0-15.4,0-23
			c0-0.1,0-0.2,0-0.2c0.2-0.1,5.1-0.1,5.6,0c0.1,0.5,0.2,1,0.3,1.6c-0.5,0-0.9,0-1.4,0c-0.5,0-1,0-1.4,0c-0.5,0-0.9,0-1.5,0
			c0,0.7,0,1.4,0,2.1c0,0.7,0,1.4,0,2.1c0,0.7,0,1.4,0,2.1c0,0.7,0,1.4,0,2.1c0,0.7,0,1.4,0,2.1c0,0.7,0,1.4,0,2.1
			c0,0.7,0,1.4,0,2.1c0,0.7,0,1.4,0,2.1s0,1.4,0,2.1c0,0.7,0,1.4,0,2.1c0,0.7,0,1.4,0,2.1C45.5,70.3,45.5,71,45.5,71.7
			C45.5,71.7,45.5,71.7,45.5,71.7z"/>
		<path class="st23" d="M85.8,43.2c-2.4,0-4.8,0-7.2,0c0-0.5,0-1,0-1.6c2.9,0,5.9,0,8.8,0c0,5.6,0,11.2,0,16.9c-0.5,0-1,0-1.6,0
			c0-0.4,0-0.8,0-1.2c0-0.4,0-0.8,0-1.2c0-0.4,0-0.8,0-1.1c0-0.4,0-0.8,0-1.2c0-0.4,0-0.8,0-1.2c0-0.4,0-0.8,0-1.2
			c0-0.4,0-0.8,0-1.1c0-0.4,0-0.8,0-1.2c0-0.4,0-0.8,0-1.2c0-0.4,0-0.8,0-1.2c0-0.4,0-0.8,0-1.1c0-0.4,0-0.8,0-1.2
			C85.8,44,85.8,43.6,85.8,43.2z"/>
		<path class="st23" d="M84.1,58.4c-0.5,0-1,0-1.6,0c0-4,0-8,0-12c-0.4,0-0.7,0-1.1,0c-0.4,0-0.7,0-1.1,0c-0.4,0-0.7,0-1.1,0
			c-0.4,0-0.7,0-1.1,0c0.1-0.5,0.2-1.1,0.3-1.6c1.8,0,3.7,0,5.5,0C84.2,45,84.2,58,84.1,58.4z"/>
		<path class="st23" d="M65.7,68.9c0,0.5,0,1,0,1.5c-0.2,0.1-16.5,0.1-16.9,0c0-0.5,0-1,0-1.6C54.4,68.9,60,68.9,65.7,68.9z"/>
		<path class="st23" d="M65.6,80.2c-5.4,0-10.8,0-16.2,0c-0.3-0.4-0.6-1.3-0.6-1.6c5.6,0,11.2,0,16.8,0
			C65.7,78.9,65.7,79.9,65.6,80.2z"/>
		<path class="st23" d="M65.7,88.3c0,0.5,0,0.9,0,1.3c0,0.1,0,0.1,0,0.2c-0.1,0-0.2,0-0.3,0c-3.7,0-7.5,0-11.2,0
			c-0.2,0-0.4-0.1-0.4-0.3c-0.2-0.4-0.4-0.8-0.6-1.3C53.3,88.2,65.2,88.2,65.7,88.3z"/>
		<path class="st23" d="M97,62.5c0,2.7,0,5.3,0,8c-9.1,0-18.2,0-27.3,0c0-2.7,0-5.3,0-8C78.8,62.5,87.9,62.5,97,62.5z M95.4,64.1
			c-0.1,0-0.1,0-0.1,0c-7.9,0-15.9,0-23.8,0c0,0-0.1,0-0.1,0c0,0,0,0,0,0c0,0,0,0,0,0c-0.1,0.6,0,4.5,0,4.7c8,0,16,0,24.1,0
			C95.4,67.3,95.4,65.7,95.4,64.1z"/>
		<path class="st23" d="M97,81.8c0,2.7,0,5.3,0,8c-0.2,0.1-7.7,0.1-8,0c0-2.7,0-5.3,0-8C91.7,81.8,94.3,81.8,97,81.8z M95.4,83.4
			c-0.6-0.1-4.6,0-4.8,0c0,1.6,0,3.2,0,4.8c1.6,0,3.2,0,4.8,0C95.4,86.6,95.4,85,95.4,83.4z"/>
		<path class="st23" d="M97,91.4c0,2.7,0,5.3,0,8c-2.7,0-5.3,0-8,0c-0.1-0.2-0.1-7.3,0-8c0.7-0.1,1.3,0,2,0c0.7,0,1.3,0,2,0
			c0.7,0,1.3,0,2,0C95.7,91.4,96.3,91.4,97,91.4z M90.6,97.9c1.6,0,3.2,0,4.8,0c0.1-0.5,0-4.6,0-4.8c-1.6,0-3.2,0-4.8,0
			C90.6,94.7,90.6,96.2,90.6,97.9z"/>
		<path class="st23" d="M87.3,89.8c-2.7,0-5.3,0-8,0c0-2.7,0-5.3,0-8c2.7,0,5.3,0,8,0C87.4,82,87.4,89.3,87.3,89.8z M85.7,88.2
			c0.1-0.5,0-4.6,0-4.8c-1.6,0-3.2,0-4.7,0c0,1.6,0,3.2,0,4.8C82.6,88.2,84.1,88.2,85.7,88.2z"/>
		<path class="st23" d="M69.7,91.5c2.7,0,5.3,0,8,0c0,2.7,0,5.3,0,8c-2.7,0-5.3,0-8,0C69.7,96.8,69.7,94.1,69.7,91.5z M76.1,93.1
			c-1.6,0-3.2,0-4.8,0c0,1.6,0,3.2,0,4.8c1.6,0,3.2,0,4.8,0C76.1,96.3,76.1,94.7,76.1,93.1z"/>
		<path class="st23" d="M79.4,99.5c0-2.7,0-5.3,0-8c0.2-0.1,7.6-0.1,8,0c0,2.7,0,5.3,0,8C84.7,99.5,82,99.5,79.4,99.5z M85.7,97.9
			c0-1.6,0-3.2,0-4.8c-0.4-0.1-4.6,0-4.8,0c-0.1,0.6,0,4.5,0,4.8C82.6,97.9,84.1,97.9,85.7,97.9z"/>
		<path class="st23" d="M97,80.2c-2.7,0-5.3,0-8,0c0-2.7,0-5.3,0-8c2.7,0,5.3,0,8,0C97,74.8,97,77.5,97,80.2z M95.4,78.6
			c0.1-0.3,0.1-4.5,0-4.8c-0.5-0.1-4.6,0-4.8,0c0,1.6,0,3.2,0,4.8C92.2,78.6,93.8,78.6,95.4,78.6z"/>
		<path class="st23" d="M69.7,81.8c2.7,0,5.3,0,8,0c0,2.7,0,5.3,0,8c-0.2,0.1-7.5,0.1-8,0C69.7,89.6,69.7,82.2,69.7,81.8z
			 M71.3,83.4c-0.1,0.4,0,4.6,0,4.8c1.6,0,3.2,0,4.7,0c0.1-0.3,0.1-4.6,0-4.8C74.5,83.4,72.9,83.4,71.3,83.4z"/>
		<path class="st23" d="M69.7,80.2c0-2.7,0-5.3,0-8c0.2-0.1,7.2-0.1,8,0c0.1,0.2,0.1,7.3,0,8C77.5,80.2,70.4,80.2,69.7,80.2z
			 M71.3,78.5c0.4,0.1,4.6,0.1,4.8,0c0-1.6,0-3.2,0-4.7c-1.6,0-3.2,0-4.8,0C71.3,75.4,71.3,76.9,71.3,78.5z"/>
		<path class="st23" d="M79.4,80.2c0-2.7,0-5.3,0-8c2.7,0,5.3,0,8,0c0,2.7,0,5.3,0,8C84.7,80.2,82,80.2,79.4,80.2z M81,73.8
			c0,1.6,0,3.2,0,4.8c0.4,0.1,4.5,0.1,4.8,0c0-1.6,0-3.2,0-4.8C84.2,73.8,82.6,73.8,81,73.8z"/>
	</g>
</g>
</svg>
