<?xml version="1.0" encoding="utf-8"?>
<!-- Generator: Adobe Illustrator 25.0.1, SVG Export Plug-In . SVG Version: 6.00 Build 0)  -->
<svg version="1.1" id="Layer_1" xmlns="http://www.w3.org/2000/svg" xmlns:xlink="http://www.w3.org/1999/xlink" x="0px" y="0px"
	 viewBox="0 0 128 128" style="enable-background:new 0 0 128 128;" xml:space="preserve">
<style type="text/css">
	.st0{fill:#F2FAFF;}
	.st1{clip-path:url(#SVGID_2_);}
	.st2{clip-path:url(#SVGID_4_);fill:#5FAFDC;}
	.st3{clip-path:url(#SVGID_6_);}
	.st4{clip-path:url(#SVGID_8_);fill:#5FAFDC;}
	.st5{clip-path:url(#SVGID_10_);}
	.st6{clip-path:url(#SVGID_12_);fill:#5FAFDC;}
	.st7{clip-path:url(#SVGID_14_);}
	.st8{clip-path:url(#SVGID_16_);fill:#5FAFDC;}
	.st9{clip-path:url(#SVGID_18_);}
	.st10{clip-path:url(#SVGID_20_);fill:#5FAFDC;}
	.st11{clip-path:url(#SVGID_22_);}
	.st12{clip-path:url(#SVGID_24_);fill:#5FAFDC;}
	.st13{clip-path:url(#SVGID_26_);}
	.st14{clip-path:url(#SVGID_28_);fill:#5FAFDC;}
	.st15{clip-path:url(#SVGID_30_);}
	.st16{clip-path:url(#SVGID_32_);fill:#5FAFDC;}
	.st17{clip-path:url(#SVGID_34_);}
	.st18{clip-path:url(#SVGID_36_);fill:#5FAFDC;}
	.st19{clip-path:url(#SVGID_38_);}
	.st20{clip-path:url(#SVGID_40_);fill:#5FAFDC;}
	.st21{clip-path:url(#SVGID_42_);}
	.st22{clip-path:url(#SVGID_44_);fill:#5FAFDC;}
	.st23{fill:#5FAFDC;}
	.st24{fill:#38618C;}
	.st25{fill:#5C80BC;}
	.st26{fill:#243556;}
	.st27{fill:#1B2C3A;}
	.st28{clip-path:url(#SVGID_46_);}
	.st29{clip-path:url(#SVGID_48_);fill:none;stroke:#38618C;stroke-width:0.9634;stroke-miterlimit:10;}
	.st30{clip-path:url(#SVGID_48_);fill:#5FAFDC;}
	.st31{clip-path:url(#SVGID_50_);}
	.st32{clip-path:url(#SVGID_52_);fill:#5FAFDC;}
	.st33{clip-path:url(#SVGID_52_);fill:none;stroke:#5FAFDC;stroke-width:1.1666;stroke-miterlimit:10;}
	.st34{clip-path:url(#SVGID_54_);}
	.st35{clip-path:url(#SVGID_56_);fill:#5FAFDC;}
	.st36{clip-path:url(#SVGID_58_);}
	.st37{clip-path:url(#SVGID_60_);fill:#5FAFDC;}
	.st38{fill-rule:evenodd;clip-rule:evenodd;fill:#5FAFDC;}
	.st39{fill:none;stroke:#5FAFDC;stroke-width:2.6;stroke-miterlimit:10;}
	.st40{clip-path:url(#SVGID_62_);}
	.st41{clip-path:url(#SVGID_64_);fill:#5FAFDC;}
	.st42{fill:#5FAFDC;stroke:#5FAFDC;stroke-miterlimit:10;}
	.st43{fill-rule:evenodd;clip-rule:evenodd;fill:#5FAFDC;stroke:#5FAFDC;stroke-miterlimit:10;}
	.st44{fill:none;stroke:#5FAFDC;stroke-miterlimit:10;}
	.st45{clip-path:url(#SVGID_66_);}
	.st46{clip-path:url(#SVGID_68_);fill:#5FAFDC;}
	.st47{clip-path:url(#SVGID_68_);fill:none;stroke:#5FAFDC;stroke-width:5;stroke-miterlimit:10;}
	.st48{opacity:0.83;}
	.st49{opacity:0.98;}
	.st50{fill-rule:evenodd;clip-rule:evenodd;fill:#5FAFDC;stroke:#5FAFDC;stroke-width:0.75;stroke-miterlimit:10;}
</style>
<rect x="24.4" y="26" class="st0" width="50" height="50"/>
<g>
	<g>
		<defs>
			<rect id="SVGID_41_" x="32" y="34" width="73" height="71.5"/>
		</defs>
		<clipPath id="SVGID_2_">
			<use xlink:href="#SVGID_41_"  style="overflow:visible;"/>
		</clipPath>
		<g class="st1">
			<defs>
				<rect id="SVGID_43_" x="32" y="34" width="73" height="71.5"/>
			</defs>
			<clipPath id="SVGID_4_">
				<use xlink:href="#SVGID_43_"  style="overflow:visible;"/>
			</clipPath>
			<path class="st2" d="M36,83.4c0.1,0,0.2,0,0.3,0c3.3,0,6.6,0,9.9,0c0.3,0,0.3,0,0.3-0.3c0-15.2,0-30.3,0-45.5
				c0-0.4,0-0.4,0.4-0.4h43.4c0.4,0,0.4,0,0.4,0.4c0,10.3,0,20.5,0,30.8c0,0.3,0,0.3,0.4,0.3h9.8c0.1,0,0.1,0,0.2,0
				c0.1,0,0.1,0,0.1,0.1c0,0.1,0,0.1,0,0.2c0,11,0,22,0,33c0,0.3,0,0.3-0.3,0.3c-8.5,0-17.1,0-25.6,0c-0.4,0-0.3,0-0.3-0.3
				c0-2.6,0-5.2,0-7.7c0-0.1,0-0.1,0-0.2c0-0.1-0.1-0.2-0.2-0.2c-0.9,0-1.8,0-2.7,0c-0.3,0-0.3,0-0.3,0.3c0,2.6,0,5.2,0,7.8
				c0,0.4,0,0.4-0.4,0.4h-35c-0.4,0-0.4,0-0.4-0.4c0-6.1,0-12.1,0-18.2C36,83.6,36,83.5,36,83.4 M48.6,61.3V83c0,0.3,0,0.3,0.3,0.3
				h22.4c0.1,0,0.1,0,0.2,0c0.2,0,0.2,0,0.2,0.2c0,1,0,2,0,2.9c0,1.7,0,3.3,0,5c0,0.3,0,0.3,0.3,0.3c0.9,0,1.7,0,2.6,0
				c0.4,0,0.3,0.1,0.3-0.3c0-7.5,0-15,0-22.5c0-0.4-0.1-0.3,0.3-0.3c4.3,0,8.7,0,13,0c0.3,0,0.3,0,0.3-0.3V39.6c0-0.3,0-0.3-0.3-0.3
				H48.9c-0.4,0-0.4,0-0.4,0.4V61.3z M99,85.5c0-4.8,0-9.6,0-14.3c0-0.4,0.1-0.3-0.3-0.3c-7.1,0-14.3,0-21.4,0c-0.3,0-0.3,0-0.3,0.3
				c0,9.6,0,19.2,0,28.7c0,0.4,0,0.3,0.3,0.3c7.1,0,14.2,0,21.4,0c0.4,0,0.3,0.1,0.3-0.3C99,95.1,99,90.3,99,85.5 M53.8,100.2
				c3.4,0,6.8,0,10.3,0c0.1,0,0.1,0,0.2,0c0.1,0,0.1,0,0.1-0.1c0-0.1,0-0.1,0-0.2c0.5-2.2,1.8-3.7,3.9-4.6c0.3-0.1,0.7-0.2,1.1-0.3
				c0.1,0,0.1-0.1,0.1-0.2c0-0.3,0-0.5,0-0.8c0-1.1,0-2.1,0-3.2c0-0.3,0-0.2-0.2-0.3c-0.3-0.1-0.6-0.1-0.8-0.2
				c-2.1-0.8-3.5-2.4-4-4.6c-0.1-0.3,0-0.3-0.4-0.3c-6.8,0-13.7,0-20.5,0c-0.1,0-0.1,0-0.2,0c-0.1,0-0.1,0-0.1,0.1
				c0,0.1,0,0.1,0,0.2c-0.3,1.4-1,2.6-2.2,3.6c-0.8,0.7-1.7,1.1-2.7,1.3c-0.3,0.1-0.2,0-0.2,0.3c0,1.3,0,2.6,0,3.9
				c0,0.3,0,0.2,0.2,0.3c0,0,0,0,0.1,0c2.4,0.5,4.3,2.4,4.8,4.8c0.1,0.3,0.1,0.3,0.4,0.3C47,100.2,50.4,100.2,53.8,100.2 M38.1,88.5
				c1.4-0.3,2.7-1.6,3-3c0,0,0,0,0,0c-0.9,0-1.8,0-2.8,0c-0.1,0-0.2,0.1-0.2,0.2c0,0.5,0,0.9,0,1.4C38.1,87.5,38.1,88,38.1,88.5
				 M38.1,97.2c0,0.1,0,0.1,0,0.1c0,0.9,0,1.7,0,2.6c0,0.2,0,0.2,0.2,0.2c0.9,0,1.7,0,2.6,0c0.1,0,0.1,0,0.2,0
				C40.8,98.8,39.5,97.5,38.1,97.2 M66.6,100.2c0.1,0,0.1,0,0.2,0c0.9,0,1.7,0,2.6,0c0.2,0,0.2,0,0.2-0.3c0-0.8,0-1.7,0-2.5
				c0-0.1,0-0.1,0-0.2C68.2,97.5,66.9,98.8,66.6,100.2 M69.6,88.4C69.6,88.4,69.6,88.4,69.6,88.4c0-1,0-1.9,0-2.8
				c0-0.2,0-0.2-0.2-0.2c-0.9,0-1.8,0-2.7,0c0,0-0.1,0-0.1,0C66.9,87.1,68.4,88.2,69.6,88.4"/>
			<path class="st2" d="M66.4,42.5c0,0.1,0,0.2,0,0.3c0,5.4,0,10.8,0,16.2c0,0.1,0,0.1,0,0.2c0,0.1,0,0.2-0.1,0.1
				c-0.1,0-0.1,0-0.2,0c-4.7,0-9.4,0-14.1,0c0,0-0.1,0-0.1,0c-0.1,0-0.2-0.1-0.2-0.2c0-0.1,0-0.1,0-0.2c0-5.4,0-10.8,0-16.1
				c0-0.4-0.1-0.3,0.3-0.3c4.7,0,9.4,0,14,0C66.2,42.4,66.3,42.4,66.4,42.5 M64.3,50.8c0-2,0-4,0-6c0-0.3,0-0.3-0.3-0.3
				c-3.3,0-6.6,0-9.9,0c-0.4,0-0.3,0-0.3,0.3c0,4,0,8,0,12c0,0,0,0.1,0,0.1c0,0.2,0,0.2,0.2,0.2c0,0,0.1,0,0.1,0H64
				c0.1,0,0.1,0,0.2,0c0.1,0,0.2,0,0.2-0.1c0-0.1,0-0.1,0-0.2V50.8z"/>
			<path class="st2" d="M68.5,64.5c5.5,0,11,0,16.5,0c0.4,0,0.3,0,0.3,0.3c0,0.5,0,1,0,1.6c0,0.2,0,0.2-0.2,0.2c0,0-0.1,0-0.1,0
				c-11,0-21.9,0-32.9,0c-0.3,0-0.3,0-0.3-0.4c0-0.5,0-1,0-1.5c0-0.3,0-0.2,0.3-0.2c0,0,0.1,0,0.1,0H68.5z"/>
			<path class="st2" d="M61.7,72.9c3.2,0,6.4,0,9.7,0c0.3,0,0.3,0,0.3,0.3c0,0.5,0,1.1,0,1.6c0,0.2,0,0.2-0.2,0.2c0,0-0.1,0-0.1,0
				c-6.4,0-12.9,0-19.3,0c-0.4,0-0.3,0.1-0.3-0.3c0-0.5,0-1.1,0-1.6c0-0.1,0-0.2,0.2-0.2c0.1,0,0.1,0,0.2,0H61.7z"/>
			<path class="st2" d="M77.4,57.1c2.5,0,5.1,0,7.6,0c0.3,0,0.3,0,0.3,0.3c0,0.5,0,1.1,0,1.6c0,0.2,0,0.2-0.2,0.2
				c-5.1,0-10.2,0-15.3,0c-0.2,0-0.2,0-0.2-0.2c0-0.6,0-1.1,0-1.7c0-0.3,0-0.2,0.2-0.2C72.4,57.1,74.9,57.1,77.4,57.1"/>
			<path class="st2" d="M77.4,51.9h-7.5c-0.1,0-0.1,0-0.2,0c-0.2,0-0.2,0-0.2-0.2c0-0.6,0-1.1,0-1.7c0-0.1,0-0.2,0.2-0.2
				c0.1,0,0.1,0,0.2,0c5,0,10.1,0,15.1,0c0.4,0,0.3,0,0.3,0.3c0,0.5,0,1.1,0,1.6c0,0.1,0,0.2-0.2,0.2c-0.1,0-0.1,0-0.2,0H77.4z"/>
			<path class="st2" d="M87.9,81.3c-2.9,0-5.7,0-8.6,0c-0.3,0-0.3,0-0.3-0.3c0-2.6,0-5.2,0-7.8c0,0,0,0,0,0c0-0.3,0-0.3,0.3-0.3
				c5.8,0,11.6,0,17.4,0c0,0,0.1,0,0.1,0c0.1,0,0.1,0,0.1,0.1c0,0.1,0,0.1,0,0.2c0,2.6,0,5.2,0,7.8c0,0.3,0,0.3-0.3,0.3
				C93.7,81.3,90.8,81.3,87.9,81.3 M87.9,79.2h6.5c0.1,0,0.1,0,0.2,0c0.1,0,0.1,0,0.1-0.1c0-0.1,0-0.1,0-0.2c0-1.2,0-2.4,0-3.6
				c0-0.3,0-0.3-0.3-0.3c-4.4,0-8.7,0-13.1,0c-0.1,0-0.1,0-0.2,0c-0.1,0-0.1,0-0.1,0.1c0,0.1,0,0.1,0,0.2c0,1.2,0,2.4,0,3.6
				c0,0.3,0,0.3,0.3,0.3C83.6,79.2,85.8,79.2,87.9,79.2"/>
			<path class="st2" d="M81.1,88.6c0,0.3,0,0.6,0,0.9c0,0.1,0,0.2-0.2,0.2c-0.6,0-1.2,0-1.8,0c-0.1,0-0.2-0.1-0.2-0.2
				c0-0.6,0-1.2,0-1.7c0-0.2,0-0.2,0.2-0.2c0.6,0,1.1,0,1.7,0c0.2,0,0.2,0,0.2,0.2C81.1,88.1,81.1,88.3,81.1,88.6"/>
			<path class="st2" d="M86.4,88.6c0,0.3,0,0.6,0,0.9c0,0.1,0,0.2-0.2,0.2c-0.6,0-1.2,0-1.8,0c-0.1,0-0.2,0-0.2-0.1
				c0-0.6,0-1.2,0-1.8c0-0.1,0-0.1,0.2-0.1c0.6,0,1.2,0,1.8,0c0.1,0,0.2,0.1,0.2,0.2C86.4,88,86.4,88.3,86.4,88.6"/>
			<path class="st2" d="M91.6,88.7c0,0.3,0,0.6,0,0.9c0,0.1,0,0.2-0.2,0.2c-0.6,0-1.2,0-1.8,0c-0.1,0-0.2-0.1-0.2-0.2
				c0-0.6,0-1.2,0-1.7c0-0.1,0-0.2,0.2-0.2c0.6,0,1.2,0,1.8,0c0.1,0,0.2,0.1,0.2,0.2C91.6,88.1,91.6,88.4,91.6,88.7"/>
			<path class="st2" d="M80.1,98.1c-0.3,0-0.6,0-0.9,0c-0.1,0-0.2,0-0.2-0.2c0-0.6,0-1.2,0-1.8c0-0.1,0-0.2,0.2-0.2
				c0.6,0,1.2,0,1.8,0c0.1,0,0.1,0,0.1,0.1c0,0.6,0,1.2,0,1.8c0,0.1-0.1,0.2-0.2,0.2C80.7,98.1,80.4,98.1,80.1,98.1"/>
			<path class="st2" d="M85.3,96c0.3,0,0.6,0,0.9,0c0.1,0,0.2,0,0.2,0.2c0,0.6,0,1.2,0,1.8c0,0.1,0,0.2-0.2,0.2c-0.6,0-1.2,0-1.8,0
				c-0.1,0-0.1,0-0.1-0.1c0-0.6,0-1.2,0-1.8c0-0.1,0.1-0.1,0.1-0.1C84.7,96,85,96,85.3,96"/>
			<path class="st2" d="M90.6,98.1c-0.3,0-0.6,0-0.9,0c-0.1,0-0.2,0-0.2-0.2c0-0.6,0-1.2,0-1.8c0-0.1,0-0.2,0.2-0.2
				c0.6,0,1.2,0,1.8,0c0.1,0,0.1,0,0.1,0.1c0,0.6,0,1.2,0,1.8c0,0.1,0,0.2-0.1,0.2C91.2,98.1,90.9,98.1,90.6,98.1"/>
			<path class="st2" d="M81.1,92.8c0,0.3,0,0.6,0,0.9c0,0.1,0,0.2-0.2,0.2c-0.6,0-1.2,0-1.8,0c-0.1,0-0.2-0.1-0.2-0.2
				c0-0.6,0-1.2,0-1.8c0-0.1,0-0.2,0.1-0.2c0.6,0,1.2,0,1.8,0c0.1,0,0.1,0.1,0.1,0.2C81.1,92.2,81.1,92.5,81.1,92.8"/>
			<path class="st2" d="M86.4,92.8c0,0.3,0,0.6,0,0.9c0,0.1,0,0.1-0.1,0.1c-0.6,0-1.2,0-1.8,0c-0.1,0-0.1,0-0.1-0.1
				c0-0.6,0-1.2,0-1.8c0-0.1,0-0.1,0.1-0.1c0.6,0,1.2,0,1.8,0c0.1,0,0.1,0.1,0.1,0.2C86.4,92.2,86.4,92.5,86.4,92.8"/>
			<path class="st2" d="M90.6,91.8c0.3,0,0.6,0,0.9,0c0.1,0,0.2,0,0.2,0.1c0,0.6,0,1.2,0,1.8c0,0.1,0,0.2-0.2,0.2
				c-0.6,0-1.2,0-1.8,0c-0.1,0-0.2,0-0.2-0.2c0-0.6,0-1.2,0-1.8c0-0.2,0.1-0.2,0.2-0.2C90,91.8,90.3,91.8,90.6,91.8"/>
			<path class="st2" d="M94.8,91.8c0.2,0,0.3,0,0.4,0c0.5,0,1,0,1.5,0c0.1,0,0.2,0,0.2,0.1c0,0.6,0,1.2,0,1.8c0,0.1,0,0.1-0.1,0.1
				c-0.6,0-1.2,0-1.8,0c-0.1,0-0.1,0-0.1-0.1C94.8,93.1,94.8,92.5,94.8,91.8"/>
			<path class="st2" d="M81.1,84.4c0,0.3,0,0.6,0,0.9c0,0.1,0,0.2-0.1,0.2c-0.6,0-1.2,0-1.8,0c-0.1,0-0.2,0-0.2-0.2
				c0-0.6,0-1.2,0-1.8c0-0.1,0-0.2,0.2-0.2c0.6,0,1.2,0,1.8,0c0.1,0,0.1,0,0.1,0.2C81.1,83.8,81.1,84.1,81.1,84.4"/>
			<path class="st2" d="M85.3,83.4c0.3,0,0.6,0,0.9,0c0.2,0,0.2,0,0.2,0.2c0,0.6,0,1.2,0,1.7c0,0.1,0,0.2-0.2,0.2
				c-0.6,0-1.2,0-1.8,0c-0.1,0-0.2-0.1-0.2-0.2c0-0.6,0-1.2,0-1.8c0-0.1,0-0.2,0.2-0.2C84.7,83.4,85,83.4,85.3,83.4"/>
			<path class="st2" d="M90.6,83.4c0.3,0,0.6,0,0.9,0c0.1,0,0.1,0,0.1,0.1c0,0.6,0,1.2,0,1.8c0,0.1-0.1,0.1-0.2,0.1
				c-0.6,0-1.2,0-1.8,0c-0.1,0-0.2,0-0.2-0.1c0-0.6,0-1.2,0-1.8c0-0.1,0.1-0.2,0.2-0.2C90,83.4,90.3,83.4,90.6,83.4"/>
			<path class="st2" d="M96.9,88.7c0,0.3,0,0.6,0,0.9c0,0.1,0,0.1-0.1,0.1c-0.6,0-1.2,0-1.8,0c-0.1,0-0.1,0-0.1-0.1
				c0-0.6,0-1.2,0-1.8c0-0.1,0-0.2,0.2-0.2c0.6,0,1.2,0,1.8,0c0.1,0,0.2,0,0.2,0.2C96.9,88,96.9,88.3,96.9,88.7"/>
			<path class="st2" d="M96.9,97c0,0.3,0,0.6,0,0.9c0,0.1,0,0.2-0.2,0.2c-0.6,0-1.2,0-1.8,0c-0.1,0-0.2-0.1-0.2-0.2
				c0-0.6,0-1.2,0-1.8c0-0.1,0.1-0.2,0.2-0.2c0.6,0,1.2,0,1.7,0c0.1,0,0.2,0.1,0.2,0.2C96.9,96.4,96.9,96.7,96.9,97"/>
			<path class="st2" d="M95.8,85.5c-0.3,0-0.6,0-0.9,0c-0.1,0-0.2,0-0.2-0.2c0-0.6,0-1.2,0-1.8c0-0.1,0-0.2,0.2-0.2
				c0.6,0,1.2,0,1.8,0c0.1,0,0.2,0,0.2,0.2c0,0.6,0,1.2,0,1.8c0,0.1,0,0.2-0.1,0.2C96.4,85.5,96.1,85.5,95.8,85.5"/>
			<path class="st2" d="M58,92.9c0,1.3-0.4,2.5-1.2,3.6c-0.5,0.6-1.1,1.1-1.8,1.4c-1.3,0.5-2.5,0.2-3.6-0.6
				c-0.9-0.7-1.4-1.7-1.7-2.8c-0.4-1.6-0.2-3.1,0.6-4.5c0.4-0.7,0.9-1.2,1.5-1.7c1.4-0.9,3-0.8,4.3,0.3c0.9,0.8,1.4,1.8,1.7,2.9
				C58,91.9,58,92.4,58,92.9 M55.9,92.7c0-0.3-0.1-0.7-0.2-1.1c-0.2-0.7-0.5-1.2-1.1-1.6c-0.5-0.3-1.1-0.3-1.6,0
				c-0.3,0.2-0.5,0.4-0.7,0.7c-0.8,1.4-0.8,2.9,0,4.3c0.2,0.3,0.4,0.5,0.7,0.7c0.5,0.4,1.1,0.4,1.7,0c0.3-0.2,0.5-0.4,0.7-0.7
				C55.7,94.3,55.9,93.6,55.9,92.7"/>
			<path class="st2" d="M45.4,91.8c0.3,0,0.6,0,0.9,0c0.1,0,0.2,0,0.1,0.1c0,0.6,0,1.2,0,1.8c0,0.1,0,0.2-0.2,0.2
				c-0.6,0-1.2,0-1.8,0c-0.1,0-0.2,0-0.2-0.2c0-0.6,0-1.2,0-1.8c0-0.2,0.1-0.2,0.2-0.2C44.8,91.8,45.1,91.8,45.4,91.8"/>
			<path class="st2" d="M62.2,91.8c0.3,0,0.6,0,0.9,0c0.1,0,0.1,0,0.1,0.1c0,0.6,0,1.2,0,1.8c0,0.1,0,0.1-0.2,0.1
				c-0.6,0-1.2,0-1.8,0c-0.1,0-0.2,0-0.2-0.2c0-0.6,0-1.2,0-1.8c0-0.1,0.1-0.2,0.2-0.2C61.6,91.8,61.9,91.8,62.2,91.8"/>
		</g>
	</g>
</g>
</svg>
