<svg id="Layer_1" data-name="Layer 1" xmlns="http://www.w3.org/2000/svg" viewBox="0 0 128 128"><defs><style>.cls-1{fill:#f2faff;}.cls-2{fill:#5fafdc;}</style></defs><rect class="cls-1" x="24.58" y="22.15" width="50" height="50"/><path class="cls-2" d="M58.5,47.52V62.29l7.72,3V47.52Zm10.3,0v18.8l3.36,1.34,3.5-1.34V47.52Zm3.35,19.75a2,2,0,0,0-.06,4,2,2,0,1,0,.06-4Zm.07,4.41A16.79,16.79,0,1,0,89,88.47,16.79,16.79,0,0,0,72.22,71.68Zm6-24.16V65.25l7.72-3V47.52Zm-6,29.53,3.29,6.85L83,85l-5.37,5.31,1.27,7.52-6.64-3.56L65.57,97.8l1.28-7.52L61.48,85l7.45-1.07,3.29-6.85Z"/></svg>