<svg id="Layer_1" data-name="Layer 1" xmlns="http://www.w3.org/2000/svg" xmlns:xlink="http://www.w3.org/1999/xlink" viewBox="0 0 128 128"><defs><style>.cls-1{fill:none;}.cls-2{fill:#f2faff;}.cls-3{clip-path:url(#clip-path);}.cls-4{fill:#5fafdc;}</style><clipPath id="clip-path"><rect class="cls-1" x="36" y="33" width="78" height="78"/></clipPath></defs><rect class="cls-2" x="24.58" y="22.15" width="50" height="50"/><g class="cls-3"><g class="cls-3"><path class="cls-4" d="M50.61,77.8A20.76,20.76,0,0,0,77,80.63L82.37,86a4.67,4.67,0,0,0,1,4.94l9.88,9.88a5.35,5.35,0,0,0,7.61,0l2.28-2.27a5.37,5.37,0,0,0,0-7.61L93.27,81.1a4.65,4.65,0,0,0-4.94-1l-5.41-5.41A20.85,20.85,0,1,0,50.61,77.8m3.77-25.72a15.69,15.69,0,1,1,0,22.2,15.72,15.72,0,0,1,0-22.2"/><path class="cls-4" d="M61.28,63.84a9.83,9.83,0,0,0,4.23,1,2.41,2.41,0,0,1,1.57.55,1.24,1.24,0,0,1-.08,2,2.28,2.28,0,0,1-3.6-1h-5a4.4,4.4,0,0,0,1,2.82,6.66,6.66,0,0,0,3.37,2.28c.39.15.55.31.47.7V75.1h4.95V72.2c0-.32.07-.48.36-.57a6.49,6.49,0,0,0,2.3-1.44,5.21,5.21,0,0,0-.22-7.89,7.31,7.31,0,0,0-4.81-1.77,2.09,2.09,0,0,1-1.65-.64A1.47,1.47,0,0,1,64,58.2a2,2,0,0,1,3.3.08.66.66,0,0,1,.14.4c0,.32.22.32.43.32h4.6a4.56,4.56,0,0,0-1.22-3.11A6.49,6.49,0,0,0,68.48,54c-.22-.08-.29-.15-.29-.46v-2H63.24v1.77c0,.31-.08.39-.39.55a13.33,13.33,0,0,0-2.36,1.25,4.78,4.78,0,0,0-2,5.26,5.83,5.83,0,0,0,3.06,3.45"/></g></g></svg>