<svg id="Layer_1" data-name="Layer 1" xmlns="http://www.w3.org/2000/svg" viewBox="0 0 128 128"><defs><style>.cls-1{fill:#f2faff;}.cls-2,.cls-3{fill:#5fafdc;}.cls-2,.cls-3,.cls-4{stroke:#5fafdc;stroke-miterlimit:10;}.cls-3{fill-rule:evenodd;}.cls-4{fill:none;}</style></defs><rect class="cls-1" x="24.58" y="22.15" width="50" height="50"/><g id="Layer_1-2" data-name="Layer 1"><circle class="cls-2" cx="55.51" cy="64.86" r="5.37"/><path class="cls-2" d="M61,90.26a4.4,4.4,0,0,1-2.42-1.71,4,4,0,0,1-.27-4l4-8.45a4.39,4.39,0,0,1,.43-.79,9.12,9.12,0,0,0-7.17-3.56,9,9,0,0,0-8.14,5.15L43.28,85.3a2.16,2.16,0,0,0,3.92,1.83l3.3-7-1.34,25.66a2.54,2.54,0,1,0,5.08.3L55,90.5h.86l.86,15.61a2.55,2.55,0,0,0,2.57,2.39h.12a2.5,2.5,0,0,0,2.39-2.69Z"/><circle class="cls-2" cx="89.59" cy="64.86" r="5.37"/><path class="cls-2" d="M101.83,85.23l-4-8.44a9,9,0,0,0-15.31-1.6c.12.25.31.49.43.8l4,8.45a4.05,4.05,0,0,1-1.9,5.45,4.25,4.25,0,0,1-.79.3l-.86,15.62a2.54,2.54,0,0,0,5.08.3l.86-15.61h.73l.86,15.61a2.56,2.56,0,0,0,2.57,2.39h.12A2.5,2.5,0,0,0,96,105.81L94.6,80.15l3.31,7a2.14,2.14,0,0,0,2,1.23,2.33,2.33,0,0,0,.92-.19A2.3,2.3,0,0,0,101.83,85.23Z"/><path class="cls-2" d="M84.74,85.3l-4-8.45a9,9,0,0,0-16.29,0l-4,8.45a2.16,2.16,0,0,0,3.92,1.83l3.3-7-1.34,25.66a2.54,2.54,0,1,0,5.08.3l.86-15.61H73l.86,15.61a2.55,2.55,0,0,0,2.57,2.39h.12A2.5,2.5,0,0,0,79,105.81L77.63,80.15l3.31,7a2.14,2.14,0,0,0,2,1.23,2.33,2.33,0,0,0,.92-.19A2.2,2.2,0,0,0,84.74,85.3Z"/><circle class="cls-2" cx="72.55" cy="64.86" r="5.37"/><path class="cls-3" d="M71.68,40.5h2.68l-.06,1.19a4.67,4.67,0,0,1,1.54.63l.85-.85L78.17,43l-.85.91a4.37,4.37,0,0,1,.62,1.59H79.5V48l-1.28-.06a4,4,0,0,1-.77,1.77l1,1-1.73,1.71-1-1a4.54,4.54,0,0,1-1.79.72l-.06,1.38H71.5V51.75A4,4,0,0,1,69.89,51l-.89.89-1.55-1.61.9-.89a4.43,4.43,0,0,1-.66-1.67l-1.25-.06.06-2.2h1.25a5,5,0,0,1,.65-1.61L67.51,43l1.61-1.55.95.9a4.64,4.64,0,0,1,1.67-.66Zm.75,3.39a3.16,3.16,0,0,1,1,6.24,3.19,3.19,0,0,1-3.69-2.62A3.25,3.25,0,0,1,72.43,43.89Z"/><path class="cls-4" d="M56.14,58.36C56.2,52.43,59.57,47.62,64,47.5h1"/><path class="cls-4" d="M89.72,58.36c-.07-5.93-3.44-10.74-7.87-10.86H81"/></g></svg>