<svg id="Layer_1" data-name="Layer 1" xmlns="http://www.w3.org/2000/svg" viewBox="0 0 128 128"><defs><style>.cls-1{fill:#f2faff;}.cls-2{fill:#5fafdc;}</style></defs><rect class="cls-1" x="24.58" y="22.15" width="50" height="50"/><path class="cls-2" d="M51.44,55.44c0,7.41,5,13.45,12.43,13.45s12.43-6,12.43-13.45S71.34,42,63.94,42,51.44,48,51.44,55.44Z"/><path class="cls-2" d="M75.55,97.22a3.37,3.37,0,0,1-.68-.68,17.8,17.8,0,0,1-5.43-13,18.48,18.48,0,0,1,6.72-14.2l-1.83-1.22a15.68,15.68,0,0,1-20.92,0,21.33,21.33,0,0,0-10.6,18.41C43,90,44.17,93.82,46.07,96,47.36,97.63,65.63,98,75.55,97.22Z"/><path class="cls-2" d="M76.44,72.22a16.14,16.14,0,1,0,22.82,0A16.11,16.11,0,0,0,76.44,72.22ZM95.26,85H89.38v5.89a1.72,1.72,0,0,1-3.44,0V85H80.06a1.71,1.71,0,0,1-1.72-1.58,1.82,1.82,0,0,1,1.86-1.85h5.74V75.64a1.72,1.72,0,0,1,3.44,0v5.89h5.88a1.72,1.72,0,1,1,0,3.43Z"/></svg>