<svg id="Layer_1" data-name="Layer 1" xmlns="http://www.w3.org/2000/svg" viewBox="0 0 128 128"><defs><style>.cls-1{fill:#f2faff;}.cls-2{fill:#5fafdc;}</style></defs><rect class="cls-1" x="24.58" y="22.15" width="50" height="50"/><path class="cls-2" d="M80.1,68.05v-19H76.43V69a1.16,1.16,0,0,0,.18,1.48l8.76,8.76,2.87-2.87Z"/><rect class="cls-2" x="88.95" y="79.62" width="4.09" height="4.09" transform="translate(-31.1 88.22) rotate(-44.98)"/><rect class="cls-2" x="94.77" y="67.43" width="3.67" height="3.67"/><rect class="cls-2" x="89.01" y="54.06" width="4.09" height="4.09" transform="translate(-13 80.85) rotate(-45.02)"/><path class="cls-2" d="M58.68,76A10.48,10.48,0,1,0,48.2,65.52,10.45,10.45,0,0,0,58.68,76Z"/><path class="cls-2" d="M78.57,39A29.89,29.89,0,0,0,54.7,50.29a16.8,16.8,0,0,1,4.59-.66A17.79,17.79,0,0,1,63,50,24.15,24.15,0,1,1,88.35,90.73V97a29.89,29.89,0,0,0-9.78-58Z"/><path class="cls-2" d="M66.15,80.26H51.86c-8,0-14.61,4.36-14.86,9.77v10.41H55l2.13-9.85-3.61-5.74H64.24l-3.61,5.74,2.13,9.85H81V90h0C80.77,84.62,74.16,80.26,66.15,80.26Z"/></svg>