<svg id="Layer_1" data-name="Layer 1" xmlns="http://www.w3.org/2000/svg" viewBox="0 0 128 128"><defs><style>.cls-1{fill:#f2faff;}.cls-2{fill:#5fafdc;}</style></defs><rect class="cls-1" x="24.58" y="22.15" width="50" height="50"/><path class="cls-2" d="M97.51,55.47a41.32,41.32,0,0,0-5.78-1h-.86c-3.08-.11-6.64.1-9.72,1.75-5.78,3.2-9,7.85-7.87,11.35l-1.72.73a99.22,99.22,0,0,0,.49-10.74C76,56,78,50.72,76.6,44.73c-1.47-6.39-10.33-10.21-10.7-10.42L65.29,34l-.49.41c-.25.31-6.89,6.51-5.54,12.9,1.23,5.58,5.05,9.71,9.1,10.43a11.48,11.48,0,0,0,1.85.1,100.5,100.5,0,0,1-2.58,22.71l-1.48-1.24A6.41,6.41,0,0,0,67,75.18a14.38,14.38,0,0,0-3.44-8.05C59.26,61.66,49.3,61,48.93,61H48.2l-.25.83c-.12.31-3.32,8.26.86,13.73A17.79,17.79,0,0,0,59,82.2a7.48,7.48,0,0,0,5-.72,5.33,5.33,0,0,0,.86-.62l2.21,1.75a73,73,0,0,1-8.73,21.27l-.12.1c0,.1-.12.21-.25.31a.11.11,0,0,1-.12.1.34.34,0,0,1-.12.21c0,.1-.12.31-.25.31s0,.1-.12.2a1.48,1.48,0,0,0-.37.62.84.84,0,0,0,.25,1.14.51.51,0,0,0,.37.1,1.1,1.1,0,0,0,1-.31,48.68,48.68,0,0,0,5.29-9.39l.61-1.34-.61,1.55L67.26,96c.12.31.37.62.49.93a7.13,7.13,0,0,0,4.3,2.27,24.71,24.71,0,0,0,2.83.21,21.53,21.53,0,0,0,9.59-2.89c6.52-3.61,7.26-12,7.26-12.28v-.62l-.37-.31c-.37-.11-9.84-2.79-16.36.72a19.43,19.43,0,0,0-7,6.3,7,7,0,0,0-1.11,3.92l-2,.82a88.29,88.29,0,0,0,6.4-24.87L74,69a7.13,7.13,0,0,0,4.3,2.27,24.89,24.89,0,0,0,2.83.21,21.53,21.53,0,0,0,9.59-2.89C97.26,65,98,56.6,98,56.29v-.61Z"/><polygon class="cls-2" points="64.52 96.58 66.9 95.17 64.76 97.38 64.52 96.58"/><polygon class="cls-2" points="65.47 95.07 67.02 94.57 66.9 95.78 65 96.28 65.47 95.07"/></svg>