<svg id="Layer_1" data-name="Layer 1" xmlns="http://www.w3.org/2000/svg" xmlns:xlink="http://www.w3.org/1999/xlink" viewBox="0 0 128 128"><defs><style>.cls-1,.cls-5{fill:none;}.cls-2{fill:#f2faff;}.cls-3{clip-path:url(#clip-path);}.cls-4{fill:#5fafdc;}.cls-5{stroke:#5fafdc;stroke-miterlimit:10;stroke-width:5px;}</style><clipPath id="clip-path"><rect class="cls-1" x="42" y="39" width="64" height="64"/></clipPath></defs><rect class="cls-2" x="24.58" y="22.15" width="50" height="50"/><g class="cls-3"><g class="cls-3"><path class="cls-4" d="M80,85.31a2.15,2.15,0,0,0,3.06,0l4.84-4.84V96.19a2.14,2.14,0,0,0,3.43,1.7,2.05,2.05,0,0,0,.83-1.71V80.47L97,85.31a2.28,2.28,0,0,0,2.46.43,2.17,2.17,0,0,0,.6-3.49l-8.54-8.53a2.45,2.45,0,0,0-.71-.5,1.82,1.82,0,0,0-.85-.14,3.51,3.51,0,0,0-.85.14,2.65,2.65,0,0,0-.72.5l-8.53,8.53A2.3,2.3,0,0,0,80,85.31"/><path class="cls-4" d="M48,72.69a2.14,2.14,0,0,0,3.06,0l4.84-4.83V96.51A2.14,2.14,0,0,0,58,98.65a2.17,2.17,0,0,0,1.72-.91,2.07,2.07,0,0,0,.41-1.23V67.86L65,72.69a2.27,2.27,0,0,0,2.46.44,2.17,2.17,0,0,0,.6-3.49L59.49,61.1a2.66,2.66,0,0,0-.71-.5,1.82,1.82,0,0,0-.85-.14,1.29,1.29,0,0,0-.71.22,2.43,2.43,0,0,0-.71.49L48,69.71a2.06,2.06,0,0,0,0,3"/><path class="cls-4" d="M76.13,98.73V51.34L81,55.92a2.32,2.32,0,0,0,2.09.5A2,2,0,0,0,84,53l-8.54-8a2.58,2.58,0,0,0-.71-.47,1.94,1.94,0,0,0-.85-.13,4.06,4.06,0,0,0-.85.13,2.8,2.8,0,0,0-.72.47L64,52.88a2.14,2.14,0,0,0-.6,2.3,2.37,2.37,0,0,0,3.67.7l4.84-4.54V98.73"/><path class="cls-5" d="M48.06,96.07h0Z"/><path class="cls-5" d="M87.93,96.07h0Z"/></g></g></svg>