<svg id="Layer_1" data-name="Layer 1" xmlns="http://www.w3.org/2000/svg" viewBox="0 0 128 128"><defs><style>.cls-1{fill:#f2faff;}.cls-2{fill:#5fafdc;}</style></defs><rect class="cls-1" x="24.58" y="22.15" width="50" height="50"/><path class="cls-2" d="M100.43,53H46.57A6.59,6.59,0,0,0,40,59.57V82.43A6.59,6.59,0,0,0,46.57,89H58.38a6.59,6.59,0,0,0,4.91-2.21l2.86-3.27a9.15,9.15,0,0,1,3.35-2.46,9.73,9.73,0,0,1,11.44,2.46l2.86,3.27A6.55,6.55,0,0,0,88.7,89h11.73A6.59,6.59,0,0,0,107,82.43V59.57A6.59,6.59,0,0,0,100.43,53ZM55.86,78.44a7.39,7.39,0,1,1,7.39-7.39A7.35,7.35,0,0,1,55.86,78.44Zm34.48,0a7.39,7.39,0,1,1,7.39-7.39A7.36,7.36,0,0,1,90.34,78.44Z"/></svg>