<svg id="Layer_1" data-name="Layer 1" xmlns="http://www.w3.org/2000/svg" viewBox="0 0 128 128"><defs><style>.cls-1{fill:#f2faff;}.cls-2{fill:#5fafdc;}</style></defs><rect class="cls-1" x="24.58" y="22.15" width="50" height="50"/><path class="cls-2" d="M75.64,40.55l22.14,9.23A2.06,2.06,0,0,1,99,51.13a47.86,47.86,0,0,1-.92,30.51,37.78,37.78,0,0,1-22.57,22.5,2.7,2.7,0,0,1-1.49,0,38,38,0,0,1-22.57-22.5,47.39,47.39,0,0,1-.92-30.51,2.25,2.25,0,0,1,1.21-1.35l22.14-9.23a2.21,2.21,0,0,1,1.77,0ZM75,44.81v55A33.42,33.42,0,0,0,94.3,80.08a43.87,43.87,0,0,0,1.07-26.82Z"/></svg>