<svg id="Layer_1" data-name="Layer 1" xmlns="http://www.w3.org/2000/svg" viewBox="0 0 128 128"><defs><style>.cls-1{fill:#f2faff;}.cls-2{fill:#5fafdc;}</style></defs><rect class="cls-1" x="24.58" y="22.15" width="50" height="50"/><path class="cls-2" d="M96.91,84.6a5.06,5.06,0,0,1,9.73,2.71,5.06,5.06,0,0,1-9.92-2L87.22,82a7.72,7.72,0,0,1-12.68,1.84L70.16,87.3a6.22,6.22,0,0,1,.39,6.3,6,6,0,0,1-3.71,3.18,6.28,6.28,0,1,1-2.15-12.26c0-1.49,0-3,.07-4.49a5.15,5.15,0,0,1-4.47-3.33l-7.5,2.63a5,5,0,0,1-1.22,4.54,4.79,4.79,0,0,1-3.5,1.63,5,5,0,1,1,.16-10.08q2.31-4.83,4.62-9.71a7.62,7.62,0,0,1-4.49-5.15,7.31,7.31,0,0,1,.4-5.06,7.62,7.62,0,0,1,8.47-4.4A7.4,7.4,0,0,1,62,54.16a7.62,7.62,0,0,1,1.37,5.49c1.8.27,3.6.52,5.42.78.38-1.23.75-2.46,1.14-3.7a5.06,5.06,0,0,1-2.86-3,4.88,4.88,0,0,1-.11-3.11,5.05,5.05,0,1,1,7.37,5.79l1.3,5,9.08,1.3a5,5,0,0,1,2.84-4.24,4.82,4.82,0,0,1,3.9-.23,5,5,0,0,1,3.08,6.41,4.87,4.87,0,0,1-2.92,3,5,5,0,0,1-4.2-.22l-2.65,5a7.78,7.78,0,0,1,2.79,8.8C87.66,81.35,96.54,84.52,96.91,84.6ZM49,75.54a5.16,5.16,0,0,1,3.57,3.08L60.1,76a5.08,5.08,0,0,1,5.74-6c.9-3,1.8-5.87,2.71-8.83l-5.34-.77A7.69,7.69,0,0,1,53.55,66ZM69.29,61.26l-2.73,8.89a5.4,5.4,0,0,1,1.73.95,5.24,5.24,0,0,1,1.24,1.52l7.34-3.41c-.63-2.39-1.24-4.75-1.86-7.13Zm4.79,22a7.63,7.63,0,0,1-1.27-2.8,8.17,8.17,0,0,1-.1-3l-2.8-1A5.15,5.15,0,0,1,65.5,80c0,1.51,0,3-.07,4.53a6.36,6.36,0,0,1,4.27,2.17ZM84.72,63.48,75.81,62.2c.58,2.25,1.16,4.46,1.74,6.69l7.69-3.58A5.74,5.74,0,0,1,84.72,63.48ZM85.6,66l-7.86,3.66c.15.59.3,1.15.45,1.72a7.75,7.75,0,0,1,5.92.74c.88-1.68,1.77-3.34,2.63-5ZM69.83,73.3a5.36,5.36,0,0,1,.23,2.41l2.82,1a7.78,7.78,0,0,1,4.6-5.1c-.15-.55-.27-1.08-.43-1.63Zm3.8-16.56a5.27,5.27,0,0,1-3,.21c-.37,1.2-.73,2.38-1.11,3.59l5.3.76C74.41,59.77,74,58.27,73.63,56.74Z"/></svg>