<svg id="Layer_1" data-name="Layer 1" xmlns="http://www.w3.org/2000/svg" viewBox="0 0 128 128"><defs><style>.cls-1{fill:#f2faff;}.cls-2{fill:#5fafdc;}</style></defs><rect class="cls-1" x="24.58" y="22.15" width="50" height="50"/><path class="cls-2" d="M71.46,61.57a4.6,4.6,0,0,0,3-1,3.73,3.73,0,0,0,0-5.46,4.6,4.6,0,0,0-3-1,4.51,4.51,0,0,0-2.94,1,3.59,3.59,0,0,0,0,5.46A4.51,4.51,0,0,0,71.46,61.57Z"/><polygon class="cls-2" points="74.87 87.14 74.87 64.63 64.56 64.63 64.56 68.38 68.31 68.38 68.31 87.14 64.56 87.14 64.56 90.89 77.69 90.89 77.69 87.14 74.87 87.14"/><path class="cls-2" d="M71.53,44.69a28,28,0,1,1-28,28,28,28,0,0,1,28-28m0-3.51a31.54,31.54,0,1,0,31.54,31.53A31.49,31.49,0,0,0,71.53,41.18Z"/></svg>