<svg id="Layer_1" data-name="Layer 1" xmlns="http://www.w3.org/2000/svg" viewBox="0 0 128 128"><defs><style>.cls-1{fill:#f2faff;}.cls-2{fill:#5fafdc;}</style></defs><rect class="cls-1" x="24.58" y="22.15" width="50" height="50"/><path class="cls-2" d="M48,78H38a1,1,0,0,0-1,1V98a1,1,0,0,0,1,1H48a1,1,0,0,0,1-1V97h2.58l13.61,7.47a3.39,3.39,0,0,0,2.79.2l32-12.34a3.78,3.78,0,0,0,2.37-3.42A3.74,3.74,0,0,0,98,85.28L79.49,88.56A3.86,3.86,0,0,0,75.72,85H63.6L59,81.19A1,1,0,0,0,58.4,81H49V79A1,1,0,0,0,48,78ZM47,97H39V80h8ZM58,83l4.63,3.81a1,1,0,0,0,.57.19H74.58s1.68.74,1.68,1.68S74.58,90,74.58,90h-9a1,1,0,0,0,0,2h9.1s2.56-.35,3.17-1.43L96.48,87.2a1.68,1.68,0,0,1,1.28.34,1.6,1.6,0,0,1,.54,1.21,1.55,1.55,0,0,1-1,1.48l-30.8,12a1.25,1.25,0,0,1-1.08-.07L52.07,94.75c-.14-.07-.34-.14-.47-.75H49V83Z"/><path class="cls-2" d="M60.29,58.44h0L78.15,82.91a.51.51,0,0,0,.81,0h0L96.75,58.58a.38.38,0,0,0,.2-.34.49.49,0,0,0-.2-.4L88.66,48.2a.49.49,0,0,0-.4-.2H68.85c-.54,0-.41.4-8.49,9.91h0A.35.35,0,0,0,60.29,58.44ZM84.21,58,78.49,80,72.76,58ZM73.09,57l5.4-8.36L83.88,57Zm12.2,1H95.47L79.7,79.56Zm.27-1,2.83-8.29L95.33,57Zm-.81.15L79.43,49h8.09Zm-12.4,0L69.52,49h8.09ZM71.48,57H61.71l6.87-8.29Zm.33,1,5.6,21.56L61.64,58Z"/><path class="cls-2" d="M79,43.54V40.76a.5.5,0,1,0-1,0v2.78a.5.5,0,0,0,1,0Z"/><path class="cls-2" d="M71.21,45.22a.43.43,0,0,0,.27-.61l-.88-2.43a.43.43,0,0,0-.61-.27.36.36,0,0,0-.27.54l.88,2.43A.41.41,0,0,0,71.21,45.22Z"/><path class="cls-2" d="M64.81,48.92a.45.45,0,0,0,.06-.67l-1.68-2a.46.46,0,0,0-.68-.07.45.45,0,0,0-.06.67l1.68,2A.41.41,0,0,0,64.81,48.92Z"/><path class="cls-2" d="M93,48.86l1.69-2a.48.48,0,1,0-.74-.6l-1.69,2a.45.45,0,0,0,.07.67A.4.4,0,0,0,93,48.86Z"/><path class="cls-2" d="M86.5,45l.88-2.43a.51.51,0,0,0-.27-.61.52.52,0,0,0-.61.27l-.87,2.43a.51.51,0,0,0,.27.61C86.1,45.35,86.37,45.22,86.5,45Z"/></svg>