<svg id="Layer_1" data-name="Layer 1" xmlns="http://www.w3.org/2000/svg" viewBox="0 0 128 128"><defs><style>.cls-1{fill:#f2faff;}.cls-2{fill:#5fafdc;}</style></defs><rect class="cls-1" x="24.58" y="22.15" width="50" height="50"/><path class="cls-2" d="M68.74,86.93C58.58,87,50.42,78,51.28,67.11c.66-8.39,6.86-15.53,15.21-16.57C77,49.24,85.93,57.81,86,68.54v-.35a15.48,15.48,0,0,1-.28,3.1L96.18,81.6a.21.21,0,0,1,.07-.13c.69-1.76,1.31-3.51,1.92-5.26a.79.79,0,0,0-.48-1c-1.58-1.15-3.09-2.29-4.67-3.37a1.3,1.3,0,0,1-.62-1.35c.07-.54.07-1.07.13-1.61a1.11,1.11,0,0,1,.69-1c1.65-.81,3.37-1.62,5-2.5a7.2,7.2,0,0,0,.76-.6v-.61c-.21-.81-.41-1.68-.62-2.49l-.62-2.83a.89.89,0,0,0-.89-.81c-1.93-.13-3.85-.27-5.85-.34A1.35,1.35,0,0,1,89.85,57a9.32,9.32,0,0,0-.69-1.21,1.11,1.11,0,0,1,0-1.28l2.89-4.85A.91.91,0,0,0,92,48.39l-.06-.07-3.79-4a.91.91,0,0,0-1.24-.27c-.06,0-.06.07-.13.07-1.65.94-3.3,1.82-5,2.76a1.38,1.38,0,0,1-1.44,0c-.34-.2-.76-.4-1.17-.67a1.21,1.21,0,0,1-.62-1.08c-.07-1.82-.14-3.7-.2-5.59,0-.88-.14-1-1-1.21l-5-1.22A.48.48,0,0,1,72,37H71.6l-.59.81c-.85,1.55-1.65,3.16-2.44,4.71a1.08,1.08,0,0,1-1.12.75,10.62,10.62,0,0,0-1.38.06A1.22,1.22,0,0,1,65,42.79c-1.05-1.55-2.11-3.16-3.16-4.71a.89.89,0,0,0-1.19-.47s-.07,0-.07.06l-4.87,1.69a.76.76,0,0,0-.66.87v.07c.13,1.75.2,3.44.4,5.19a1.63,1.63,0,0,1-.86,1.89,5.73,5.73,0,0,0-1.06.74,1.19,1.19,0,0,1-1.31.13c-1.72-.74-3.36-1.41-5.08-2.15a.91.91,0,0,0-1.25.2c0,.06-.06.06-.06.13l-3,4a.86.86,0,0,0-.13,1.22c.06.06.06.13.13.13,1,1.48,2.11,3,3.23,4.38a1.26,1.26,0,0,1,.2,1.35,18.65,18.65,0,0,0-.86,2.09,1.09,1.09,0,0,1-.92.74c-1.85.33-3.63.67-5.47,1a1,1,0,0,0-1,.94v.13s-.29,2.69-.5,4c0,.14-.06.2-.5.34v1.41l3.74,1.22c.87.33,1.75.67,2.62.94a1.15,1.15,0,0,1,.81,1c.14.88.27,1.69.47,2.56a1.21,1.21,0,0,1-.47,1.28l-4,3.84a.88.88,0,0,0-.27,1.21l.07.07,2.15,4.25a.85.85,0,0,0,1,.6c.06,0,.06,0,.13-.07,1.82-.4,3.71-.8,5.52-1.21a1,1,0,0,1,1.08.34l2,2.15a1,1,0,0,1,.27,1.15c-.47,1.89-.94,3.77-1.41,5.59a.81.81,0,0,0,.4,1.08h0l4.25,2.43a.77.77,0,0,0,1.14-.14.07.07,0,0,1,.07-.07c1.35-1.34,2.63-2.69,4-4a1.3,1.3,0,0,1,1.28-.4l2.7.6a1.15,1.15,0,0,1,.94.88c.54,1.75,1.15,3.5,1.69,5.19a9.17,9.17,0,0,0,.6,1.36h2.34l2.11-.27L73,99.6a.92.92,0,0,0,1-.81v-.07c.39-1.82.77-3.64,1.09-5.46a1.3,1.3,0,0,1,.9-1.08l1-.4-4.88-5.12A17.76,17.76,0,0,1,68.74,86.93Z"/><path class="cls-2" d="M103.53,96.59c-2.23-2.29-4.52-4.51-6.74-6.8L96,89c-2.36-2.42-4.78-4.85-7.14-7.27-2.63-2.63-5.25-5.26-7.81-7.89A5.93,5.93,0,0,1,79.27,69a2.66,2.66,0,0,1,.07-.74,11,11,0,0,0-.07-2.15,10.26,10.26,0,0,0-12.86-8.36c-.75.2-.75.41-.21.94,1.28,1.35,2.63,2.63,3.91,4a3.13,3.13,0,0,1,.27,4.51l-.27.27c-.54.54-1,1-1.48,1.55a3.21,3.21,0,0,1-5,0c-1.21-1.21-2.42-2.49-3.7-3.7-.47-.47-.61-.41-.81.2a8.43,8.43,0,0,0-.27,2.22,10.17,10.17,0,0,0,5.26,9.1A9.75,9.75,0,0,0,69.57,78H70a5.51,5.51,0,0,1,4.25,1.68l4.78,4.79L90.53,96l6.73,6.8a4.36,4.36,0,0,0,6.13.21l.14-.14a4.4,4.4,0,0,0,.07-6.27C103.6,96.66,103.53,96.66,103.53,96.59Z"/></svg>