<svg id="Layer_1" data-name="Layer 1" xmlns="http://www.w3.org/2000/svg" viewBox="0 0 128 128"><defs><style>.cls-1{fill:#f2faff;}.cls-2{fill:#5fafdc;}</style></defs><rect class="cls-1" x="24.58" y="22.15" width="50" height="50"/><path class="cls-2" d="M70.19,66.37a8.47,8.47,0,1,1-8.51,8.43h0A8.51,8.51,0,0,1,70.19,66.37Zm-26.9,8.72a6.84,6.84,0,1,0,6.83-6.83,6.83,6.83,0,0,0-6.83,6.83Zm53.8,0a6.83,6.83,0,1,0-6.83,6.84,6.82,6.82,0,0,0,6.83-6.84ZM59.19,86.6c-1.71-1.82-4.62-3.27-8.81-3.27C43.62,83.33,40,87.26,40,90.17v5.45A1.36,1.36,0,0,0,41.35,97H54V94.75C54,91.76,55.92,88.78,59.19,86.6Zm31.43-3.2c-4.19,0-7.1,1.46-8.81,3.28,3.34,2.1,5.19,5.16,5.19,8.07V97H99.65A1.36,1.36,0,0,0,101,95.62h0V90.17C101.07,87.33,97.45,83.4,90.62,83.4ZM70.5,85.82C61,85.82,56,91,56,94.91v7.71A1.38,1.38,0,0,0,57.38,104H83.62A1.38,1.38,0,0,0,85,102.62V94.84C85,91,80,85.82,70.5,85.82Z"/><path class="cls-2" d="M83.2,48.31,80.57,48a.82.82,0,0,1-.66-.51,8.23,8.23,0,0,0-.58-1.46.77.77,0,0,1,.07-.88l1.68-2A1,1,0,0,0,81,41.82l-1.75-1.68a1,1,0,0,0-1.32-.08l-2.11,1.61a.77.77,0,0,1-.88.07,9.06,9.06,0,0,0-1.46-.58A.71.71,0,0,1,73,40.5l-.22-2.62a1,1,0,0,0-1-.88H69.26a1,1,0,0,0-1,.88L68,40.5a.83.83,0,0,1-.51.66,8.38,8.38,0,0,0-1.46.58.77.77,0,0,1-.88-.07l-2-1.68a1,1,0,0,0-1.32.07l-1.68,1.68A1,1,0,0,0,60,43.06l1.68,2a.76.76,0,0,1,.07.88,12,12,0,0,0-.58,1.46.71.71,0,0,1-.66.51l-2.62.29a1,1,0,0,0-.88,1v2.48a1,1,0,0,0,.88,1l2.62.29a.83.83,0,0,1,.66.51A8.38,8.38,0,0,0,61.74,55a.77.77,0,0,1-.07.88l-1.68,2a1,1,0,0,0,.07,1.32l1.68,1.68a1,1,0,0,0,1.32.07l2-1.68a.76.76,0,0,1,.88-.07,12,12,0,0,0,1.46.58.71.71,0,0,1,.51.66l.29,2.62a1,1,0,0,0,1,.88h2.48a1,1,0,0,0,1-.88l.29-2.62a.83.83,0,0,1,.51-.66A8.38,8.38,0,0,0,75,59.26a.77.77,0,0,1,.88.07l2,1.68a1,1,0,0,0,1.32-.07l1.68-1.68A1,1,0,0,0,81,57.94l-1.68-2a.76.76,0,0,1-.07-.88,12,12,0,0,0,.58-1.46.71.71,0,0,1,.66-.51l2.62-.29a1,1,0,0,0,.88-1V49.26A.88.88,0,0,0,83.2,48.31Zm-13,6.86a4.73,4.73,0,1,1,4.73-4.73A4.71,4.71,0,0,1,70.19,55.17Z"/></svg>