<svg id="Layer_1" data-name="Layer 1" xmlns="http://www.w3.org/2000/svg" viewBox="0 0 128 128"><defs><style>.cls-1{fill:#f2faff;}.cls-2{fill:#5fafdc;}</style></defs><rect class="cls-1" x="24.58" y="22.15" width="50" height="50"/><circle class="cls-2" cx="59.21" cy="59.77" r="2.38"/><path class="cls-2" d="M54.46,59.77a4.8,4.8,0,0,1,3.22-4.53,17.31,17.31,0,0,0-10,4.53,16.35,16.35,0,0,0,10,4.52A4.79,4.79,0,0,1,54.46,59.77Z"/><path class="cls-2" d="M64,59.77a4.79,4.79,0,0,1-3.22,4.52,17.24,17.24,0,0,0,10.05-4.52,16.88,16.88,0,0,0-10.05-4.53A4.87,4.87,0,0,1,64,59.77Z"/><path class="cls-2" d="M76.62,78l7.9,8.9L86.44,85l-8.06-9A15,15,0,0,1,76.62,78Z"/><path class="cls-2" d="M59.21,77.79a18,18,0,1,0-17.94-18A17.92,17.92,0,0,0,59.21,77.79ZM68,72H51V70H68ZM51,48H68v2H51ZM45.1,60.53l-.46-.69.62-.84a19.13,19.13,0,0,1,27-1.23A10.18,10.18,0,0,1,73.48,59l.15.15.61.69-.76.77a19.15,19.15,0,0,1-27,1.23c-.53-.46-.92-.85-1.38-1.31Z"/><path class="cls-2" d="M80.32,74.19,89,84h.85a3.5,3.5,0,0,1,2.54,1.08L98,90.72V46.6A3.6,3.6,0,0,0,94.4,43H78.23a25.11,25.11,0,0,1,2.09,31.19ZM95,79H88V77h7Zm0-6H87V71h8Zm0-6H87V65h8Zm0-6H87V59h8Zm0-6H87V53h8ZM84,47H95v2H84Z"/><path class="cls-2" d="M59.21,82.54A22.78,22.78,0,1,0,36.44,59.77,22.78,22.78,0,0,0,59.21,82.54Zm0-43.09A20.36,20.36,0,1,1,38.89,59.77,20.38,20.38,0,0,1,59.21,39.45Z"/><path class="cls-2" d="M103.18,98.81,90.68,86.38a1.1,1.1,0,0,0-.85-.38h-.92L86,88.91v.92a1.1,1.1,0,0,0,.38.85l12.43,12.5a3,3,0,0,0,4.29,0,3.2,3.2,0,0,0,.08-4.37Z"/><path class="cls-2" d="M83,89.87V89l-8.48-9.51A25.29,25.29,0,0,1,42,78.37v16A3.6,3.6,0,0,0,45.6,98H89.7l-5.62-5.6A3.48,3.48,0,0,1,83,89.87ZM45,88H77v2H45Zm37,6H45V92H82Z"/></svg>