<svg id="Layer_1" data-name="Layer 1" xmlns="http://www.w3.org/2000/svg" viewBox="0 0 128 128"><defs><style>.cls-1{fill:#f2faff;}.cls-2,.cls-3{fill:#5fafdc;}.cls-3{fill-rule:evenodd;}</style></defs><rect class="cls-1" x="24.58" y="22.15" width="50" height="50"/><path class="cls-2" d="M74,40.47A14.34,14.34,0,0,1,88.29,54h2a.92.92,0,0,1,0,1.84h-2a14.25,14.25,0,0,1-7.06,11.45l4.45,9.82a14.56,14.56,0,0,1,4.84-.85,14.37,14.37,0,1,1-6.68,1.63l-4.38-9.75a14.38,14.38,0,0,1-12.76-.85l-4,6.61a11.85,11.85,0,0,1-5.57,21.73v3.66h8.51a3.69,3.69,0,1,1,3.6,4.58,3.71,3.71,0,0,1-3.6-2.75H56.23a.89.89,0,0,1-.92-.91V95.64A11.86,11.86,0,0,1,56.23,72a12.06,12.06,0,0,1,4.84,1l4.06-6.81a14.43,14.43,0,0,1-5.5-10.4H48.31v1.7a3.69,3.69,0,1,1-4.58,3.6,3.71,3.71,0,0,1,2.75-3.6V54.87a.9.9,0,0,1,.91-.92H59.63A14.39,14.39,0,0,1,74,40.47ZM95.43,54h4.84l1.64-2.81a4.6,4.6,0,0,1-1.71-3.53,4.52,4.52,0,1,1,3.34,4.32l-1.9,3.33a.87.87,0,0,1-.85.46h-5.3a.89.89,0,0,1-.91-.91A.79.79,0,0,1,95.43,54Zm9.22-8.7A2.36,2.36,0,1,0,107,47.61,2.31,2.31,0,0,0,104.65,45.25ZM69.18,98.65a1.57,1.57,0,1,0,1.57,1.57A1.51,1.51,0,0,0,69.18,98.65ZM47.39,59.52a1.57,1.57,0,0,0,0,3.14A1.55,1.55,0,0,0,49,61.09,1.51,1.51,0,0,0,47.39,59.52Zm8.84,17.34a3.52,3.52,0,0,1,3.53,3.53,3.46,3.46,0,0,1-3.53,3.47,3.52,3.52,0,0,1-3.54-3.53A3.46,3.46,0,0,1,56.23,76.86Zm0,1.77A1.77,1.77,0,1,0,58,80.39,1.76,1.76,0,0,0,56.23,78.63ZM48.44,90.21a8.2,8.2,0,0,1,15.57,0A10.08,10.08,0,1,0,46.15,83.8,9.84,9.84,0,0,0,48.44,90.21Zm14.07,1.51a6.37,6.37,0,0,0-12.57,0A10.25,10.25,0,0,0,62.51,91.72ZM81.23,99v-1c0-1.76-.07-2.68.39-3.4A6.61,6.61,0,0,1,84,92.76c1.18-.65,2.36-1.37,3.53-2.09v-1A4.52,4.52,0,0,1,86,86.22v-.85a4.52,4.52,0,1,1,9,0v.85a4.49,4.49,0,0,1-1.57,3.4v1.11c1.05.59,2.1,1.25,3.21,1.84,1.57.85,2.29,1.3,2.75,2.09s.39,1.51.39,3.08v1.37A12.56,12.56,0,1,0,78,90.67,13.06,13.06,0,0,0,81.23,99Zm16.88,1.64v-3a5.25,5.25,0,0,0-.2-2.16,7.08,7.08,0,0,0-2.09-1.44L91.7,91.72v-3a2.85,2.85,0,0,0,1.57-2.48v-.85a2.69,2.69,0,1,0-5.37,0v.85a2.85,2.85,0,0,0,1.57,2.48v3c-1.5.85-2.94,1.76-4.45,2.61a5.21,5.21,0,0,0-1.77,1.25,6.73,6.73,0,0,0-.19,2.48v2.62A12.56,12.56,0,0,0,98.11,100.68ZM64.67,63.31v-1c0-1.77-.07-2.68.39-3.4A6.61,6.61,0,0,1,67.48,57c1.18-.65,2.36-1.37,3.54-2.09v-1a4.52,4.52,0,0,1-1.57-3.4v-.85a4.52,4.52,0,1,1,9,0v.85a4.52,4.52,0,0,1-1.57,3.4V55c1,.59,2.09,1.25,3.2,1.83,1.57.86,2.29,1.31,2.75,2.1s.39,1.5.39,3.07v1.38A12.56,12.56,0,1,0,61.4,54.87,12.44,12.44,0,0,0,64.67,63.31ZM81.49,65v-3a5.25,5.25,0,0,0-.2-2.16,7.24,7.24,0,0,0-2.09-1.44L75.07,56V53a2.83,2.83,0,0,0,1.57-2.48v-.85A2.7,2.7,0,0,0,74,47a2.74,2.74,0,0,0-2.68,2.69v.85A2.73,2.73,0,0,0,72.85,53v3c-1.51.85-2.95,1.77-4.45,2.62a5.1,5.1,0,0,0-1.77,1.24,6.84,6.84,0,0,0-.19,2.49v2.61A12.56,12.56,0,0,0,81.49,65Z"/><path class="cls-3" d="M92.81,54a.92.92,0,1,1-.92.92A.91.91,0,0,1,92.81,54Z"/></svg>