<svg xmlns="http://www.w3.org/2000/svg" viewBox="0 0 152.35 139.43"><defs><style>.a{fill:#86bc49;}.a,.b,.c,.d{stroke:#e6e7e8;stroke-miterlimit:10;stroke-width:0.3px;}.b{fill:#f08065;}.c{fill:#c3c0bf;}.d{fill:#5eaedb;}.e{font-size:4.06px;font-family:Corbel-Bold, Corbel;font-weight:700;}.e,.j{fill:#fffdfc;}.f{letter-spacing:-0.04em;}.g{letter-spacing:-0.02em;}.h{letter-spacing:-0.04em;}.i{letter-spacing:-0.02em;}.k,.l{fill:#fffdfd;}.l{fill-rule:evenodd;}</style></defs><polygon class="a" points="0.15 73.29 0.15 87.92 12.82 95.24 25.49 87.92 25.49 73.29 12.82 65.97 0.15 73.29"/><polygon class="b" points="12.82 95.25 12.82 109.89 25.49 117.2 38.16 109.89 38.16 95.25 25.49 87.94 12.82 95.25"/><polygon class="a" points="38.17 95.25 38.17 109.89 50.84 117.2 63.52 109.89 63.52 95.25 50.84 87.94 38.17 95.25"/><polygon class="a" points="114.16 95.13 114.16 109.76 126.83 117.08 139.51 109.76 139.51 95.13 126.83 87.81 114.16 95.13"/><polygon class="c" points="126.83 73.29 126.83 87.92 139.51 95.24 152.18 87.92 152.18 73.29 139.51 65.97 126.83 73.29"/><polygon class="b" points="76.18 73.29 76.18 87.92 88.85 95.24 101.52 87.92 101.52 73.29 88.85 65.97 76.18 73.29"/><polygon class="b" points="38.17 51.33 38.17 65.97 50.84 73.28 63.52 65.97 63.52 51.33 50.84 44.02 38.17 51.33"/><polygon class="c" points="114.19 7.49 114.19 22.12 126.86 29.44 139.53 22.12 139.53 7.49 126.86 0.17 114.19 7.49"/><polygon class="d" points="101.52 73.29 101.52 87.92 114.19 95.24 126.86 87.92 126.86 73.29 114.19 65.97 101.52 73.29"/><polygon class="a" points="63.67 51.33 63.67 65.97 76.34 73.28 89.01 65.97 89.01 51.33 76.34 44.02 63.67 51.33"/><polygon class="c" points="88.85 51.33 88.85 65.97 101.52 73.28 114.19 65.97 114.19 51.33 101.52 44.02 88.85 51.33"/><polygon class="c" points="25.49 73.29 25.49 87.92 38.16 95.24 50.84 87.92 50.84 73.29 38.16 65.97 25.49 73.29"/><polygon class="b" points="126.86 29.34 126.86 43.97 139.53 51.29 152.21 43.97 152.21 29.34 139.53 22.02 126.86 29.34"/><polygon class="d" points="101.49 29.34 101.49 43.97 114.16 51.29 126.83 43.97 126.83 29.34 114.16 22.02 101.49 29.34"/><polygon class="a" points="114.16 51.33 114.16 65.97 126.83 73.28 139.51 65.97 139.51 51.33 126.83 44.02 114.16 51.33"/><polygon class="d" points="50.84 73.29 50.84 87.92 63.52 95.24 76.19 87.92 76.19 73.29 63.52 65.97 50.84 73.29"/><polygon class="d" points="12.68 51.5 12.68 66.13 25.35 73.45 38.02 66.13 38.02 51.5 25.35 44.19 12.68 51.5"/><text class="e" transform="translate(120.5 11.21)"><tspan class="f">P</tspan><tspan x="2.26" y="0">eople </tspan><tspan x="2.06" y="4.87">First </tspan><tspan x="-1.99" y="9.75">Company</tspan></text><text class="e" transform="translate(66.48 58.1)">Connected <tspan x="0.38" y="4.87">Ecosystem</tspan></text><text class="e" transform="translate(103.62 77.37)"><tspan class="g">R</tspan><tspan x="2.47" y="0">ecognition</tspan><tspan x="1.85" y="4.87">&amp;</tspan><tspan class="h" x="4.66" y="4.87"> </tspan><tspan class="i" x="5.32" y="4.87">A</tspan><tspan x="7.91" y="4.87">wards </tspan><tspan x="2.05" y="9.75">Programs</tspan></text><text class="e" transform="translate(19.13 101.7)">Virtual <tspan x="-0.72" y="4.87">Practice</tspan></text><polygon class="j" points="44.36 57.38 47.98 57.38 47.98 56.31 44.09 56.31 44.36 57.38"/><path class="j" d="M50.75,75.86h1.61V73.29a.18.18,0,0,1,.36,0v2.57h1.61V72.28H50.75Z" transform="translate(-1.7 -9.17)"/><polygon class="j" points="53.71 57.38 57.33 57.38 57.59 56.31 53.71 56.31 53.71 57.38"/><path class="j" d="M50,66.74v5.19h5V70.85H50.93a.18.18,0,1,1,0-.36h4.12v-5H50Zm2.32-.18h.36a.18.18,0,0,1,.18.18.18.18,0,0,1-.18.17h-.36a.18.18,0,0,1-.18-.17A.18.18,0,0,1,52.36,66.56Zm0,1.07h.36a.18.18,0,1,1,0,.36h-.36a.18.18,0,1,1,0-.36Z" transform="translate(-1.7 -9.17)"/><path class="j" d="M47,61.19H45.74v2.5h3.94v-2.5H47Zm-.17,1.25a.18.18,0,0,1-.36,0v-.36a.18.18,0,0,1,.36,0Zm1.79-.36a.18.18,0,0,1,.17-.18.18.18,0,0,1,.18.18v.36a.18.18,0,0,1-.18.18.18.18,0,0,1-.17-.18Z" transform="translate(-1.7 -9.17)"/><path class="j" d="M52.54,64.05a1.43,1.43,0,1,0-1.43-1.43A1.43,1.43,0,0,0,52.54,64.05Z" transform="translate(-1.7 -9.17)"/><rect class="j" x="45.48" y="50.94" width="1.07" height="0.72"/><path class="j" d="M55.4,61.19v2.5h3.94v-2.5Zm2.41,1.41L57.1,63,57,63a.17.17,0,0,1-.1,0,.18.18,0,0,1-.08-.15v-.72a.18.18,0,0,1,.08-.15.22.22,0,0,1,.18,0l.71.36a.18.18,0,0,1,0,.32Z" transform="translate(-1.7 -9.17)"/><polygon class="j" points="55.5 53.34 55.63 53.27 55.5 53.2 55.5 53.34"/><path class="j" d="M90.35,95.83a6.05,6.05,0,1,1,6.06-6A6.05,6.05,0,0,1,90.35,95.83ZM90,85.51v1.06a.36.36,0,1,0,.71,0V85.51a.36.36,0,1,0-.71,0Zm2.18.39-.53.93a.35.35,0,0,0,.13.48.36.36,0,0,0,.49-.13l.53-.92a.36.36,0,1,0-.62-.36Zm1.7,1.43-.93.54a.35.35,0,0,0-.13.48.36.36,0,0,0,.49.13l.92-.53a.36.36,0,0,0-.35-.62Zm.75,2.09H93.56a.36.36,0,1,0,0,.71h1.07a.36.36,0,0,0,0-.71Z" transform="translate(-1.7 -9.17)"/><path class="j" d="M146.53,46.45a1.15,1.15,0,0,0-1.07.76h-1.89l-.8-1.31.78-1.27h1.91a1.12,1.12,0,0,0,1.07.75,1.14,1.14,0,1,0-1.07-1.51h-2.11A.39.39,0,0,0,143,44l-.91,1.47h-1.77L139.45,44a.39.39,0,0,0-.31-.17H137a1.11,1.11,0,0,0-1.07-.76A1.14,1.14,0,1,0,137,44.63h1.91l.78,1.27-.8,1.31H137a1.13,1.13,0,0,0-1.07-.76A1.14,1.14,0,1,0,137,48h2.11a.35.35,0,0,0,.31-.17l.92-1.51h1.78L143,47.8a.39.39,0,0,0,.31.17h2.11a1.11,1.11,0,0,0,1.07.76,1.14,1.14,0,0,0,0-2.28Zm0-2.58a.39.39,0,1,1-.39.39A.38.38,0,0,1,146.53,43.87Zm-10.59.78a.39.39,0,1,1,.4-.39A.39.39,0,0,1,135.94,44.65Zm0,3.32a.39.39,0,1,1,.4-.39A.39.39,0,0,1,135.94,48Zm10.59,0a.39.39,0,1,1,.39-.39A.38.38,0,0,1,146.53,48Z" transform="translate(-1.7 -9.17)"/><path class="j" d="M136.85,42.05a1.13,1.13,0,0,0,1.29-.74h.77l.91,1.46a.37.37,0,0,0,.31.18h.71v1.84a.1.1,0,0,0,.1.09h.57a.09.09,0,0,0,.09-.09V43h.72a.38.38,0,0,0,.31-.18l.91-1.46h.77a1.14,1.14,0,0,0,1.29.74,1.13,1.13,0,0,0-.21-2.24,1.14,1.14,0,0,0-1.07.77h-1a.39.39,0,0,0-.31.17l-.91,1.47h-1.77l-.92-1.47a.39.39,0,0,0-.31-.17h-1a1.13,1.13,0,1,0-1.3,1.47Zm8.54-1.5a.4.4,0,1,1-.39.39A.4.4,0,0,1,145.39,40.55Zm-8.31,0a.4.4,0,1,1-.39.39A.39.39,0,0,1,137.08,40.55Z" transform="translate(-1.7 -9.17)"/><path class="j" d="M145.61,49.74a1.15,1.15,0,0,0-1.29.75h-.77l-.9-1.46a.38.38,0,0,0-.32-.18h-.71V47a.1.1,0,0,0-.1-.1H141a.1.1,0,0,0-.1.1v1.84h-.72a.38.38,0,0,0-.31.18l-.9,1.46h-.78a1.14,1.14,0,0,0-1.28-.75,1.11,1.11,0,0,0-.88.88A1.1,1.1,0,0,0,137.08,52a1.14,1.14,0,0,0,1.07-.76h1a.37.37,0,0,0,.31-.17l.9-1.46h1.78L143,51a.38.38,0,0,0,.31.18h1a1.14,1.14,0,0,0,1.07.77,1.14,1.14,0,0,0,.22-2.25Zm-8.53,1.51a.4.4,0,1,1,.39-.39A.39.39,0,0,1,137.08,51.25Zm8.31,0a.4.4,0,0,1,0-.79.4.4,0,1,1,0,.79Z" transform="translate(-1.7 -9.17)"/><polygon class="j" points="123.22 98.49 123.05 98.73 124.89 98.73 124.73 98.49 123.22 98.49"/><rect class="j" x="123.32" y="97.17" width="1.31" height="0.84"/><path class="j" d="M130.44,108.44h1.43v-2.39h-1.43Zm.72-.72a.24.24,0,1,1-.24.24A.24.24,0,0,1,131.16,107.72Z" transform="translate(-1.7 -9.17)"/><path class="j" d="M123.28,111.12v.7a2.57,2.57,0,0,1,.48,0v-.72A1.56,1.56,0,0,0,123.28,111.12Z" transform="translate(-1.7 -9.17)"/><path class="j" d="M133.9,109.63a2.26,2.26,0,0,0-2.25,2h-1.37a.21.21,0,0,0-.17.07l-.18.18v-1.17h1.23a.24.24,0,0,0,.24-.24V110a2.75,2.75,0,1,0-.48,0v.28h-1.23a.24.24,0,0,0-.24.24v1.89l-.37.37a.24.24,0,0,0-.07.16v.53h-.64v-.88a.21.21,0,0,0-.08-.17l-.35-.36V110.5a.24.24,0,0,0-.24-.24H126v-.54a2.36,2.36,0,1,0-.48,0v.76a.24.24,0,0,0,.24.24h1.71v.82l-.19-.19a.22.22,0,0,0-.17-.07h-1.92a2.14,2.14,0,1,0,0,.48H127l.89.88v.79h-2a.48.48,0,0,0-.48.47v1a.07.07,0,0,0,0,.05h0l1.3,4.65a.23.23,0,0,0,.23.18h3.13a.24.24,0,0,0,.22-.18l1.3-4.65h0a.07.07,0,0,0,0-.05v-1a.47.47,0,0,0-.47-.47h-1.67V113l.89-.89h1.27a2.27,2.27,0,1,0,2.25-2.5Zm-3.7-.72a.24.24,0,0,1-.24-.24v-2.86a.24.24,0,0,1,.24-.24h1.91a.24.24,0,0,1,.24.24v2.86a.24.24,0,0,1-.24.24Zm-5.91-.53a.24.24,0,0,1-.24-.24.23.23,0,0,1,0-.14l.47-.66a.77.77,0,0,1,0-.15v-.86a.46.46,0,0,1,.46-.47h1.34a.46.46,0,0,1,.46.47v.86a.77.77,0,0,1,0,.15l.47.66a.25.25,0,0,1-.2.38Zm-.05,3.69a.24.24,0,0,1-.23.25H124a1.49,1.49,0,0,0-.81,0h-.09l-.1,0a1.49,1.49,0,0,0-.81,0,.23.23,0,0,1-.28-.18.11.11,0,0,1,0-.05v-1.16a.26.26,0,0,1,.19-.27,2,2,0,0,1,1,0,2,2,0,0,1,1,0,.26.26,0,0,1,.19.27v1.16Zm6.92,1.85v.72h-5.25v-.72Zm2.74-.74a1.31,1.31,0,1,1,1.31-1.31A1.31,1.31,0,0,1,133.9,113.18Z" transform="translate(-1.7 -9.17)"/><path class="j" d="M134.39,112.16a.74.74,0,0,0-.08.44.83.83,0,0,0,.43-.73v0A.65.65,0,0,0,134.39,112.16Z" transform="translate(-1.7 -9.17)"/><path class="j" d="M133.41,111.63a.64.64,0,0,0,.07-.47.82.82,0,0,0-.41.71V112A.66.66,0,0,0,133.41,111.63Z" transform="translate(-1.7 -9.17)"/><path class="j" d="M133.94,111a1.17,1.17,0,0,1-.69,1.35.81.81,0,0,0,.59.31,1.19,1.19,0,0,1,.74-1.31A.85.85,0,0,0,133.94,111Z" transform="translate(-1.7 -9.17)"/><path class="j" d="M122.33,111.08v.72a2.57,2.57,0,0,1,.48,0v-.7A1.56,1.56,0,0,0,122.33,111.08Z" transform="translate(-1.7 -9.17)"/><path class="j" d="M129.26,66h-1.4a2,2,0,0,0-2,1.75l-.19,1.63a.41.41,0,0,0,.32.45,9.09,9.09,0,0,0,.91.15l.22,3.82a.57.57,0,0,0,.57.53h1.74a.56.56,0,0,0,.56-.53l.23-3.82a9.09,9.09,0,0,0,.91-.15.42.42,0,0,0,.32-.45l-.19-1.63A2,2,0,0,0,129.26,66Z" transform="translate(-1.7 -9.17)"/><circle class="j" cx="126.86" cy="54.4" r="1.89"/><path class="j" d="M124.21,66.33l-2.72-1,.5-.2a.51.51,0,0,0,.26-.67.5.5,0,0,0-.66-.26l-1.68.72a.57.57,0,0,0-.29.3.52.52,0,0,0,0,.42l.83,1.58a.51.51,0,0,0,.29.25.5.5,0,0,0,.41,0,.52.52,0,0,0,.21-.7l-.25-.47,2.72,1a.53.53,0,0,0,.67-.3A.5.5,0,0,0,124.21,66.33Z" transform="translate(-1.7 -9.17)"/><path class="j" d="M123.87,70l-2.72,1,.25-.47a.52.52,0,0,0-.21-.7.59.59,0,0,0-.41,0,.55.55,0,0,0-.29.25l-.85,1.62a.56.56,0,0,0,0,.42.52.52,0,0,0,.28.3l1.68.72a.5.5,0,0,0,.66-.27.51.51,0,0,0-.26-.66l-.49-.2,2.73-1a.52.52,0,0,0,.31-.66A.5.5,0,0,0,123.87,70Z" transform="translate(-1.7 -9.17)"/><path class="j" d="M133.24,67.29l2.72-1-.24.47a.52.52,0,0,0,.21.7.59.59,0,0,0,.41,0,.53.53,0,0,0,.28-.25l.85-1.62a.51.51,0,0,0-.24-.72l-1.68-.72a.5.5,0,0,0-.66.26.51.51,0,0,0,.26.67l.49.2-2.74,1a.52.52,0,0,0-.3.66A.5.5,0,0,0,133.24,67.29Z" transform="translate(-1.7 -9.17)"/><path class="j" d="M136.62,70.05a.49.49,0,0,0-.28-.25.5.5,0,0,0-.41,0,.52.52,0,0,0-.21.7L136,71l-2.72-1a.51.51,0,0,0-.36,1l2.72,1-.49.21a.5.5,0,0,0-.26.66.49.49,0,0,0,.66.27l1.68-.72a.55.55,0,0,0,.28-.3.48.48,0,0,0,0-.42Z" transform="translate(-1.7 -9.17)"/><path class="j" d="M52.54,106.29a.6.6,0,0,1,.6.6.59.59,0,0,1-.6.6.6.6,0,0,1-.6-.6A.6.6,0,0,1,52.54,106.29Z" transform="translate(-1.7 -9.17)"/><path class="j" d="M51.83,113.31a.34.34,0,0,0,.34.34.34.34,0,0,0,.34-.34v-2.82h.15v2.82a.34.34,0,1,0,.67,0v-4.86h.15v1.79a.24.24,0,1,0,.47,0v-1.83a.72.72,0,0,0-.7-.79H51.9a.72.72,0,0,0-.69.78v1.84a.24.24,0,1,0,.47,0v-1.79h.16Z" transform="translate(-1.7 -9.17)"/><path class="j" d="M56.17,103.77a.51.51,0,0,1,.51.51.51.51,0,0,1-1,0A.51.51,0,0,1,56.17,103.77Z" transform="translate(-1.7 -9.17)"/><path class="j" d="M55.58,109.68a.28.28,0,1,0,.56,0v-2.37h.13v2.37a.29.29,0,1,0,.57,0v-4.09H57v1.51a.2.2,0,1,0,.4,0v-1.55a.61.61,0,0,0-.59-.66H55.63a.6.6,0,0,0-.58.65v1.56a.2.2,0,1,0,.4,0v-1.51h.13Z" transform="translate(-1.7 -9.17)"/><path class="j" d="M56.85,113.52a.5.5,0,0,1,.51.5.51.51,0,1,1-1,0A.5.5,0,0,1,56.85,113.52Z" transform="translate(-1.7 -9.17)"/><path class="j" d="M56.26,119.43a.28.28,0,0,0,.56,0v-2.38H57v2.38a.29.29,0,0,0,.57,0v-4.1h.12v1.51a.2.2,0,1,0,.4,0V115.3a.61.61,0,0,0-.59-.67H56.31a.61.61,0,0,0-.58.66v1.55a.2.2,0,1,0,.4,0v-1.51h.13Z" transform="translate(-1.7 -9.17)"/><path class="j" d="M59.24,108.14a.5.5,0,0,1,.51.5.51.51,0,0,1-.51.51.5.5,0,0,1-.5-.51A.5.5,0,0,1,59.24,108.14Z" transform="translate(-1.7 -9.17)"/><path class="j" d="M58.65,114.05a.28.28,0,0,0,.56,0v-2.38h.13v2.38a.28.28,0,0,0,.28.28.29.29,0,0,0,.29-.28V110H60v1.51a.2.2,0,1,0,.4,0v-1.54a.61.61,0,0,0-.59-.67H58.7a.61.61,0,0,0-.58.66v1.55a.2.2,0,1,0,.4,0V110h.13Z" transform="translate(-1.7 -9.17)"/><path class="j" d="M48.89,103.77a.51.51,0,0,0-.5.51.51.51,0,0,0,1,0A.51.51,0,0,0,48.89,103.77Z" transform="translate(-1.7 -9.17)"/><path class="j" d="M49.49,109.68a.28.28,0,1,1-.56,0v-2.37H48.8v2.37a.29.29,0,1,1-.57,0v-4.09h-.12v1.51a.2.2,0,1,1-.4,0v-1.55a.61.61,0,0,1,.59-.66h1.13a.6.6,0,0,1,.59.65v1.56a.2.2,0,1,1-.4,0v-1.51h-.13Z" transform="translate(-1.7 -9.17)"/><path class="j" d="M48.22,113.52a.5.5,0,0,0-.51.5.51.51,0,1,0,1,0A.5.5,0,0,0,48.22,113.52Z" transform="translate(-1.7 -9.17)"/><path class="j" d="M48.81,119.43a.28.28,0,0,1-.56,0v-2.38h-.13v2.38a.29.29,0,0,1-.57,0v-4.1h-.12v1.51a.2.2,0,1,1-.4,0V115.3a.61.61,0,0,1,.59-.67h1.14a.61.61,0,0,1,.58.66v1.55a.2.2,0,1,1-.4,0v-1.51h-.13Z" transform="translate(-1.7 -9.17)"/><path class="j" d="M45.83,108.14a.5.5,0,0,0-.51.5.51.51,0,0,0,.51.51.5.5,0,0,0,.5-.51A.5.5,0,0,0,45.83,108.14Z" transform="translate(-1.7 -9.17)"/><path class="j" d="M46.42,114.05a.28.28,0,0,1-.56,0v-2.38h-.13v2.38a.29.29,0,0,1-.57,0V110H45v1.51a.2.2,0,1,1-.4,0v-1.54a.61.61,0,0,1,.59-.67h1.14a.61.61,0,0,1,.58.66v1.55a.2.2,0,1,1-.4,0V110h-.13Z" transform="translate(-1.7 -9.17)"/><rect class="j" x="47.3" y="103.71" width="1.33" height="0.23"/><polygon class="j" points="47.3 103.43 46.63 103.82 47.3 104.21 47.3 103.43"/><polygon class="j" points="48.63 104.21 49.3 103.82 48.63 103.43 48.63 104.21"/><rect class="j" x="50.31" y="114.77" width="1.25" height="0.23" transform="translate(-68.02 60.51) rotate(-45.01)"/><polygon class="j" points="48.52 105.88 48.32 106.63 49.07 106.43 48.52 105.88"/><polygon class="j" points="49.95 105.54 50.15 104.79 49.41 104.99 49.95 105.54"/><rect class="j" x="50.36" y="110.8" width="0.23" height="0.99" transform="translate(-65.62 59.14) rotate(-45.01)"/><polygon class="j" points="48.7 101.5 47.96 101.3 48.16 102.05 48.7 101.5"/><polygon class="j" points="48.86 102.75 49.61 102.95 49.41 102.21 48.86 102.75"/><rect class="j" x="53.09" y="103.71" width="1.33" height="0.23"/><polygon class="j" points="54.42 103.43 55.1 103.82 54.42 104.21 54.42 103.43"/><polygon class="j" points="53.09 104.21 52.42 103.82 53.09 103.43 53.09 104.21"/><rect class="j" x="54.07" y="114.26" width="0.23" height="1.25" transform="translate(-67.06 62.78) rotate(-44.99)"/><polygon class="j" points="53.21 105.88 53.41 106.63 52.66 106.43 53.21 105.88"/><polygon class="j" points="51.77 105.54 51.57 104.79 52.32 104.99 51.77 105.54"/><rect class="j" x="54.15" y="111.19" width="0.99" height="0.23" transform="translate(-64.39 62.05) rotate(-44.99)"/><polygon class="j" points="53.02 101.5 53.77 101.3 53.57 102.05 53.02 101.5"/><polygon class="j" points="52.87 102.75 52.12 102.95 52.32 102.21 52.87 102.75"/><path class="j" d="M39.86,89.83a2.95,2.95,0,1,0-2.94-2.94A2.95,2.95,0,0,0,39.86,89.83Z" transform="translate(-1.7 -9.17)"/><path class="j" d="M34.58,96.32h11a5.76,5.76,0,0,0-9.83-4.06,5.68,5.68,0,0,0-1.68,4.06Z" transform="translate(-1.7 -9.17)"/><path class="j" d="M11.52,96.11V96a.46.46,0,0,0-.47-.46H9a.46.46,0,0,0-.47.46v.07a.47.47,0,0,0,.47.47h2.07A.47.47,0,0,0,11.52,96.11Z" transform="translate(-1.7 -9.17)"/><path class="j" d="M10,98.08a1,1,0,0,0,1-1H9A1,1,0,0,0,10,98.08Z" transform="translate(-1.7 -9.17)"/><path class="j" d="M21,85.06a2.28,2.28,0,0,0-.21-.51l.4-.4-.71-.71-.4.4a1.89,1.89,0,0,0-.51-.21v-.57h-1v.57a1.89,1.89,0,0,0-.51.21l-.4-.4-.71.71.4.4a2.28,2.28,0,0,0-.21.51h-.57v1h.57a2.18,2.18,0,0,0,.21.52l-.4.4.71.71.4-.4a2.28,2.28,0,0,0,.51.21v.57h1V87.5a2.28,2.28,0,0,0,.51-.21l.4.4.71-.71-.4-.4a2.18,2.18,0,0,0,.21-.52h.57v-1ZM19,86.57a1,1,0,1,1,1-1A1,1,0,0,1,19,86.57Z" transform="translate(-1.7 -9.17)"/><path class="j" d="M11.65,84.84a1,1,0,0,0,.62.22,1,1,0,0,0,1-1v0A5.37,5.37,0,0,1,16,84l.11-.49a5.89,5.89,0,0,0-2.95.09,1,1,0,0,0-.86-.49,1,1,0,0,0-.93,1.39,5.86,5.86,0,0,0-1.7,2l.45.23A5.42,5.42,0,0,1,11.65,84.84Z" transform="translate(-1.7 -9.17)"/><path class="j" d="M18.3,93a1,1,0,0,0-.78-.38,1,1,0,0,0-1,1,1.17,1.17,0,0,0,.09.42,5.32,5.32,0,0,1-3.75,0l-.18.46a5.7,5.7,0,0,0,2.09.39A5.79,5.79,0,0,0,17,94.4h0a1,1,0,0,0,.57.18,1,1,0,0,0,1-1,.57.57,0,0,0,0-.13,5.71,5.71,0,0,0,2-4.37,4.41,4.41,0,0,0,0-.52l-.5,0a3.87,3.87,0,0,1,0,.48A5.19,5.19,0,0,1,18.3,93Z" transform="translate(-1.7 -9.17)"/><circle class="j" cx="8.32" cy="79.9" r="0.25"/><circle class="j" cx="10.07" cy="81.4" r="0.25"/><circle class="j" cx="6.56" cy="81.4" r="0.25"/><path class="j" d="M8.27,93.85a.51.51,0,0,1,.24.43v.79h3v-.79a.51.51,0,0,1,.24-.43,3.5,3.5,0,0,0-1.91-6.53A3.54,3.54,0,0,0,6.52,90.5,3.5,3.5,0,0,0,8.27,93.85ZM11,90.57a.75.75,0,1,1,.75.75.88.88,0,0,1-.33-.07l-.17.17v1.9h-.5v-2a.24.24,0,0,1,.07-.18l.25-.25A.68.68,0,0,1,11,90.57Zm-1-2.25a.75.75,0,0,1,.76.75.74.74,0,0,1-.51.7v4h-.5v-4A.75.75,0,0,1,10,88.32Zm-1.75,1.5a.75.75,0,0,1,.75.75.68.68,0,0,1-.07.32l.25.25a.24.24,0,0,1,.07.18v2h-.5v-1.9l-.18-.17a.79.79,0,0,1-.32.07.75.75,0,0,1,0-1.5Z" transform="translate(-1.7 -9.17)"/><path class="j" d="M105.58,66.89h-.68a1.36,1.36,0,1,0-1.23,0H103a.54.54,0,0,0-.54.54l-.19.79a.55.55,0,0,0,.54.55h3a.55.55,0,0,0,.54-.55l-.19-.79A.54.54,0,0,0,105.58,66.89Z" transform="translate(-1.7 -9.17)"/><path class="j" d="M110,65.11a1.82,1.82,0,0,0,.85-.22,1.81,1.81,0,1,0-2.57-1l-.84.45a3.9,3.9,0,0,0-6.89,1l-2-.65A2.35,2.35,0,0,0,97,62a2.57,2.57,0,0,0-.72-.11,2.36,2.36,0,0,0-.72,4.61,2.17,2.17,0,0,0,.72.11,2.35,2.35,0,0,0,2.12-1.33l2.06.66a4.08,4.08,0,0,0,0,.61,3.92,3.92,0,0,0,3.91,3.91,3.86,3.86,0,0,0,2-.57l1,1.6a2.39,2.39,0,1,0,1.5-.53,2.23,2.23,0,0,0-.92.19l-1-1.65a3.93,3.93,0,0,0,1-4.62l.81-.44A1.82,1.82,0,0,0,110,65.11Zm-.64-3a1.33,1.33,0,0,1,1.8.53,1.33,1.33,0,0,1-.53,1.8,1.4,1.4,0,0,1-.63.16,1.32,1.32,0,0,1-1-.42,1.1,1.1,0,0,1-.2-.28,1.32,1.32,0,0,1,.53-1.79ZM98.1,64.5a1.94,1.94,0,0,1-.07.33c0,.1-.08.21-.13.31a1.89,1.89,0,0,1-1.66,1,2.25,2.25,0,0,1-.58-.08,1.88,1.88,0,1,1,1.15-3.59A1.88,1.88,0,0,1,98.1,64.5Zm9.41,7.41.27-.2a1.77,1.77,0,0,1,.31-.15,1.9,1.9,0,1,1-1,2.75A1.92,1.92,0,0,1,107.51,71.91ZM104.29,70a3.43,3.43,0,1,1,3.42-3.43A3.43,3.43,0,0,1,104.29,70Z" transform="translate(-1.7 -9.17)"/><path class="j" d="M143.76,82.61l-.16-.08a6.84,6.84,0,0,0-9.16,3l-.08.15,6.24,3.34Zm-8.93,3a6.48,6.48,0,0,1,8.46-2.82l-2.85,5.82Z" transform="translate(-1.7 -9.17)"/><polygon class="j" points="134.16 76.67 140.9 74.43 141.08 74.04 133.79 76.47 134.16 76.67"/><path class="j" d="M142.6,82.77l-7.21,2.4a3.28,3.28,0,0,0-.2.31l.09,0L142.89,83l0-.1Z" transform="translate(-1.7 -9.17)"/><path class="j" d="M137.27,83.36l2.74-.91A6.19,6.19,0,0,0,137.27,83.36Z" transform="translate(-1.7 -9.17)"/><path class="j" d="M141.77,82.54l-5.86,1.95c-.12.14-.24.29-.35.44l6.76-2.25Z" transform="translate(-1.7 -9.17)"/><path class="j" d="M140.63,82.43l-3.88,1.29a5.47,5.47,0,0,0-.58.5l5.23-1.74A6.64,6.64,0,0,0,140.63,82.43Z" transform="translate(-1.7 -9.17)"/><polygon class="j" points="134.74 76.98 140.6 75.03 140.79 74.64 134.37 76.78 134.74 76.98"/><polygon class="j" points="135.9 77.6 140.01 76.23 140.2 75.85 135.53 77.4 135.9 77.6"/><polygon class="j" points="135.32 77.29 140.31 75.63 140.49 75.25 134.95 77.09 135.32 77.29"/><polygon class="j" points="138.23 78.84 138.83 78.64 139.02 78.26 137.86 78.64 138.23 78.84"/><polygon class="j" points="138.63 79.06 138.73 78.86 138.44 78.95 138.63 79.06"/><polygon class="j" points="137.65 78.53 139.13 78.04 139.31 77.65 137.28 78.33 137.65 78.53"/><polygon class="j" points="136.48 77.91 139.72 76.83 139.9 76.45 136.11 77.71 136.48 77.91"/><polygon class="j" points="137.06 78.22 139.42 77.43 139.61 77.05 136.69 78.02 137.06 78.22"/><path class="j" d="M150.2,86.87a2.71,2.71,0,0,0-2.71-2.71,2.68,2.68,0,0,0-1.45.43,7.84,7.84,0,0,0-1.62-1.1l-.16-.08L141,90.13l-6.49-3.47-.08.16a7.47,7.47,0,0,0,2.4,9.45L135.6,98l1.29.9L138.18,97a7.47,7.47,0,0,0,10.32-7.64A2.72,2.72,0,0,0,150.2,86.87ZM136.8,98.41l-.71-.5,1-1.44h0l.2-.29h0l1.16-1.67,3.59-.07,1.93-2.7-1.06-.68,2.55-.79.33,2.65-1.09-.7-2.2,3.08-3.59.07L138,96.72l-.12.17h0Zm10.63-5.07a7.09,7.09,0,0,1-9,3.4l.15-.22a6.83,6.83,0,0,0,9.37-6.7,3,3,0,0,1-2.56-5,7,7,0,0,0-.82-.56L141.24,91l-6.48-3.46a6.86,6.86,0,0,0,2.39,8.27L137,96a7.12,7.12,0,0,1-2.36-8.85l6.49,3.46,3.29-6.72a7.32,7.32,0,0,1,1.33.92,2.71,2.71,0,0,0,1.74,4.79,2.52,2.52,0,0,0,.67-.09A7,7,0,0,1,147.43,93.34Zm1-5.64a1,1,0,0,1-.83,1v.47h-.32v-.47a1,1,0,0,1-.83-1h.34a.65.65,0,0,0,.49.63V87a1,1,0,0,1-.83-1,1,1,0,0,1,.83-1v-.47h.32v.47a1,1,0,0,1,.83,1h-.33a.66.66,0,0,0-.5-.63v1.3A1,1,0,0,1,148.48,87.7Z" transform="translate(-1.7 -9.17)"/><path class="j" d="M147.65,88.33a.66.66,0,0,0,.5-.63.67.67,0,0,0-.5-.64Z" transform="translate(-1.7 -9.17)"/><path class="j" d="M146.84,86.05a.67.67,0,0,0,.49.64V85.42A.65.65,0,0,0,146.84,86.05Z" transform="translate(-1.7 -9.17)"/><path class="k" d="M62.16,86.62v2.71H60.31V86.62a.26.26,0,0,1,.26-.26H61.9A.24.24,0,0,1,62.16,86.62Z" transform="translate(-1.7 -9.17)"/><path class="k" d="M70.1,84.41v4.92H68.25V84.41a.28.28,0,0,1,.26-.26h1.33A.26.26,0,0,1,70.1,84.41Z" transform="translate(-1.7 -9.17)"/><path class="k" d="M64.82,84.41v4.92H63V84.41a.28.28,0,0,1,.26-.26h1.33A.26.26,0,0,1,64.82,84.41Z" transform="translate(-1.7 -9.17)"/><path class="k" d="M67.44,87.71v1.62H65.6V87.71a.28.28,0,0,1,.26-.26h1.32A.25.25,0,0,1,67.44,87.71Z" transform="translate(-1.7 -9.17)"/><path class="k" d="M67.29,85.19a1,1,0,0,1,.15.52.91.91,0,1,1-1.82,0,.89.89,0,0,1,.16-.52l-1.54-1.93a.8.8,0,0,1-.33.08.87.87,0,0,1-.52-.16l-1.31,1.07a.77.77,0,0,1,.08.37.91.91,0,0,1-.93.91.93.93,0,0,1-.92-.91.91.91,0,0,1,.92-.92,1,1,0,0,1,.52.16l1.3-1.07a.71.71,0,0,1-.08-.36.93.93,0,0,1,1.85,0,.85.85,0,0,1-.16.52l1.54,1.93a.67.67,0,0,1,.33-.08.68.68,0,0,1,.34.08L68.41,83a.91.91,0,1,1,.75.39.77.77,0,0,1-.34-.08Z" transform="translate(-1.7 -9.17)"/><circle class="k" cx="66.29" cy="83.2" r="0.47"/><circle class="k" cx="60.72" cy="83.2" r="0.47"/><path class="k" d="M65.21,96.17h0a1.77,1.77,0,0,0,1.48-.78h-3A1.8,1.8,0,0,0,65.21,96.17Z" transform="translate(-1.7 -9.17)"/><path class="k" d="M71.32,89.85H59.09a.28.28,0,0,0-.26.26v1.66a6.38,6.38,0,1,0,12.75,0V90.11A.24.24,0,0,0,71.32,89.85Zm-9.89,2.52a1,1,0,1,1,1,1A1,1,0,0,1,61.43,92.37Zm5.94,2.84a2.32,2.32,0,0,1-2.16,1.48h0a2.3,2.3,0,0,1-2.16-1.48.25.25,0,0,1,0-.24.23.23,0,0,1,.21-.1h3.83a.32.32,0,0,1,.2.1A.26.26,0,0,1,67.37,95.21ZM68,93.36a1,1,0,1,1,1-1A1,1,0,0,1,68,93.36Z" transform="translate(-1.7 -9.17)"/><path class="k" d="M117.49,45.29l-.73.6.22.91a.21.21,0,0,1-.19.25.23.23,0,0,1-.11,0l-.8-.5-.8.5a.13.13,0,0,1-.1,0,.2.2,0,0,1-.19-.25l.22-.91-.73-.6a.2.2,0,0,1,.11-.35l.94-.08.37-.88c0-.09.1-.11.19-.11a.2.2,0,0,1,.19.11l.37.88.94.08A.2.2,0,0,1,117.49,45.29Zm2.72-.07a.59.59,0,0,1,0,.88l-.18.14a.62.62,0,0,0-.16.68l.09.22a.59.59,0,0,1-.38.79l-.22.06a.6.6,0,0,0-.43.53v.24a.58.58,0,0,1-.59.55h-.1l-.22,0h-.11a.59.59,0,0,0-.51.31l-.12.2a.57.57,0,0,1-.51.31.53.53,0,0,1-.34-.11l-.19-.14a.6.6,0,0,0-.34-.11.54.54,0,0,0-.34.1l-.19.13a.59.59,0,0,1-.34.1.56.56,0,0,1-.51-.31l-.1-.2a.61.61,0,0,0-.52-.31.18.18,0,0,0-.1,0l-.25.05-.1,0a.59.59,0,0,1-.59-.56v-.23a.62.62,0,0,0-.43-.55l-.22-.06a.59.59,0,0,1-.38-.79l.09-.2a.6.6,0,0,0-.15-.68l-.18-.15a.59.59,0,0,1,0-.88l.18-.14a.62.62,0,0,0,.16-.68l-.09-.22a.59.59,0,0,1,.38-.79l.23-.06a.59.59,0,0,0,.42-.53l0-.24a.57.57,0,0,1,.58-.55h.11l.23,0,.1,0a.61.61,0,0,0,.52-.31l.11-.2a.59.59,0,0,1,.52-.31.55.55,0,0,1,.34.11l.19.14a.6.6,0,0,0,.34.11.58.58,0,0,0,.33-.1l.19-.13a.61.61,0,0,1,.34-.1.58.58,0,0,1,.52.3l.1.21a.59.59,0,0,0,.51.31.22.22,0,0,0,.11,0l.23,0h.1a.58.58,0,0,1,.59.55l0,.24a.58.58,0,0,0,.42.54l.22.06a.58.58,0,0,1,.38.79l-.09.21a.59.59,0,0,0,.15.67Zm-1.63.42a2.69,2.69,0,1,0-2.69,2.69A2.69,2.69,0,0,0,118.58,45.64ZM112,48.77v0h0a1.4,1.4,0,0,1-.7-.44l-2.5,2.5a.15.15,0,0,0,.09.25l1.41.13a.1.1,0,0,1,.09.09l.16,1.44a.15.15,0,0,0,.25.08l2.62-2.62A1.49,1.49,0,0,1,112,48.77Zm11-8.53-1.41-.13a.11.11,0,0,1-.09-.09l-.16-1.44a.15.15,0,0,0-.25-.09l-2.6,2.63a1.45,1.45,0,0,1,1.38,1.39v0h0a1.64,1.64,0,0,1,.71.44L123,40.49A.15.15,0,0,0,122.94,40.24Z" transform="translate(-1.7 -9.17)"/><rect class="k" x="37.7" y="116.5" width="0.57" height="1.43"/><rect class="k" x="42.89" y="127.1" width="1.62" height="0.57" transform="translate(-78.98 59.04) rotate(-45)"/><rect class="k" x="35.38" y="126.58" width="0.57" height="1.62" transform="translate(-81.33 53.36) rotate(-45)"/><polygon class="d" points="25.5 117.31 25.5 131.94 38.17 139.25 50.84 131.94 50.84 117.31 38.17 109.99 25.5 117.31"/><path class="k" d="M41.66,135.68a2.79,2.79,0,0,1-.47.44L44.05,139a.33.33,0,0,0,.45,0,.32.32,0,0,0,0-.46Z" transform="translate(-1.7 -9.17)"/><path class="k" d="M37.82,137.82l.62-.79,1.23.25.27,1,.5-.06,0-1,.69-.31-.49-.48A2.58,2.58,0,1,1,42,135.2l.49.49.36-.62,1,.05.1-.48-1-.35-.14-1.24.85-.55-.21-.45-1,.28-.86-.93.36-.93-.44-.24L41,131l-1.23-.25-.27-1-.51.06,0,1-1.14.51-.8-.64-.37.33.57.84L36.55,133l-1-.05-.1.48,1,.35.15,1.24-.86.55.21.45,1-.27.85.92-.36.93Z" transform="translate(-1.7 -9.17)"/><path class="k" d="M38,140.6V141H41.7v-.5a1.47,1.47,0,0,1,0-.36H37.91A1.52,1.52,0,0,1,38,140.6Z" transform="translate(-1.7 -9.17)"/><circle class="k" cx="37.99" cy="124.85" r="2.01"/><path class="k" d="M38,142.19a.29.29,0,0,0,.29.29h3.15a.29.29,0,0,0,.29-.29v-.57H38Z" transform="translate(-1.7 -9.17)"/><path class="k" d="M39.69,128.43A5.74,5.74,0,0,0,34,134.16h0a5.73,5.73,0,0,0,3.16,5.13l.05,0a1.24,1.24,0,0,1,.39.29H42a1.59,1.59,0,0,1,.34-.3l.32-.19c.14-.09.28-.18.41-.28l-1.52-1.52-.55.25,0,1.13-1.48.17-.3-1.1-.55-.11-.7.89-1.3-.72.41-1.06-.38-.41-1.11.32L35,135.33l1-.62-.06-.54-1.09-.39.29-1.45,1.16.06.27-.47-.66-.95,1.1-1,.91.72.5-.22,0-1.14,1.49-.17.3,1.1.54.11.71-.89,1.3.73-.41,1.06.37.4,1.12-.31.62,1.35-1,.62.07.53,1.09.4-.3,1.45-1.15-.06-.26.45,1.46,1.46a5.73,5.73,0,0,0,1.06-3.33v-.07A5.74,5.74,0,0,0,39.69,128.43Z" transform="translate(-1.7 -9.17)"/><rect class="k" x="44.87" y="124.13" width="1.72" height="0.57"/><rect class="k" x="45.51" y="129.57" width="1.83" height="0.57" transform="translate(-72.65 48.29) rotate(-38.66)"/><rect class="k" x="46.71" y="136.34" width="0.57" height="1.67" transform="translate(-96.5 97.73) rotate(-59.04)"/><rect class="k" x="29.39" y="124.13" width="1.72" height="0.57"/><rect class="k" x="32.67" y="128.94" width="0.57" height="1.83" transform="matrix(0.62, -0.78, 0.78, 0.62, -90.73, 65.3)"/><rect class="k" x="31.54" y="136.88" width="1.67" height="0.57" transform="translate(-67.66 27.03) rotate(-30.96)"/><path class="l" d="M27.89,59.47,23.49,64a2.86,2.86,0,0,1,1.23,2.34h9.74Zm4.45,2.72v1l1.27,1.2V62.19Zm-10.48,1.9a2.23,2.23,0,1,0,2.22,2.23A2.23,2.23,0,0,0,21.86,64.09Zm0,.64.26.37.37.52,1,.32-.66.87,0,1.09-1-.35-1,.35,0-1.09-.65-.87,1-.32Zm0,1.1-.24.33-.39.12.25.33V67l.39-.13.38.13v-.4l.24-.33-.39-.12ZM24.64,67a2.91,2.91,0,0,1-1.19,1.74v4.84l-1.28-1.27v3h4.45V69.81a.32.32,0,0,1,.32-.31h2.54a.31.31,0,0,1,.32.31v5.41h3.81V67ZM20.9,69v3l1-1,.95,1V69a2.62,2.62,0,0,1-1.91,0Z" transform="translate(-1.7 -9.17)"/></svg>