<?xml version="1.0" encoding="utf-8"?>
<!-- Generator: Adobe Illustrator 25.0.1, SVG Export Plug-In . SVG Version: 6.00 Build 0)  -->
<svg version="1.1" id="Layer_1" xmlns="http://www.w3.org/2000/svg" xmlns:xlink="http://www.w3.org/1999/xlink" x="0px" y="0px"
	 viewBox="0 0 128 128" style="enable-background:new 0 0 128 128;" xml:space="preserve">
<style type="text/css">
	.st0{fill:#F2FAFF;}
	.st1{clip-path:url(#SVGID_2_);}
	.st2{clip-path:url(#SVGID_4_);fill:#5FAFDC;}
	.st3{clip-path:url(#SVGID_6_);}
	.st4{clip-path:url(#SVGID_8_);fill:#5FAFDC;}
	.st5{clip-path:url(#SVGID_10_);}
	.st6{clip-path:url(#SVGID_12_);fill:#5FAFDC;}
	.st7{clip-path:url(#SVGID_14_);}
	.st8{clip-path:url(#SVGID_16_);fill:#5FAFDC;}
	.st9{clip-path:url(#SVGID_18_);}
	.st10{clip-path:url(#SVGID_20_);fill:#5FAFDC;}
	.st11{clip-path:url(#SVGID_22_);}
	.st12{clip-path:url(#SVGID_24_);fill:#5FAFDC;}
	.st13{clip-path:url(#SVGID_26_);}
	.st14{clip-path:url(#SVGID_28_);fill:#5FAFDC;}
	.st15{clip-path:url(#SVGID_30_);}
	.st16{clip-path:url(#SVGID_32_);fill:#5FAFDC;}
	.st17{clip-path:url(#SVGID_34_);}
	.st18{clip-path:url(#SVGID_36_);fill:#5FAFDC;}
	.st19{clip-path:url(#SVGID_38_);}
	.st20{clip-path:url(#SVGID_40_);fill:#5FAFDC;}
	.st21{clip-path:url(#SVGID_42_);}
	.st22{clip-path:url(#SVGID_44_);fill:#5FAFDC;}
	.st23{fill:#5FAFDC;}
	.st24{fill:#38618C;}
	.st25{fill:#5C80BC;}
	.st26{fill:#243556;}
	.st27{fill:#1B2C3A;}
	.st28{clip-path:url(#SVGID_46_);}
	.st29{clip-path:url(#SVGID_48_);fill:none;stroke:#38618C;stroke-width:0.9634;stroke-miterlimit:10;}
	.st30{clip-path:url(#SVGID_48_);fill:#5FAFDC;}
	.st31{clip-path:url(#SVGID_50_);}
	.st32{clip-path:url(#SVGID_52_);fill:#5FAFDC;}
	.st33{clip-path:url(#SVGID_52_);fill:none;stroke:#5FAFDC;stroke-width:1.1666;stroke-miterlimit:10;}
	.st34{clip-path:url(#SVGID_54_);}
	.st35{clip-path:url(#SVGID_56_);fill:#5FAFDC;}
	.st36{clip-path:url(#SVGID_58_);}
	.st37{clip-path:url(#SVGID_60_);fill:#5FAFDC;}
	.st38{fill-rule:evenodd;clip-rule:evenodd;fill:#5FAFDC;}
	.st39{fill:none;stroke:#5FAFDC;stroke-width:2.6;stroke-miterlimit:10;}
	.st40{clip-path:url(#SVGID_62_);}
	.st41{clip-path:url(#SVGID_64_);fill:#5FAFDC;}
	.st42{fill:#5FAFDC;stroke:#5FAFDC;stroke-miterlimit:10;}
	.st43{fill-rule:evenodd;clip-rule:evenodd;fill:#5FAFDC;stroke:#5FAFDC;stroke-miterlimit:10;}
	.st44{fill:none;stroke:#5FAFDC;stroke-miterlimit:10;}
	.st45{clip-path:url(#SVGID_66_);}
	.st46{clip-path:url(#SVGID_68_);fill:#5FAFDC;}
	.st47{clip-path:url(#SVGID_68_);fill:none;stroke:#5FAFDC;stroke-width:5;stroke-miterlimit:10;}
	.st48{opacity:0.83;}
	.st49{opacity:0.98;}
	.st50{fill-rule:evenodd;clip-rule:evenodd;fill:#5FAFDC;stroke:#5FAFDC;stroke-width:0.75;stroke-miterlimit:10;}
</style>
<rect x="24.4" y="26" class="st0" width="50" height="50"/>
<g>
	<g>
		<defs>
			<rect id="SVGID_25_" x="33" y="37" width="70.8" height="68"/>
		</defs>
		<clipPath id="SVGID_2_">
			<use xlink:href="#SVGID_25_"  style="overflow:visible;"/>
		</clipPath>
		<g class="st1">
			<defs>
				<rect id="SVGID_27_" x="33" y="37" width="70.8" height="68"/>
			</defs>
			<clipPath id="SVGID_4_">
				<use xlink:href="#SVGID_27_"  style="overflow:visible;"/>
			</clipPath>
			<path class="st2" d="M68.4,101.7c-10.1,0-20.3,0-30.4,0c-0.1,0-0.2,0-0.4,0c-0.4,0-0.6-0.3-0.7-0.7c0-0.1,0-0.2,0-0.3
				c0-17.1,0-34.3,0-51.4c0-0.1,0-0.2,0-0.2c0-0.3,0.1-0.5,0.4-0.7c0.2-0.1,0.4-0.2,0.6-0.3c5.8-2.6,11.5-5.2,17.3-7.8
				c0.4-0.2,0.7-0.2,1,0c5.9,2.7,11.8,5.3,17.7,8c0.1,0.1,0.3,0.1,0.4,0.2c0.2,0.1,0.2,0.3,0.3,0.5c0,0.1,0,0.2,0,0.3
				c0,2.3,0,4.5,0,6.8c0,0.2,0.1,0.4,0.3,0.5c8.1,3.9,16.3,7.9,24.4,11.8c0,0,0.1,0,0.1,0.1c0.4,0.2,0.5,0.5,0.5,0.9
				c0,9.4-0.1,18.7-0.1,28.1c0,1.2,0,2.4,0,3.5c0,0.5-0.3,0.9-0.9,0.9c-5.8,0-11.7,0-17.5,0H68.4z M68.1,54.8V55c0,15,0,29.9,0,44.9
				c0,0.3,0,0.3,0.3,0.3c9.9,0,19.8,0,29.7,0c0.1,0,0.1,0,0.2,0c0.1,0,0.1,0,0.1-0.1c0,0,0-0.1,0-0.1c0-10.1,0.1-20.1,0.1-30.2
				c0-0.2-0.1-0.3-0.3-0.4c-10-4.8-19.9-9.6-29.9-14.5C68.3,54.8,68.2,54.8,68.1,54.8 M73.2,55.5v-0.3c0-1.8,0-3.7,0-5.5
				c0-0.2-0.1-0.3-0.3-0.4c-5.6-2.5-11.2-5-16.8-7.6c-0.2-0.1-0.3-0.1-0.5,0c-5.6,2.5-11.2,5-16.8,7.6c-0.2,0.1-0.3,0.2-0.3,0.5
				c0,16.7,0,33.4,0,50.1c0,0.4,0,0.3,0.3,0.3c3.4,0,6.7,0,10.1,0c0.4,0,0.4,0,0.4-0.4c0-13.4,0-26.8,0-40.2c0-0.6,0.1-0.8,0.7-0.9
				c5.7-1.9,11.4-3.8,17.1-5.8c0.3-0.1,0.6-0.1,0.8,0.1c1.6,0.8,3.2,1.6,4.8,2.4C72.8,55.4,73,55.5,73.2,55.5 M66.6,54.6
				c-0.1,0-0.2,0-0.3,0.1c-4.3,1.4-8.5,2.9-12.8,4.3c-0.9,0.3-1.8,0.6-2.6,0.9c-0.2,0.1-0.2,0.1-0.2,0.3c0,0,0,0.1,0,0.1
				c0,13.2,0,26.4,0,39.6c0,0.4-0.1,0.4,0.4,0.4c5.1,0,10.1,0,15.2,0c0.1,0,0.1,0,0.2,0c0.1,0,0.2,0,0.1-0.2c0,0,0-0.1,0-0.1
				c0-15,0-30,0-45C66.6,54.8,66.7,54.7,66.6,54.6"/>
			<path class="st2" d="M93.1,81.8c0,0.5-0.5,0.9-0.9,0.8c-0.1,0-0.2-0.1-0.3-0.1c-5.7-2.7-11.5-5.5-17.2-8.2
				c-0.1-0.1-0.2-0.1-0.3-0.2c-0.3-0.2-0.4-0.6-0.2-0.9c0.2-0.3,0.5-0.5,0.8-0.4c0.1,0,0.2,0.1,0.3,0.1c5.8,2.8,11.5,5.5,17.3,8.3
				C92.9,81.2,93.1,81.5,93.1,81.8"/>
			<path class="st2" d="M93.1,95.7c0,0.5-0.5,0.9-1,0.7c-0.1,0-0.2-0.1-0.2-0.1c-5.7-2.7-11.5-5.5-17.2-8.2c-0.1,0-0.2-0.1-0.2-0.1
				c-0.3-0.2-0.5-0.6-0.3-0.9c0.2-0.4,0.5-0.5,0.9-0.4c0.1,0,0.2,0.1,0.2,0.1c5.7,2.7,11.5,5.5,17.2,8.2c0.2,0.1,0.3,0.2,0.5,0.3
				C93.1,95.5,93.1,95.6,93.1,95.7"/>
			<path class="st2" d="M93.1,74.8c0,0.6-0.5,0.9-1,0.8c-0.1,0-0.2-0.1-0.2-0.1c-5.7-2.7-11.5-5.5-17.2-8.2
				c-0.1-0.1-0.2-0.1-0.3-0.2c-0.3-0.2-0.4-0.6-0.2-0.9c0.2-0.3,0.5-0.5,0.8-0.4c0.1,0,0.2,0.1,0.3,0.1c5.7,2.7,11.5,5.5,17.2,8.2
				c0.1,0,0.2,0.1,0.3,0.1C93,74.4,93.1,74.6,93.1,74.8"/>
			<path class="st2" d="M93.1,88.7c0,0.6-0.5,0.9-0.9,0.8c-0.1,0-0.2-0.1-0.3-0.1c-5.7-2.7-11.4-5.5-17.2-8.2
				c-0.1-0.1-0.2-0.1-0.3-0.2c-0.3-0.2-0.4-0.6-0.2-0.9c0.1-0.3,0.5-0.5,0.8-0.4c0.1,0,0.2,0.1,0.3,0.1c5.8,2.8,11.6,5.5,17.3,8.3
				C92.9,88.2,93.1,88.4,93.1,88.7"/>
			<path class="st2" d="M44.5,55.9c0,0.6,0,1.2,0,1.8c0,0.5-0.3,0.8-0.7,0.8c-0.4,0-0.7-0.3-0.7-0.8c0-1.2,0-2.4,0-3.5
				c0-0.4,0.2-0.7,0.6-0.8c0.5-0.1,0.9,0.3,0.9,0.7C44.5,54.7,44.5,55.3,44.5,55.9L44.5,55.9z"/>
			<path class="st2" d="M44.5,84.6c0,0.6,0,1.2,0,1.8c0,0.5-0.3,0.8-0.7,0.8c-0.4,0-0.7-0.3-0.7-0.8c0-1.2,0-2.4,0-3.6
				c0-0.4,0.3-0.7,0.6-0.7c0.4-0.1,0.7,0.1,0.8,0.5c0,0.1,0,0.2,0,0.3C44.5,83.5,44.5,84.1,44.5,84.6L44.5,84.6z"/>
			<path class="st2" d="M44.5,65.4c0,0.6,0,1.2,0,1.8c0,0.3-0.1,0.5-0.4,0.6c-0.3,0.1-0.5,0.1-0.8-0.1c-0.2-0.2-0.3-0.4-0.3-0.6
				c0-0.5,0-0.9,0-1.4c0-0.7,0-1.4,0-2.1c0-0.3,0.1-0.5,0.3-0.6c0.2-0.2,0.5-0.2,0.7-0.1c0.3,0.1,0.4,0.3,0.4,0.6
				C44.5,64.2,44.5,64.8,44.5,65.4L44.5,65.4z"/>
			<path class="st2" d="M44.5,74.9c0,0.6,0,1.2,0,1.7c0,0.5-0.3,0.8-0.7,0.8c-0.4,0-0.7-0.3-0.7-0.8c0-1.2,0-2.4,0-3.6
				c0-0.4,0.3-0.7,0.6-0.8c0.3-0.1,0.7,0.1,0.8,0.5c0,0.1,0,0.2,0,0.3C44.5,73.8,44.5,74.4,44.5,74.9"/>
			<path class="st2" d="M44.5,94.6c0,0.6,0,1.2,0,1.8c0,0.5-0.3,0.8-0.7,0.8c-0.4,0-0.8-0.3-0.8-0.8c0-1.2,0-2.4,0-3.6
				c0-0.4,0.3-0.7,0.6-0.7c0.4-0.1,0.7,0.1,0.8,0.5c0,0.1,0,0.2,0,0.3C44.5,93.4,44.5,94,44.5,94.6L44.5,94.6z"/>
		</g>
	</g>
</g>
</svg>
