<?xml version="1.0" encoding="utf-8"?>
<!-- Generator: Adobe Illustrator 25.0.1, SVG Export Plug-In . SVG Version: 6.00 Build 0)  -->
<svg version="1.1" id="Layer_1" xmlns="http://www.w3.org/2000/svg" xmlns:xlink="http://www.w3.org/1999/xlink" x="0px" y="0px"
	 viewBox="0 0 128 128" style="enable-background:new 0 0 128 128;" xml:space="preserve">
<style type="text/css">
	.st0{fill:#F2FAFF;}
	.st1{clip-path:url(#SVGID_2_);}
	.st2{clip-path:url(#SVGID_4_);fill:#5FAFDC;}
	.st3{clip-path:url(#SVGID_6_);}
	.st4{clip-path:url(#SVGID_8_);fill:#5FAFDC;}
	.st5{clip-path:url(#SVGID_10_);}
	.st6{clip-path:url(#SVGID_12_);fill:#5FAFDC;}
	.st7{clip-path:url(#SVGID_14_);}
	.st8{clip-path:url(#SVGID_16_);fill:#5FAFDC;}
	.st9{clip-path:url(#SVGID_18_);}
	.st10{clip-path:url(#SVGID_20_);fill:#5FAFDC;}
	.st11{clip-path:url(#SVGID_22_);}
	.st12{clip-path:url(#SVGID_24_);fill:#5FAFDC;}
	.st13{clip-path:url(#SVGID_26_);}
	.st14{clip-path:url(#SVGID_28_);fill:#5FAFDC;}
	.st15{clip-path:url(#SVGID_30_);}
	.st16{clip-path:url(#SVGID_32_);fill:#5FAFDC;}
	.st17{clip-path:url(#SVGID_34_);}
	.st18{clip-path:url(#SVGID_36_);fill:#5FAFDC;}
	.st19{clip-path:url(#SVGID_38_);}
	.st20{clip-path:url(#SVGID_40_);fill:#5FAFDC;}
	.st21{clip-path:url(#SVGID_42_);}
	.st22{clip-path:url(#SVGID_44_);fill:#5FAFDC;}
	.st23{fill:#5FAFDC;}
	.st24{fill:#38618C;}
	.st25{fill:#5C80BC;}
	.st26{fill:#243556;}
	.st27{fill:#1B2C3A;}
	.st28{clip-path:url(#SVGID_46_);}
	.st29{clip-path:url(#SVGID_48_);fill:none;stroke:#38618C;stroke-width:0.9634;stroke-miterlimit:10;}
	.st30{clip-path:url(#SVGID_48_);fill:#5FAFDC;}
	.st31{clip-path:url(#SVGID_50_);}
	.st32{clip-path:url(#SVGID_52_);fill:#5FAFDC;}
	.st33{clip-path:url(#SVGID_52_);fill:none;stroke:#5FAFDC;stroke-width:1.1666;stroke-miterlimit:10;}
	.st34{clip-path:url(#SVGID_54_);}
	.st35{clip-path:url(#SVGID_56_);fill:#5FAFDC;}
	.st36{clip-path:url(#SVGID_58_);}
	.st37{clip-path:url(#SVGID_60_);fill:#5FAFDC;}
	.st38{fill-rule:evenodd;clip-rule:evenodd;fill:#5FAFDC;}
	.st39{fill:none;stroke:#5FAFDC;stroke-width:2.6;stroke-miterlimit:10;}
	.st40{clip-path:url(#SVGID_62_);}
	.st41{clip-path:url(#SVGID_64_);fill:#5FAFDC;}
	.st42{fill:#5FAFDC;stroke:#5FAFDC;stroke-miterlimit:10;}
	.st43{fill-rule:evenodd;clip-rule:evenodd;fill:#5FAFDC;stroke:#5FAFDC;stroke-miterlimit:10;}
	.st44{fill:none;stroke:#5FAFDC;stroke-miterlimit:10;}
	.st45{clip-path:url(#SVGID_66_);}
	.st46{clip-path:url(#SVGID_68_);fill:#5FAFDC;}
	.st47{clip-path:url(#SVGID_68_);fill:none;stroke:#5FAFDC;stroke-width:5;stroke-miterlimit:10;}
	.st48{opacity:0.83;}
	.st49{opacity:0.98;}
	.st50{fill-rule:evenodd;clip-rule:evenodd;fill:#5FAFDC;stroke:#5FAFDC;stroke-width:0.75;stroke-miterlimit:10;}
</style>
<rect x="24.4" y="26" class="st0" width="50" height="50"/>
<g>
	<g>
		<defs>
			<rect id="SVGID_1_" x="30" y="35" width="73.6" height="73.8"/>
		</defs>
		<clipPath id="SVGID_2_">
			<use xlink:href="#SVGID_1_"  style="overflow:visible;"/>
		</clipPath>
		<g class="st1">
			<defs>
				<rect id="SVGID_3_" x="30" y="35" width="73.6" height="73.8"/>
			</defs>
			<clipPath id="SVGID_4_">
				<use xlink:href="#SVGID_3_"  style="overflow:visible;"/>
			</clipPath>
			<path class="st2" d="M89.2,101.6c0,0.4,0,0.8,0,1.2c0,0.5-0.1,0.4,0.4,0.4c2.7,0,5.5,0,8.2,0h0.3c0.1-0.1,0-0.2,0-0.3
				c0-1.4,0-2.7,0-4.1c0,0,0,0,0-0.1c0-0.2,0-0.3-0.2-0.2c-0.1,0-0.1,0-0.2,0c-1.6,0-3.3,0-4.9,0c-0.1,0-0.2,0-0.3,0
				c-0.1,0-0.1,0-0.1-0.1c0-0.1,0-0.2,0-0.3c0-5.1,0-10.3,0-15.4c0-0.1,0-0.1,0-0.2c0-0.1,0-0.1,0.1-0.1c0.1,0,0.1,0,0.2,0
				c1.7,0,3.3,0,5,0c0.1,0,0.1,0,0.2,0c0.1,0,0.2,0,0.2-0.1c0-0.1,0-0.1,0-0.2c0-1,0-2.1,0-3.1c0-0.3,0-0.3-0.3-0.3
				c-2.1,0-4.1,0-6.2,0H76c-0.4,0-0.4,0-0.4,0.4c0,0.3,0,0.6,0,1c0,0.2,0,0.2-0.3,0.2c-0.5,0-1,0-1.5,0c-0.3,0-0.3,0-0.3-0.3
				c0-1.4,0-2.8,0-4.2c0-0.2-0.1-0.5,0.1-0.6c0.1-0.1,0.4,0,0.6,0c0.4,0,0.7,0,1.1,0c0.2,0,0.2,0,0.2,0.2c0,0.4,0,0.8,0,1.2
				c0,0.2,0.1,0.2,0.2,0.2c0.1,0,0.1,0,0.2,0h21.8c0.4,0,0.4,0,0.4-0.4c0-9,0-18.1,0-27.1c0-0.4,0-0.4-0.4-0.4c-7.9,0-15.9,0-23.8,0
				c-0.4,0-0.4,0.1-0.4-0.4c0-2.6,0-5.2,0-7.8c0-0.4,0-0.4-0.4-0.4c-3.9,0-7.8,0-11.7,0c-0.4,0-0.4-0.1-0.4,0.3c0,1.2,0,2.3,0,3.5
				c0,0.3,0,0.3,0.3,0.3c1.6,0,3.1,0,4.7,0c0.1,0,0.1,0,0.2,0c0.1,0,0.2,0,0.2,0.2c0,0.1,0,0.1,0,0.2c0,4,0,7.9,0,11.9
				c0,0.4,0.1,0.3-0.3,0.3c-1.6,0-3.1,0-4.7,0c-0.1,0-0.1,0-0.2,0c-0.1,0-0.2,0-0.2,0.2c0,0.1,0,0.1,0,0.2c0,1.9,0,3.8,0,5.7
				c0,0.1,0,0.1,0,0.2c0,0.1,0,0.1,0.1,0.1c0.1,0,0.1,0,0.2,0c2.6,0,5.3,0,7.9,0c0.4,0,0.4,0,0.4-0.4c0-1.1,0-2.3,0-3.4
				c0-0.2-0.1-0.3,0.3-0.3c3,0,6,0,8.9,0c0.3,0,0.3,0,0.3,0.3c0,1.1,0,2.3,0,3.4c0,0.1,0,0.1,0,0.2c0,0.1,0,0.1,0.1,0.1
				c0,0,0.1,0,0.1,0c1.1,0,2.1,0,3.2,0c0.3,0,0.3,0,0.3-0.3c0-0.4,0-0.7,0-1.1c0-0.1,0-0.2,0.2-0.2c0.6,0,1.1,0,1.7,0
				c0.1,0,0.2,0,0.1,0.1c0,0,0,0,0,0.1c0,1.6,0,3.2,0,4.7c0,0.2,0,0.2-0.2,0.2c-0.5,0-1,0-1.6,0c-0.2,0-0.2,0-0.2-0.2
				c0-0.4,0-0.8,0-1.2c0-0.2,0-0.2-0.2-0.2c-0.1,0-0.2,0-0.3,0c-7.6,0-15.3,0-22.9,0c-0.5,0-0.4,0.1-0.4-0.4c0-6.1,0-12.1,0-18.2
				c0-0.4,0-0.4-0.4-0.4c-5.4,0-10.8,0-16.2,0c-0.4,0-0.4,0-0.4,0.4c0,4.3,0,8.7,0,13c0,0.5,0.1,0.4-0.4,0.4c-2,0-4,0-6,0
				c-0.1,0-0.1,0-0.2,0c-0.2,0-0.2,0-0.2,0.2c0,0.8,0,1.6,0,2.4c0,0.2-0.1,0.4,0,0.5c0.1,0.1,0.3,0,0.5,0c3.6,0,7.2,0,10.8,0
				c0.4,0,0.4,0.1,0.4-0.4c0-0.3,0-0.6,0-1c0-0.2,0.1-0.2,0.2-0.2c0.5,0,1,0,1.5,0c0.2,0,0.2,0,0.2,0.3c0,1.5,0,3.1,0,4.6
				c0,0,0,0.1,0,0.1c0,0.1,0,0.2-0.2,0.2c-0.6,0-1.1,0-1.7,0C47,67,47,67,47,66.9c0-0.4,0-0.8,0-1.2c0-0.2,0-0.2-0.2-0.2
				c-1,0-2,0-3,0c-2.7,0-5.4,0-8.1,0c-0.4,0-0.3,0-0.3,0.3c0,3.5,0,7.1,0,10.6c0,0.1,0,0.1,0,0.2c0,0.1,0,0.2,0.2,0.2
				c0.1,0,0.1,0,0.2,0c3.7,0,7.3,0,11,0c0.4,0,0.4,0.1,0.4-0.4c0-0.3,0-0.7,0-1c0-0.1,0-0.2,0.2-0.2c0.5,0,1.1,0,1.6,0
				c0.1,0,0.2,0.1,0.2,0.2c0,1.6,0,3.2,0,4.8c0,0.2-0.1,0.2-0.2,0.2c-0.5,0-1,0-1.5,0c-0.2,0-0.2,0-0.2-0.3c0-0.4,0-0.8,0-1.2
				c0-0.1,0-0.2-0.2-0.2c-0.1,0-0.1,0-0.2,0H35.7c0,0,0,0,0,0c-0.4,0-0.3,0-0.3,0.3c0,7.8,0,15.6,0,23.4c0,0.2,0,0.4,0,0.6
				c0,0.2,0.1,0.2,0.2,0.2c0.1,0,0.1,0,0.2,0c5.4,0,10.8,0,16.2,0c0.5,0,0.4,0.1,0.4-0.4c0-1.6,0-3.2,0-4.8c0-0.1,0-0.1,0-0.2
				c0-0.4,0-0.4,0.4-0.4c2,0,4,0,6.1,0c0.5,0,0.4,0.1,0.4-0.4c0-6.2,0-12.3,0-18.5c0-0.5,0.1-0.4-0.4-0.4c-0.3,0-0.6,0-1,0
				c-0.2,0-0.2,0-0.2-0.2c0-0.5,0-1,0-1.6c0-0.2,0-0.2,0.2-0.2c1.6,0,3.2,0,4.7,0c0.2,0,0.2,0,0.2,0.2c0,0.5,0,1,0,1.6
				c0,0.2-0.1,0.2-0.2,0.2c-0.3,0-0.7,0-1,0h-0.3c-0.1,0.1,0,0.2,0,0.3c0,4,0,8,0,12c0,0.1,0,0.1,0,0.2c0,0.1,0,0.1,0.1,0.1
				c0.1,0,0.1,0,0.2,0c1.4,0,2.8,0,4.1,0c0.4,0,0.3-0.1,0.3,0.3c0,2.6,0,5.1,0,7.7c0,0.1,0,0.1,0,0.2c0,0.3,0,0.3,0.3,0.3
				c0.6,0,1.1,0,1.7,0c1.1,0,2.3,0,3.4,0c0.4,0,0.3,0,0.3,0.4c0,1.1,0,2.1,0,3.2c0,0.3,0,0.3,0.3,0.3c0.3,0,0.6,0,1,0
				c0.3,0,0.3,0,0.3-0.3c0-0.4,0-0.7,0-1.1c0-0.2,0-0.2,0.2-0.2c0.5,0,1,0,1.5,0c0.3,0,0.2,0,0.2,0.2c0,1.4,0,2.7,0,4.1
				c0,0.2,0,0.4,0,0.7c0,0.1,0,0.2-0.1,0.2c-0.6,0-1.1,0-1.7,0c-0.1,0-0.2-0.1-0.2-0.2c0-0.4,0-0.8,0-1.2c0-0.2,0-0.2-0.2-0.2
				c-0.1,0-0.1,0-0.2,0c-13,0-26.1,0-39.1,0c-0.5,0-0.4,0.1-0.4-0.4c0-22,0-44.1,0-66.1c0-0.5-0.1-0.4,0.4-0.4c22,0,44,0,66,0
				c0.5,0,0.4-0.1,0.4,0.4c0,22,0,44,0,66c0,0.4,0,0.4-0.4,0.4c-3.4,0-6.8,0-10.2,0c-0.4,0-0.4-0.1-0.4,0.4c0,0.3,0,0.6,0,1
				c0,0.3,0,0.3-0.3,0.3c-0.5,0-1,0-1.5,0c-0.3,0-0.3,0-0.3-0.3c0-1.3,0-2.5,0-3.8c0-0.3,0-0.6,0-0.9c0-0.1,0-0.2,0.2-0.2
				C88,101.6,88.6,101.6,89.2,101.6 M49.7,44.4c2.6,0,5.2,0,7.8,0c0.5,0,1,0,1.5,0c0.2,0,0.2-0.1,0.2-0.2c0-1.2,0-2.5,0-3.7
				c0-0.2,0-0.2-0.2-0.2c-0.1,0-0.1,0-0.2,0c-2.8,0-5.7,0-8.5,0c-0.8,0-1.6,0-2.4,0c-0.2,0-0.2,0-0.2,0.2c0,0.5,0,1,0,1.4
				c0,0.3,0,0.3-0.2,0.3c-0.5,0-1,0-1.5,0c-0.2,0-0.2,0-0.2-0.2c0-0.5,0-1,0-1.5c0-0.2,0-0.2-0.2-0.2c-3.2,0-6.5,0-9.7,0
				c-0.3,0-0.3,0-0.3,0.3c0,3.2,0,6.4,0,9.5c0,0.3,0,0.3,0.3,0.3c0.7,0,1.5,0,2.2,0c0.2,0,0.2,0,0.2,0.2c0,0.5,0,1,0,1.5
				c0,0.2,0,0.2-0.2,0.2c-0.7,0-1.5,0-2.2,0c-0.3,0-0.3,0-0.3,0.3c0,1.8,0,3.5,0,5.3c0,0.3,0,0.3,0.3,0.3c1.4,0,2.8,0,4.2,0
				c0.4,0,0.4,0.1,0.4-0.4c0-4.4,0-8.7,0-13.1c0-0.3,0-0.3,0.3-0.3c0,0,0.1,0,0.1,0H49.7z M86.9,46.8c3.6,0,7.3,0,10.9,0
				c0.1,0,0.2,0,0.3,0c0.1,0,0.1,0,0.1-0.1c0-0.1,0-0.1,0-0.2c0-2,0-3.9,0-5.9c0-0.1,0-0.1,0-0.2c0-0.1,0-0.1-0.1-0.1
				c-0.1,0-0.1,0-0.2,0c-7.3,0-14.6,0-21.9,0c-0.1,0-0.1,0-0.2,0c-0.1,0-0.1,0.1-0.1,0.1c0,0.1,0,0.1,0,0.2c0,2,0,3.9,0,5.9
				c0,0.3,0,0.3,0.3,0.3c0.1,0,0.1,0,0.2,0H86.9z M98.2,90.5c0-2,0-3.9,0-5.9c0-0.2,0-0.3-0.2-0.3c-1.1,0-2.2,0-3.2,0
				c-0.2,0-0.3,0-0.3,0.3c0,3.9,0,7.8,0,11.7c0,0.3,0,0.3,0.3,0.3c1.1,0,2.1,0,3.2,0c0,0,0.1,0,0.1,0c0.1,0,0.1,0,0.1-0.1
				c0-0.1,0-0.1,0-0.2C98.2,94.3,98.2,92.4,98.2,90.5 M61.2,98c0,1.6,0,3.2,0,4.8c0,0.1,0,0.1,0,0.2c0,0.1,0.1,0.1,0.2,0.1
				c0.1,0,0.1,0,0.2,0c1.7,0,3.4,0,5.1,0c1,0,1.9,0,2.9,0c0.2,0,0.2,0,0.2-0.2c0-0.4,0-0.9,0-1.3c0-0.3,0-0.3-0.3-0.3
				c-1,0-2.1,0-3.1,0c-0.7,0-1.4,0-2.1,0c-0.3,0-0.3,0-0.3-0.3c0-0.1,0-0.1,0-0.2v-7.7c0-0.1,0-0.1,0-0.2c0-0.1,0-0.2-0.2-0.2
				c-0.3,0-0.7,0-1,0c-0.5,0-1,0-1.5,0c-0.1,0-0.2,0-0.2,0.2c0,0.1,0,0.1,0,0.2C61.2,94.8,61.2,96.4,61.2,98 M61.2,50.7
				c0,1.3,0,2.7,0,4c0,0.3,0,0.3,0.2,0.3c1,0,1.9,0,2.9,0c0.3,0,0.3,0,0.3-0.3c0-2.7,0-5.4,0-8.1c0-0.2,0-0.3-0.2-0.3
				c-1,0-1.9,0-2.9,0c-0.3,0-0.2,0-0.2,0.2C61.2,48,61.2,49.4,61.2,50.7 M56.8,99.4c-0.7,0-1.5,0-2.2,0c-0.2,0-0.2,0-0.2,0.2
				c0,1.1,0,2.2,0,3.3c0,0.2,0,0.2,0.3,0.2c1.4,0,2.9,0,4.3,0c0.2,0,0.2,0,0.2-0.2c0-1.1,0-2.2,0-3.3c0-0.2,0-0.2-0.3-0.2
				C58.2,99.4,57.5,99.4,56.8,99.4 M74.5,61.3c-0.8,0-1.7,0-2.5,0c-0.2,0-0.2,0-0.2,0.2c0,0.5,0,1.1,0,1.6c0,0.2,0,0.2,0.2,0.2
				c1.7,0,3.4,0,5.1,0c0.2,0,0.2,0,0.2-0.2c0-0.5,0-1,0-1.6c0-0.2,0-0.2-0.2-0.3C76.2,61.3,75.3,61.3,74.5,61.3"/>
			<path class="st2" d="M37.1,92.5c0-1.6,0-3.2,0-4.9c0-2.1,1.5-3.9,3.6-4.3c2.3-0.4,4.6,1.1,5.1,3.4c0.1,0.3,0.1,0.6,0.1,1
				c0,3.2,0,6.5,0,9.7c0,2.1-1.5,3.9-3.6,4.3c-2.4,0.5-4.5-1.1-5.1-3.2c-0.1-0.4-0.1-0.7-0.1-1.1C37.1,95.8,37.1,94.2,37.1,92.5
				 M39.1,92.5c0,1.6,0,3.3,0,4.9c0,1.7,1.9,2.9,3.4,2.1c0.9-0.5,1.4-1.2,1.4-2.2c0-3.2,0-6.4,0-9.5c0-0.2,0-0.3,0-0.5
				c-0.2-1.2-1.4-2.2-2.7-2c-1.2,0.2-2.1,1.2-2.1,2.4C39,89.3,39,90.9,39.1,92.5"/>
		</g>
	</g>
</g>
</svg>
