<?xml version="1.0" encoding="utf-8"?>
<!-- Generator: Adobe Illustrator 25.0.1, SVG Export Plug-In . SVG Version: 6.00 Build 0)  -->
<svg version="1.1" id="Layer_1" xmlns="http://www.w3.org/2000/svg" xmlns:xlink="http://www.w3.org/1999/xlink" x="0px" y="0px"
	 viewBox="0 0 128 128" style="enable-background:new 0 0 128 128;" xml:space="preserve">
<style type="text/css">
	.st0{fill:#F2FAFF;}
	.st1{clip-path:url(#SVGID_2_);}
	.st2{clip-path:url(#SVGID_4_);fill:#5FAFDC;}
	.st3{clip-path:url(#SVGID_6_);}
	.st4{clip-path:url(#SVGID_8_);fill:#5FAFDC;}
	.st5{clip-path:url(#SVGID_10_);}
	.st6{clip-path:url(#SVGID_12_);fill:#5FAFDC;}
	.st7{clip-path:url(#SVGID_14_);}
	.st8{clip-path:url(#SVGID_16_);fill:#5FAFDC;}
	.st9{clip-path:url(#SVGID_18_);}
	.st10{clip-path:url(#SVGID_20_);fill:#5FAFDC;}
	.st11{clip-path:url(#SVGID_22_);}
	.st12{clip-path:url(#SVGID_24_);fill:#5FAFDC;}
	.st13{clip-path:url(#SVGID_26_);}
	.st14{clip-path:url(#SVGID_28_);fill:#5FAFDC;}
	.st15{clip-path:url(#SVGID_30_);}
	.st16{clip-path:url(#SVGID_32_);fill:#5FAFDC;}
	.st17{clip-path:url(#SVGID_34_);}
	.st18{clip-path:url(#SVGID_36_);fill:#5FAFDC;}
	.st19{clip-path:url(#SVGID_38_);}
	.st20{clip-path:url(#SVGID_40_);fill:#5FAFDC;}
	.st21{clip-path:url(#SVGID_42_);}
	.st22{clip-path:url(#SVGID_44_);fill:#5FAFDC;}
	.st23{fill:#5FAFDC;}
	.st24{fill:#38618C;}
	.st25{fill:#5C80BC;}
	.st26{fill:#243556;}
	.st27{fill:#1B2C3A;}
	.st28{clip-path:url(#SVGID_46_);}
	.st29{clip-path:url(#SVGID_48_);fill:none;stroke:#38618C;stroke-width:0.9634;stroke-miterlimit:10;}
	.st30{clip-path:url(#SVGID_48_);fill:#5FAFDC;}
	.st31{clip-path:url(#SVGID_50_);}
	.st32{clip-path:url(#SVGID_52_);fill:#5FAFDC;}
	.st33{clip-path:url(#SVGID_52_);fill:none;stroke:#5FAFDC;stroke-width:1.1666;stroke-miterlimit:10;}
	.st34{clip-path:url(#SVGID_54_);}
	.st35{clip-path:url(#SVGID_56_);fill:#5FAFDC;}
	.st36{clip-path:url(#SVGID_58_);}
	.st37{clip-path:url(#SVGID_60_);fill:#5FAFDC;}
	.st38{fill-rule:evenodd;clip-rule:evenodd;fill:#5FAFDC;}
	.st39{fill:none;stroke:#5FAFDC;stroke-width:2.6;stroke-miterlimit:10;}
	.st40{clip-path:url(#SVGID_62_);}
	.st41{clip-path:url(#SVGID_64_);fill:#5FAFDC;}
	.st42{fill:#5FAFDC;stroke:#5FAFDC;stroke-miterlimit:10;}
	.st43{fill-rule:evenodd;clip-rule:evenodd;fill:#5FAFDC;stroke:#5FAFDC;stroke-miterlimit:10;}
	.st44{fill:none;stroke:#5FAFDC;stroke-miterlimit:10;}
	.st45{clip-path:url(#SVGID_66_);}
	.st46{clip-path:url(#SVGID_68_);fill:#5FAFDC;}
	.st47{clip-path:url(#SVGID_68_);fill:none;stroke:#5FAFDC;stroke-width:5;stroke-miterlimit:10;}
	.st48{opacity:0.83;}
	.st49{opacity:0.98;}
	.st50{fill-rule:evenodd;clip-rule:evenodd;fill:#5FAFDC;stroke:#5FAFDC;stroke-width:0.75;stroke-miterlimit:10;}
</style>
<rect x="24.4" y="26" class="st0" width="50" height="50"/>
<g>
	<g>
		<defs>
			<rect id="SVGID_5_" x="33" y="35" width="70.6" height="68.9"/>
		</defs>
		<clipPath id="SVGID_2_">
			<use xlink:href="#SVGID_5_"  style="overflow:visible;"/>
		</clipPath>
		<g class="st1">
			<defs>
				<rect id="SVGID_7_" x="33" y="35" width="70.6" height="68.9"/>
			</defs>
			<clipPath id="SVGID_4_">
				<use xlink:href="#SVGID_7_"  style="overflow:visible;"/>
			</clipPath>
			<path class="st2" d="M68.3,37.7c10.3,0,20.6,0,30.9,0c0.1,0,0.3,0,0.4,0c0.5,0.1,0.9,0.5,0.9,1c0,0.1,0,0.2,0,0.2
				c0,16.4,0,32.8,0,49.2c0,0.2,0,0.3,0,0.5c-0.1,0.4-0.5,0.7-1,0.8c-0.1,0-0.2,0-0.3,0c-5.9,0-11.8,0-17.7,0c-0.3,0-0.3,0-0.3,0.4
				c0,1.6,0,3.1,0,4.7c0,0.1,0,0.1,0,0.2c0,0.1,0,0.2,0.1,0.1c0.1,0,0.1,0,0.2,0c2,0,4,0,6,0c0.3,0,0.6,0.1,0.8,0.3
				c0.1,0.1,0.2,0.2,0.3,0.4c0.7,1.4,1.4,2.8,2.1,4.2c0.3,0.5,0.1,1.2-0.4,1.5c-0.1,0.1-0.3,0.1-0.4,0.1c-0.1,0-0.3,0-0.4,0
				c-14.2,0-28.4,0-42.6,0c-0.1,0-0.2,0-0.3,0c-0.8-0.1-1.2-0.8-0.9-1.5c0-0.1,0.1-0.2,0.1-0.3c0.7-1.3,1.3-2.6,2-4
				c0.2-0.5,0.6-0.7,1.1-0.7c2,0,4,0,6,0c0.3,0,0.3,0,0.3-0.3c0-1.6,0-3.2,0-4.8c0-0.1,0-0.1,0-0.2c0-0.1,0-0.1-0.1-0.1
				c-0.1,0-0.2,0-0.2,0c-5.9,0-11.8,0-17.8,0c-0.2,0-0.3,0-0.5,0c-0.4-0.1-0.7-0.5-0.8-0.9c0-0.1,0-0.2,0-0.3c0-16.4,0-32.7,0-49.1
				c0-0.1,0-0.1,0-0.2c0-0.6,0.4-1.1,1.1-1.1c0.1,0,0.2,0,0.3,0C47.7,37.7,58,37.7,68.3,37.7 M68.3,87.2c9.9,0,19.9,0,29.8,0
				c0.3,0,0.3,0,0.3-0.3c0-15.6,0-31.1,0-46.7c0-0.4,0.1-0.4-0.3-0.4c-19.9,0-39.7,0-59.6,0c-0.4,0-0.4-0.1-0.4,0.4
				c0,15.6,0,31.1,0,46.7c0,0.4-0.1,0.3,0.4,0.3C48.4,87.2,58.3,87.2,68.3,87.2 M68.3,94.8c3.5,0,7,0,10.4,0c0.1,0,0.1,0,0.2,0
				c0.1,0,0.1,0,0.1-0.1c0-0.1,0-0.1,0-0.2c0-1.6,0-3.1,0-4.7c0-0.4,0.1-0.3-0.3-0.3c-7,0-13.9,0-20.9,0c-0.1,0-0.1,0-0.2,0
				c-0.1,0-0.2,0.1-0.2,0.2c0,0,0,0.1,0,0.1c0,1.6,0,3.2,0,4.8c0,0.4,0,0.3,0.3,0.3C61.3,94.8,64.8,94.8,68.3,94.8 M88.1,99.1
				c-0.3-0.7-0.7-1.4-1-2c0-0.1-0.1-0.1-0.2-0.1c-0.1,0-0.1,0-0.2,0H49.9c0,0-0.1,0-0.1,0c-0.2,0-0.2,0-0.3,0.2
				c-0.3,0.6-0.6,1.2-0.9,1.7c0,0.1-0.1,0.1-0.1,0.2H88.1z"/>
			<path class="st2" d="M68.3,85.1c-8.9,0-17.7,0-26.6,0c-0.1,0-0.2,0-0.4,0c-0.6,0-1-0.4-1-1c0-0.1,0-0.2,0-0.3c0-13.5,0-27,0-40.5
				c0-0.2,0-0.3,0-0.5c0.1-0.5,0.5-0.8,1-0.8c0.1,0,0.2,0,0.3,0c17.8,0,35.6,0,53.4,0c0.2,0,0.3,0,0.5,0c0.5,0.1,0.8,0.5,0.8,1
				c0,0.1,0,0.2,0,0.3c0,13.5,0,27,0,40.4c0,0.1,0,0.2,0,0.3c0,0.6-0.4,1-1,1c-0.1,0-0.2,0-0.4,0C86,85.1,77.2,85.1,68.3,85.1
				 M68.3,44.2c-8.5,0-17,0-25.5,0c-0.4,0-0.3-0.1-0.3,0.3c0,12.7,0,25.4,0,38.1c0,0.4-0.1,0.3,0.3,0.3c17,0,34,0,51,0
				c0.4,0,0.4,0.1,0.4-0.4c0-12.7,0-25.4,0-38.1c0-0.3,0-0.3-0.4-0.3H68.3z"/>
			<path class="st2" d="M56.4,63.7c0-1,0-2,0-3c0-0.2,0-0.2-0.2-0.3c-0.3-0.1-0.7-0.1-1-0.2c-0.6-0.1-1-0.7-0.9-1.3
				c0-0.2,0.2-0.4,0.3-0.6c0.9-1.1,1.8-2.1,2.7-3.2c1.2-1.4,2.4-2.7,3.5-4.1c0.2-0.3,0.5-0.4,0.9-0.5c3.1-0.7,6.3-1.4,9.4-2.1
				c0.5-0.1,1,0,1.3,0.6c1.7,2.8,3.5,5.6,5.2,8.3c0.1,0.2,0.2,0.4,0.3,0.6c0,0.5-0.2,0.9-0.7,1.1c-0.1,0-0.1,0-0.2,0.1
				c-0.2,0.1-0.2,0.1-0.2,0.3c0,2,0,4,0,6c0,0.6-0.3,1-0.9,1.2c-3.1,1-6.3,2.1-9.4,3.1c-0.3,0.1-0.6,0.1-0.9,0
				c-2.8-0.7-5.6-1.4-8.3-2.1c-0.7-0.2-1-0.5-1-1.2C56.4,65.7,56.4,64.7,56.4,63.7 M63.3,52.5c0,0.1,0.1,0.2,0.1,0.3
				c0.8,1.8,1.6,3.6,2.4,5.3c0.3,0.6,0.6,1.2,0.8,1.8c0.1,0.1,0.1,0.2,0.3,0.1c0,0,0.1,0,0.1,0c2.3-0.7,4.6-1.4,6.9-2.1
				c0.4-0.1,0.8-0.3,1.3-0.4c0-0.1,0-0.1-0.1-0.1c-1.4-2.2-2.7-4.3-4.1-6.5c-0.1-0.1-0.2-0.1-0.3-0.1c-1.2,0.3-2.4,0.5-3.6,0.8
				C65.9,51.9,64.6,52.2,63.3,52.5 M67.2,67.4c0.1,0,0.1,0,0.2,0c2.4-0.8,4.8-1.6,7.2-2.4c0.2-0.1,0.2-0.1,0.2-0.3c0-1.5,0-3,0-4.5
				c0-0.1,0-0.1,0-0.2c-0.1,0-0.1,0-0.2,0c-2.4,0.7-4.7,1.4-7.1,2.1c-0.2,0.1-0.2,0.1-0.2,0.3c0,1.6,0,3.1,0,4.7V67.4z M58.6,61
				c0,0.1,0,0.1,0,0.1c0,1.5,0,3.1,0,4.6c0,0.2,0,0.2,0.2,0.3c2,0.5,4,1,6,1.5c0.1,0,0.2,0.1,0.3,0c0,0,0-0.1,0-0.1c0-1.7,0-3.3,0-5
				c0-0.2-0.1-0.2-0.2-0.2c-0.1,0-0.1,0-0.2,0c-1.2-0.2-2.3-0.5-3.5-0.7C60.4,61.3,59.5,61.2,58.6,61 M64.3,59.9
				c-0.9-2.1-1.8-4.1-2.8-6.2c-1.4,1.6-2.8,3.2-4.2,4.8C59.7,59,62,59.5,64.3,59.9"/>
			<path class="st2" d="M75.8,75.7C75.8,75.7,75.8,75.7,75.8,75.7c-0.2,0.4-0.5,0.6-0.8,0.9c-0.9,0.9-1.7,1.7-2.6,2.6
				c-0.1,0.1-0.1,0.1-0.2,0.2c-0.5-0.5-1-1-1.5-1.5c0.4-0.4,0.9-0.9,1.3-1.3c0,0,0,0,0,0c0,0,0,0,0,0c-4.2,0-8.5,0-12.7,0
				c-0.1,0-0.1,0-0.3,0c0.5,0.5,0.9,0.9,1.4,1.4c-0.5,0.5-1,1-1.4,1.4c-0.1,0.1-0.1,0.1-0.2,0c-0.3-0.3-0.6-0.6-0.9-0.9
				c-0.7-0.7-1.3-1.3-2-2c-0.2-0.2-0.4-0.4-0.5-0.6V76c0,0.8,0,1.6,0,2.4c0,0.2,0,0.2-0.2,0.2c-0.6,0-1.2,0-1.7,0
				c-0.2,0-0.2,0-0.2-0.2c0-2,0-4.1,0-6.1c0-0.2,0-0.2,0.2-0.2c0.6,0,1.1,0,1.7,0c0.2,0,0.2,0,0.2,0.2c0,0.8,0,1.6,0,2.4V75
				c0.2-0.3,0.4-0.5,0.6-0.7c1-1,1.9-1.9,2.9-2.9c0.5,0.5,1,1,1.5,1.5c-0.4,0.4-0.8,0.8-1.3,1.3c0.2,0.1,12.7,0.1,13.1,0
				c-0.1-0.1-0.2-0.2-0.3-0.3c-0.3-0.3-0.6-0.6-0.9-0.9c-0.1-0.1-0.1-0.1,0-0.2c0.5-0.5,0.9-0.9,1.4-1.4c0.1,0,0.1,0.1,0.2,0.1
				c1,1,2,2,3,3c0.1,0.1,0.3,0.3,0.3,0.4c0,0.1,0.1,0.1,0.1,0C75.8,75.2,75.8,75.5,75.8,75.7"/>
			<path class="st2" d="M88.1,66.8c0.1,0.1,0.2,0.2,0.3,0.2c1.1,1.1,2.1,2.1,3.2,3.2c0.1,0.1,0.1,0.1,0.2,0.2c0.4,0.4,0.4,1,0,1.4
				c0,0-0.1,0.1-0.1,0.1c-1,1-2.1,2.1-3.1,3.1c-0.4,0.4-1,0.5-1.4,0.2c-0.1-0.1-0.2-0.1-0.2-0.2c-1.1-1.1-2.2-2.2-3.2-3.2
				c-0.1-0.1-0.1-0.2-0.2-0.3c-0.4,0.4-0.7,0.7-1,1c-0.1,0.1-0.2,0.2-0.4,0.4c-0.3,0.3-0.7,0.4-1.1,0.3c-0.4-0.1-0.7-0.5-0.7-0.9
				c-0.1-0.5-0.1-1-0.2-1.5c-0.1-1.1-0.3-2.3-0.4-3.4c-0.1-0.9-0.2-1.9-0.4-2.8c0-0.3-0.1-0.5-0.1-0.8c0-0.3,0-0.6,0.1-0.8
				c0.2-0.4,0.6-0.6,1-0.5c0.4,0,0.8,0.1,1.1,0.1c1,0.1,1.9,0.2,2.9,0.4c1.1,0.1,2.2,0.3,3.4,0.4c0.4,0,0.8,0.1,1.2,0.1
				c0.5,0.1,0.9,0.4,1,0.9c0.1,0.4-0.1,0.7-0.3,1c-0.4,0.4-0.8,0.8-1.1,1.1C88.3,66.6,88.2,66.7,88.1,66.8 M82,69.8
				c0.2-0.2,0.4-0.4,0.6-0.6c0.1-0.1,0.3-0.3,0.5-0.3c0.4-0.1,0.8,0,1.1,0.3c1.1,1.1,2.2,2.2,3.3,3.3c0,0,0.1,0.1,0.1,0.1
				c0.1,0.1,0.1,0.1,0.2,0c0.1-0.1,0.2-0.2,0.3-0.3c0.4-0.4,0.8-0.8,1.2-1.2c0.2-0.2,0.2-0.1,0-0.3c0,0-0.1-0.1-0.1-0.1
				c-1.1-1.1-2.1-2.1-3.2-3.2c-0.5-0.5-0.5-1.1,0-1.7c0.2-0.2,0.3-0.3,0.5-0.5c-1.7-0.2-3.4-0.4-5.1-0.6
				C81.6,66.5,81.8,68.1,82,69.8"/>
			<path class="st2" d="M49.2,50.7c0.2,0,0.3,0.1,0.4,0.2c1.1,1.1,2.1,2.1,3.2,3.2c0,0,0,0,0,0.1c0,0.1-0.1,0.1-0.1,0.2
				c-0.4,0.4-0.8,0.8-1.2,1.2c-0.1,0.1-0.2,0.1-0.3,0c-0.3-0.3-0.7-0.7-1-1c-0.1-0.1-0.1-0.1-0.2-0.2v10.9c0.5-0.5,0.9-0.9,1.3-1.3
				c0.5,0.5,1,1,1.5,1.5c-0.1,0-0.1,0.1-0.2,0.2c-1,1-1.9,1.9-2.9,2.9c-0.2,0.2-0.3,0.3-0.6,0.4c0.1,0,0.2,0,0.2,0
				c0.8,0,1.6,0,2.4,0c0.2,0,0.2,0,0.2,0.2c0,0.6,0,1.2,0,1.7c0,0.2,0,0.2-0.2,0.2c-2,0-4.1,0-6.1,0c-0.2,0-0.2,0-0.2-0.2
				c0-0.6,0-1.2,0-1.7c0-0.2,0-0.2,0.2-0.2c0.8,0,1.6,0,2.4,0h0.4c-0.6-0.3-0.9-0.7-1.3-1.1c-0.8-0.7-1.5-1.5-2.2-2.2
				c-0.1-0.1-0.1-0.1-0.2-0.2c0.5-0.5,1-1,1.5-1.5c0.4,0.4,0.9,0.9,1.3,1.3V54.4c-0.1,0-0.1,0.1-0.2,0.2c-0.3,0.3-0.7,0.7-1,1
				c-0.1,0.2-0.1,0.2-0.3,0c-0.4-0.4-0.8-0.8-1.2-1.2c-0.1-0.1-0.2-0.1,0-0.3c1-1,2-2,3-3c0.2-0.2,0.3-0.3,0.5-0.4c0,0,0,0,0,0
				C48.8,50.6,49,50.7,49.2,50.7"/>
			<path class="st2" d="M49.2,50.7c-0.2,0-0.4-0.1-0.6,0c-0.1-0.1-0.2,0-0.3,0c-0.8,0-1.6,0-2.4,0c-0.3,0-0.2,0-0.2-0.3
				c0-0.5,0-1.1,0-1.6c0-0.2-0.1-0.3,0.3-0.3c1.7,0,3.4,0,5.2,0c0.3,0,0.6,0,0.8,0c0.2,0,0.2,0,0.2,0.2c0,0.6,0,1.1,0,1.7
				c0,0.2,0,0.2-0.2,0.2c-0.8,0-1.7,0-2.5,0C49.3,50.6,49.2,50.6,49.2,50.7"/>
			<path class="st2" d="M75.8,75.7c0-0.2,0-0.5,0-0.7c0-0.5,0-0.9,0-1.4c0-0.4,0-0.9,0-1.3c0-0.2,0-0.2,0.2-0.2c0.6,0,1.1,0,1.7,0
				c0.2,0,0.2,0,0.2,0.2c0,0.6,0,1.3,0,1.9c0,1.3,0,2.6,0,4c0,0.1,0,0.1,0,0.2c0,0.1,0,0.1-0.1,0.1c-0.6,0-1.3,0-1.9,0
				c-0.1,0-0.1-0.1-0.1-0.2c0-0.2,0-0.4,0-0.6C75.8,77.1,75.8,76.4,75.8,75.7"/>
			<path class="st2" d="M85.5,61.4c-0.3,0-0.6,0-0.9,0c-0.1,0-0.1,0-0.1-0.1c0-0.5-0.1-1.1-0.2-1.6c0-0.1,0-0.2,0.1-0.2
				c0.6-0.1,1.2-0.2,1.8-0.4c0.1,0,0.2,0,0.2,0.1c0.1,0.7,0.2,1.3,0.2,2c0,0.1,0,0.2-0.2,0.2C86.1,61.4,85.8,61.4,85.5,61.4"/>
			<path class="st2" d="M76.4,51.7c0.1-0.6,0.2-1.2,0.3-1.9c0-0.1,0.1-0.1,0.2-0.1c0.7,0.1,1.3,0.3,2,0.5c0.1,0,0.1,0.1,0.1,0.2
				c-0.2,0.6-0.4,1.1-0.7,1.7c0,0.1-0.1,0.1-0.2,0.1c-0.5-0.2-1-0.3-1.6-0.4C76.5,51.9,76.4,51.8,76.4,51.7"/>
			<path class="st2" d="M84.5,54.7c0.4,0.6,0.8,1.3,1.1,1.9c0,0.1,0,0.2-0.1,0.2c-0.6,0.2-1.1,0.5-1.7,0.7c-0.1,0-0.1,0-0.2-0.1
				c-0.2-0.5-0.5-1-0.8-1.5c-0.1-0.1-0.1-0.1,0-0.2C83.4,55.5,84,55.1,84.5,54.7"/>
			<path class="st2" d="M81.1,51.4c0.6,0.4,1.6,1.1,1.8,1.5c-0.5,0.5-1,1-1.5,1.5c-0.1,0-0.1-0.1-0.2-0.1c-0.4-0.4-0.8-0.7-1.2-1
				c-0.2-0.1-0.2-0.1-0.1-0.3C80.4,52.5,80.8,52,81.1,51.4"/>
		</g>
	</g>
</g>
</svg>
