<?xml version="1.0" encoding="utf-8"?>
<!-- Generator: Adobe Illustrator 25.0.1, SVG Export Plug-In . SVG Version: 6.00 Build 0)  -->
<svg version="1.1" id="Layer_1" xmlns="http://www.w3.org/2000/svg" xmlns:xlink="http://www.w3.org/1999/xlink" x="0px" y="0px"
	 viewBox="0 0 128 128" style="enable-background:new 0 0 128 128;" xml:space="preserve">
<style type="text/css">
	.st0{fill:#F2FAFF;}
	.st1{clip-path:url(#SVGID_2_);}
	.st2{clip-path:url(#SVGID_4_);fill:#5FAFDC;}
	.st3{clip-path:url(#SVGID_6_);}
	.st4{clip-path:url(#SVGID_8_);fill:#5FAFDC;}
	.st5{clip-path:url(#SVGID_10_);}
	.st6{clip-path:url(#SVGID_12_);fill:#5FAFDC;}
	.st7{clip-path:url(#SVGID_14_);}
	.st8{clip-path:url(#SVGID_16_);fill:#5FAFDC;}
	.st9{clip-path:url(#SVGID_18_);}
	.st10{clip-path:url(#SVGID_20_);fill:#5FAFDC;}
	.st11{clip-path:url(#SVGID_22_);}
	.st12{clip-path:url(#SVGID_24_);fill:#5FAFDC;}
	.st13{clip-path:url(#SVGID_26_);}
	.st14{clip-path:url(#SVGID_28_);fill:#5FAFDC;}
	.st15{clip-path:url(#SVGID_30_);}
	.st16{clip-path:url(#SVGID_32_);fill:#5FAFDC;}
	.st17{clip-path:url(#SVGID_34_);}
	.st18{clip-path:url(#SVGID_36_);fill:#5FAFDC;}
	.st19{clip-path:url(#SVGID_38_);}
	.st20{clip-path:url(#SVGID_40_);fill:#5FAFDC;}
	.st21{clip-path:url(#SVGID_42_);}
	.st22{clip-path:url(#SVGID_44_);fill:#5FAFDC;}
	.st23{fill:#5FAFDC;}
	.st24{fill:#38618C;}
	.st25{fill:#5C80BC;}
	.st26{fill:#243556;}
	.st27{fill:#1B2C3A;}
	.st28{clip-path:url(#SVGID_46_);}
	.st29{clip-path:url(#SVGID_48_);fill:none;stroke:#38618C;stroke-width:0.9634;stroke-miterlimit:10;}
	.st30{clip-path:url(#SVGID_48_);fill:#5FAFDC;}
	.st31{clip-path:url(#SVGID_50_);}
	.st32{clip-path:url(#SVGID_52_);fill:#5FAFDC;}
	.st33{clip-path:url(#SVGID_52_);fill:none;stroke:#5FAFDC;stroke-width:1.1666;stroke-miterlimit:10;}
	.st34{clip-path:url(#SVGID_54_);}
	.st35{clip-path:url(#SVGID_56_);fill:#5FAFDC;}
	.st36{clip-path:url(#SVGID_58_);}
	.st37{clip-path:url(#SVGID_60_);fill:#5FAFDC;}
	.st38{fill-rule:evenodd;clip-rule:evenodd;fill:#5FAFDC;}
	.st39{fill:none;stroke:#5FAFDC;stroke-width:2.6;stroke-miterlimit:10;}
	.st40{clip-path:url(#SVGID_62_);}
	.st41{clip-path:url(#SVGID_64_);fill:#5FAFDC;}
	.st42{fill:#5FAFDC;stroke:#5FAFDC;stroke-miterlimit:10;}
	.st43{fill-rule:evenodd;clip-rule:evenodd;fill:#5FAFDC;stroke:#5FAFDC;stroke-miterlimit:10;}
	.st44{fill:none;stroke:#5FAFDC;stroke-miterlimit:10;}
	.st45{clip-path:url(#SVGID_66_);}
	.st46{clip-path:url(#SVGID_68_);fill:#5FAFDC;}
	.st47{clip-path:url(#SVGID_68_);fill:none;stroke:#5FAFDC;stroke-width:5;stroke-miterlimit:10;}
	.st48{opacity:0.83;}
	.st49{opacity:0.98;}
	.st50{fill-rule:evenodd;clip-rule:evenodd;fill:#5FAFDC;stroke:#5FAFDC;stroke-width:0.75;stroke-miterlimit:10;}
</style>
<rect x="24.4" y="26" class="st0" width="50" height="50"/>
<g>
	<g>
		<defs>
			<rect id="SVGID_13_" x="27" y="35" width="76.9" height="73.3"/>
		</defs>
		<clipPath id="SVGID_2_">
			<use xlink:href="#SVGID_13_"  style="overflow:visible;"/>
		</clipPath>
		<g class="st1">
			<defs>
				<rect id="SVGID_15_" x="27" y="35" width="76.9" height="73.3"/>
			</defs>
			<clipPath id="SVGID_4_">
				<use xlink:href="#SVGID_15_"  style="overflow:visible;"/>
			</clipPath>
			<path class="st2" d="M90.1,62.3H67.8c-0.1-0.1,0-0.1,0-0.2c0.5-2.1,1-4.2,1.6-6.3c0.6-2.3,2.2-3.7,4.5-4.2
				c0.4-0.1,0.8-0.1,1.3-0.1c0.8,0,1.5,0,2.3,0c0.1,0,0.2,0,0.3,0c0.1-0.2,0-0.5-0.1-0.7c-0.5-3.3-2.1-5.9-4.8-7.9
				c-1.5-1.1-3.3-1.8-5.2-2.1c-0.5-0.1-1-0.1-1.5-0.1c-2.7,0-5.5,0-8.2,0c-2.9,0-5.6,0.8-8.1,2.2c-4.3,2.5-7.1,6.1-8.4,11
				c-0.4,1.4-0.5,2.8-0.5,4.3c0,5.7,0,11.4,0,17c0,7.2,0,14.4,0,21.7c0,0.3,0,0.3,0.3,0.3H46c0,0,0.1,0,0.1,0c0.2,0,0.2,0,0.2,0.2
				c0,1.6,0,3.2,0,4.8c0,0.4,0,0.9,0,1.3c0,0.1,0,0.2-0.2,0.2c0,0-0.1,0-0.1,0c-4.1,0-8.3,0-12.4,0c-0.3,0-0.3,0-0.3-0.3
				c0-2,0-4,0-5.9c0-0.1,0-0.1,0-0.2c0-0.1,0-0.1,0.1-0.1c0.1,0,0.1,0,0.2,0h4.8c0,0,0.1,0,0.1,0c0.2,0,0.2,0,0.2-0.2
				c0-0.1,0-0.1,0-0.2c0-12.9,0-25.8,0-38.7c0-4.4,1.3-8.3,3.9-11.8c2.7-3.6,6.3-6,10.6-7.2c1.7-0.5,3.4-0.6,5.1-0.6
				c2.5,0,4.9,0,7.4,0c3.5,0,6.7,1.2,9.4,3.5c2.5,2.2,4,4.9,4.6,8.1c0.1,0.4,0.1,0.8,0.2,1.2c0,0.3,0,0.3,0.3,0.3c0.8,0,1.7,0,2.5,0
				c2,0,3.6,0.8,4.8,2.4c0.4,0.6,0.8,1.3,0.9,2c0.5,2.1,1,4.1,1.5,6.2C90,62.1,90,62.2,90.1,62.3 M70.5,60.1h16.7c0-0.1,0-0.2,0-0.2
				c-0.3-1.2-0.6-2.3-0.9-3.5c-0.4-1.7-1.8-2.8-3.5-2.8c-2.6,0-5.2,0-7.8,0c-1.7,0-3.1,1.2-3.5,2.8c-0.2,0.7-0.4,1.5-0.6,2.2
				C70.8,59.1,70.7,59.6,70.5,60.1 M39.8,101.4c1.4,0,2.7,0,4.1,0c0.3,0,0.3,0,0.3-0.3c0-0.6,0-1.1,0-1.7c0-0.2,0-0.3-0.3-0.3
				c0,0-0.1,0-0.1,0c-2.6,0-5.2,0-7.8,0c-0.2,0-0.4-0.1-0.5,0c-0.1,0.1,0,0.3,0,0.5c0,0.5,0,1,0,1.5c0,0.1,0,0.2,0.2,0.2
				c0.1,0,0.1,0,0.2,0H39.8z"/>
			<path class="st2" d="M98.5,85.2V100c0,0.1,0,0.1,0,0.2c0,0.2,0,0.2-0.2,0.2c-0.6,0-1.1,0-1.7,0c-0.3,0-0.3,0-0.3,0.3
				c0,0.9,0,1.8,0,2.7c0,0.1,0,0.1,0,0.2c0,0.1,0,0.1-0.1,0.1c-0.1,0-0.1,0-0.2,0c-2,0-4,0-6,0h0c-0.3,0-0.2,0-0.2-0.2
				c0-0.9,0-1.8,0-2.7c0-0.1,0-0.1,0-0.2c0-0.1,0-0.1-0.1-0.1c-0.1,0-0.1,0-0.2,0c-4.5,0-9,0-13.5,0c-0.4,0-0.3,0-0.3,0.3
				c0,0.9,0,1.8,0,2.7c0,0.2,0,0.2-0.2,0.2c-2,0-4.1,0-6.1,0c-0.2,0-0.2,0-0.2-0.2c0-0.9,0-1.9,0-2.8c0-0.3,0-0.3-0.3-0.3
				c-0.6,0-1.1,0-1.7,0c-0.2,0-0.2,0-0.2-0.2c0-0.3,0-0.5,0-0.8c0-5,0-10,0-15c0-0.9,0.3-1.7,0.9-2.4c0.6-0.6,1.4-1,2.2-1
				c0.2,0,0.3,0,0.5,0c4.1,0,8.2,0,12.3,0c0.4,0,0.3,0,0.3-0.3c0-0.8,0-1.6,0-2.4c0-3.3,2.4-6.3,5.7-6.9c0.2,0,0.4-0.1,0.6-0.1
				c0.1,0,0.2-0.1,0.2-0.2c0-0.3,0-0.5,0-0.8c0.2-1.3,1.3-2.3,2.6-2.3c1.1,0,2.3,0,3.4,0c1.4,0,2.6,1.2,2.6,2.7c0,0.1,0,0.2,0,0.3
				C98.5,75.5,98.5,80.4,98.5,85.2 M82.7,98.1c4.4,0,8.8,0,13.3,0c0.3,0,0.3,0,0.3-0.3c0-4.9,0-9.7,0-14.6c0-0.4,0-0.3-0.3-0.3
				c-8.5,0-16.9,0-25.4,0c-0.1,0-0.2,0-0.3,0c-0.2,0-0.3,0-0.5,0.1c-0.5,0.2-0.7,0.6-0.7,1.2c0,4.5,0,9.1,0,13.6
				c0,0.3,0,0.3,0.3,0.3c0.1,0,0.1,0,0.2,0H82.7z M96.3,75.5c0-1.6,0-3.2,0-4.9c0-0.1,0-0.2,0-0.2c0-0.2-0.2-0.4-0.4-0.5
				c-0.1,0-0.2,0-0.2,0c-1,0-2,0-3,0c-0.1,0-0.1,0-0.2,0c-0.3,0-0.5,0.2-0.5,0.5c0,0.1,0,0.2,0,0.2c0,3.2,0,6.3,0,9.5
				c0,0.1,0,0.3,0,0.4c0,0.2,0,0.2,0.2,0.2c0.3,0,0.7,0,1,0c0.9,0,1.9,0,2.8,0c0.3,0,0.3,0,0.3-0.3c0,0,0-0.1,0-0.1V75.5z
				 M89.7,73.2c-0.7,0.1-1.4,0.3-2,0.7c-1.3,0.9-2.1,2.1-2.2,3.7c-0.1,1,0,2,0,2.9c0,0.1,0,0.2,0.1,0.2c0.1,0,0.1,0,0.2,0
				c1.2,0,2.5,0,3.7,0c0.3,0,0.3,0,0.3-0.3c0-2.3,0-4.6,0-7C89.8,73.4,89.8,73.3,89.7,73.2 M72.4,101.4c0.3,0,0.6,0,0.9,0
				c0.1,0,0.2,0,0.2-0.2c0-0.3,0-0.5,0-0.8c0-0.1,0-0.2-0.1-0.2c-0.6,0-1.3,0-1.9,0c-0.1,0-0.2,0.1-0.2,0.2c0,0.3,0,0.5,0,0.8
				c0,0.1,0.1,0.2,0.2,0.2C71.8,101.4,72.1,101.4,72.4,101.4 M93,101.4c0.3,0,0.6,0,0.9,0c0.1,0,0.2,0,0.2-0.1c0-0.3,0-0.5,0-0.8
				c0-0.1,0-0.1-0.1-0.1c-0.6,0-1.3,0-1.9,0c-0.1,0-0.1,0-0.1,0.1c0,0.3,0,0.6,0,0.8c0,0.1,0,0.1,0.1,0.1
				C92.4,101.4,92.7,101.4,93,101.4"/>
		</g>
	</g>
</g>
</svg>
