<?xml version="1.0" encoding="utf-8"?>
<!-- Generator: Adobe Illustrator 25.0.1, SVG Export Plug-In . SVG Version: 6.00 Build 0)  -->
<svg version="1.1" id="Layer_1" xmlns="http://www.w3.org/2000/svg" xmlns:xlink="http://www.w3.org/1999/xlink" x="0px" y="0px"
	 viewBox="0 0 128 128" style="enable-background:new 0 0 128 128;" xml:space="preserve">
<style type="text/css">
	.st0{fill:#F2FAFF;}
	.st1{clip-path:url(#SVGID_2_);}
	.st2{clip-path:url(#SVGID_4_);fill:#5FAFDC;}
	.st3{clip-path:url(#SVGID_6_);}
	.st4{clip-path:url(#SVGID_8_);fill:#5FAFDC;}
	.st5{clip-path:url(#SVGID_10_);}
	.st6{clip-path:url(#SVGID_12_);fill:#5FAFDC;}
	.st7{clip-path:url(#SVGID_14_);}
	.st8{clip-path:url(#SVGID_16_);fill:#5FAFDC;}
	.st9{clip-path:url(#SVGID_18_);}
	.st10{clip-path:url(#SVGID_20_);fill:#5FAFDC;}
	.st11{clip-path:url(#SVGID_22_);}
	.st12{clip-path:url(#SVGID_24_);fill:#5FAFDC;}
	.st13{clip-path:url(#SVGID_26_);}
	.st14{clip-path:url(#SVGID_28_);fill:#5FAFDC;}
	.st15{clip-path:url(#SVGID_30_);}
	.st16{clip-path:url(#SVGID_32_);fill:#5FAFDC;}
	.st17{clip-path:url(#SVGID_34_);}
	.st18{clip-path:url(#SVGID_36_);fill:#5FAFDC;}
	.st19{clip-path:url(#SVGID_38_);}
	.st20{clip-path:url(#SVGID_40_);fill:#5FAFDC;}
	.st21{clip-path:url(#SVGID_42_);}
	.st22{clip-path:url(#SVGID_44_);fill:#5FAFDC;}
	.st23{fill:#5FAFDC;}
	.st24{fill:#38618C;}
	.st25{fill:#5C80BC;}
	.st26{fill:#243556;}
	.st27{fill:#1B2C3A;}
	.st28{clip-path:url(#SVGID_46_);}
	.st29{clip-path:url(#SVGID_48_);fill:none;stroke:#38618C;stroke-width:0.9634;stroke-miterlimit:10;}
	.st30{clip-path:url(#SVGID_48_);fill:#5FAFDC;}
	.st31{clip-path:url(#SVGID_50_);}
	.st32{clip-path:url(#SVGID_52_);fill:#5FAFDC;}
	.st33{clip-path:url(#SVGID_52_);fill:none;stroke:#5FAFDC;stroke-width:1.1666;stroke-miterlimit:10;}
	.st34{clip-path:url(#SVGID_54_);}
	.st35{clip-path:url(#SVGID_56_);fill:#5FAFDC;}
	.st36{clip-path:url(#SVGID_58_);}
	.st37{clip-path:url(#SVGID_60_);fill:#5FAFDC;}
	.st38{fill-rule:evenodd;clip-rule:evenodd;fill:#5FAFDC;}
	.st39{fill:none;stroke:#5FAFDC;stroke-width:2.6;stroke-miterlimit:10;}
	.st40{clip-path:url(#SVGID_62_);}
	.st41{clip-path:url(#SVGID_64_);fill:#5FAFDC;}
	.st42{fill:#5FAFDC;stroke:#5FAFDC;stroke-miterlimit:10;}
	.st43{fill-rule:evenodd;clip-rule:evenodd;fill:#5FAFDC;stroke:#5FAFDC;stroke-miterlimit:10;}
	.st44{fill:none;stroke:#5FAFDC;stroke-miterlimit:10;}
	.st45{clip-path:url(#SVGID_66_);}
	.st46{clip-path:url(#SVGID_68_);fill:#5FAFDC;}
	.st47{clip-path:url(#SVGID_68_);fill:none;stroke:#5FAFDC;stroke-width:5;stroke-miterlimit:10;}
	.st48{opacity:0.83;}
	.st49{opacity:0.98;}
	.st50{fill-rule:evenodd;clip-rule:evenodd;fill:#5FAFDC;stroke:#5FAFDC;stroke-width:0.75;stroke-miterlimit:10;}
</style>
<rect x="24.4" y="26" class="st0" width="50" height="50"/>
<g>
	<g>
		<defs>
			<rect id="SVGID_17_" x="33" y="34" width="70.8" height="71.5"/>
		</defs>
		<clipPath id="SVGID_2_">
			<use xlink:href="#SVGID_17_"  style="overflow:visible;"/>
		</clipPath>
		<g class="st1">
			<defs>
				<rect id="SVGID_19_" x="33" y="34" width="70.8" height="71.5"/>
			</defs>
			<clipPath id="SVGID_4_">
				<use xlink:href="#SVGID_19_"  style="overflow:visible;"/>
			</clipPath>
			<path class="st2" d="M93.8,65.7c0,0.1,0,0.2,0,0.4c0,10.7,0,21.5,0,32.2c0,0.3,0,0.6-0.1,1c-0.3,1.4-1.6,2.4-3,2.5
				c-0.1,0-0.3,0-0.4,0c-14.9,0-29.9,0-44.8,0c-0.9,0-1.6-0.2-2.3-0.8c-0.7-0.6-1.1-1.4-1.2-2.4c0-0.1,0-0.2,0-0.4
				c0-10.7,0-21.3,0-32c0-0.1,0-0.2,0-0.3C42,65.9,42,66,41.9,66c-0.4,0.3-0.7,0.6-1.1,0.9c-1.4,1.1-3.4,0.9-4.5-0.5
				c-0.9-1.2-0.9-2.9,0-4.1c0.2-0.2,0.4-0.4,0.6-0.6c8.8-7.4,17.6-14.7,26.4-22.1c0.9-0.7,1.7-1.4,2.6-2.1c1.3-1.1,3-1.1,4.2,0
				c9.6,8,19.3,16.1,28.9,24.1c0.6,0.5,1,1.1,1.2,1.9c0.4,1.8-0.7,3.6-2.5,3.9c-1,0.2-1.9-0.1-2.7-0.7c-0.3-0.3-0.6-0.5-1-0.8
				C94,65.9,93.9,65.8,93.8,65.7 M80.1,78.1c0,0.1,0.1,0.3,0.1,0.4c0.1,0.5,0.3,1,0.4,1.5c0,0.1,0.1,0.2,0.2,0.2c0.1,0,0.1,0,0.2,0
				h4.6c0.9,0,1.9,0,2.8,0c0.7,0,1.2,0.5,1.2,1.2c0,1.4,0,2.7,0,4.1c0,0.7-0.4,1.2-1.2,1.2c-0.3,0-0.6,0-0.8,0c-0.4,0-0.7,0-1.1,0
				c-0.1,0-0.2,0-0.1,0.1c0,0,0,0.1,0,0.1c0,4.1,0,8.2,0,12.4c0,0.1,0,0.1,0,0.2c0,0.1,0,0.1,0.1,0.1c0.1,0,0.1,0,0.2,0
				c1.3,0,2.6,0,3.9,0c0.1,0,0.2,0,0.4,0c0.4-0.1,0.7-0.3,0.9-0.8c0-0.2,0-0.3,0-0.5c0-11.4,0-22.8,0-34.2c0-0.2-0.1-0.3-0.2-0.5
				c-6-5-11.9-10-17.8-15c-1.8-1.5-3.6-3.1-5.5-4.6c-0.2-0.2-0.2-0.2-0.4,0c-0.6,0.5-1.3,1.1-1.9,1.6c-7.1,6-14.2,12-21.3,18.1
				c-0.2,0.2-0.3,0.3-0.3,0.6c0,11.3,0,22.6,0,33.9c0,0.1,0,0.2,0,0.3c0,0.1,0,0.2,0,0.3c0.2,0.5,0.5,0.8,1.1,0.8c1.3,0,2.7,0,4,0
				c0.2,0,0.2,0,0.2-0.2c0-4.2,0-8.3,0-12.5c0-0.2,0-0.2-0.2-0.2c-0.6,0-1.2,0-1.8,0c-0.2,0-0.4,0-0.5-0.1c-0.4-0.2-0.7-0.5-0.7-1
				c0-0.9,0-1.8,0-2.7c0-0.5,0-1.1,0-1.6c0-0.3,0.1-0.6,0.3-0.8c0.2-0.3,0.5-0.3,0.9-0.3c0.6,0,1.2,0,1.8,0c0.3,0,0.2,0,0.2-0.2
				c0-1.2,0-2.3,0-3.5c0-1.8,0-3.5,0-5.3c0-0.9,0-1.8,0-2.7c0-0.3,0.1-0.6,0.3-0.8c0.1-0.1,0.2-0.2,0.2-0.2c0.6-0.6,1.2-1.2,1.8-1.7
				c0.1-0.1,0.1-0.1,0.1-0.3c-0.2-0.5-0.1-0.9,0.3-1.3c1-1,1.9-1.9,2.9-2.9c0.5-0.5,1.2-0.5,1.7,0c0.3,0.3,0.7,0.7,1,1
				c0.1,0.1,0.2,0.1,0.3,0.1c0.4,0,0.8,0,1.2,0c0.4,0,0.7,0.1,0.9,0.4c0.5,0.5,0.9,0.9,1.4,1.4c0.5,0.5,0.5,1.1,0,1.6
				c-1.7,1.7-3.3,3.3-5,5c-0.5,0.5-1.1,0.5-1.6,0c-0.5-0.5-1-1-1.5-1.5c-0.2-0.2-0.4-0.5-0.4-0.9c0-0.3,0-0.7,0-1
				c0-0.1,0-0.1-0.1-0.2c-0.5,0.5-0.9,1-1.4,1.4c-0.1,0.1-0.2,0.3-0.2,0.5c0,2.2,0,4.3,0,6.5c0,0.1,0,0.1,0,0.2c0,0.1,0,0.1,0.1,0.1
				c0.1,0,0.1,0,0.2,0c1,0,2,0,3,0c1.5,0,2.8,1.1,3.1,2.7c0.1,0.4,0,0.9,0,1.3c0,0.3,0,0.3,0.3,0.3h13.6c0,0,0,0,0.1,0
				c0.3,0,0.3,0,0.4-0.3c0.1-0.3,0.1-0.5,0.2-0.8c0.1-0.3,0.2-0.7,0.2-1c-0.1-0.1-0.2,0-0.3,0c-0.9,0-1.9,0-2.8,0
				c-1.5,0-3-1.3-3.1-3.2c0-2.9,0-5.8,0-8.7c0-1.1,0.5-1.9,1.3-2.6c0.6-0.4,1.3-0.6,2-0.6c4.2,0,8.4,0,12.7,0c0.1,0,0.2,0,0.3,0
				c0.6,0,1.2,0.2,1.7,0.6c0.9,0.7,1.4,1.6,1.4,2.7c0,1,0,2.1,0,3.1c0,1.8,0,3.6,0,5.5c0,1.9-1.5,3.2-3.1,3.3c-0.9,0-1.8,0-2.7,0
				C80.3,78.1,80.2,78,80.1,78.1 M68,99.6c3.8,0,7.7,0,11.5,0c0.1,0,0.1,0,0.2,0c0.1,0,0.2,0,0.1-0.1c0,0,0-0.1,0-0.1
				c0-2.7,0-5.4,0-8c0-0.3,0-0.3-0.3-0.3c-7.7,0-15.4,0-23.1,0c-0.4,0-0.3,0-0.3,0.3c0,2.7,0,5.3,0,8c0,0.4,0,0.3,0.3,0.3
				C60.3,99.6,64.1,99.6,68,99.6 M68,41.4c0.3,0,0.6,0.2,0.8,0.4c8.8,7.4,17.5,14.8,26.3,22.1c0.4,0.4,0.9,0.8,1.3,1.1
				c0.4,0.3,0.8,0.3,1.2,0.1c0.4-0.2,0.6-0.6,0.6-1.1c0-0.3-0.2-0.6-0.5-0.8c-2.3-1.9-4.6-3.8-6.9-5.7c-7.4-6.2-14.8-12.3-22.1-18.5
				c-0.1-0.1-0.1-0.1-0.2-0.2c-0.4-0.2-0.9-0.2-1.4,0.2c-9.6,8.1-19.3,16.2-28.9,24.2c-0.1,0.1-0.1,0.1-0.2,0.2
				c-0.4,0.4-0.4,1.3,0.2,1.7c0.4,0.3,0.9,0.2,1.4-0.1c8.2-6.9,16.3-13.8,24.5-20.8c1.1-0.9,2.1-1.8,3.2-2.7
				C67.4,41.5,67.7,41.4,68,41.4 M76.6,71.6h4.2c1,0,2.1,0,3.1,0c0.2,0,0.2,0,0.2-0.2c0-0.5,0-1,0-1.5c0-1.2,0-2.4,0-3.6
				c0-0.6-0.5-1.1-1.1-1.1c-0.1,0-0.2,0-0.2,0c-4.1,0-8.3,0-12.4,0c-0.1,0-0.2,0-0.4,0c-0.1,0-0.3,0-0.4,0.1c-0.4,0.2-0.6,0.6-0.6,1
				c0,1.7,0,3.3,0,5c0,0.4-0.1,0.3,0.3,0.3C71.8,71.6,74.2,71.6,76.6,71.6 M68,82.4H49c-0.1,0-0.1,0-0.2,0c-0.2,0-0.2,0-0.2,0.2
				c0,0.5,0,1.1,0,1.6c0,0.4,0,0.4,0.4,0.4c12.7,0,25.4,0,38.1,0c0.1,0,0.1,0,0.2,0c0.1,0,0.2,0,0.2-0.2c0-0.5,0-1.1,0-1.6
				c0-0.4,0.1-0.3-0.3-0.3C80.7,82.4,74.3,82.4,68,82.4 M68,86.7H52.2c0,0-0.1,0-0.1,0c-0.3,0-0.3,0-0.3,0.3c0,0.5,0,1,0,1.5
				c0,0.4-0.1,0.4,0.4,0.4c10.5,0,21.1,0,31.6,0c0,0,0.1,0,0.1,0c0.3,0,0.3,0,0.3-0.3c0-0.5,0-1.1,0-1.6c0-0.4,0.1-0.3-0.3-0.3
				C78.5,86.7,73.2,86.7,68,86.7 M76.6,73.7h-7.2c-0.1,0-0.1,0-0.2,0c-0.1,0-0.2,0-0.2,0.2c0,0.3,0,0.6,0,1c0,0.4,0.3,0.8,0.7,1
				c0.2,0.1,0.4,0.1,0.5,0.1c4.2,0,8.4,0,12.5,0c0.1,0,0.2,0,0.3,0c0.6-0.1,1-0.5,1-1.1c0-0.2,0-0.5,0-0.7c0-0.3,0-0.3-0.3-0.3
				C81.4,73.7,79,73.7,76.6,73.7 M82,95.3v4c0,0.1,0,0.1,0,0.2c0,0.1,0,0.2,0.2,0.2c0.6,0,1.2,0,1.8,0c0.1,0,0.2-0.1,0.2-0.2
				c0-0.1,0-0.1,0-0.2v-7.9c0-0.1,0-0.1,0-0.2c0-0.2-0.1-0.2-0.2-0.2c0,0-0.1,0-0.1,0c-0.5,0-1,0-1.5,0c-0.4,0-0.3,0-0.3,0.3
				c0,0,0,0.1,0,0.1V95.3z M54,95.3c0-1.3,0-2.7,0-4c0-0.3,0-0.3-0.3-0.3c-0.5,0-1,0-1.6,0c-0.3,0-0.3,0-0.3,0.3c0,2.7,0,5.3,0,8
				c0,0,0,0.1,0,0.1c0,0.1,0.1,0.2,0.2,0.2c0.6,0,1.2,0,1.8,0c0.1,0,0.2,0,0.2-0.2c0-0.1,0-0.1,0-0.2V95.3z M59.6,64.9
				c-0.1-0.1-0.2-0.2-0.2-0.3c-0.1-0.1-0.2-0.2-0.4-0.2c-0.4,0-0.8,0-1.2,0c-0.3,0-0.6-0.1-0.8-0.4c-0.2-0.2-0.5-0.5-0.7-0.7
				c-0.5,0.5-1,1-1.6,1.5c0.2,0.2,0.5,0.5,0.7,0.7c0.3,0.2,0.4,0.5,0.4,0.9c0,0.4,0,0.9,0,1.3c0,0.1,0,0.2,0.1,0.2
				c0.1,0.1,0.3,0.3,0.4,0.4C57.3,67.2,58.4,66.1,59.6,64.9 M54,80.2c0.6,0,1.3,0,1.9,0c0.2,0,0.2,0,0.2-0.2c0-0.3,0-0.6,0-0.8
				c0-0.1,0-0.2,0-0.4c-0.2-0.5-0.5-0.8-1.1-0.8c-1,0-2,0-2.9,0c-0.2,0-0.2,0-0.2,0.2c0,0.6,0,1.2,0,1.7c0,0.2,0,0.2,0.2,0.2
				C52.7,80.2,53.3,80.2,54,80.2 M74.7,80.2h3.7c-0.2-0.7-0.3-1.4-0.5-2c0-0.1-0.1-0.1-0.2-0.1c-0.8,0-1.6,0-2.4,0
				c-0.1,0-0.1,0-0.2,0.1c0,0.2-0.1,0.3-0.1,0.5C75,79.2,74.9,79.7,74.7,80.2"/>
		</g>
	</g>
</g>
</svg>
