<?xml version="1.0" encoding="utf-8"?>
<!-- Generator: Adobe Illustrator 25.0.1, SVG Export Plug-In . SVG Version: 6.00 Build 0)  -->
<svg version="1.1" id="Layer_1" xmlns="http://www.w3.org/2000/svg" xmlns:xlink="http://www.w3.org/1999/xlink" x="0px" y="0px"
	 viewBox="0 0 128 128" style="enable-background:new 0 0 128 128;" xml:space="preserve">
<style type="text/css">
	.st0{fill:#F2FAFF;}
	.st1{clip-path:url(#SVGID_2_);}
	.st2{clip-path:url(#SVGID_4_);fill:#5FAFDC;}
	.st3{clip-path:url(#SVGID_6_);}
	.st4{clip-path:url(#SVGID_8_);fill:#5FAFDC;}
	.st5{clip-path:url(#SVGID_10_);}
	.st6{clip-path:url(#SVGID_12_);fill:#5FAFDC;}
	.st7{clip-path:url(#SVGID_14_);}
	.st8{clip-path:url(#SVGID_16_);fill:#5FAFDC;}
	.st9{clip-path:url(#SVGID_18_);}
	.st10{clip-path:url(#SVGID_20_);fill:#5FAFDC;}
	.st11{clip-path:url(#SVGID_22_);}
	.st12{clip-path:url(#SVGID_24_);fill:#5FAFDC;}
	.st13{clip-path:url(#SVGID_26_);}
	.st14{clip-path:url(#SVGID_28_);fill:#5FAFDC;}
	.st15{clip-path:url(#SVGID_30_);}
	.st16{clip-path:url(#SVGID_32_);fill:#5FAFDC;}
	.st17{clip-path:url(#SVGID_34_);}
	.st18{clip-path:url(#SVGID_36_);fill:#5FAFDC;}
	.st19{clip-path:url(#SVGID_38_);}
	.st20{clip-path:url(#SVGID_40_);fill:#5FAFDC;}
	.st21{clip-path:url(#SVGID_42_);}
	.st22{clip-path:url(#SVGID_44_);fill:#5FAFDC;}
	.st23{fill:#5FAFDC;}
	.st24{fill:#38618C;}
	.st25{fill:#5C80BC;}
	.st26{fill:#243556;}
	.st27{fill:#1B2C3A;}
	.st28{clip-path:url(#SVGID_46_);}
	.st29{clip-path:url(#SVGID_48_);fill:none;stroke:#38618C;stroke-width:0.9634;stroke-miterlimit:10;}
	.st30{clip-path:url(#SVGID_48_);fill:#5FAFDC;}
	.st31{clip-path:url(#SVGID_50_);}
	.st32{clip-path:url(#SVGID_52_);fill:#5FAFDC;}
	.st33{clip-path:url(#SVGID_52_);fill:none;stroke:#5FAFDC;stroke-width:1.1666;stroke-miterlimit:10;}
	.st34{clip-path:url(#SVGID_54_);}
	.st35{clip-path:url(#SVGID_56_);fill:#5FAFDC;}
	.st36{clip-path:url(#SVGID_58_);}
	.st37{clip-path:url(#SVGID_60_);fill:#5FAFDC;}
	.st38{fill-rule:evenodd;clip-rule:evenodd;fill:#5FAFDC;}
	.st39{fill:none;stroke:#5FAFDC;stroke-width:2.6;stroke-miterlimit:10;}
	.st40{clip-path:url(#SVGID_62_);}
	.st41{clip-path:url(#SVGID_64_);fill:#5FAFDC;}
	.st42{fill:#5FAFDC;stroke:#5FAFDC;stroke-miterlimit:10;}
	.st43{fill-rule:evenodd;clip-rule:evenodd;fill:#5FAFDC;stroke:#5FAFDC;stroke-miterlimit:10;}
	.st44{fill:none;stroke:#5FAFDC;stroke-miterlimit:10;}
	.st45{clip-path:url(#SVGID_66_);}
	.st46{clip-path:url(#SVGID_68_);fill:#5FAFDC;}
	.st47{clip-path:url(#SVGID_68_);fill:none;stroke:#5FAFDC;stroke-width:5;stroke-miterlimit:10;}
	.st48{opacity:0.83;}
	.st49{opacity:0.98;}
	.st50{fill-rule:evenodd;clip-rule:evenodd;fill:#5FAFDC;stroke:#5FAFDC;stroke-width:0.75;stroke-miterlimit:10;}
</style>
<rect x="24.4" y="26" class="st0" width="50" height="50"/>
<g>
	<g>
		<defs>
			<rect id="SVGID_45_" x="41" y="40" width="62.1" height="65.9"/>
		</defs>
		<clipPath id="SVGID_2_">
			<use xlink:href="#SVGID_45_"  style="overflow:visible;"/>
		</clipPath>
		<g class="st1">
			<defs>
				<rect id="SVGID_47_" x="41" y="40" width="62.2" height="65.9"/>
			</defs>
			<clipPath id="SVGID_4_">
				<use xlink:href="#SVGID_47_"  style="overflow:visible;"/>
			</clipPath>
			<path style="clip-path:url(#SVGID_4_);fill:none;stroke:#38618C;stroke-width:0.9634;stroke-miterlimit:10;" d="M67.4,73.5
				c0,1.5,0,3,0,4.5c0,0,0,0.1,0,0.1c0,0,0,0-0.1,0c-0.1,0-0.2,0-0.3,0c-1,0-2,0-3,0c-2.3,0-4.6,0-7,0c-0.1,0-0.2,0-0.3,0
				c0,0-0.1,0-0.1,0c0,0,0,0,0,0c0,0,0-0.1,0-0.1c0-3,0-6,0-9c0-0.1,0-0.1,0-0.2c0,0,0,0,0.1,0c0,0,0.1,0,0.1,0c0.1,0,0.1,0,0.2,0
				c3.3,0,6.6,0,10,0c0.1,0,0.2,0,0.3,0c0,0,0.1,0,0.1,0c0,0,0,0,0,0c0,0,0,0.1,0,0.1C67.4,70.6,67.4,72.1,67.4,73.5z"/>
			<path class="st2" d="M53.8,47.1c2.6,0,5.3,0,7.9,0c0.3,0,0.3-0.1,0.3,0.5c0,5.6,0,11.2,0,16.9c0,0.1,0,0.3,0,0.4
				c0,0.1,0,0.1-0.1,0.1c-0.1,0-0.1,0-0.2,0c-5.3,0-10.7,0-16,0c-0.3,0-0.2,0-0.2-0.4c0-5.7,0-11.4,0-17.1c0-0.1,0-0.2,0-0.3
				c0-0.1,0-0.1,0.1-0.1c0.1,0,0.1,0,0.2,0C48.5,47.1,51.2,47.1,53.8,47.1"/>
			<path style="clip-path:url(#SVGID_4_);fill:none;stroke:#38618C;stroke-width:0.9634;stroke-miterlimit:10;" d="M101,72.9
				c0,9.6,0,19.2,0,28.8c0,0.3,0,0.6,0,0.9c0,0.1-0.2,0.2-0.4,0.2c-0.5,0-1,0-1.4,0c-5.5,0-10.9,0-16.4,0c-12.6,0-25.2,0-37.8,0
				c-0.5,0-1.1,0-1.6,0c-0.2,0-0.4-0.1-0.4-0.2c0-0.1,0-0.2,0-0.2c0-0.2,0-0.5,0-0.7c0-19.1,0-38.2,0-57.4c0-0.3,0-0.7,0-1
				c0-0.1,0.2-0.2,0.4-0.2c0.1,0,0.3,0,0.4,0c0.4,0,0.8,0,1.1,0c18,0,36,0,54,0c0.5,0,1.1,0,1.6,0c0.2,0,0.4,0.1,0.4,0.2
				c0,0.1,0,0.2,0,0.2c0,0.3,0,0.5,0,0.8C101,53.9,101,63.4,101,72.9z"/>
			<path style="clip-path:url(#SVGID_4_);fill:none;stroke:#38618C;stroke-width:0.9634;stroke-miterlimit:10;" d="M86.9,73.5
				c0,1.5,0,3,0,4.5c0,0,0,0.1,0,0.1c0,0-0.1,0-0.1,0c-0.1,0-0.3,0-0.4,0c-1.6,0-3.2,0-4.8,0c-3.7,0-7.3,0-11,0c-0.2,0-0.3,0-0.5,0
				c-0.1,0-0.1,0-0.1,0c0,0,0,0,0,0c0,0,0-0.1,0-0.1c0-3,0-6,0-9c0-0.1,0-0.1,0-0.2c0,0,0.1,0,0.1,0c0,0,0.1,0,0.1,0
				c0.1,0,0.2,0,0.3,0c5.3,0,10.5,0,15.8,0c0.2,0,0.3,0,0.5,0c0.1,0,0.1,0,0.1,0c0,0,0,0,0,0c0,0,0,0.1,0,0.1
				C86.9,70.6,86.9,72.1,86.9,73.5z"/>
			<path class="st2" d="M93.8,47.1c1.6,0,3.2,0,4.8,0c0.2,0,0.2-0.2,0.2,1.5c0,16.2,0,32.5,0,48.7c0,0.4,0,0.8,0,1.2
				c0,0.2,0,0.3,0,0.3c0,0-0.1,0-0.1,0c-3.2,0-6.4,0-9.6,0c-0.2,0-0.1,0.1-0.1-1.2c0-16.5,0-32.9,0-49.4c0-0.3,0-0.6,0-0.9
				c0-0.2,0-0.3,0-0.3c0,0,0.1,0,0.1,0C90.6,47.1,92.2,47.1,93.8,47.1"/>
			<path class="st2" d="M50.3,68.5c1.5,0,3,0,4.5,0c0.2,0,0.2,0,0.2,0.3c0,3.2,0,6.3,0,9.5c0,0.1,0,0.2,0,0.2c0,0,0,0.1,0,0.1
				c0,0-0.1,0-0.1,0c-3,0-6.1,0-9.1,0c-0.1,0-0.1,0-0.1-0.2c0-3.2,0-6.4,0-9.6c0-0.1,0-0.1,0-0.2c0,0,0-0.1,0-0.1c0,0,0.1,0,0.1,0
				C47.3,68.5,48.8,68.5,50.3,68.5"/>
			<path class="st2" d="M79,91.1c2.5,0,5,0,7.6,0c0.3,0,0.3,0,0.3,0.2c0,2.4,0,4.9,0,7.3c0,0.1,0,0.1,0,0.2c0,0,0,0-0.1,0
				c-0.1,0-0.1,0-0.2,0c-5.1,0-10.2,0-15.3,0c-0.2,0-0.2,0-0.2-0.2c0-2.5,0-4.9,0-7.4c0,0,0-0.1,0-0.1c0,0,0,0,0.1,0
				c0.1,0,0.1,0,0.2,0C73.9,91.1,76.5,91.1,79,91.1"/>
			<path class="st2" d="M75.7,47.1c3.6,0,7.1,0,10.7,0c0.5,0,0.4-0.1,0.4,0.5c0,5.6,0,11.2,0,16.9c0,0.1,0,0.3,0,0.4
				c0,0.1,0,0.1-0.1,0.1c-0.1,0-0.1,0-0.2,0c-7.2,0-14.4,0-21.6,0c-0.3,0-0.3,0-0.3-0.4c0-5.7,0-11.4,0-17.1c0-0.1,0-0.2,0-0.3
				c0-0.1,0-0.1,0.1-0.1c0.1,0,0.2,0,0.3,0C68.6,47.1,72.2,47.1,75.7,47.1"/>
			<path class="st2" d="M79,81c2.5,0,5,0,7.6,0c0.3,0,0.3,0,0.3,0.2c0,2.4,0,4.9,0,7.3c0,0.1,0,0.1,0,0.2c0,0,0,0-0.1,0
				c-0.1,0-0.1,0-0.2,0c-5.1,0-10.2,0-15.3,0c-0.2,0-0.2,0-0.2-0.2c0-2.5,0-4.9,0-7.4c0,0,0-0.1,0-0.1c0,0,0,0,0.1,0
				c0.1,0,0.1,0,0.2,0C73.9,81,76.5,81,79,81"/>
			<path class="st2" d="M56.7,81c3.6,0,7.1,0,10.7,0c0.5,0,0.4-0.1,0.4,0.5c0,5.6,0,11.2,0,16.9c0,0.1,0,0.3,0,0.4
				c0,0.1,0,0.1-0.1,0.1c-0.1,0-0.1,0-0.2,0c-7.2,0-14.4,0-21.6,0c-0.3,0-0.3,0-0.3-0.4c0-5.7,0-11.4,0-17.1c0-0.1,0-0.2,0-0.3
				c0-0.1,0-0.1,0.1-0.1c0.1,0,0.2,0,0.3,0C49.6,81,53.2,81,56.7,81"/>
		</g>
	</g>
</g>
</svg>
