<?xml version="1.0" encoding="utf-8"?>
<!-- Generator: Adobe Illustrator 25.0.1, SVG Export Plug-In . SVG Version: 6.00 Build 0)  -->
<svg version="1.1" id="Layer_1" xmlns="http://www.w3.org/2000/svg" xmlns:xlink="http://www.w3.org/1999/xlink" x="0px" y="0px"
	 viewBox="0 0 128 128" style="enable-background:new 0 0 128 128;" xml:space="preserve">
<style type="text/css">
	.st0{fill:#F2FAFF;}
	.st1{clip-path:url(#SVGID_2_);}
	.st2{clip-path:url(#SVGID_4_);fill:#5FAFDC;}
	.st3{clip-path:url(#SVGID_6_);}
	.st4{clip-path:url(#SVGID_8_);fill:#5FAFDC;}
	.st5{clip-path:url(#SVGID_10_);}
	.st6{clip-path:url(#SVGID_12_);fill:#5FAFDC;}
	.st7{clip-path:url(#SVGID_14_);}
	.st8{clip-path:url(#SVGID_16_);fill:#5FAFDC;}
	.st9{clip-path:url(#SVGID_18_);}
	.st10{clip-path:url(#SVGID_20_);fill:#5FAFDC;}
	.st11{clip-path:url(#SVGID_22_);}
	.st12{clip-path:url(#SVGID_24_);fill:#5FAFDC;}
	.st13{clip-path:url(#SVGID_26_);}
	.st14{clip-path:url(#SVGID_28_);fill:#5FAFDC;}
	.st15{clip-path:url(#SVGID_30_);}
	.st16{clip-path:url(#SVGID_32_);fill:#5FAFDC;}
	.st17{clip-path:url(#SVGID_34_);}
	.st18{clip-path:url(#SVGID_36_);fill:#5FAFDC;}
	.st19{clip-path:url(#SVGID_38_);}
	.st20{clip-path:url(#SVGID_40_);fill:#5FAFDC;}
	.st21{clip-path:url(#SVGID_42_);}
	.st22{clip-path:url(#SVGID_44_);fill:#5FAFDC;}
	.st23{fill:#5FAFDC;}
	.st24{fill:#38618C;}
	.st25{fill:#5C80BC;}
	.st26{fill:#243556;}
	.st27{fill:#1B2C3A;}
	.st28{clip-path:url(#SVGID_46_);}
	.st29{clip-path:url(#SVGID_48_);fill:none;stroke:#38618C;stroke-width:0.9634;stroke-miterlimit:10;}
	.st30{clip-path:url(#SVGID_48_);fill:#5FAFDC;}
	.st31{clip-path:url(#SVGID_50_);}
	.st32{clip-path:url(#SVGID_52_);fill:#5FAFDC;}
	.st33{clip-path:url(#SVGID_52_);fill:none;stroke:#5FAFDC;stroke-width:1.1666;stroke-miterlimit:10;}
	.st34{clip-path:url(#SVGID_54_);}
	.st35{clip-path:url(#SVGID_56_);fill:#5FAFDC;}
	.st36{clip-path:url(#SVGID_58_);}
	.st37{clip-path:url(#SVGID_60_);fill:#5FAFDC;}
	.st38{fill-rule:evenodd;clip-rule:evenodd;fill:#5FAFDC;}
	.st39{fill:none;stroke:#5FAFDC;stroke-width:2.6;stroke-miterlimit:10;}
	.st40{clip-path:url(#SVGID_62_);}
	.st41{clip-path:url(#SVGID_64_);fill:#5FAFDC;}
	.st42{fill:#5FAFDC;stroke:#5FAFDC;stroke-miterlimit:10;}
	.st43{fill-rule:evenodd;clip-rule:evenodd;fill:#5FAFDC;stroke:#5FAFDC;stroke-miterlimit:10;}
	.st44{fill:none;stroke:#5FAFDC;stroke-miterlimit:10;}
	.st45{clip-path:url(#SVGID_66_);}
	.st46{clip-path:url(#SVGID_68_);fill:#5FAFDC;}
	.st47{clip-path:url(#SVGID_68_);fill:none;stroke:#5FAFDC;stroke-width:5;stroke-miterlimit:10;}
	.st48{opacity:0.83;}
	.st49{opacity:0.98;}
	.st50{fill-rule:evenodd;clip-rule:evenodd;fill:#5FAFDC;stroke:#5FAFDC;stroke-width:0.75;stroke-miterlimit:10;}
</style>
<rect x="24.4" y="26" class="st0" width="50" height="50"/>
<g>
	<g>
		<defs>
			<rect id="SVGID_53_" x="37" y="40" width="68.5" height="67.8"/>
		</defs>
		<clipPath id="SVGID_2_">
			<use xlink:href="#SVGID_53_"  style="overflow:visible;"/>
		</clipPath>
		<g class="st1">
			<defs>
				<rect id="SVGID_55_" x="37" y="40" width="68.5" height="67.8"/>
			</defs>
			<clipPath id="SVGID_4_">
				<use xlink:href="#SVGID_55_"  style="overflow:visible;"/>
			</clipPath>
			<path class="st2" d="M47.7,43.6c3,0,5.5,2,6.3,4.9c0.1,0.3,0.1,0.3,0.4,0.3c3.5,0,6.9,0,10.4,0c0.3,0,0.3,0,0.4-0.3
				c0.7-2.6,2.8-4.5,5.5-4.8c3.4-0.4,6.3,1.8,7.1,4.8c0,0.1,0,0.1,0,0.2c0,0.1,0.1,0.1,0.2,0.1c0.1,0,0.2,0,0.2,0
				c3.4,0,6.8,0,10.3,0c0,0,0.1,0,0.1,0c0.2,0,0.2,0,0.3-0.2c0.1-0.6,0.4-1.2,0.7-1.7c1.3-2.1,3.2-3.2,5.7-3.2c3,0,5.7,2.1,6.3,5.3
				c0.5,2.8-0.9,5.6-3.3,6.9c-2.8,1.5-6.2,0.8-8.2-1.8c-0.5-0.7-0.9-1.5-1.1-2.3c-0.1-0.3-0.1-0.3-0.4-0.3c-3.5,0-6.9,0-10.4,0
				c-0.3,0-0.3,0-0.4,0.3c-0.6,2.5-2.8,4.4-5.3,4.8c-3,0.4-5.9-1.2-7-4c-0.1-0.3-0.2-0.6-0.3-0.9c0-0.1-0.1-0.2-0.2-0.2
				c-0.1,0-0.1,0-0.2,0H54.4c0,0-0.1,0-0.1,0c-0.2,0-0.2,0-0.3,0.2c-0.1,0.6-0.3,1.1-0.6,1.6c-1.1,1.9-2.7,3-4.9,3.3
				c-3.5,0.4-6.6-2-7.1-5.5c-0.5-3.3,1.7-6.4,4.9-7.2C46.7,43.7,47.2,43.6,47.7,43.6 M95.2,53.9c2.2-0.1,3.9-1.9,3.8-4.1
				c-0.1-2.1-2-3.8-4.1-3.6c-2.1,0.1-3.7,2-3.6,4C91.3,52.4,93.1,54,95.2,53.9 M43.8,50.1c0,2.1,1.7,3.9,3.9,3.9
				c2.1,0,3.8-1.8,3.9-3.9c0-2.1-1.8-3.9-3.9-3.9C45.5,46.2,43.8,47.9,43.8,50.1 M71.4,46.2c-2.1,0-3.9,1.7-3.9,3.8
				c0,2.1,1.7,3.9,3.9,3.9c2.2,0,3.9-1.8,3.9-3.9C75.2,47.8,73.4,46.2,71.4,46.2"/>
			<path class="st2" d="M47.9,80.2c-3.3,0-6.1-2.3-6.6-5.5c-0.5-3.4,1.8-6.6,5.1-7.3c3.4-0.7,6.7,1.4,7.6,4.8
				c0.1,0.3,0.1,0.3,0.3,0.3c3.5,0,7,0,10.4,0c0.3,0,0.3,0,0.4-0.3c0.8-2.7,2.5-4.3,5.2-4.8c3.3-0.6,6.5,1.6,7.3,4.8
				c0,0,0,0.1,0,0.1c0,0.1,0.1,0.2,0.2,0.2c0.1,0,0.1,0,0.2,0h10.2c0,0,0.1,0,0.1,0c0.3,0,0.3,0,0.3-0.3c0.3-1.4,1-2.5,2.1-3.4
				c1.4-1.2,3-1.7,4.8-1.5c2.8,0.3,5.1,2.4,5.6,5.1c0.5,2.5-0.3,4.7-2.3,6.3c-2.9,2.4-7.1,1.8-9.3-1.2c-0.5-0.7-0.8-1.4-1-2.2
				C88.7,75,88.7,75,88.4,75c-3.5,0-7,0-10.4,0c-0.3,0-0.3-0.1-0.4,0.3c-0.7,2.6-2.9,4.5-5.5,4.8c-3.2,0.4-6.2-1.7-7-4.7
				C65,75,65,75,64.7,75c-3.4,0-6.8,0-10.2,0c-0.1,0-0.1,0-0.2,0c-0.2,0-0.3,0.1-0.3,0.2c-0.6,2.2-1.9,3.7-4,4.5
				C49.3,80.1,48.5,80.2,47.9,80.2 M95,77.6c2.2,0,3.9-1.7,3.9-3.9c0-2.2-1.7-3.9-3.9-3.9c-2.2,0-3.9,1.8-3.8,3.9
				C91.2,75.9,93,77.6,95,77.6 M43.8,73.7c0,2.1,1.7,3.9,3.8,3.9c2.1,0,3.9-1.7,3.9-3.8c0-2.1-1.7-3.9-3.8-3.9
				C45.6,69.8,43.9,71.6,43.8,73.7 M71.4,77.6c2,0,3.8-1.6,3.9-3.9c0-2.1-1.7-3.9-3.9-3.9c-2.1,0-3.9,1.8-3.9,3.9
				C67.5,75.9,69.3,77.6,71.4,77.6"/>
			<path class="st2" d="M101.5,97.5c0,3.1-2.3,5.8-5.4,6.4c-3.3,0.5-6.5-1.5-7.3-4.8c0-0.1,0-0.1-0.1-0.2c0-0.1-0.1-0.1-0.2-0.1
				c-0.1,0-0.2,0-0.2,0c-3.4,0-6.8,0-10.2,0c0,0,0,0-0.1,0c-0.3,0-0.3,0-0.4,0.3c-0.4,1.7-1.4,3-2.9,3.9c-3.6,2.3-8.5,0.4-9.6-3.8
				c-0.1-0.4-0.1-0.4-0.6-0.4H54.5c-0.1,0-0.1,0-0.2,0c-0.2,0-0.3,0.1-0.3,0.3c-0.3,1.2-0.9,2.3-1.8,3.2c-1.2,1.2-2.7,1.8-4.4,1.8
				c-3,0-5.6-2-6.3-4.9c-0.9-3.6,1.5-7.2,5.1-7.9c3.3-0.6,6.6,1.5,7.5,4.8c0.1,0.3,0.1,0.3,0.4,0.3c3.5,0,6.9,0,10.4,0
				c0.3,0,0.3,0,0.4-0.3c0.7-2.6,2.8-4.5,5.5-4.8c3.4-0.4,6.3,1.8,7,4.8c0.1,0.4,0,0.3,0.4,0.3c3.5,0,6.9,0,10.4,0
				c0.3,0,0.3,0,0.4-0.3c0.7-2.6,2.9-4.5,5.5-4.8c3.7-0.4,6.7,2.3,7.1,5.5C101.5,96.8,101.5,97.1,101.5,97.5 M51.6,97.4
				c0-2.1-1.7-3.9-3.8-3.9c-2.2,0-3.9,1.7-3.9,3.9c0,2.2,1.7,3.9,3.9,3.9C49.8,101.3,51.6,99.5,51.6,97.4 M95.1,93.6
				c-2.1,0-3.9,1.6-3.9,3.8c0,2,1.6,3.9,3.9,3.9c2.1,0,3.9-1.7,3.9-3.8C98.9,95.3,97.2,93.6,95.1,93.6 M71.4,93.6
				c-2.1,0-3.9,1.7-3.9,3.9c0,2.1,1.8,3.9,3.9,3.9c2.2,0,3.9-1.8,3.9-3.9C75.3,95.2,73.4,93.5,71.4,93.6"/>
			<path class="st2" d="M80,66.4c0,0.7-0.6,1.3-1.3,1.3c-0.7,0-1.3-0.6-1.3-1.3c0-0.7,0.6-1.3,1.3-1.3C79.4,65.1,80,65.7,80,66.4"/>
			<path class="st2" d="M86.3,60.1c0,0.7-0.6,1.3-1.3,1.3c-0.7,0-1.3-0.6-1.3-1.3c0-0.7,0.6-1.3,1.3-1.3
				C85.8,58.8,86.3,59.4,86.3,60.1"/>
			<path class="st2" d="M61.4,86.1c0.7,0,1.3,0.6,1.3,1.3c0,0.7-0.6,1.3-1.3,1.3c-0.7,0-1.3-0.6-1.3-1.3
				C60.1,86.6,60.6,86.1,61.4,86.1"/>
			<path class="st2" d="M88.2,55.7c0.7,0,1.3,0.6,1.3,1.3c0,0.7-0.6,1.3-1.3,1.3c-0.7,0-1.3-0.6-1.3-1.3
				C86.9,56.2,87.5,55.7,88.2,55.7"/>
			<path class="st2" d="M55,79.8c0.7,0,1.3,0.6,1.3,1.3c0,0.7-0.6,1.3-1.3,1.3c-0.7,0-1.3-0.6-1.3-1.3C53.7,80.3,54.3,79.8,55,79.8"
				/>
			<path class="st2" d="M81.9,62c0.7,0,1.3,0.6,1.3,1.3c0,0.7-0.6,1.3-1.3,1.3c-0.7,0-1.3-0.6-1.3-1.3C80.6,62.6,81.2,62,81.9,62"/>
			<path class="st2" d="M65.8,90.5c0,0.7-0.6,1.3-1.3,1.3c-0.7,0-1.3-0.6-1.3-1.3c0-0.7,0.6-1.3,1.3-1.3
				C65.2,89.2,65.8,89.8,65.8,90.5"/>
			<path class="st2" d="M59.5,84.2c0,0.7-0.6,1.3-1.3,1.3c-0.7,0-1.3-0.6-1.3-1.3c0-0.7,0.6-1.3,1.3-1.3
				C58.9,82.9,59.5,83.5,59.5,84.2"/>
			<path class="st2" d="M71.4,84.9c-0.7,0-1.3-0.6-1.3-1.3c0-0.7,0.6-1.3,1.3-1.3c0.7,0,1.3,0.6,1.3,1.3
				C72.7,84.4,72.1,84.9,71.4,84.9"/>
			<path class="st2" d="M71.4,89.1c-0.7,0-1.3-0.6-1.3-1.3c0-0.7,0.6-1.3,1.3-1.3c0.7,0,1.3,0.6,1.3,1.3
				C72.7,88.5,72.1,89.1,71.4,89.1"/>
		</g>
	</g>
</g>
</svg>
