<?xml version="1.0" encoding="utf-8"?>
<!-- Generator: Adobe Illustrator 25.0.1, SVG Export Plug-In . SVG Version: 6.00 Build 0)  -->
<svg version="1.1" id="Layer_1" xmlns="http://www.w3.org/2000/svg" xmlns:xlink="http://www.w3.org/1999/xlink" x="0px" y="0px"
	 viewBox="0 0 128 128" style="enable-background:new 0 0 128 128;" xml:space="preserve">
<style type="text/css">
	.st0{fill:#F2FAFF;}
	.st1{clip-path:url(#SVGID_2_);}
	.st2{clip-path:url(#SVGID_4_);fill:#5FAFDC;}
	.st3{clip-path:url(#SVGID_6_);}
	.st4{clip-path:url(#SVGID_8_);fill:#5FAFDC;}
	.st5{clip-path:url(#SVGID_10_);}
	.st6{clip-path:url(#SVGID_12_);fill:#5FAFDC;}
	.st7{clip-path:url(#SVGID_14_);}
	.st8{clip-path:url(#SVGID_16_);fill:#5FAFDC;}
	.st9{clip-path:url(#SVGID_18_);}
	.st10{clip-path:url(#SVGID_20_);fill:#5FAFDC;}
	.st11{clip-path:url(#SVGID_22_);}
	.st12{clip-path:url(#SVGID_24_);fill:#5FAFDC;}
	.st13{clip-path:url(#SVGID_26_);}
	.st14{clip-path:url(#SVGID_28_);fill:#5FAFDC;}
	.st15{clip-path:url(#SVGID_30_);}
	.st16{clip-path:url(#SVGID_32_);fill:#5FAFDC;}
	.st17{clip-path:url(#SVGID_34_);}
	.st18{clip-path:url(#SVGID_36_);fill:#5FAFDC;}
	.st19{clip-path:url(#SVGID_38_);}
	.st20{clip-path:url(#SVGID_40_);fill:#5FAFDC;}
	.st21{clip-path:url(#SVGID_42_);}
	.st22{clip-path:url(#SVGID_44_);fill:#5FAFDC;}
	.st23{fill:#5FAFDC;}
	.st24{fill:#38618C;}
	.st25{fill:#5C80BC;}
	.st26{fill:#243556;}
	.st27{fill:#1B2C3A;}
	.st28{clip-path:url(#SVGID_46_);}
	.st29{clip-path:url(#SVGID_48_);fill:none;stroke:#38618C;stroke-width:0.9634;stroke-miterlimit:10;}
	.st30{clip-path:url(#SVGID_48_);fill:#5FAFDC;}
	.st31{clip-path:url(#SVGID_50_);}
	.st32{clip-path:url(#SVGID_52_);fill:#5FAFDC;}
	.st33{clip-path:url(#SVGID_52_);fill:none;stroke:#5FAFDC;stroke-width:1.1666;stroke-miterlimit:10;}
	.st34{clip-path:url(#SVGID_54_);}
	.st35{clip-path:url(#SVGID_56_);fill:#5FAFDC;}
	.st36{clip-path:url(#SVGID_58_);}
	.st37{clip-path:url(#SVGID_60_);fill:#5FAFDC;}
	.st38{fill-rule:evenodd;clip-rule:evenodd;fill:#5FAFDC;}
	.st39{fill:none;stroke:#5FAFDC;stroke-width:2.6;stroke-miterlimit:10;}
	.st40{clip-path:url(#SVGID_62_);}
	.st41{clip-path:url(#SVGID_64_);fill:#5FAFDC;}
	.st42{fill:#5FAFDC;stroke:#5FAFDC;stroke-miterlimit:10;}
	.st43{fill-rule:evenodd;clip-rule:evenodd;fill:#5FAFDC;stroke:#5FAFDC;stroke-miterlimit:10;}
	.st44{fill:none;stroke:#5FAFDC;stroke-miterlimit:10;}
	.st45{clip-path:url(#SVGID_66_);}
	.st46{clip-path:url(#SVGID_68_);fill:#5FAFDC;}
	.st47{clip-path:url(#SVGID_68_);fill:none;stroke:#5FAFDC;stroke-width:5;stroke-miterlimit:10;}
	.st48{opacity:0.83;}
	.st49{opacity:0.98;}
	.st50{fill-rule:evenodd;clip-rule:evenodd;fill:#5FAFDC;stroke:#5FAFDC;stroke-width:0.75;stroke-miterlimit:10;}
</style>
<rect x="24.4" y="26" class="st0" width="50" height="50"/>
<g>
	<g>
		<defs>
			<rect id="SVGID_21_" x="30" y="37" width="74" height="66.9"/>
		</defs>
		<clipPath id="SVGID_2_">
			<use xlink:href="#SVGID_21_"  style="overflow:visible;"/>
		</clipPath>
		<g class="st1">
			<defs>
				<rect id="SVGID_23_" x="30" y="37" width="74" height="66.9"/>
			</defs>
			<clipPath id="SVGID_4_">
				<use xlink:href="#SVGID_23_"  style="overflow:visible;"/>
			</clipPath>
			<path class="st2" d="M67.5,100.5c-10.7,0-21.3,0-32,0c-0.1,0-0.2,0-0.3,0c-0.6,0-1.1-0.5-1.1-1.1c0-3.2,0-6.4,0-9.6
				c0-0.6,0.4-1,1-1.1c0.2,0,0.3,0,0.5,0c0.8,0,1.6,0,2.4,0c0.2,0,0.2,0,0.2-0.2c0-0.1,0-0.1,0-0.2c0-11.9,0-23.7,0-35.6
				c0-0.5,0.2-0.8,0.6-1.1c0.2-0.1,0.4-0.1,0.6-0.1c1.3,0,2.7,0,4,0c1.5,0,3.1,0,4.6,0c0.2,0,0.3-0.1,0.5-0.3
				c2.7-4.4,6.4-7.5,11.2-9.3c1.7-0.7,3.5-1.1,5.4-1.3c1.5-0.2,3-0.2,4.5,0c7.1,0.6,13.4,4.7,17,10.7c0.1,0.2,0.2,0.2,0.4,0.2
				c2.9,0,5.7,0,8.6,0c0.2,0,0.3,0,0.5,0c0.5,0.1,0.8,0.5,0.8,1c0,0.1,0,0.1,0,0.2c0,11.9,0,23.7,0,35.6c0,0.4,0,0.4,0.4,0.4
				c0.8,0,1.7,0,2.5,0c0.4,0,0.7,0.1,1,0.5c0.1,0.2,0.2,0.4,0.2,0.6c0,3.2,0,6.4,0,9.6c0,0.6-0.5,1.1-1.1,1.1c-0.1,0-0.2,0-0.3,0
				C88.9,100.5,78.2,100.5,67.5,100.5 M77.2,80.4c0.2,0,0.2-0.1,0.3-0.1c5.6-3.2,9.6-9.1,10.1-16.1c0.1-1.8,0-3.6-0.3-5.4
				c-1-4.7-3.4-8.7-7.1-11.7c-3.2-2.6-6.9-4.1-11.1-4.4c-1.9-0.2-3.9,0-5.8,0.4c-3.9,0.9-7.3,2.7-10.1,5.5
				c-3.6,3.7-5.5,8.1-5.8,13.3c-0.1,1.9,0.1,3.8,0.6,5.7c1.4,5.7,4.7,10,9.8,12.8c0.1,0,0.1,0.1,0.2,0c0-0.1,0-0.2,0-0.2
				c-0.1-0.7-0.3-1.5-0.4-2.2c-0.3-1.5-0.5-3.1-0.8-4.6c-0.2-1.4-0.5-2.9-0.7-4.3c-0.2-0.9-0.3-1.8-0.5-2.7
				c-0.1-0.5,0.4-1.1,0.9-1.2c0.4,0,0.7-0.1,1.1-0.1c1.1-0.1,2.1-0.2,3.2-0.3c1.1-0.1,2.2-0.2,3.4-0.3c0.9-0.1,1.8-0.2,2.6-0.3
				c0.4,0,0.7-0.1,1.1-0.1c0.9,0.1,1.7,0.2,2.6,0.3c1,0.1,2.1,0.2,3.1,0.3c1.1,0.1,2.2,0.2,3.3,0.3c0.5,0.1,1,0.1,1.5,0.2
				c0.7,0.1,1.1,0.7,1,1.3c-0.2,1.2-0.4,2.5-0.6,3.7c-0.2,1.5-0.5,3-0.7,4.5c-0.2,1.5-0.5,2.9-0.7,4.4
				C77.3,79.4,77.3,79.8,77.2,80.4 M87.8,53.6c0,0.1,0.1,0.2,0.1,0.3c1.2,2.8,1.8,5.7,1.9,8.7c0,2-0.3,4.1-0.8,6
				C86.6,77.5,78.7,84.6,68.5,85c-1.9,0.1-3.9-0.1-5.8-0.5c-5.4-1.2-9.8-4-13.1-8.4c-2.5-3.3-3.9-7-4.3-11c-0.2-1.8-0.2-3.5,0.1-5.3
				c0.3-2,0.8-4,1.6-5.9c0-0.1,0.1-0.1,0.1-0.3h-0.2c-2.1,0-4.2,0-6.3,0c-0.3,0-0.3,0-0.3,0.3c0,0,0,0,0,0.1c0,11.5,0,22.9,0,34.4
				c0,0.4-0.1,0.3,0.3,0.3c17.9,0,35.7,0,53.6,0c0.4,0,0.3,0,0.3-0.4c0-11.5,0-22.9,0-34.4c0-0.1,0-0.1,0-0.2c0-0.2,0-0.2-0.2-0.2
				c0,0-0.1,0-0.1,0c-2.1,0-4.1,0-6.2,0C88,53.6,87.9,53.6,87.8,53.6 M67.6,98.3h30.9c0.1,0,0.1,0,0.2,0c0.1,0,0.2,0,0.2-0.2
				c0-0.1,0-0.1,0-0.2v-5.5c0-0.5,0-1,0-1.5c0-0.1,0-0.2-0.2-0.2c-0.1,0-0.1,0-0.2,0H94c-4.5,0-8.9,0-13.4,0c-0.3,0-0.3,0-0.3,0.3
				c0,0.9,0,1.8,0,2.7c0,0.6-0.4,1.1-1,1.1c-0.1,0-0.2,0-0.3,0c-7.6,0-15.2,0-22.8,0c-0.1,0-0.2,0-0.3,0c-0.7,0-1.1-0.5-1.1-1.2
				c0-0.9,0-1.7,0-2.6c0-0.4,0-0.4-0.4-0.4c-6,0-11.9,0-17.9,0c0,0-0.1,0-0.1,0c-0.1,0-0.2,0-0.2,0.2c0,0.1,0,0.1,0,0.2
				c0,2.2,0,4.5,0,6.7c0,0.4,0,0.4,0.4,0.4C46.9,98.3,57.2,98.3,67.6,98.3 M67.8,82.8c0.6,0,1.4,0,2.2-0.1c1.6-0.2,3.2-0.6,4.7-1.1
				c0.2-0.1,0.2-0.1,0.2-0.3c0.2-1.2,0.4-2.5,0.6-3.7c0.3-1.6,0.5-3.2,0.8-4.7c0.2-1.5,0.5-2.9,0.7-4.4c0.1-0.4,0.1-0.8,0.2-1.2
				c0-0.1,0-0.2-0.2-0.2c-0.1,0-0.2,0-0.2,0c-0.5,0-1-0.1-1.5-0.1c-1.1-0.1-2.2-0.2-3.3-0.3c-1.1-0.1-2.2-0.2-3.3-0.3
				c-0.5,0-1-0.1-1.5-0.1c-0.5,0.1-1.1,0.1-1.6,0.2c-0.9,0.1-1.7,0.2-2.6,0.3c-1.1,0.1-2.3,0.2-3.4,0.3c-0.5,0-1,0.1-1.5,0.1
				c-0.1,0-0.2,0-0.1,0.2c0.1,0.3,0.1,0.5,0.1,0.8c0.2,1.5,0.5,2.9,0.7,4.4c0.2,1.5,0.5,2.9,0.7,4.4c0.2,1.5,0.5,2.9,0.7,4.4
				c0,0.2,0.1,0.3,0.3,0.4C62.9,82.4,65.2,82.8,67.8,82.8 M67.6,90.8H57.3c-0.1,0-0.1,0-0.2,0c-0.1,0-0.2,0-0.2,0.2
				c0,0.5,0,0.9,0,1.4c0,0.4,0,0.4,0.4,0.4h20.5c0.1,0,0.1,0,0.2,0c0.2,0,0.2,0,0.2-0.2c0-0.5,0-0.9,0-1.4c0-0.4,0-0.3-0.3-0.3
				C74.4,90.8,71,90.8,67.6,90.8"/>
			<path class="st2" d="M74.8,54.6c0,3.9-3.2,7.3-7.3,7.3c-3.9,0-7.2-3.2-7.3-7.3c0-4,3.2-7.3,7.3-7.3
				C71.5,47.3,74.8,50.6,74.8,54.6 M67.5,59.6c2.8,0,5.1-2.3,5.1-5.1c0-2.7-2.2-5.1-5.1-5.1c-2.9,0-5.1,2.4-5.1,5.1
				C62.4,57.3,64.7,59.6,67.5,59.6"/>
		</g>
	</g>
</g>
</svg>
