<svg id="Layer_1" data-name="Layer 1" xmlns="http://www.w3.org/2000/svg" viewBox="0 0 128 128"><defs><style>.cls-1{fill:#f2faff;}.cls-2{fill:#5fafdc;}</style></defs><rect class="cls-1" x="24.58" y="22.15" width="50" height="50"/><path class="cls-2" d="M70,37a1.17,1.17,0,0,0-1.09.77l-2.32,5.57-6,.39A1.28,1.28,0,0,0,59.39,45a1.25,1.25,0,0,0,.39.85l4.64,3.87L63,55.63a1.24,1.24,0,0,0,.85,1.47,1.28,1.28,0,0,0,.93-.16l5.1-3.17L74.94,57a1.25,1.25,0,0,0,1.7-.39,1.34,1.34,0,0,0,.15-.93l-1.47-5.87L80,46a1.23,1.23,0,0,0,.16-1.7,1.82,1.82,0,0,0-.85-.46l-6-.47L71,37.69C71,37.3,70.53,37,70,37Zm0,4.49L71.38,45a1.17,1.17,0,0,0,1,.77l3.79.31-2.86,2.4a1.09,1.09,0,0,0-.38,1.23l.92,3.71-3.17-2a1.33,1.33,0,0,0-1.31,0l-3.25,2,.93-3.63a1.23,1.23,0,0,0-.39-1.24L63.8,46l3.79-.23a1.08,1.08,0,0,0,1-.78ZM46.4,52h-.15a1.19,1.19,0,0,0-1,.77L43,58.34l-6,.39A1.27,1.27,0,0,0,35.81,60a1.06,1.06,0,0,0,.46.85l4.64,3.87-1.47,5.88a1.24,1.24,0,0,0,.85,1.46,1.34,1.34,0,0,0,.93-.15l5.11-3.17L51.43,72a1.26,1.26,0,0,0,1.7-.39,1.34,1.34,0,0,0,.15-.93l-1.46-5.87L56.46,61a1.15,1.15,0,0,0,.15-1.7,1.88,1.88,0,0,0-.85-.47l-6-.46L47.49,52.7A1.07,1.07,0,0,0,46.4,52Zm46.71,0H93a1.17,1.17,0,0,0-1,.77l-2.24,5.57-6,.39A1.27,1.27,0,0,0,82.51,60a1.07,1.07,0,0,0,.47.85l4.64,3.87-1.47,5.88A1.22,1.22,0,0,0,87,72.1a1.29,1.29,0,0,0,.93-.15L93,68.78,98.13,72a1.26,1.26,0,0,0,1.7-.39,1.3,1.3,0,0,0,.16-.93l-1.47-5.87L103.16,61a1.14,1.14,0,0,0,.15-1.7,1.88,1.88,0,0,0-.85-.47l-6-.46L94.19,52.7A1.06,1.06,0,0,0,93.11,52ZM46.4,56.71l1.39,3.56a1.2,1.2,0,0,0,1,.77l3.79.31-2.94,2.4A1.1,1.1,0,0,0,49.26,65l.93,3.64-3.17-2a1.28,1.28,0,0,0-1.31,0l-3.17,1.93.92-3.63a1.24,1.24,0,0,0-.38-1.24l-2.86-2.4L44,61a1.25,1.25,0,0,0,1.08-.77Zm46.71,0,1.39,3.56a1.17,1.17,0,0,0,1,.77l3.79.31-2.93,2.4A1.08,1.08,0,0,0,96,65l.93,3.64-3.17-2.09a1.35,1.35,0,0,0-1.32,0l-3.17,2,.93-3.63a1.23,1.23,0,0,0-.39-1.24l-2.86-2.4L90.71,61a1.08,1.08,0,0,0,1-.77Zm-23,8.89a8.51,8.51,0,1,0,8.51,8.51A8.64,8.64,0,0,0,70.06,65.6Zm0,2.48a6.11,6.11,0,1,1-6.1,6.1A6.06,6.06,0,0,1,70.06,68.08ZM70.5,87a14.47,14.47,0,0,0-7.93,2.17A7.12,7.12,0,0,0,59,95v8.81A1.23,1.23,0,0,0,60.24,105H80.76A1.22,1.22,0,0,0,82,103.76h0V95a7.12,7.12,0,0,0-3.57-5.8A15.09,15.09,0,0,0,70.5,87ZM70,88.85a11.92,11.92,0,0,1,6.54,1.78C78.15,91.72,79,93,79,94.42V102H61V94.42c0-1.39.85-2.7,2.46-3.79A11.72,11.72,0,0,1,70,88.85Z"/></svg>