<svg id="Layer_1" data-name="Layer 1" xmlns="http://www.w3.org/2000/svg" viewBox="0 0 128 128"><defs><style>.cls-1{fill:#f2faff;}.cls-2{fill:none;stroke:#5fafdc;stroke-miterlimit:10;stroke-width:2.6px;}</style></defs><rect class="cls-1" x="24.58" y="22.15" width="50" height="50"/><path class="cls-2" d="M97.45,50.44a1.21,1.21,0,0,0-1.11-.15,13.62,13.62,0,0,1-4.5.75A13.28,13.28,0,0,1,78.49,40.43a1.17,1.17,0,0,0-1.18-1H66.88a1.17,1.17,0,0,0-1.18,1,13.73,13.73,0,0,1-17.85,9.86,1.19,1.19,0,0,0-1.1.15,1.27,1.27,0,0,0-.56,1V80c-.08,10.83,24.25,21.44,25.27,21.89A1.34,1.34,0,0,0,72,102a1.71,1.71,0,0,0,.55-.07C73.6,101.48,98,90.87,98,80V51.41A1.59,1.59,0,0,0,97.45,50.44Zm-2,29.6c0,7.57-16.42,16.47-23.45,19.59-7-3.12-23.46-12-23.46-19.59V53a15.76,15.76,0,0,0,3.71.44c7.51,0,13.9-4.82,15.56-11.57h8.29c1.66,6.75,8.14,11.57,15.56,11.57A16.14,16.14,0,0,0,95.39,53L95.47,80Z"/><path class="cls-2" d="M82.36,57a1.27,1.27,0,0,0-1.66.59l-11.53,24L63,75.74a1.28,1.28,0,0,0-1.73,0,1.1,1.1,0,0,0,0,1.63l7.42,7a1.28,1.28,0,0,0,.87.38h.24a1.12,1.12,0,0,0,.86-.67L83,58.53A1.12,1.12,0,0,0,82.36,57Z"/></svg>