<svg id="Layer_1" data-name="Layer 1" xmlns="http://www.w3.org/2000/svg" viewBox="0 0 128 128"><defs><style>.cls-1{fill:#f2faff;}.cls-2{fill:#5fafdc;}</style></defs><rect class="cls-1" x="24.58" y="22.15" width="50" height="50"/><path class="cls-2" d="M97.8,77.16A6.56,6.56,0,0,0,93.5,76a.65.65,0,0,0-.6.6l-.3,7a.27.27,0,0,0,.3.3c.1,0,.2,0,.2-.1l4.9-5.7c.2-.2.1-.6-.2-.9Z"/><path class="cls-2" d="M38.7,71.56c-.1.2-.2.3-.4.2,0-.2.1-.4.1-.7h0c.3.1.4.3.3.5Z"/><path class="cls-2" d="M110.4,93.56,98.7,80.46a.35.35,0,0,0-.5.5h0l10.4,11.7-7.6-2.6L98,89l-7-2.5-2.5-.7c-2.9-1.6-.3-10.5-.2-10.8-2.2,2-2.9,5.7-2.9,5.7-1.3-4-3.7-4.1-3.7-4.1,1.5,1.6,2.6,7.9,2.6,7.9a121.82,121.82,0,0,0-15.8-4,27.66,27.66,0,0,0-5-.1v-7.2H89.9a2.11,2.11,0,0,1,1.3.5l.3.4a.37.37,0,0,0,.3.1c.1,0,.1,0,.2-.1a.45.45,0,0,0,0-.5l-.3-.4a2.5,2.5,0,0,0-1.8-.8H63.6v-2.8a9.21,9.21,0,0,0,8.2-9.2c0-5.1-4.1-18.9-9.2-18.9s-9.2,13.8-9.2,18.9a9.26,9.26,0,0,0,8.4,9.3v2.8H49.3c-.6-3.7-2.8-10-5.5-10-2.4,0-4.4,4.9-5.3,8.6h0c.2.1.3.2.2.4s-.2.4-.4.3c-.1.7-.2,1.5-.3,2.2a5.58,5.58,0,0,0,5.2,5.6v6.6c-1.4.6-2.7,1.2-3.9,1.7-1.2-4-2.4-7.8-2.8-9.3-.6-2.3-2.5-7.2-3.3-9.5a18.89,18.89,0,0,0,5.1,2.6h0c0-.2.1-.4.1-.7a16.68,16.68,0,0,1-5.1-2.7.48.48,0,0,0-.7,0,.62.62,0,0,0-.2.7c.8,2.2,2.8,7.5,3.5,9.8.6,2.1,2.8,9.2,4.5,14.8a2.88,2.88,0,0,0,2.9,2.1h66a1.37,1.37,0,0,0,1.4-1.4,1.74,1.74,0,0,0-.3-.7ZM44,78.16h-.4v-6.5h0l-2.7-2.5.3-.3,2.4,2.3v-5.3H44v9.3l1.9-1.9.3.3L44,75.76Zm17.8,2.4a76.58,76.58,0,0,0-17.5,5.2v-6.1a5.55,5.55,0,0,0,5-5.6v-.9H61.8ZM63.1,68h-.7V57h0l-4.6-4.2.5-.5,4.2,3.8v-8.8h.7v15.6l3.2-3.3.5.5-3.7,3.7V68Z"/><path class="cls-2" d="M105.8,56.76l1-3v-.2c-.7-2.5-4.3-2.2-5.2-2.1a.22.22,0,0,0-.2.2l-1.3,3.6c-.1.2,0,.3.2.4h.1a7.16,7.16,0,0,1,4.9,1.3.3.3,0,0,0,.4,0C105.8,56.86,105.8,56.86,105.8,56.76Z"/><path class="cls-2" d="M99.7,56.56,93.2,75c-.1.2,0,.3.2.4h.1a6.62,6.62,0,0,1,4.9,1.4.25.25,0,0,0,.4-.1v-.1L105.3,58c0-.1,0-.3-.1-.3a6.54,6.54,0,0,0-5.4-1.3A.35.35,0,0,0,99.7,56.56Z"/></svg>