<svg id="Layer_1" data-name="Layer 1" xmlns="http://www.w3.org/2000/svg" viewBox="0 0 128 128"><defs><style>.cls-1{fill:#f2faff;}.cls-2{fill:#5fafdc;}</style></defs><rect class="cls-1" x="24.58" y="22.15" width="50" height="50"/><path class="cls-2" d="M104,56.62V50.77l-2.71-1a14.45,14.45,0,0,0-1.21-2.9l1.25-2.6L97.2,40.19l-2.6,1.25a13.89,13.89,0,0,0-2.9-1.21l-1-2.71H84.9l-1,2.71a13.89,13.89,0,0,0-2.9,1.21l-2.6-1.25-4.13,4.13,1.25,2.6a13.89,13.89,0,0,0-1.21,2.9l-2.71,1v1.85H47.93V44H42.54a5.4,5.4,0,0,0-5.4,5.39V99a5.4,5.4,0,0,0,5.4,5.39H91.06V69l.64-1.82A13.89,13.89,0,0,0,94.6,66l2.6,1.25,4.13-4.13-1.25-2.6a13.89,13.89,0,0,0,1.21-2.9ZM39.3,49.38a3.24,3.24,0,0,1,3.24-3.23h3.23V93.59H42.54a5.41,5.41,0,0,0-3.24,1.08Zm3.24,52.84a3.24,3.24,0,1,1,0-6.47h5.39v-41H71.65v1.85l2.71,1a14.45,14.45,0,0,0,1.21,2.9l-.37.77H71.65V59.09H65.18v2.15H56.55V59.09H50.08v6.47h2.16v9.7H50.08v6.47h2.16v9.71H50.08v6.47h6.47V95.75h8.63v2.16h6.47V95.75h8.63v2.16h6.47V91.44H84.59V81.73h2.16V75.26H84.59V69l.31.89h4v32.35ZM82.43,79.58V77.42h2.16v2.16Zm0-4.32H80.28v6.47h2.15v9.71H80.28v2.15H71.65V91.44H65.18v2.15H56.55V91.44H54.4V81.73h2.15V75.26H54.4v-9.7h2.15V63.4h8.63v2.16h6.47V63.4h3l3.79,3.8L81.05,66a14.61,14.61,0,0,0,1.38.67Zm2.16,18.33v2.16H82.43V93.59Zm-15.1,0v2.16H67.34V93.59Zm-15.09,0v2.16H52.24V93.59Zm0-16.17v2.16H52.24V77.42Zm-2.16-14V61.24H54.4V63.4Zm15.1,0V61.24h2.15V63.4Zm32.14-7.48-.14.57a11.73,11.73,0,0,1-1.4,3.37l-.31.5,1.09,2.26-2,2-2.26-1.08-.5.3a11.85,11.85,0,0,1-3.37,1.4l-.57.14-.83,2.36H86.43l-.83-2.36L85,65.21a11.85,11.85,0,0,1-3.37-1.4l-.5-.31L78.9,64.59l-2-2L78,60.36l-.3-.5a11.85,11.85,0,0,1-1.4-3.37l-.14-.57-2.36-.83V52.3l2.36-.83.14-.57a11.85,11.85,0,0,1,1.4-3.37L78,47l-1.08-2.26,2-2,2.26,1.08.5-.3A11.85,11.85,0,0,1,85,42.18L85.6,42l.83-2.36h2.79L90.05,42l.57.14A11.85,11.85,0,0,1,94,43.58l.5.31,2.26-1.09,2,2L97.63,47l.31.5a11.85,11.85,0,0,1,1.4,3.37l.14.57,2.36.83v2.79Z"/><path class="cls-2" d="M87.83,44a9.71,9.71,0,1,0,9.7,9.71A9.71,9.71,0,0,0,87.83,44ZM80.36,54.77H88.9v6.39a7.52,7.52,0,0,1-8.54-6.39Zm10.7,5.73V52.62H80.36a7.54,7.54,0,1,1,10.7,7.88Z"/></svg>