<svg xmlns="http://www.w3.org/2000/svg" xmlns:xlink="http://www.w3.org/1999/xlink" viewBox="0 0 128 128"><defs><style>.a{fill:none;}.b{fill:#f2faff;}.c{clip-path:url(#a);}.d{fill:#5fafdc;}</style><clipPath id="a"><rect class="a" x="33" y="35" width="72.14" height="70.35"/></clipPath></defs><rect class="b" x="24.45" y="26" width="50" height="50"/><g class="c"><g class="c"><path class="d" d="M64.3,85.54a1,1,0,0,1,.74.26l.31.31,5.32,5.33a2.69,2.69,0,0,0,1.94.83,2.65,2.65,0,0,0,1.9-.76l.26-.25L97.41,68.58a1.12,1.12,0,0,1,.63-.36.93.93,0,0,1,.84.27l1.44,1.44c.63.63,1.26,1.29,1.92,1.91a1,1,0,0,1,0,1.56Q88.51,87.11,74.8,100.85l-1.43,1.43a1,1,0,0,1-1.47,0L60.33,90.71a1,1,0,0,1-.32-1,.89.89,0,0,1,.24-.42l3.46-3.47a.88.88,0,0,1,.59-.27"/><path class="d" d="M62.84,60.87A11.53,11.53,0,0,1,48.18,71.93c-.3-.08-.24-.1-.39.17L40.14,85.37a2.61,2.61,0,0,1-1.69,1.29,2.56,2.56,0,0,1-3.13-2.37,2.78,2.78,0,0,1,.41-1.54l4.44-7.7q1.59-2.76,3.19-5.52c.13-.23.13-.23-.06-.42A11.52,11.52,0,1,1,62.45,57.89a12.56,12.56,0,0,1,.39,3m-19.07.37a7.55,7.55,0,1,0,7.58-7.53,7.56,7.56,0,0,0-7.58,7.53"/><path class="d" d="M92.84,70.64V41.43c0-.37,0-.37-.36-.37H49.66c-.39,0-.35-.06-.35.35v6.35a.12.12,0,0,1-.11.13,14.29,14.29,0,0,0-2,.45.34.34,0,0,1,0-.24V38.57c0-.11,0-.16.14-.15H94.61c.34,0,.34,0,.34.34V68.25a.58.58,0,0,1-.19.48c-.58.56-1.14,1.14-1.7,1.7l-.22.21"/><path class="d" d="M86.72,76.78l-1,1c-.65.65-1.3,1.29-1.93,1.94a.64.64,0,0,1-.52.22Q73.13,80,63,80H56.24a2,2,0,0,1-.91-.17A1.68,1.68,0,0,1,54.44,78a1.63,1.63,0,0,1,1.5-1.34l.38,0H85.83a1.9,1.9,0,0,1,.89.15"/><path class="d" d="M55.57,73.21a1,1,0,0,1,.32-.14,12.85,12.85,0,0,0,4.56-2.95.48.48,0,0,1,.38-.15H85.94a1.68,1.68,0,0,1,1.42.62,1.61,1.61,0,0,1,.22,1.72,1.52,1.52,0,0,1-1.34,1,2.55,2.55,0,0,1-.39,0H56.28a2,2,0,0,1-.71-.09"/><path class="d" d="M65.23,98.18H47.38c-.15,0-.2-.05-.18-.19V73.36c.08-.06.13,0,.19,0a13.37,13.37,0,0,0,1.75.39c.13,0,.19.07.17.2V95.18c0,.35,0,.35.35.35H62.35a.59.59,0,0,1,.48.2c.73.75,1.48,1.48,2.22,2.23a.54.54,0,0,1,.18.23"/><path class="d" d="M58.59,50a.73.73,0,0,1,.31,0h27a2.07,2.07,0,0,1,1,.19A1.68,1.68,0,0,1,87.69,52a1.63,1.63,0,0,1-1.5,1.29h-24a.5.5,0,0,1-.47-.23,12.45,12.45,0,0,0-2.89-2.86L58.59,50"/><path class="d" d="M63,66.63a.32.32,0,0,1,0-.19,13,13,0,0,0,1-3c0-.15.08-.19.21-.17H85.89a2.08,2.08,0,0,1,.86.14,1.66,1.66,0,0,1,.94,1.87,1.63,1.63,0,0,1-1.57,1.32,2.08,2.08,0,0,1-.25,0H63Z"/><path class="d" d="M63.62,56.62H85.84a2,2,0,0,1,1,.21,1.67,1.67,0,0,1,.81,1.87A1.63,1.63,0,0,1,86.15,60H64.49c-.21,0-.2,0-.22-.21a13.22,13.22,0,0,0-.56-2.84c0-.08-.05-.17-.09-.29"/><path class="d" d="M80.14,83.3c0,.12-.09.15-.14.2l-3,3a.5.5,0,0,1-.38.15h-8a.49.49,0,0,1-.38-.16c-.62-.63-1.25-1.23-1.86-1.86a2.75,2.75,0,0,0-4,0c-.6.63-1.22,1.23-1.83,1.85a.55.55,0,0,1-.43.18c-1.33,0-2.66,0-4,0a1.66,1.66,0,0,1-.3-3.31,2.34,2.34,0,0,1,.38,0H80.14"/><path class="d" d="M94.92,83.25a.51.51,0,0,1,0,.27V98c0,.1,0,.15-.14.14H80c0-.12.1-.16.15-.21l2.26-2.27a.53.53,0,0,1,.43-.18h9.63c.39,0,.33,0,.33-.34,0-3.2,0-6.41,0-9.61a.62.62,0,0,1,.2-.48c.57-.55,1.12-1.12,1.69-1.68a.55.55,0,0,1,.2-.17"/></g></g></svg>