<svg id="Layer_1" data-name="Layer 1" xmlns="http://www.w3.org/2000/svg" viewBox="0 0 128 128"><defs><style>.cls-1{fill:#f2faff;}.cls-2{fill:#5fafdc;stroke:#5fafdc;stroke-miterlimit:10;stroke-width:0.75px;fill-rule:evenodd;}</style></defs><rect class="cls-1" x="24.58" y="22.15" width="50" height="50"/><path class="cls-2" d="M75,40.58l1.8.45c.1,0,.15.06.15.19V55.81l.56-.08V54.5c0-.12.05-.19.15-.19L84,53.38h.08l6.1,2.06q.15,0,.15.18v1.76l3.66.79q.15,0,.15.18v27.8L97,85.4h.08l6.73.9a.13.13,0,0,1,.15.15s0,.09,0,.11a.12.12,0,0,1-.11.08L70.39,97l-.08,0,0,0L36.79,86.64a.12.12,0,0,1-.11-.08s0-.06,0-.11a.13.13,0,0,1,.15-.15l6.69-.9h.08l2.32.56V53.08a.13.13,0,0,1,.15-.15l3.7-.79V50.38c0-.12,0-.18.11-.18L56,48.14l0,0h0v0l6.43,1c.1,0,.15.07.15.19v1.2l1.12.11V41.22c0-.13,0-.19.12-.19l1.87-.49V39.27c0-.12,0-.18.11-.18l4.19-1.2s.09,0,.11,0l4.64,1.2q.15,0,.15.18v1.31Zm-.37-1.19L70.27,38.3v1.12l4.31,1ZM69.9,38.3l-3.78,1.09v1l3.78-1.08Zm.34,1.46V64.41h2.09V56.48c0-.12.06-.18.19-.18l4-.45V41.33ZM67.73,51.21v13.2h2.13V39.76l-5.72,1.57v9.32l3.44.41A.13.13,0,0,1,67.73,51.21ZM80.52,55.4l3.33.63V53.75l-6,.9V55.7l2.66-.3Zm-7.81,1.23v7.78h4.67a.17.17,0,0,1,.19.19v1.5h1.27c.13,0,.19.06.19.18V89.82l1.31-.27V55.77ZM90,55.73l-5.72-1.94v2.32L90,57.31Zm.11,2L84,56.41h0l-3.26-.6V89.44l13.06-3.18V58.5l-3.67-.78ZM77.2,64.79H63.43V66.1H77.2Zm-6.7,1.68V92l8.15-2V66.47Zm-.23,25.89L43.52,85.78l-5.8.75L70.31,96.66l32.63-10.13-5.84-.75L70.39,92.36S70.32,92.41,70.27,92.36Zm-.15-25.89H62V89.93l8.15,2V66.47Zm-20-14.4,5.72-1.2V48.55l-5.72,2Zm-3.86,1.19V86.08l13.13,3.18V50.57L50,52.48h0Zm16-3.81-6.06-.94V50.8l3.3-.64h0s0,0,0,0l2.69.3Zm-2.5,1.08V89.37l1.79.45V66.28a.17.17,0,0,1,.19-.18h1.27V64.6a.17.17,0,0,1,.19-.19h4.12v-13Z"/></svg>