<svg id="Layer_1" data-name="Layer 1" xmlns="http://www.w3.org/2000/svg" viewBox="0 0 128 128"><defs><style>.cls-1{fill:#f2faff;}.cls-2{fill:#5fafdc;}</style></defs><rect class="cls-1" x="24.58" y="22.15" width="50" height="50"/><path class="cls-2" d="M95.93,74.05c.89-7.74,1.95-16.46-.17-21.1C92.59,43.9,83,37.38,72.78,37.38A24.85,24.85,0,0,0,52.17,48.55H40.92a4.07,4.07,0,0,0-4.07,4.07V69.57a4.07,4.07,0,0,0,4.07,4.07h2.37l-2.2,5.63a1.63,1.63,0,0,0,.94,2.1,2.33,2.33,0,0,0,.44.1l6.19.57L51,93.53a1.63,1.63,0,0,0,1.71,1.38l9.7-.65L62,103.47h1.63l.41-10.19a.82.82,0,0,0-.81-.82h-.09l-10.59.73L50.29,81.79a1.63,1.63,0,0,0-1.46-1.3l-6.2-.57,2.45-6.28H64.39A12.54,12.54,0,0,0,76.94,61.91H95.36a118.13,118.13,0,0,1-1.06,12c-.33,2.61-.57,5-.74,7.09a52.07,52.07,0,0,0,.09,8.47L95,103.22l1.63-.16-1.3-13.77a50.27,50.27,0,0,1-.09-8.23C95.36,79,95.6,76.58,95.93,74.05ZM72.78,39c9.54,0,18.58,6.11,21.52,14.51h0a17.25,17.25,0,0,1,1.06,6.68H76.94A12.54,12.54,0,0,0,64.39,48.55H54.12A23.22,23.22,0,0,1,72.78,39ZM40.92,72a2.45,2.45,0,0,1-2.44-2.45V52.62a2.44,2.44,0,0,1,2.44-2.44h5.71V72Zm23.55,0H48.26V50.18H64.39a10.92,10.92,0,0,1,0,21.84Z"/></svg>