<svg id="Layer_1" data-name="Layer 1" xmlns="http://www.w3.org/2000/svg" viewBox="0 0 128 128"><defs><style>.cls-1{fill:#f2faff;}.cls-2{fill:#5fafdc;}</style></defs><rect class="cls-1" x="24.58" y="22.15" width="50" height="50"/><path class="cls-2" d="M97,32.16l-1.41,1.43L80.19,49H37v56H93V61.81l15.41-15.4L109.84,45l-1.43-1.41-10-10Zm0,5.65L104.19,45,85,64.19,77.81,57ZM41,53H56V67.91l.69.59,8,7,2.62-3L60,66.09V53H76.19l-2.6,2.59-.47.44-.09.63-2,12-.47,2.78L73.34,71l12-2,.63-.09.44-.47L89,65.81V86H79v4H89v11H60V90h6.09l6.41,7.31,3-2.62-7-8L67.91,86H60V79H56v22H41Zm35.34,8.16,4.5,4.5-5.4.9Z"/></svg>