<svg id="Layer_1" data-name="Layer 1" xmlns="http://www.w3.org/2000/svg" viewBox="0 0 128 128"><defs><style>.cls-1{fill:#f2faff;}.cls-2{fill:#5fafdc;}</style></defs><rect class="cls-1" x="24.58" y="22.15" width="50" height="50"/><path class="cls-2" d="M60.1,53.73V63.86A1.13,1.13,0,0,0,61.23,65h2.25V62.73H62.35v-9a3.38,3.38,0,0,1,3.38-3.38h9a3.37,3.37,0,0,1,3.38,3.36V57.1h2.25V53.73a5.61,5.61,0,0,0-5.61-5.63h0a5.51,5.51,0,0,0,1.16-3.38V42.47a5.63,5.63,0,0,0-11.26,0v2.25a5.57,5.57,0,0,0,1.16,3.38h0A5.64,5.64,0,0,0,60.1,53.73Zm6.76-9V42.47a3.38,3.38,0,0,1,6.75,0v2.25a3.38,3.38,0,1,1-6.75,0Z"/><rect class="cls-2" x="64.6" y="53.73" width="2.25" height="9"/><rect class="cls-2" x="73.61" y="53.73" width="2.25" height="4.5"/><path class="cls-2" d="M98.37,48.1h0a5.57,5.57,0,0,0,1.16-3.38V42.47a5.63,5.63,0,1,0-11.26,0v2.25A5.57,5.57,0,0,0,89.4,48.1h0a5.63,5.63,0,0,0-5.63,5.63v4.5H86v-4.5a3.38,3.38,0,0,1,3.38-3.38h9a3.38,3.38,0,0,1,3.38,3.36v9H99.5v-9H97.25V70.61H99.5V65h3.37A1.13,1.13,0,0,0,104,63.86V53.73a5.62,5.62,0,0,0-5.62-5.63Zm-7.88-3.38V42.47a3.38,3.38,0,0,1,6.76,0v2.25a3.38,3.38,0,1,1-6.76,0Z"/><rect class="cls-2" x="88.24" y="53.73" width="2.25" height="5.63"/><path class="cls-2" d="M36.46,80.74a5.64,5.64,0,0,0,5.63,5.63h18V84.12H46.57a5.51,5.51,0,0,0,0-6.75H59V75.11H52.22V65H55.6a1.13,1.13,0,0,0,1.13-1.12V53.73A5.64,5.64,0,0,0,51.1,48.1h0a5.56,5.56,0,0,0,1.15-3.38V42.47a5.63,5.63,0,1,0-11.25,0v2.25a5.56,5.56,0,0,0,1.15,3.38h0a5.64,5.64,0,0,0-5.63,5.63V63.86A1.13,1.13,0,0,0,37.59,65H41V75.23A5.65,5.65,0,0,0,36.46,80.74Zm9,0a3.38,3.38,0,1,1-3.38-3.37A3.38,3.38,0,0,1,45.47,80.74Zm-2.25-36V42.47a3.38,3.38,0,0,1,6.75,0v2.25a3.38,3.38,0,1,1-6.75,0Zm-4.5,18v-9a3.37,3.37,0,0,1,3.37-3.38h9a3.37,3.37,0,0,1,3.37,3.38v9H52.22v-9H50V75.11H47.72V63.86H45.47V75.11H43.22V53.73H41v9Z"/><path class="cls-2" d="M99.78,75.29l-.57,2.18A3.38,3.38,0,1,1,97.53,84L97,86.19a5.63,5.63,0,1,0,2.82-10.9Z"/><rect class="cls-2" x="40.97" y="79.62" width="2.25" height="2.25"/><rect class="cls-2" x="49.97" y="79.62" width="2.25" height="2.25"/><rect class="cls-2" x="54.47" y="79.62" width="2.25" height="2.25"/><rect class="cls-2" x="97.25" y="79.62" width="2.25" height="2.25"/><path class="cls-2" d="M94.66,86.7l-.14.14a18.08,18.08,0,1,0-4.64,5L98,100a3.51,3.51,0,1,0,5-5ZM63.48,77.37A15.76,15.76,0,1,1,79.24,93.12,15.75,15.75,0,0,1,63.48,77.37Zm37,21.38a1.26,1.26,0,0,1-.9-.37l-8-8a18.85,18.85,0,0,0,1.71-1.86l8,8a1.26,1.26,0,0,1-.89,2.15Z"/><path class="cls-2" d="M79.24,63.86a13.51,13.51,0,1,0,13.5,13.51A13.51,13.51,0,0,0,79.24,63.86Zm0,2.25A11.24,11.24,0,0,1,90.49,77.34a11.38,11.38,0,0,1-.94,4.53H68.93A11.25,11.25,0,0,1,79.24,66.11Zm0,22.51a11.23,11.23,0,0,1-9-4.5h18A11.23,11.23,0,0,1,79.24,88.62Z"/><rect class="cls-2" x="71.36" y="72.86" width="2.25" height="6.75"/><rect class="cls-2" x="75.86" y="75.11" width="2.25" height="4.5"/><rect class="cls-2" x="80.36" y="69.49" width="2.25" height="10.13"/><rect class="cls-2" x="84.86" y="75.11" width="2.25" height="4.5"/></svg>