<svg id="Layer_1" data-name="Layer 1" xmlns="http://www.w3.org/2000/svg" viewBox="0 0 128 128"><defs><style>.cls-1{fill:#f2faff;}.cls-2{fill:#5fafdc;}</style></defs><rect class="cls-1" x="24.58" y="22.15" width="50" height="50"/><path class="cls-2" d="M80.91,54.67A1.37,1.37,0,0,1,82.28,56v7.37a1.37,1.37,0,0,1-1.37,1.37h-18a1.37,1.37,0,0,1-1.37-1.37V56a1.37,1.37,0,0,1,1.37-1.37h18m0-.76h-18A2.13,2.13,0,0,0,60.78,56v7.37a2.13,2.13,0,0,0,2.13,2.13h18A2.13,2.13,0,0,0,83,63.41V56a2.09,2.09,0,0,0-2.13-2.13Zm1.37,19.3V83.39H61.54V73.21H82.28m.76-.76H60.78v11.7H83V72.45ZM79.62,91.82l2.66,2.66V102H61.54V91.82H79.62m.3-.76H60.78v11.7H83V94.17l-3.12-3.11Zm-8-55.3c4.33,0,7.9,2.43,7.9,5.39s-3.57,5.4-7.9,5.4-7.9-2.43-7.9-5.4,3.49-5.39,7.9-5.39M72,35c-4.79,0-8.66,2.73-8.66,6.15s3.87,6.16,8.66,6.16,8.65-2.74,8.65-6.16S76.73,35,72,35Zm25.9,56.44a5.39,5.39,0,1,1-5.4,5.39,5.41,5.41,0,0,1,5.4-5.39m0-.76A6.15,6.15,0,1,0,104,96.83a6.13,6.13,0,0,0-6.15-6.15ZM48.09,71.92l6.16,6.15-6.16,6.15-6.15-6.15,6.15-6.15m0-1.07-7.21,7.22,7.21,7.21,7.22-7.21-7.22-7.22Zm.38-10.71H60.78v-.76H47.71v9.8h.76ZM72.33,47.38h-.76v5.17h.76Zm0,18.23h-.76v5.17h.76Zm0,18.54h-.76v5.16h.76Zm25.9-6.46H83v.76H97.47V89.31h.76ZM60.78,96.53H48.47v-9.8h-.76V97.21H60.78Zm10.1-44.44L72,53.53,73,52.09Zm0,18.38L72,71.92,73,70.47ZM47.11,69l1.06,1.44L49.23,69ZM70.88,89,72,90.45,73,89Zm26,0,1.06,1.44L99,89Zm-47.7-1.83-1.07-1.44L47,87.18ZM90,96.53H83v.76h7Zm-.22,1.36,1.44-1.06L89.8,95.77Z"/></svg>