<svg id="Layer_1" data-name="Layer 1" xmlns="http://www.w3.org/2000/svg" viewBox="0 0 128 128"><defs><style>.cls-1{fill:#f2faff;}.cls-2{opacity:0.98;}.cls-3{fill:#5fafdc;}</style></defs><rect class="cls-1" x="24.58" y="22.15" width="50" height="50"/><g class="cls-2"><path class="cls-3" d="M64.32,39,57.88,51.41a62.05,62.05,0,0,1,7.41,1.85h0l.78.75.54.54.19.21,0,.08a.16.16,0,0,1,0,.07.79.79,0,0,0,0,.1c0,.06.08.13.13.21l.38.57c.28.39.54.76.55.76s.7.62,2.28,1.92a23.34,23.34,0,0,0,5.37,2.91l.22,0,.13.06.06,0h1.07c.57,0,1.16-.07,1.6-.12h.13a1.3,1.3,0,0,1,.88.27,6.29,6.29,0,0,0,.59.49,1.76,1.76,0,0,1,.27.2c.12.09.27.22.44.37.34.29.76.67,1.17,1l1.13,1,.4.35a1.22,1.22,0,0,0,.2.17c.09.07.38.21.72.4a4.73,4.73,0,0,1,1.06.72,8.59,8.59,0,0,0,1.67,1c.34.16.66.31.9.44l.3.15a2.33,2.33,0,0,0,1.14-.26A2.78,2.78,0,0,0,91.25,66h0a2.21,2.21,0,0,0-.71-2.2,11.6,11.6,0,0,1-2.15-1.92,11.38,11.38,0,0,0-1.21-1.19c-.51-.45-1-.82-1-.83l-.72-.51c-.39-.27-.81-.57-.9-.62S84,58.32,83.51,58c-.24-.19-.48-.39-.68-.57a1.73,1.73,0,0,1-.45-.55c-.1-.21-.47-.94-.81-1.66-.17-.36-.33-.73-.46-1L81,53.72a1.51,1.51,0,0,1-.06-.36c0-.23,0-.34,0-.39v0l0-.18h0l.06-.06.33,0,.1.08,0,.06a.2.2,0,0,1,0,.06s0,0,0,.06a.08.08,0,0,1,0,.07c0,.06,0,.17,0,.4,0,0,0,.06,0,.16s.07.22.13.37.27.64.44,1c.34.71.7,1.41.81,1.66a2,2,0,0,0,.32.36,7.29,7.29,0,0,0,.63.54c.46.36,1,.69,1,.75s.54.37.93.64l.73.52h0s.47.39,1,.85a8.44,8.44,0,0,1,1.31,1.3,12.29,12.29,0,0,0,2,1.81,2.86,2.86,0,0,1,.9,2.82,3,3,0,0,1-.36.81A3.29,3.29,0,0,1,90,68.3a3.25,3.25,0,0,1-1,.29c0,.07,0,.12.07.2.12.32.25.73.39,1.14.26.81.5,1.59.5,1.59h0v0a18.14,18.14,0,0,0-.18,2.17,4,4,0,0,0,0,.8v.12l0,.1a2.24,2.24,0,0,0,.26.65,1.42,1.42,0,0,0,.34.39.27.27,0,0,1,.19,0l.61.4c.23.16.24.2.47.24h.14a.29.29,0,0,1,.27,0h0l.29,0,.22-.08s0,0,0,0a1.15,1.15,0,0,0,.1-.18h0a3.33,3.33,0,0,0,.14-.37,10.34,10.34,0,0,0,.28-1.43c.08-.52.12-1,.12-1v0l.26-.87c.14-.46.29-.94.37-1.15,0,0,0-.1.06-.26s.06-.37.1-.61c.08-.49.17-1.11.25-1.72.18-1.22.33-2.39.33-2.39a0,0,0,0,1,0,0c0-.28,0-.64-.09-1a15.48,15.48,0,0,0-.49-2.74c-.47-1.41-2-4.62-2-4.62h0s-1.26-4-1.69-5.44a1.92,1.92,0,0,0-1.42-1.17,4.47,4.47,0,0,0-1.12-.17h0L76.86,47.22l-6.4-3.72L64.32,39ZM62.15,54.71,59.61,56,58,56.43a5.08,5.08,0,0,1-.45.26c-.36.19-1,.48-1.91.89a9.81,9.81,0,0,0-2.42,1.55l.64-.24,1.64-.59.61-.2a2.31,2.31,0,0,1,.37-.1c.14,0,.67-.11,1.14-.2l.86-.17.88-.33a11.72,11.72,0,0,1,1.49-.46l.49-.06a1.58,1.58,0,0,1,.34,0,1,1,0,0,1,.22.06L62,57l0,0,.24.21h0s.11.13.22.29l0,0,.1,0,.41-.27a4.73,4.73,0,0,0,.47-.33L63.6,56a.19.19,0,0,1,0-.1.78.78,0,0,0-.18-.49,1.43,1.43,0,0,0-.52-.39,3,3,0,0,0-.78-.26Zm4,2.38-1.42.34-1.6.35-.37.07c.41.4.24.68.15,1s-.09.34-.14.53l.52-.1a8.7,8.7,0,0,0,3.15-1.15c.49-.46.23-.75-.13-.94l-.16-.07Zm-4.83.31a1.59,1.59,0,0,0-.39.05,12.49,12.49,0,0,0-1.4.42l-.89.34h0l-.89.17c-.47.09-1,.19-1.19.21l-.26.08-.59.19L54,59.47l-2.27.84h0l-.88.58a13.9,13.9,0,0,0-2.18,1.71c-1,1.08-3.12,4-3.12,4h0s-3,3-4,4.05a1.94,1.94,0,0,0-.37,1.8,4.38,4.38,0,0,0,.39,1.07h0l1.81,11.58-.27,7.4L42,100l14-.16a62.6,62.6,0,0,1-1.86-7.4v0s.14-.51.29-1c.08-.26.16-.53.23-.74a2.39,2.39,0,0,1,.1-.26.36.36,0,0,1,0-.09l0-.06a.42.42,0,0,0,.07-.1,1.72,1.72,0,0,0,.12-.21c.1-.17.21-.39.32-.61.22-.42.42-.83.42-.83s.21-.91.62-2.92a23.39,23.39,0,0,0,0-6.11,5.38,5.38,0,0,0-.58-1.36A15.39,15.39,0,0,0,55,76.77a1.3,1.3,0,0,1-.24-1c0-.3.15-.55.15-.75a1.77,1.77,0,0,1,0-.33q0-.24.12-.57c.11-.44.24-1,.38-1.52s.27-1.07.37-1.49c.06-.2.1-.38.13-.52a1.48,1.48,0,0,0,.06-.25c0-.11,0-.44,0-.83a5.71,5.71,0,0,1,.15-1.27,8.67,8.67,0,0,0,.06-1.93c0-.37,0-.72,0-1s0-.24,0-.34a2.45,2.45,0,0,0-.77-.88,2.76,2.76,0,0,0-2.21-.5h0a2.22,2.22,0,0,0-1.61,1.66A11.89,11.89,0,0,1,50.91,68a9.6,9.6,0,0,0-.48,1.62c-.16.66-.27,1.23-.28,1.24s0,.43-.11.89-.12,1-.13,1.08a13.24,13.24,0,0,1-.18,1.33c0,.3-.12.6-.19.86a1.8,1.8,0,0,1-.27.66c-.14.18-.61.85-1.08,1.49-.24.32-.49.64-.7.89l-.3.33a.85.85,0,0,1-.28.22l-.35.18h0l-.18,0h0l-.08,0-.19-.28,0-.12,0-.06,0-.05.05,0,.06,0,.37-.18a1.41,1.41,0,0,0,.12-.1l.26-.29c.2-.24.44-.55.67-.86.47-.63.92-1.28,1.09-1.5A2.1,2.1,0,0,0,49,74.9c.06-.23.12-.52.18-.81.1-.57.17-1.16.17-1.26s.07-.66.13-1.12.12-.89.12-.89h0s.12-.6.28-1.28a8.74,8.74,0,0,1,.54-1.77A12.58,12.58,0,0,0,51,65.1,2.89,2.89,0,0,1,53.06,63a2.75,2.75,0,0,1,.89-.07,3.34,3.34,0,0,1,1.85.67,3.6,3.6,0,0,1,.73.74l.13-.15c.23-.26.53-.57.83-.88l1.16-1.19,0,0h0a19.46,19.46,0,0,0,2-.86A2.9,2.9,0,0,0,62,60.13a1.74,1.74,0,0,0,.18-.48.3.3,0,0,1,0-.19s0-.46.07-.73.07-.3,0-.52a.42.42,0,0,0-.07-.13.31.31,0,0,1-.14-.23l0,0c-.1-.13-.18-.22-.18-.23l-.18-.16h-.26Zm8.24,1.15.51.49c.48.43,1,.9,1.35,1.3l.48.53c.13.15.22.29.23.3l0,.1s0,0,0,0a6.12,6.12,0,0,1-.54.77,12.37,12.37,0,0,0-1.14,1.86A4,4,0,0,0,70,65.48h0a1.64,1.64,0,0,0,.1.49,5.66,5.66,0,0,0,.22.66,15.28,15.28,0,0,1,1.07,3.87,1.4,1.4,0,0,1,0,.29s0,0-.08.1a1.3,1.3,0,0,1-.34.18,4,4,0,0,1-.62.16,3.38,3.38,0,0,1-1.23,0,1.75,1.75,0,0,1-.65-.41,2.23,2.23,0,0,0-1.67-.61,2.49,2.49,0,0,0-1.77.59,2,2,0,0,0-.49,1.29,5.79,5.79,0,0,0,.18,1.79,9.46,9.46,0,0,0,1.21,2.5,6.61,6.61,0,0,0,4.7,2.22,7.36,7.36,0,0,0,2.09-.32,33.74,33.74,0,0,1,7.79-1c.8,0,1.21,0,1.43,0a.79.79,0,0,1,.39.13c.25.14.28.18.46.53a2,2,0,0,1,.17.43,5.8,5.8,0,0,1,0,.71c0,2.06-1.31,5.75-3.78,10.67l.82-.28c.17-.06.22-.13.23-.15h0v0l0-.08.69-1.23.49-.87.17-.3a.37.37,0,0,0,.06-.1l0-.06c.07-.1.07-.08.1-.1l.09-.06.27-.18c.21-.15.49-.33.77-.51l1.09-.7h0l2.14-1.21a5.59,5.59,0,0,1,.64-.3l.44-.17h0l1.46-.48.31-.15c.21-.57.39-1.16.55-1.76a18.45,18.45,0,0,0,.55-3.75l-.08-.65-.16-.41-.19-.34-.3-.63-.2-.42,0-1.23.22-1.83a.38.38,0,0,1,.08-.17,18.76,18.76,0,0,0-1.11-3.07l-.5-.23-3-1.92-.38-.18c-.2-.1-.48-.2-.49-.21a1.36,1.36,0,0,1-.48-.21h0l-1.51-1.38s-2.39-2-2.73-2.24A.37.37,0,0,0,79.1,62h0l0,0H79l-1.42.07-1,0H76c-.12,0-.1,0-.13,0l-.1,0-.3-.13-.83-.38L73.47,61h0s-2-1.06-2.17-1.16-.38-.24-.59-.39l-.38-.28h0l-.74-.61ZM59.19,62.49c-.06,0-.07,0-.08,0l0,0-.08.06-.2.2c-.17.16-.38.38-.61.62-.45.48-1,1-1.21,1.36l-.07.1,0,.74-.33,3.51s0,.2,0,.42,0,.53,0,.54a1.36,1.36,0,0,1,0,.53v0l-.53,2s-.66,3-.73,3.46a.47.47,0,0,0,0,.28h0l0,0,.05.07.71,1.23.51.86.17.3a.93.93,0,0,1,0,.1s0,0,0,.07,0,.1,0,.13,0,.06,0,.11,0,.19,0,.32,0,.59,0,.92l.06,1.3h0s0,2.23,0,2.46a5,5,0,0,1-.07.7c0,.25-.07.47-.07.47h0l-.32,1.5,0,.52a19.21,19.21,0,0,0,3.11,3.26l.1-.08.82-.17.6.28.4.14.43.31.45,0,.46-.08.82.09.63.24.57.34.58.42.55.38.47.37.67.2.91.22.73.16.79.16.47-.31,3.21-1.48.35-.23.34-.23s0,0,0,0a1,1,0,0,0-.18-.35,1.33,1.33,0,0,0-.55-.33c-.28-.11-.71-.24-1.39-.44s-1.4-.43-1.61-.52c-1.27-.58-2.17-2.37-2.17-4.47a6.93,6.93,0,0,1,.71-3.06,10.48,10.48,0,0,0,.49-1.55,1.22,1.22,0,0,0-.07-.85,5.24,5.24,0,0,0-1.63-1.52c-1-.7-2.4-1.65-4.57-3A6.55,6.55,0,0,1,61,73.46a10.52,10.52,0,0,1-1.82-5.82,24.45,24.45,0,0,1,.17-4.3c0-.19,0-.36.05-.49a1,1,0,0,0,0-.16.2.2,0,0,0,0-.07.1.1,0,0,0,0-.06.2.2,0,0,0-.14-.07Zm36,5.61c0,.23,0,.42-.09.67-.09.61-.18,1.23-.25,1.73,0,.24-.08.46-.11.62a1.63,1.63,0,0,1-.09.38c0,.13-.22.65-.36,1.1s-.24.82-.25.84,0,.42-.12.93a12.21,12.21,0,0,1-.3,1.53,3.16,3.16,0,0,1-.18.46,1.22,1.22,0,0,1-.18.29.8.8,0,0,1-.16.16.57.57,0,0,1-.13.07h0l-.29.11h0l-.36.06h0v.11c0,.14,0,.32,0,.5s.06.47.07.56l.7.55a.27.27,0,0,1,.07.08.8.8,0,0,0,.52.07,1.66,1.66,0,0,0,.59-.27,3.09,3.09,0,0,0,.59-.57h0l.07-2.85.39-1.65a1.9,1.9,0,0,1,0-.52c0-.4,0-1.06.11-2.1a9.69,9.69,0,0,0-.23-2.86Zm-4.59,8.4c0,.06,0,.11,0,.17a2.24,2.24,0,0,0,.4,1.21.8.8,0,0,0,.7.33h.07c0-.13,0-.3-.06-.48a5.11,5.11,0,0,1,0-.53.4.4,0,0,1,0-.11,1.61,1.61,0,0,1-.72-.34l-.36-.24Zm9.73.18A63.92,63.92,0,0,1,94.87,82h0l-1,.27-.75.18-.27,0h-.54l-.68,0c-.48,0-.93.06-.94.06s-.89.28-2.82.94a23.43,23.43,0,0,0-5.29,3.07,5,5,0,0,0-.88,1.19c-.29.5-.55,1-.73,1.43a1.35,1.35,0,0,1-.76.72,7.19,7.19,0,0,0-.72.25,1.42,1.42,0,0,1-.31.13l-.55.18c-.43.14-1,.3-1.5.45l-1.47.43-.51.15-.25.08c-.11,0-.38.22-.72.42A5.36,5.36,0,0,1,73,92.6a8.23,8.23,0,0,0-1.71.92l-.84.54-.29.17a2.53,2.53,0,0,0-.37,1.11,2.79,2.79,0,0,0,.69,2.17h0a2.21,2.21,0,0,0,2.24.55,11.33,11.33,0,0,1,2.77-.83,11.46,11.46,0,0,0,1.65-.41c.64-.2,1.2-.39,1.21-.4l.81-.35c.43-.18.91-.39,1-.44s.67-.3,1.24-.51a8.26,8.26,0,0,1,.84-.28,1.77,1.77,0,0,1,.7-.1c.23,0,1,.09,1.84.18.4,0,.79.09,1.12.15l.44.09a1,1,0,0,1,.33.13l.33.22h0l.14.14h0l0,.08-.15.31-.12,0h-.07l-.06,0-.06,0-.06,0-.34-.23-.15,0-.38-.08c-.31,0-.69-.1-1.08-.14-.79-.09-1.57-.14-1.85-.18a2.65,2.65,0,0,0-.47.08l-.79.26c-.54.21-1.08.45-1.17.49l-1,.46-.83.35h0s-.58.2-1.24.4a8.58,8.58,0,0,1-1.8.44,12.28,12.28,0,0,0-2.6.8A2.89,2.89,0,0,1,70,97.93a2.68,2.68,0,0,1-.51-.73,3.36,3.36,0,0,1-.36-1.93,5.13,5.13,0,0,1,.1-.51h0l.18-.46h-.06v0l-.2,0L68,94l-1.61-.4h0l0,0a19.41,19.41,0,0,0-1.75-1.29A2.88,2.88,0,0,0,63,91.68a1.49,1.49,0,0,0-.5.08.32.32,0,0,1-.14.14l-.67.31c-.25.12-.29.1-.44.27a.6.6,0,0,0-.08.13.3.3,0,0,1-.12.24s0,0,0,0-.1.27-.11.28l0,.23v0a.88.88,0,0,0,.1.18h0a2.19,2.19,0,0,0,.24.32,13,13,0,0,0,1.08,1c.4.33.74.59.74.59l0,0,0,0,.6.68c.32.36.65.73.79.92l.19.18.46.41,1.34,1.11,1.87,1.53,0,0c.26.13.57.29.94.46a14.32,14.32,0,0,0,2.58,1c1.46.34,5,.66,5,.66h0s4.1,1,5.52,1.39a1.9,1.9,0,0,0,1.74-.59,4.48,4.48,0,0,0,.73-.87h0L94,95.05l6.53-3.52,7-2.88-7.22-12ZM60.59,91.08l-.14,0a.83.83,0,0,0-.65.42s0,0,0,.06l.44.21.47.23.1.07a1.25,1.25,0,0,1,.4-.32h0l.41-.19h0l.25-.11-.15-.08a2.51,2.51,0,0,0-1.1-.31Zm-1.16,1-.83.31a.18.18,0,0,1-.1,0,.79.79,0,0,0-.33.42,1.51,1.51,0,0,0-.08.64,2.81,2.81,0,0,0,.18.8l2.39,1.54L61.87,97s.13.06.45.26.89.57,1.73,1.19a9.81,9.81,0,0,0,2.56,1.3l-.52-.43c-.48-.39-1-.79-1.34-1.12-.19-.16-.36-.3-.48-.42a1.45,1.45,0,0,1-.28-.27c-.08-.11-.44-.52-.75-.88L62.66,96s-.34-.26-.74-.59a10.92,10.92,0,0,1-1.14-1.06,2.74,2.74,0,0,1-.3-.39,1.81,1.81,0,0,1-.16-.3,1.31,1.31,0,0,1,0-.22c0-.06,0-.15,0-.15v0l.06-.3v0a3.54,3.54,0,0,1,.13-.34v0l-.1-.06L60,92.34l-.52-.24Z"/></g></svg>